%TF.GenerationSoftware,KiCad,Pcbnew,9.0.7*%
%TF.CreationDate,2026-03-25T19:51:49+02:00*%
%TF.ProjectId,NetPuck5G,4e657450-7563-46b3-9547-2e6b69636164,rev?*%
%TF.SameCoordinates,Original*%
%TF.FileFunction,Copper,L2,Bot*%
%TF.FilePolarity,Positive*%
%FSLAX46Y46*%
G04 Gerber Fmt 4.6, Leading zero omitted, Abs format (unit mm)*
G04 Created by KiCad (PCBNEW 9.0.7) date 2026-03-25 19:51:49*
%MOMM*%
%LPD*%
G01*
G04 APERTURE LIST*
G04 Aperture macros list*
%AMRoundRect*
0 Rectangle with rounded corners*
0 $1 Rounding radius*
0 $2 $3 $4 $5 $6 $7 $8 $9 X,Y pos of 4 corners*
0 Add a 4 corners polygon primitive as box body*
4,1,4,$2,$3,$4,$5,$6,$7,$8,$9,$2,$3,0*
0 Add four circle primitives for the rounded corners*
1,1,$1+$1,$2,$3*
1,1,$1+$1,$4,$5*
1,1,$1+$1,$6,$7*
1,1,$1+$1,$8,$9*
0 Add four rect primitives between the rounded corners*
20,1,$1+$1,$2,$3,$4,$5,0*
20,1,$1+$1,$4,$5,$6,$7,0*
20,1,$1+$1,$6,$7,$8,$9,0*
20,1,$1+$1,$8,$9,$2,$3,0*%
G04 Aperture macros list end*
%TA.AperFunction,ComponentPad*%
%ADD10R,1.700000X1.700000*%
%TD*%
%TA.AperFunction,ComponentPad*%
%ADD11C,1.700000*%
%TD*%
%TA.AperFunction,ComponentPad*%
%ADD12RoundRect,0.250000X1.050000X1.050000X-1.050000X1.050000X-1.050000X-1.050000X1.050000X-1.050000X0*%
%TD*%
%TA.AperFunction,ComponentPad*%
%ADD13C,2.600000*%
%TD*%
%TA.AperFunction,ViaPad*%
%ADD14C,0.600000*%
%TD*%
%TA.AperFunction,Conductor*%
%ADD15C,1.000000*%
%TD*%
%TA.AperFunction,Conductor*%
%ADD16C,0.200000*%
%TD*%
G04 APERTURE END LIST*
D10*
%TO.P,ETH_R1,1,Pin_1*%
%TO.N,GND*%
X113000000Y-13800000D03*
D11*
%TO.P,ETH_R1,2,Pin_2*%
%TO.N,/3V3*%
X113000000Y-16340000D03*
%TO.P,ETH_R1,3,Pin_3*%
%TO.N,unconnected-(ETH_R1-Pin_3-Pad3)*%
X113000000Y-18880000D03*
%TO.P,ETH_R1,4,Pin_4*%
%TO.N,unconnected-(ETH_R1-Pin_4-Pad4)*%
X113000000Y-21420000D03*
%TO.P,ETH_R1,5,Pin_5*%
%TO.N,/W5500_RST*%
X113000000Y-23960000D03*
%TO.P,ETH_R1,6,Pin_6*%
%TO.N,/SPI_MISO*%
X113000000Y-26500000D03*
%TD*%
D10*
%TO.P,BW-16_R1,1,Pin_1*%
%TO.N,unconnected-(BW-16_R1-Pin_1-Pad1)*%
X80860000Y-13900000D03*
D11*
%TO.P,BW-16_R1,2,Pin_2*%
%TO.N,unconnected-(BW-16_R1-Pin_2-Pad2)*%
X80860000Y-16440000D03*
%TO.P,BW-16_R1,3,Pin_3*%
%TO.N,unconnected-(BW-16_R1-Pin_3-Pad3)*%
X80860000Y-18980000D03*
%TO.P,BW-16_R1,4,Pin_4*%
%TO.N,unconnected-(BW-16_R1-Pin_4-Pad4)*%
X80860000Y-21520000D03*
%TO.P,BW-16_R1,5,Pin_5*%
%TO.N,unconnected-(BW-16_R1-Pin_5-Pad5)*%
X80860000Y-24060000D03*
%TO.P,BW-16_R1,6,Pin_6*%
%TO.N,unconnected-(BW-16_R1-Pin_6-Pad6)*%
X80860000Y-26600000D03*
%TO.P,BW-16_R1,7,Pin_7*%
%TO.N,GND*%
X80860000Y-29140000D03*
%TO.P,BW-16_R1,8,Pin_8*%
%TO.N,unconnected-(BW-16_R1-Pin_8-Pad8)*%
X80860000Y-31680000D03*
%TO.P,BW-16_R1,9,Pin_9*%
%TO.N,unconnected-(BW-16_R1-Pin_9-Pad9)*%
X80860000Y-34220000D03*
%TD*%
D10*
%TO.P,ESP_R1,1,Pin_1*%
%TO.N,GND*%
X45500000Y-13900000D03*
D11*
%TO.P,ESP_R1,2,Pin_2*%
%TO.N,/RIGHT*%
X45500000Y-16440000D03*
%TO.P,ESP_R1,3,Pin_3*%
%TO.N,/LEFT*%
X45500000Y-18980000D03*
%TO.P,ESP_R1,4,Pin_4*%
%TO.N,/DOWN*%
X45500000Y-21520000D03*
%TO.P,ESP_R1,5,Pin_5*%
%TO.N,/UP*%
X45500000Y-24060000D03*
%TO.P,ESP_R1,6,Pin_6*%
%TO.N,GND*%
X45500000Y-26600000D03*
%TO.P,ESP_R1,7,Pin_7*%
%TO.N,/MID*%
X45500000Y-29140000D03*
%TO.P,ESP_R1,8,Pin_8*%
%TO.N,unconnected-(ESP_R1-Pin_8-Pad8)*%
X45500000Y-31680000D03*
%TO.P,ESP_R1,9,Pin_9*%
%TO.N,/BW16_RX*%
X45500000Y-34220000D03*
%TO.P,ESP_R1,10,Pin_10*%
%TO.N,/BW16_TX*%
X45500000Y-36760000D03*
%TO.P,ESP_R1,11,Pin_11*%
%TO.N,GND*%
X45500000Y-39300000D03*
%TO.P,ESP_R1,12,Pin_12*%
%TO.N,unconnected-(ESP_R1-Pin_12-Pad12)*%
X45500000Y-41840000D03*
%TO.P,ESP_R1,13,Pin_13*%
%TO.N,unconnected-(ESP_R1-Pin_13-Pad13)*%
X45500000Y-44380000D03*
%TO.P,ESP_R1,14,Pin_14*%
%TO.N,/BW16_EN*%
X45500000Y-46920000D03*
%TO.P,ESP_R1,15,Pin_15*%
%TO.N,/SPI_MISO*%
X45500000Y-49460000D03*
%TO.P,ESP_R1,16,Pin_16*%
%TO.N,GND*%
X45500000Y-52000000D03*
%TO.P,ESP_R1,17,Pin_17*%
%TO.N,/SPI_SCK*%
X45500000Y-54540000D03*
%TO.P,ESP_R1,18,Pin_18*%
%TO.N,/SPI_MOSI*%
X45500000Y-57080000D03*
%TD*%
D10*
%TO.P,STICK1,1,Pin_1*%
%TO.N,GND*%
X156920000Y-20250000D03*
D11*
%TO.P,STICK1,2,Pin_2*%
%TO.N,/UP*%
X159460000Y-20250000D03*
%TO.P,STICK1,3,Pin_3*%
%TO.N,/DOWN*%
X162000000Y-20250000D03*
%TO.P,STICK1,4,Pin_4*%
%TO.N,/LEFT*%
X164540000Y-20250000D03*
%TO.P,STICK1,5,Pin_5*%
%TO.N,/RIGHT*%
X167080000Y-20250000D03*
%TO.P,STICK1,6,Pin_6*%
%TO.N,/MID*%
X169620000Y-20250000D03*
%TO.P,STICK1,7,Pin_7*%
%TO.N,unconnected-(STICK1-Pin_7-Pad7)*%
X172160000Y-20250000D03*
%TO.P,STICK1,8,Pin_8*%
%TO.N,unconnected-(STICK1-Pin_8-Pad8)*%
X174700000Y-20250000D03*
%TD*%
D10*
%TO.P,ESP_L1,1,Pin_1*%
%TO.N,+5V*%
X25500000Y-13900000D03*
D11*
%TO.P,ESP_L1,2,Pin_2*%
%TO.N,unconnected-(ESP_L1-Pin_2-Pad2)*%
X25500000Y-16440000D03*
%TO.P,ESP_L1,3,Pin_3*%
%TO.N,GND*%
X25500000Y-18980000D03*
%TO.P,ESP_L1,4,Pin_4*%
%TO.N,unconnected-(ESP_L1-Pin_4-Pad4)*%
X25500000Y-21520000D03*
%TO.P,ESP_L1,5,Pin_5*%
%TO.N,/3V3*%
X25500000Y-24060000D03*
%TO.P,ESP_L1,6,Pin_6*%
%TO.N,/LCD_CS*%
X25500000Y-26600000D03*
%TO.P,ESP_L1,7,Pin_7*%
%TO.N,/W5500_CS*%
X25500000Y-29140000D03*
%TO.P,ESP_L1,8,Pin_8*%
%TO.N,GND*%
X25500000Y-31680000D03*
%TO.P,ESP_L1,9,Pin_9*%
%TO.N,/LCD_DC*%
X25500000Y-34220000D03*
%TO.P,ESP_L1,10,Pin_10*%
%TO.N,/LCD_RST*%
X25500000Y-36760000D03*
%TO.P,ESP_L1,11,Pin_11*%
%TO.N,unconnected-(ESP_L1-Pin_11-Pad11)*%
X25500000Y-39300000D03*
%TO.P,ESP_L1,12,Pin_12*%
%TO.N,/W5500_RST*%
X25500000Y-41840000D03*
%TO.P,ESP_L1,13,Pin_13*%
%TO.N,GND*%
X25500000Y-44380000D03*
%TO.P,ESP_L1,14,Pin_14*%
%TO.N,/LCD_BL*%
X25500000Y-46920000D03*
%TO.P,ESP_L1,15,Pin_15*%
%TO.N,unconnected-(ESP_L1-Pin_15-Pad15)*%
X25500000Y-49460000D03*
%TO.P,ESP_L1,16,Pin_16*%
%TO.N,unconnected-(ESP_L1-Pin_16-Pad16)*%
X25500000Y-52000000D03*
%TO.P,ESP_L1,17,Pin_17*%
%TO.N,unconnected-(ESP_L1-Pin_17-Pad17)*%
X25500000Y-54540000D03*
%TO.P,ESP_L1,18,Pin_18*%
%TO.N,GND*%
X25500000Y-57080000D03*
%TD*%
D10*
%TO.P,ETH_L1,1,Pin_1*%
%TO.N,GND*%
X92680000Y-13800000D03*
D11*
%TO.P,ETH_L1,2,Pin_2*%
X92680000Y-16340000D03*
%TO.P,ETH_L1,3,Pin_3*%
%TO.N,/SPI_MOSI*%
X92680000Y-18880000D03*
%TO.P,ETH_L1,4,Pin_4*%
%TO.N,/SPI_SCK*%
X92680000Y-21420000D03*
%TO.P,ETH_L1,5,Pin_5*%
%TO.N,/W5500_CS*%
X92680000Y-23960000D03*
%TO.P,ETH_L1,6,Pin_6*%
%TO.N,unconnected-(ETH_L1-Pin_6-Pad6)*%
X92680000Y-26500000D03*
%TD*%
D10*
%TO.P,MH-CD42,1,Pin_1*%
%TO.N,+5V*%
X80610000Y-58550000D03*
D11*
%TO.P,MH-CD42,2,Pin_2*%
%TO.N,GND*%
X80610000Y-61090000D03*
%TO.P,MH-CD42,3,Pin_3*%
%TO.N,/VBAT*%
X80610000Y-63630000D03*
%TO.P,MH-CD42,4,Pin_4*%
%TO.N,GND*%
X80610000Y-66170000D03*
%TO.P,MH-CD42,5,Pin_5*%
X80610000Y-68710000D03*
%TO.P,MH-CD42,6,Pin_6*%
%TO.N,/VUSB*%
X80610000Y-71250000D03*
%TD*%
D10*
%TO.P,SCR1,1,Pin_1*%
%TO.N,/3V3*%
X95000000Y-46880000D03*
D11*
%TO.P,SCR1,2,Pin_2*%
%TO.N,GND*%
X95000000Y-49420000D03*
%TO.P,SCR1,3,Pin_3*%
%TO.N,/SPI_MOSI*%
X95000000Y-51960000D03*
%TO.P,SCR1,4,Pin_4*%
%TO.N,/SPI_SCK*%
X95000000Y-54500000D03*
%TO.P,SCR1,5,Pin_5*%
%TO.N,/LCD_CS*%
X95000000Y-57040000D03*
%TO.P,SCR1,6,Pin_6*%
%TO.N,/LCD_DC*%
X95000000Y-59580000D03*
%TO.P,SCR1,7,Pin_7*%
%TO.N,/LCD_RST*%
X95000000Y-62120000D03*
%TO.P,SCR1,8,Pin_8*%
%TO.N,/LCD_BL*%
X95000000Y-64660000D03*
%TD*%
D12*
%TO.P,BTR1,1,Pin_1*%
%TO.N,/VBAT*%
X145500000Y-32500000D03*
D13*
%TO.P,BTR1,2,Pin_2*%
%TO.N,GND*%
X140700000Y-32500000D03*
%TD*%
D10*
%TO.P,BW-16_L1,1,Pin_1*%
%TO.N,unconnected-(BW-16_L1-Pin_1-Pad1)*%
X58000000Y-13900000D03*
D11*
%TO.P,BW-16_L1,2,Pin_2*%
%TO.N,unconnected-(BW-16_L1-Pin_2-Pad2)*%
X58000000Y-16440000D03*
%TO.P,BW-16_L1,3,Pin_3*%
%TO.N,unconnected-(BW-16_L1-Pin_3-Pad3)*%
X58000000Y-18980000D03*
%TO.P,BW-16_L1,4,Pin_4*%
%TO.N,/BW16_RX*%
X58000000Y-21520000D03*
%TO.P,BW-16_L1,5,Pin_5*%
%TO.N,/BW16_TX*%
X58000000Y-24060000D03*
%TO.P,BW-16_L1,6,Pin_6*%
%TO.N,/BW16_EN*%
X58000000Y-26600000D03*
%TO.P,BW-16_L1,7,Pin_7*%
%TO.N,GND*%
X58000000Y-29140000D03*
%TO.P,BW-16_L1,8,Pin_8*%
%TO.N,unconnected-(BW-16_L1-Pin_8-Pad8)*%
X58000000Y-31680000D03*
%TO.P,BW-16_L1,9,Pin_9*%
%TO.N,+5V*%
X58000000Y-34220000D03*
%TD*%
D10*
%TO.P,USB1,1,Pin_1*%
%TO.N,GND*%
X123460000Y-32500000D03*
D11*
%TO.P,USB1,2,Pin_2*%
%TO.N,/D+*%
X126000000Y-32500000D03*
%TO.P,USB1,3,Pin_3*%
%TO.N,/D-*%
X128540000Y-32500000D03*
D10*
%TO.P,USB1,4,Pin_4*%
%TO.N,/VUSB*%
X131080000Y-32500000D03*
%TD*%
D14*
%TO.N,/VBAT*%
X87334100Y-34047200D03*
%TO.N,GND*%
X47750000Y-37750000D03*
X83000000Y-30500000D03*
X116500000Y-13750000D03*
X90500000Y-13750000D03*
X95000000Y-13750000D03*
%TO.N,/LCD_BL*%
X25211900Y-60924800D03*
%TO.N,/LCD_CS*%
X34402800Y-60470400D03*
%TO.N,/W5500_CS*%
X87334100Y-25088000D03*
X58865600Y-40020000D03*
X81417700Y-36860700D03*
%TO.N,/LCD_RST*%
X30338800Y-41126400D03*
X90017800Y-42209800D03*
%TO.N,/LCD_DC*%
X31128300Y-57938400D03*
%TO.N,/SPI_MISO*%
X99166900Y-43006400D03*
%TO.N,/W5500_RST*%
X110999700Y-37033600D03*
%TO.N,/3V3*%
X37044700Y-58991600D03*
%TO.N,/SPI_SCK*%
X91322400Y-45439800D03*
%TD*%
D15*
%TO.N,/VBAT*%
X87334100Y-56905900D02*
X80610000Y-63630000D01*
X87334100Y-34047200D02*
X87334100Y-56905900D01*
D16*
%TO.N,GND*%
X83750000Y-57950000D02*
X80610000Y-61090000D01*
X154750000Y-20250000D02*
X156920000Y-20250000D01*
X126960000Y-29000000D02*
X146000000Y-29000000D01*
X82011000Y-30291000D02*
X82011000Y-35134614D01*
X82011000Y-35134614D02*
X80616700Y-36528914D01*
X96351000Y-50771000D02*
X96351000Y-64936760D01*
X96351000Y-64936760D02*
X92577760Y-68710000D01*
X123460000Y-32500000D02*
X123460000Y-24260000D01*
X123460000Y-32500000D02*
X106540000Y-49420000D01*
X80616700Y-48366700D02*
X83750000Y-51500000D01*
X95000000Y-49420000D02*
X96351000Y-50771000D01*
X140700000Y-32500000D02*
X139349000Y-31149000D01*
X83750000Y-51500000D02*
X83750000Y-57950000D01*
X24610900Y-61173743D02*
X32147157Y-68710000D01*
X124811000Y-31149000D02*
X123460000Y-32500000D01*
X25500000Y-57080000D02*
X24610900Y-57969100D01*
X24610900Y-57969100D02*
X24610900Y-61173743D01*
X80860000Y-29140000D02*
X82011000Y-30291000D01*
X146000000Y-29000000D02*
X154750000Y-20250000D01*
X123460000Y-24260000D02*
X113000000Y-13800000D01*
X139349000Y-31149000D02*
X124811000Y-31149000D01*
X123460000Y-32500000D02*
X126960000Y-29000000D01*
X106540000Y-49420000D02*
X95000000Y-49420000D01*
X32147157Y-68710000D02*
X80610000Y-68710000D01*
X92577760Y-68710000D02*
X80610000Y-68710000D01*
X80616700Y-36528914D02*
X80616700Y-48366700D01*
%TO.N,/BW16_EN*%
X56610200Y-35809800D02*
X56610200Y-27989800D01*
X56610200Y-27989800D02*
X58000000Y-26600000D01*
X45500000Y-46920000D02*
X56610200Y-35809800D01*
D15*
%TO.N,+5V*%
X46237600Y-58852000D02*
X44737200Y-58852000D01*
X80610000Y-56798300D02*
X80578300Y-56798300D01*
X80610000Y-58550000D02*
X80610000Y-56798300D01*
X40021400Y-28421400D02*
X25500000Y-13900000D01*
X44737200Y-58852000D02*
X40021400Y-54136200D01*
X40021400Y-54136200D02*
X40021400Y-28421400D01*
X57663900Y-34556100D02*
X57663900Y-47425700D01*
X80578300Y-56798300D02*
X58000000Y-34220000D01*
X57663900Y-47425700D02*
X46237600Y-58852000D01*
X58000000Y-34220000D02*
X57663900Y-34556100D01*
D16*
%TO.N,/BW16_RX*%
X45500000Y-34020000D02*
X45500000Y-34220000D01*
X58000000Y-21520000D02*
X45500000Y-34020000D01*
%TO.N,/LCD_BL*%
X26676500Y-48096500D02*
X26676500Y-59460200D01*
X25500000Y-46920000D02*
X26676500Y-48096500D01*
X26676500Y-59460200D02*
X25211900Y-60924800D01*
%TO.N,/LCD_CS*%
X34402800Y-35502800D02*
X34402800Y-60470400D01*
X25500000Y-26600000D02*
X34402800Y-35502800D01*
%TO.N,/W5500_CS*%
X58865600Y-47705100D02*
X58865600Y-40020000D01*
X45262300Y-61308400D02*
X58865600Y-47705100D01*
X87334100Y-25088000D02*
X87334100Y-30944300D01*
X32654200Y-36294200D02*
X32654200Y-59866900D01*
X34095700Y-61308400D02*
X45262300Y-61308400D01*
X32654200Y-59866900D02*
X34095700Y-61308400D01*
X87334100Y-30944300D02*
X81417700Y-36860700D01*
X25500000Y-29140000D02*
X32654200Y-36294200D01*
%TO.N,/LCD_RST*%
X90017800Y-57137800D02*
X95000000Y-62120000D01*
X25500000Y-36760000D02*
X29866400Y-41126400D01*
X90017800Y-42209800D02*
X90017800Y-57137800D01*
X29866400Y-41126400D02*
X30338800Y-41126400D01*
%TO.N,/LCD_DC*%
X25500000Y-34220000D02*
X31128300Y-39848300D01*
X31128300Y-39848300D02*
X31128300Y-57938400D01*
%TO.N,/SPI_MISO*%
X99166900Y-43006400D02*
X113000000Y-29173300D01*
X113000000Y-29173300D02*
X113000000Y-26500000D01*
%TO.N,/BW16_TX*%
X58000000Y-24260000D02*
X58000000Y-24060000D01*
X45500000Y-36760000D02*
X58000000Y-24260000D01*
%TO.N,/W5500_RST*%
X114401500Y-25361500D02*
X114401500Y-33631800D01*
X114401500Y-33631800D02*
X110999700Y-37033600D01*
X113000000Y-23960000D02*
X114401500Y-25361500D01*
D15*
%TO.N,/3V3*%
X96028400Y-33311600D02*
X113000000Y-16340000D01*
X95000000Y-46880000D02*
X96028400Y-45851600D01*
X37044700Y-58991600D02*
X37044700Y-35604700D01*
X96028400Y-45851600D02*
X96028400Y-33311600D01*
X37044700Y-35604700D02*
X25500000Y-24060000D01*
D16*
%TO.N,/SPI_SCK*%
X91322400Y-22777600D02*
X92680000Y-21420000D01*
X95000000Y-54500000D02*
X91322400Y-50822400D01*
X91322400Y-45439800D02*
X91322400Y-22777600D01*
X91322400Y-50822400D02*
X91322400Y-45439800D01*
%TO.N,/SPI_MOSI*%
X94080100Y-45179700D02*
X94080100Y-20280100D01*
X95000000Y-51960000D02*
X93642400Y-50602400D01*
X94080100Y-20280100D02*
X92680000Y-18880000D01*
X93642400Y-45617400D02*
X94080100Y-45179700D01*
X93642400Y-50602400D02*
X93642400Y-45617400D01*
D15*
%TO.N,/VUSB*%
X121250000Y-71250000D02*
X131080000Y-61420000D01*
X80610000Y-71250000D02*
X121250000Y-71250000D01*
X131080000Y-61420000D02*
X131080000Y-32500000D01*
%TD*%
%TA.AperFunction,Conductor*%
%TO.N,GND*%
G36*
X26957786Y-16782079D02*
G01*
X26990756Y-16805676D01*
X38984581Y-28799501D01*
X39018066Y-28860824D01*
X39020900Y-28887182D01*
X39020900Y-54234741D01*
X39020900Y-54234743D01*
X39020899Y-54234743D01*
X39059347Y-54428029D01*
X39059350Y-54428039D01*
X39134764Y-54610107D01*
X39134771Y-54610120D01*
X39244259Y-54773980D01*
X39244260Y-54773981D01*
X39244261Y-54773982D01*
X39383618Y-54913339D01*
X39383619Y-54913339D01*
X39390686Y-54920406D01*
X39390685Y-54920406D01*
X39390688Y-54920408D01*
X43960060Y-59489781D01*
X43960061Y-59489782D01*
X44037082Y-59566803D01*
X44099419Y-59629140D01*
X44184946Y-59686287D01*
X44263286Y-59738632D01*
X44369945Y-59782811D01*
X44445364Y-59814051D01*
X44638654Y-59852499D01*
X44638657Y-59852500D01*
X44638659Y-59852500D01*
X44835740Y-59852500D01*
X45569603Y-59852500D01*
X45636642Y-59872185D01*
X45682397Y-59924989D01*
X45692341Y-59994147D01*
X45663316Y-60057703D01*
X45657284Y-60064181D01*
X45049884Y-60671581D01*
X44988561Y-60705066D01*
X44962203Y-60707900D01*
X35322836Y-60707900D01*
X35255797Y-60688215D01*
X35210042Y-60635411D01*
X35200098Y-60566253D01*
X35201218Y-60559711D01*
X35203300Y-60549243D01*
X35203300Y-60391555D01*
X35203299Y-60391553D01*
X35195926Y-60354485D01*
X35172537Y-60236903D01*
X35163631Y-60215402D01*
X35112197Y-60091227D01*
X35112190Y-60091214D01*
X35024198Y-59959525D01*
X35003320Y-59892847D01*
X35003300Y-59890634D01*
X35003300Y-35591860D01*
X35003301Y-35591847D01*
X35003301Y-35423744D01*
X34991450Y-35379516D01*
X34962377Y-35271016D01*
X34962375Y-35271014D01*
X34960273Y-35263166D01*
X34963360Y-35262338D01*
X34957490Y-35207804D01*
X34988757Y-35145321D01*
X35048842Y-35109661D01*
X35118667Y-35112146D01*
X35167204Y-35142124D01*
X36007881Y-35982801D01*
X36041366Y-36044124D01*
X36044200Y-36070482D01*
X36044200Y-59090141D01*
X36044200Y-59090143D01*
X36044199Y-59090143D01*
X36082647Y-59283429D01*
X36082650Y-59283439D01*
X36158064Y-59465507D01*
X36158071Y-59465520D01*
X36267560Y-59629381D01*
X36267563Y-59629385D01*
X36406914Y-59768736D01*
X36406918Y-59768739D01*
X36570779Y-59878228D01*
X36570792Y-59878235D01*
X36752860Y-59953649D01*
X36752865Y-59953651D01*
X36752869Y-59953651D01*
X36752870Y-59953652D01*
X36946156Y-59992100D01*
X36946159Y-59992100D01*
X37143243Y-59992100D01*
X37273282Y-59966232D01*
X37336535Y-59953651D01*
X37518614Y-59878232D01*
X37682482Y-59768739D01*
X37821839Y-59629382D01*
X37931332Y-59465514D01*
X37938640Y-59447872D01*
X38006749Y-59283439D01*
X38006751Y-59283435D01*
X38045200Y-59090141D01*
X38045200Y-35506159D01*
X38045200Y-35506156D01*
X38006752Y-35312870D01*
X38006751Y-35312869D01*
X38006751Y-35312865D01*
X37937353Y-35145321D01*
X37931335Y-35130792D01*
X37931328Y-35130779D01*
X37821840Y-34966919D01*
X37782737Y-34927816D01*
X37682482Y-34827561D01*
X37682481Y-34827560D01*
X26886423Y-24031502D01*
X26852938Y-23970179D01*
X26850655Y-23954697D01*
X26850500Y-23953718D01*
X26850500Y-23953713D01*
X26817246Y-23743757D01*
X26751557Y-23541588D01*
X26655051Y-23352184D01*
X26655049Y-23352181D01*
X26655048Y-23352179D01*
X26530109Y-23180213D01*
X26379786Y-23029890D01*
X26207820Y-22904951D01*
X26207115Y-22904591D01*
X26199054Y-22900485D01*
X26148259Y-22852512D01*
X26131463Y-22784692D01*
X26153999Y-22718556D01*
X26199054Y-22679515D01*
X26207816Y-22675051D01*
X26273277Y-22627491D01*
X26379786Y-22550109D01*
X26379788Y-22550106D01*
X26379792Y-22550104D01*
X26530104Y-22399792D01*
X26530106Y-22399788D01*
X26530109Y-22399786D01*
X26655048Y-22227820D01*
X26655047Y-22227820D01*
X26655051Y-22227816D01*
X26751557Y-22038412D01*
X26817246Y-21836243D01*
X26850500Y-21626287D01*
X26850500Y-21413713D01*
X26817246Y-21203757D01*
X26751557Y-21001588D01*
X26655051Y-20812184D01*
X26655049Y-20812181D01*
X26655048Y-20812179D01*
X26530109Y-20640213D01*
X26379786Y-20489890D01*
X26207817Y-20364949D01*
X26198504Y-20360204D01*
X26147707Y-20312230D01*
X26130912Y-20244409D01*
X26153449Y-20178274D01*
X26198507Y-20139232D01*
X26207555Y-20134622D01*
X26261716Y-20095270D01*
X26261717Y-20095270D01*
X25629408Y-19462962D01*
X25692993Y-19445925D01*
X25807007Y-19380099D01*
X25900099Y-19287007D01*
X25965925Y-19172993D01*
X25982962Y-19109408D01*
X26615270Y-19741717D01*
X26615270Y-19741716D01*
X26654622Y-19687554D01*
X26751095Y-19498217D01*
X26816757Y-19296130D01*
X26816757Y-19296127D01*
X26850000Y-19086246D01*
X26850000Y-18873753D01*
X26816757Y-18663872D01*
X26816757Y-18663869D01*
X26751095Y-18461782D01*
X26654624Y-18272449D01*
X26615270Y-18218282D01*
X26615269Y-18218282D01*
X25982962Y-18850590D01*
X25965925Y-18787007D01*
X25900099Y-18672993D01*
X25807007Y-18579901D01*
X25692993Y-18514075D01*
X25629409Y-18497037D01*
X26261716Y-17864728D01*
X26207547Y-17825373D01*
X26207547Y-17825372D01*
X26198500Y-17820763D01*
X26147706Y-17772788D01*
X26130912Y-17704966D01*
X26153451Y-17638832D01*
X26198508Y-17599793D01*
X26207816Y-17595051D01*
X26298040Y-17529500D01*
X26379786Y-17470109D01*
X26379788Y-17470106D01*
X26379792Y-17470104D01*
X26530104Y-17319792D01*
X26530106Y-17319788D01*
X26530109Y-17319786D01*
X26655048Y-17147820D01*
X26655047Y-17147820D01*
X26655051Y-17147816D01*
X26751557Y-16958412D01*
X26785146Y-16855035D01*
X26824581Y-16797364D01*
X26888939Y-16770165D01*
X26957786Y-16782079D01*
G37*
%TD.AperFunction*%
%TA.AperFunction,Conductor*%
G36*
X27055203Y-31544884D02*
G01*
X27061681Y-31550916D01*
X32017381Y-36506616D01*
X32050866Y-36567939D01*
X32053700Y-36594297D01*
X32053700Y-57473722D01*
X32044160Y-57506210D01*
X32035196Y-57538888D01*
X32034338Y-57539657D01*
X32034015Y-57540761D01*
X32008443Y-57562918D01*
X31983217Y-57585579D01*
X31982079Y-57585763D01*
X31981211Y-57586516D01*
X31947688Y-57591336D01*
X31914247Y-57596755D01*
X31913192Y-57596296D01*
X31912053Y-57596460D01*
X31881235Y-57582386D01*
X31850183Y-57568870D01*
X31849170Y-57567742D01*
X31848497Y-57567435D01*
X31826598Y-57542613D01*
X31749698Y-57427525D01*
X31728820Y-57360848D01*
X31728800Y-57358634D01*
X31728800Y-39769245D01*
X31728800Y-39769243D01*
X31694390Y-39640821D01*
X31694390Y-39640820D01*
X31694390Y-39640819D01*
X31687877Y-39616516D01*
X31687877Y-39616515D01*
X31658939Y-39566395D01*
X31608820Y-39479584D01*
X31497016Y-39367780D01*
X31497015Y-39367779D01*
X31492685Y-39363449D01*
X31492674Y-39363439D01*
X26833757Y-34704522D01*
X26800272Y-34643199D01*
X26803507Y-34578523D01*
X26817246Y-34536243D01*
X26850500Y-34326287D01*
X26850500Y-34113713D01*
X26817246Y-33903757D01*
X26751557Y-33701588D01*
X26655051Y-33512184D01*
X26655049Y-33512181D01*
X26655048Y-33512179D01*
X26530109Y-33340213D01*
X26379786Y-33189890D01*
X26207817Y-33064949D01*
X26198504Y-33060204D01*
X26147707Y-33012230D01*
X26130912Y-32944409D01*
X26153449Y-32878274D01*
X26198507Y-32839232D01*
X26207555Y-32834622D01*
X26261716Y-32795270D01*
X26261717Y-32795270D01*
X25629408Y-32162962D01*
X25692993Y-32145925D01*
X25807007Y-32080099D01*
X25900099Y-31987007D01*
X25965925Y-31872993D01*
X25982962Y-31809408D01*
X26615270Y-32441717D01*
X26615270Y-32441716D01*
X26654622Y-32387554D01*
X26751095Y-32198217D01*
X26816757Y-31996130D01*
X26816757Y-31996127D01*
X26850000Y-31786246D01*
X26850000Y-31638597D01*
X26869685Y-31571558D01*
X26922489Y-31525803D01*
X26991647Y-31515859D01*
X27055203Y-31544884D01*
G37*
%TD.AperFunction*%
%TA.AperFunction,Conductor*%
G36*
X56582734Y-36789014D02*
G01*
X56638667Y-36830886D01*
X56663084Y-36896350D01*
X56663400Y-36905196D01*
X56663400Y-46959917D01*
X56643715Y-47026956D01*
X56627081Y-47047598D01*
X46983301Y-56691377D01*
X46921978Y-56724862D01*
X46852286Y-56719878D01*
X46796353Y-56678006D01*
X46777689Y-56642015D01*
X46751555Y-56561583D01*
X46689664Y-56440116D01*
X46655051Y-56372184D01*
X46655049Y-56372181D01*
X46655048Y-56372179D01*
X46530109Y-56200213D01*
X46379786Y-56049890D01*
X46207820Y-55924951D01*
X46207115Y-55924591D01*
X46199054Y-55920485D01*
X46148259Y-55872512D01*
X46131463Y-55804692D01*
X46153999Y-55738556D01*
X46199054Y-55699515D01*
X46207816Y-55695051D01*
X46262876Y-55655048D01*
X46379786Y-55570109D01*
X46379788Y-55570106D01*
X46379792Y-55570104D01*
X46530104Y-55419792D01*
X46530106Y-55419788D01*
X46530109Y-55419786D01*
X46655048Y-55247820D01*
X46655047Y-55247820D01*
X46655051Y-55247816D01*
X46751557Y-55058412D01*
X46817246Y-54856243D01*
X46850500Y-54646287D01*
X46850500Y-54433713D01*
X46817246Y-54223757D01*
X46751557Y-54021588D01*
X46655051Y-53832184D01*
X46655049Y-53832181D01*
X46655048Y-53832179D01*
X46530109Y-53660213D01*
X46379786Y-53509890D01*
X46207817Y-53384949D01*
X46198504Y-53380204D01*
X46147707Y-53332230D01*
X46130912Y-53264409D01*
X46153449Y-53198274D01*
X46198507Y-53159232D01*
X46207555Y-53154622D01*
X46261716Y-53115270D01*
X46261717Y-53115270D01*
X45629408Y-52482962D01*
X45692993Y-52465925D01*
X45807007Y-52400099D01*
X45900099Y-52307007D01*
X45965925Y-52192993D01*
X45982962Y-52129409D01*
X46615270Y-52761717D01*
X46615270Y-52761716D01*
X46654622Y-52707554D01*
X46751095Y-52518217D01*
X46816757Y-52316130D01*
X46816757Y-52316127D01*
X46850000Y-52106246D01*
X46850000Y-51893753D01*
X46816757Y-51683872D01*
X46816757Y-51683869D01*
X46751095Y-51481782D01*
X46654624Y-51292449D01*
X46615270Y-51238282D01*
X46615269Y-51238282D01*
X45982962Y-51870590D01*
X45965925Y-51807007D01*
X45900099Y-51692993D01*
X45807007Y-51599901D01*
X45692993Y-51534075D01*
X45629409Y-51517037D01*
X46261716Y-50884728D01*
X46207547Y-50845373D01*
X46207547Y-50845372D01*
X46198500Y-50840763D01*
X46147706Y-50792788D01*
X46130912Y-50724966D01*
X46153451Y-50658832D01*
X46198508Y-50619793D01*
X46207816Y-50615051D01*
X46317626Y-50535270D01*
X46379786Y-50490109D01*
X46379788Y-50490106D01*
X46379792Y-50490104D01*
X46530104Y-50339792D01*
X46530106Y-50339788D01*
X46530109Y-50339786D01*
X46655048Y-50167820D01*
X46655047Y-50167820D01*
X46655051Y-50167816D01*
X46751557Y-49978412D01*
X46817246Y-49776243D01*
X46850500Y-49566287D01*
X46850500Y-49353713D01*
X46817246Y-49143757D01*
X46751557Y-48941588D01*
X46655051Y-48752184D01*
X46655049Y-48752181D01*
X46655048Y-48752179D01*
X46530109Y-48580213D01*
X46379786Y-48429890D01*
X46207820Y-48304951D01*
X46207115Y-48304591D01*
X46199054Y-48300485D01*
X46148259Y-48252512D01*
X46131463Y-48184692D01*
X46153999Y-48118556D01*
X46199054Y-48079515D01*
X46207816Y-48075051D01*
X46229789Y-48059086D01*
X46379786Y-47950109D01*
X46379788Y-47950106D01*
X46379792Y-47950104D01*
X46530104Y-47799792D01*
X46530106Y-47799788D01*
X46530109Y-47799786D01*
X46655048Y-47627820D01*
X46655047Y-47627820D01*
X46655051Y-47627816D01*
X46751557Y-47438412D01*
X46817246Y-47236243D01*
X46850500Y-47026287D01*
X46850500Y-46813713D01*
X46817246Y-46603757D01*
X46803506Y-46561473D01*
X46801512Y-46491635D01*
X46833755Y-46435478D01*
X56451721Y-36817513D01*
X56513042Y-36784030D01*
X56582734Y-36789014D01*
G37*
%TD.AperFunction*%
%TA.AperFunction,Conductor*%
G36*
X56549729Y-26635240D02*
G01*
X56574720Y-26637028D01*
X56583108Y-26643307D01*
X56593293Y-26645769D01*
X56610598Y-26663886D01*
X56630653Y-26678900D01*
X56635594Y-26690056D01*
X56641553Y-26696295D01*
X56650676Y-26724110D01*
X56653125Y-26729638D01*
X56653528Y-26731722D01*
X56682754Y-26916243D01*
X56698847Y-26965774D01*
X56700299Y-26973269D01*
X56697697Y-27000761D01*
X56698486Y-27028364D01*
X56694414Y-27035454D01*
X56693717Y-27042828D01*
X56680551Y-27059599D01*
X56666241Y-27084522D01*
X56241486Y-27509278D01*
X56129681Y-27621082D01*
X56129679Y-27621085D01*
X56079561Y-27707894D01*
X56079559Y-27707896D01*
X56050625Y-27758009D01*
X56050624Y-27758010D01*
X56043200Y-27785718D01*
X56009699Y-27910743D01*
X56009699Y-27910745D01*
X56009699Y-28078846D01*
X56009700Y-28078859D01*
X56009700Y-35509702D01*
X55990015Y-35576741D01*
X55973381Y-35597383D01*
X47062181Y-44508583D01*
X47000858Y-44542068D01*
X46931166Y-44537084D01*
X46875233Y-44495212D01*
X46850816Y-44429748D01*
X46850500Y-44420902D01*
X46850500Y-44273713D01*
X46836767Y-44187007D01*
X46817246Y-44063757D01*
X46751557Y-43861588D01*
X46655051Y-43672184D01*
X46655049Y-43672181D01*
X46655048Y-43672179D01*
X46530109Y-43500213D01*
X46379786Y-43349890D01*
X46207820Y-43224951D01*
X46199600Y-43220763D01*
X46199054Y-43220485D01*
X46148259Y-43172512D01*
X46131463Y-43104692D01*
X46153999Y-43038556D01*
X46199054Y-42999515D01*
X46207816Y-42995051D01*
X46300720Y-42927553D01*
X46379786Y-42870109D01*
X46379788Y-42870106D01*
X46379792Y-42870104D01*
X46530104Y-42719792D01*
X46530106Y-42719788D01*
X46530109Y-42719786D01*
X46655048Y-42547820D01*
X46655047Y-42547820D01*
X46655051Y-42547816D01*
X46751557Y-42358412D01*
X46817246Y-42156243D01*
X46850500Y-41946287D01*
X46850500Y-41733713D01*
X46817246Y-41523757D01*
X46751557Y-41321588D01*
X46655051Y-41132184D01*
X46655049Y-41132181D01*
X46655048Y-41132179D01*
X46530109Y-40960213D01*
X46379786Y-40809890D01*
X46207817Y-40684949D01*
X46198504Y-40680204D01*
X46147707Y-40632230D01*
X46130912Y-40564409D01*
X46153449Y-40498274D01*
X46198507Y-40459232D01*
X46207555Y-40454622D01*
X46261716Y-40415270D01*
X46261717Y-40415270D01*
X45629408Y-39782962D01*
X45692993Y-39765925D01*
X45807007Y-39700099D01*
X45900099Y-39607007D01*
X45965925Y-39492993D01*
X45982962Y-39429409D01*
X46615270Y-40061717D01*
X46615270Y-40061716D01*
X46654622Y-40007554D01*
X46751095Y-39818217D01*
X46816757Y-39616130D01*
X46816757Y-39616127D01*
X46850000Y-39406246D01*
X46850000Y-39193753D01*
X46816757Y-38983872D01*
X46816757Y-38983869D01*
X46751095Y-38781782D01*
X46654624Y-38592449D01*
X46615270Y-38538282D01*
X46615269Y-38538282D01*
X45982962Y-39170590D01*
X45965925Y-39107007D01*
X45900099Y-38992993D01*
X45807007Y-38899901D01*
X45692993Y-38834075D01*
X45629409Y-38817037D01*
X46261716Y-38184728D01*
X46207547Y-38145373D01*
X46207547Y-38145372D01*
X46198500Y-38140763D01*
X46147706Y-38092788D01*
X46130912Y-38024966D01*
X46153451Y-37958832D01*
X46198508Y-37919793D01*
X46207816Y-37915051D01*
X46287007Y-37857515D01*
X46379786Y-37790109D01*
X46379788Y-37790106D01*
X46379792Y-37790104D01*
X46530104Y-37639792D01*
X46530106Y-37639788D01*
X46530109Y-37639786D01*
X46639086Y-37489789D01*
X46655051Y-37467816D01*
X46751557Y-37278412D01*
X46817246Y-37076243D01*
X46850500Y-36866287D01*
X46850500Y-36653713D01*
X46817246Y-36443757D01*
X46803506Y-36401473D01*
X46801512Y-36331635D01*
X46833755Y-36275478D01*
X56443707Y-26665527D01*
X56452901Y-26660507D01*
X56459372Y-26652265D01*
X56483039Y-26644050D01*
X56505028Y-26632044D01*
X56515480Y-26632791D01*
X56525379Y-26629356D01*
X56549729Y-26635240D01*
G37*
%TD.AperFunction*%
%TA.AperFunction,Conductor*%
G36*
X91654420Y-12270185D02*
G01*
X91700175Y-12322989D01*
X91710119Y-12392147D01*
X91681094Y-12455703D01*
X91630714Y-12490682D01*
X91587913Y-12506645D01*
X91587906Y-12506649D01*
X91472812Y-12592809D01*
X91472809Y-12592812D01*
X91386649Y-12707906D01*
X91386645Y-12707913D01*
X91336403Y-12842620D01*
X91336401Y-12842627D01*
X91330000Y-12902155D01*
X91330000Y-13550000D01*
X92246988Y-13550000D01*
X92214075Y-13607007D01*
X92180000Y-13734174D01*
X92180000Y-13865826D01*
X92214075Y-13992993D01*
X92246988Y-14050000D01*
X91330000Y-14050000D01*
X91330000Y-14697844D01*
X91336401Y-14757372D01*
X91336403Y-14757379D01*
X91386645Y-14892086D01*
X91386649Y-14892093D01*
X91472809Y-15007187D01*
X91472812Y-15007190D01*
X91587906Y-15093350D01*
X91587913Y-15093354D01*
X91722620Y-15143596D01*
X91722619Y-15143596D01*
X91805444Y-15152501D01*
X91805116Y-15155550D01*
X91822014Y-15154642D01*
X91881196Y-15187642D01*
X92550591Y-15857037D01*
X92487007Y-15874075D01*
X92372993Y-15939901D01*
X92279901Y-16032993D01*
X92214075Y-16147007D01*
X92197037Y-16210591D01*
X91564728Y-15578282D01*
X91564727Y-15578282D01*
X91525380Y-15632439D01*
X91428904Y-15821782D01*
X91363242Y-16023869D01*
X91363242Y-16023872D01*
X91330000Y-16233753D01*
X91330000Y-16446246D01*
X91363242Y-16656127D01*
X91363242Y-16656130D01*
X91428904Y-16858217D01*
X91525375Y-17047550D01*
X91564728Y-17101716D01*
X92197037Y-16469408D01*
X92214075Y-16532993D01*
X92279901Y-16647007D01*
X92372993Y-16740099D01*
X92487007Y-16805925D01*
X92550590Y-16822962D01*
X91918282Y-17455269D01*
X91918282Y-17455270D01*
X91972452Y-17494626D01*
X91972451Y-17494626D01*
X91981495Y-17499234D01*
X92032292Y-17547208D01*
X92049087Y-17615029D01*
X92026550Y-17681164D01*
X91981499Y-17720202D01*
X91972182Y-17724949D01*
X91800213Y-17849890D01*
X91649890Y-18000213D01*
X91524951Y-18172179D01*
X91428444Y-18361585D01*
X91362753Y-18563760D01*
X91332572Y-18754320D01*
X91329500Y-18773713D01*
X91329500Y-18986287D01*
X91338452Y-19042809D01*
X91362753Y-19196239D01*
X91362753Y-19196241D01*
X91362754Y-19196243D01*
X91417431Y-19364522D01*
X91428444Y-19398414D01*
X91524951Y-19587820D01*
X91649890Y-19759786D01*
X91800213Y-19910109D01*
X91972182Y-20035050D01*
X91980946Y-20039516D01*
X92031742Y-20087491D01*
X92048536Y-20155312D01*
X92025998Y-20221447D01*
X91980946Y-20260484D01*
X91972182Y-20264949D01*
X91800213Y-20389890D01*
X91649890Y-20540213D01*
X91524951Y-20712179D01*
X91428444Y-20901585D01*
X91362753Y-21103760D01*
X91329500Y-21313713D01*
X91329500Y-21526286D01*
X91362754Y-21736244D01*
X91362754Y-21736247D01*
X91376491Y-21778523D01*
X91378486Y-21848364D01*
X91346241Y-21904522D01*
X90953686Y-22297078D01*
X90841881Y-22408882D01*
X90841879Y-22408885D01*
X90791761Y-22495694D01*
X90791759Y-22495696D01*
X90762825Y-22545809D01*
X90762824Y-22545810D01*
X90761672Y-22550109D01*
X90721899Y-22698543D01*
X90721899Y-22698545D01*
X90721899Y-22866646D01*
X90721900Y-22866659D01*
X90721900Y-41485523D01*
X90702215Y-41552562D01*
X90649411Y-41598317D01*
X90580253Y-41608261D01*
X90529009Y-41588625D01*
X90396985Y-41500409D01*
X90396972Y-41500402D01*
X90251301Y-41440064D01*
X90251289Y-41440061D01*
X90096645Y-41409300D01*
X90096642Y-41409300D01*
X89938958Y-41409300D01*
X89938955Y-41409300D01*
X89784310Y-41440061D01*
X89784298Y-41440064D01*
X89638627Y-41500402D01*
X89638614Y-41500409D01*
X89507511Y-41588010D01*
X89507507Y-41588013D01*
X89396013Y-41699507D01*
X89396010Y-41699511D01*
X89308409Y-41830614D01*
X89308402Y-41830627D01*
X89248064Y-41976298D01*
X89248061Y-41976310D01*
X89217300Y-42130953D01*
X89217300Y-42288646D01*
X89248061Y-42443289D01*
X89248064Y-42443301D01*
X89308402Y-42588972D01*
X89308409Y-42588985D01*
X89396402Y-42720674D01*
X89417280Y-42787351D01*
X89417300Y-42789565D01*
X89417300Y-57051130D01*
X89417299Y-57051148D01*
X89417299Y-57216854D01*
X89417298Y-57216854D01*
X89458224Y-57369589D01*
X89458225Y-57369590D01*
X89473613Y-57396242D01*
X89473614Y-57396243D01*
X89537277Y-57506512D01*
X89537281Y-57506517D01*
X89656149Y-57625385D01*
X89656155Y-57625390D01*
X93666241Y-61635476D01*
X93699726Y-61696799D01*
X93696492Y-61761473D01*
X93682753Y-61803757D01*
X93649500Y-62013713D01*
X93649500Y-62226287D01*
X93657928Y-62279500D01*
X93681949Y-62431164D01*
X93682754Y-62436243D01*
X93735928Y-62599896D01*
X93748444Y-62638414D01*
X93844951Y-62827820D01*
X93969890Y-62999786D01*
X94120213Y-63150109D01*
X94292182Y-63275050D01*
X94300946Y-63279516D01*
X94351742Y-63327491D01*
X94368536Y-63395312D01*
X94345998Y-63461447D01*
X94300946Y-63500484D01*
X94292182Y-63504949D01*
X94120213Y-63629890D01*
X93969890Y-63780213D01*
X93844951Y-63952179D01*
X93748444Y-64141585D01*
X93682753Y-64343760D01*
X93656457Y-64509786D01*
X93649500Y-64553713D01*
X93649500Y-64766287D01*
X93682754Y-64976243D01*
X93708255Y-65054728D01*
X93748444Y-65178414D01*
X93844951Y-65367820D01*
X93969890Y-65539786D01*
X94120213Y-65690109D01*
X94292179Y-65815048D01*
X94292181Y-65815049D01*
X94292184Y-65815051D01*
X94481588Y-65911557D01*
X94683757Y-65977246D01*
X94893713Y-66010500D01*
X94893714Y-66010500D01*
X95106286Y-66010500D01*
X95106287Y-66010500D01*
X95316243Y-65977246D01*
X95518412Y-65911557D01*
X95707816Y-65815051D01*
X95769960Y-65769901D01*
X95879786Y-65690109D01*
X95879788Y-65690106D01*
X95879792Y-65690104D01*
X96030104Y-65539792D01*
X96030106Y-65539788D01*
X96030109Y-65539786D01*
X96155048Y-65367820D01*
X96155047Y-65367820D01*
X96155051Y-65367816D01*
X96251557Y-65178412D01*
X96317246Y-64976243D01*
X96350500Y-64766287D01*
X96350500Y-64553713D01*
X96317246Y-64343757D01*
X96251557Y-64141588D01*
X96155051Y-63952184D01*
X96155049Y-63952181D01*
X96155048Y-63952179D01*
X96030109Y-63780213D01*
X95879786Y-63629890D01*
X95707820Y-63504951D01*
X95707115Y-63504591D01*
X95699054Y-63500485D01*
X95648259Y-63452512D01*
X95631463Y-63384692D01*
X95653999Y-63318556D01*
X95699054Y-63279515D01*
X95707816Y-63275051D01*
X95729789Y-63259086D01*
X95879786Y-63150109D01*
X95879788Y-63150106D01*
X95879792Y-63150104D01*
X96030104Y-62999792D01*
X96030106Y-62999788D01*
X96030109Y-62999786D01*
X96155048Y-62827820D01*
X96155047Y-62827820D01*
X96155051Y-62827816D01*
X96251557Y-62638412D01*
X96317246Y-62436243D01*
X96350500Y-62226287D01*
X96350500Y-62013713D01*
X96317246Y-61803757D01*
X96251557Y-61601588D01*
X96155051Y-61412184D01*
X96155049Y-61412181D01*
X96155048Y-61412179D01*
X96030109Y-61240213D01*
X95879786Y-61089890D01*
X95707820Y-60964951D01*
X95707115Y-60964591D01*
X95699054Y-60960485D01*
X95648259Y-60912512D01*
X95631463Y-60844692D01*
X95653999Y-60778556D01*
X95699054Y-60739515D01*
X95707816Y-60735051D01*
X95768021Y-60691310D01*
X95879786Y-60610109D01*
X95879788Y-60610106D01*
X95879792Y-60610104D01*
X96030104Y-60459792D01*
X96030106Y-60459788D01*
X96030109Y-60459786D01*
X96155048Y-60287820D01*
X96155047Y-60287820D01*
X96155051Y-60287816D01*
X96251557Y-60098412D01*
X96317246Y-59896243D01*
X96350500Y-59686287D01*
X96350500Y-59473713D01*
X96317246Y-59263757D01*
X96251557Y-59061588D01*
X96155051Y-58872184D01*
X96155049Y-58872181D01*
X96155048Y-58872179D01*
X96030109Y-58700213D01*
X95879786Y-58549890D01*
X95707820Y-58424951D01*
X95707115Y-58424591D01*
X95699054Y-58420485D01*
X95648259Y-58372512D01*
X95631463Y-58304692D01*
X95653999Y-58238556D01*
X95699054Y-58199515D01*
X95707816Y-58195051D01*
X95729789Y-58179086D01*
X95879786Y-58070109D01*
X95879788Y-58070106D01*
X95879792Y-58070104D01*
X96030104Y-57919792D01*
X96030106Y-57919788D01*
X96030109Y-57919786D01*
X96155048Y-57747820D01*
X96155047Y-57747820D01*
X96155051Y-57747816D01*
X96251557Y-57558412D01*
X96317246Y-57356243D01*
X96350500Y-57146287D01*
X96350500Y-56933713D01*
X96317246Y-56723757D01*
X96251557Y-56521588D01*
X96155051Y-56332184D01*
X96155049Y-56332181D01*
X96155048Y-56332179D01*
X96030109Y-56160213D01*
X95879786Y-56009890D01*
X95707820Y-55884951D01*
X95707115Y-55884591D01*
X95699054Y-55880485D01*
X95648259Y-55832512D01*
X95631463Y-55764692D01*
X95653999Y-55698556D01*
X95699054Y-55659515D01*
X95707816Y-55655051D01*
X95729789Y-55639086D01*
X95879786Y-55530109D01*
X95879788Y-55530106D01*
X95879792Y-55530104D01*
X96030104Y-55379792D01*
X96030106Y-55379788D01*
X96030109Y-55379786D01*
X96155048Y-55207820D01*
X96155047Y-55207820D01*
X96155051Y-55207816D01*
X96251557Y-55018412D01*
X96317246Y-54816243D01*
X96350500Y-54606287D01*
X96350500Y-54393713D01*
X96317246Y-54183757D01*
X96251557Y-53981588D01*
X96155051Y-53792184D01*
X96155049Y-53792181D01*
X96155048Y-53792179D01*
X96030109Y-53620213D01*
X95879786Y-53469890D01*
X95707820Y-53344951D01*
X95707115Y-53344591D01*
X95699054Y-53340485D01*
X95648259Y-53292512D01*
X95631463Y-53224692D01*
X95653999Y-53158556D01*
X95699054Y-53119515D01*
X95707816Y-53115051D01*
X95729789Y-53099086D01*
X95879786Y-52990109D01*
X95879788Y-52990106D01*
X95879792Y-52990104D01*
X96030104Y-52839792D01*
X96030106Y-52839788D01*
X96030109Y-52839786D01*
X96155048Y-52667820D01*
X96155047Y-52667820D01*
X96155051Y-52667816D01*
X96251557Y-52478412D01*
X96317246Y-52276243D01*
X96350500Y-52066287D01*
X96350500Y-51853713D01*
X96317246Y-51643757D01*
X96251557Y-51441588D01*
X96155051Y-51252184D01*
X96155049Y-51252181D01*
X96155048Y-51252179D01*
X96030109Y-51080213D01*
X95879786Y-50929890D01*
X95707817Y-50804949D01*
X95698504Y-50800204D01*
X95647707Y-50752230D01*
X95630912Y-50684409D01*
X95653449Y-50618274D01*
X95698507Y-50579232D01*
X95707555Y-50574622D01*
X95761716Y-50535270D01*
X95761717Y-50535270D01*
X95129409Y-49902962D01*
X95192993Y-49885925D01*
X95307007Y-49820099D01*
X95400099Y-49727007D01*
X95465925Y-49612993D01*
X95482962Y-49549409D01*
X96115270Y-50181717D01*
X96115270Y-50181716D01*
X96154622Y-50127554D01*
X96251095Y-49938217D01*
X96316757Y-49736130D01*
X96316757Y-49736127D01*
X96350000Y-49526246D01*
X96350000Y-49313753D01*
X96316757Y-49103872D01*
X96316757Y-49103869D01*
X96251095Y-48901782D01*
X96154624Y-48712449D01*
X96115270Y-48658282D01*
X96115269Y-48658282D01*
X95482962Y-49290590D01*
X95465925Y-49227007D01*
X95400099Y-49112993D01*
X95307007Y-49019901D01*
X95192993Y-48954075D01*
X95129407Y-48937036D01*
X95799627Y-48266818D01*
X95860950Y-48233333D01*
X95887308Y-48230499D01*
X95897871Y-48230499D01*
X95897872Y-48230499D01*
X95957483Y-48224091D01*
X96092331Y-48173796D01*
X96207546Y-48087546D01*
X96293796Y-47972331D01*
X96344091Y-47837483D01*
X96350500Y-47777873D01*
X96350499Y-46995780D01*
X96370183Y-46928742D01*
X96386813Y-46908105D01*
X96666178Y-46628741D01*
X96666182Y-46628739D01*
X96805539Y-46489382D01*
X96915032Y-46325514D01*
X96990451Y-46143435D01*
X97028900Y-45950141D01*
X97028900Y-33777381D01*
X97048585Y-33710342D01*
X97065214Y-33689705D01*
X111509245Y-19245673D01*
X111570566Y-19212190D01*
X111640258Y-19217174D01*
X111696191Y-19259046D01*
X111714853Y-19295035D01*
X111738335Y-19367303D01*
X111748444Y-19398414D01*
X111844951Y-19587820D01*
X111969890Y-19759786D01*
X112120213Y-19910109D01*
X112292182Y-20035050D01*
X112300946Y-20039516D01*
X112351742Y-20087491D01*
X112368536Y-20155312D01*
X112345998Y-20221447D01*
X112300946Y-20260484D01*
X112292182Y-20264949D01*
X112120213Y-20389890D01*
X111969890Y-20540213D01*
X111844951Y-20712179D01*
X111748444Y-20901585D01*
X111682753Y-21103760D01*
X111649500Y-21313713D01*
X111649500Y-21526286D01*
X111665338Y-21626287D01*
X111682754Y-21736243D01*
X111737431Y-21904522D01*
X111748444Y-21938414D01*
X111844951Y-22127820D01*
X111969890Y-22299786D01*
X112120213Y-22450109D01*
X112292182Y-22575050D01*
X112300946Y-22579516D01*
X112351742Y-22627491D01*
X112368536Y-22695312D01*
X112345998Y-22761447D01*
X112300946Y-22800484D01*
X112292182Y-22804949D01*
X112120213Y-22929890D01*
X111969890Y-23080213D01*
X111844951Y-23252179D01*
X111748444Y-23441585D01*
X111682753Y-23643760D01*
X111649500Y-23853713D01*
X111649500Y-24066286D01*
X111682753Y-24276239D01*
X111682753Y-24276241D01*
X111682754Y-24276243D01*
X111744479Y-24466213D01*
X111748444Y-24478414D01*
X111844951Y-24667820D01*
X111969890Y-24839786D01*
X112120213Y-24990109D01*
X112292182Y-25115050D01*
X112300946Y-25119516D01*
X112351742Y-25167491D01*
X112368536Y-25235312D01*
X112345998Y-25301447D01*
X112300946Y-25340484D01*
X112292182Y-25344949D01*
X112120213Y-25469890D01*
X111969890Y-25620213D01*
X111844951Y-25792179D01*
X111748444Y-25981585D01*
X111682753Y-26183760D01*
X111649500Y-26393713D01*
X111649500Y-26606286D01*
X111681627Y-26809131D01*
X111682754Y-26816243D01*
X111727369Y-26953554D01*
X111748444Y-27018414D01*
X111844951Y-27207820D01*
X111969890Y-27379786D01*
X112120213Y-27530109D01*
X112292184Y-27655051D01*
X112292184Y-27655052D01*
X112331793Y-27675233D01*
X112382590Y-27723206D01*
X112399500Y-27785718D01*
X112399500Y-28873202D01*
X112379815Y-28940241D01*
X112363181Y-28960883D01*
X99152239Y-42171825D01*
X99090916Y-42205310D01*
X99088750Y-42205761D01*
X98933408Y-42236661D01*
X98933398Y-42236664D01*
X98787727Y-42297002D01*
X98787714Y-42297009D01*
X98656611Y-42384610D01*
X98656607Y-42384613D01*
X98545113Y-42496107D01*
X98545110Y-42496111D01*
X98457509Y-42627214D01*
X98457502Y-42627227D01*
X98397164Y-42772898D01*
X98397161Y-42772910D01*
X98366400Y-42927553D01*
X98366400Y-43085246D01*
X98397161Y-43239889D01*
X98397164Y-43239901D01*
X98457502Y-43385572D01*
X98457509Y-43385585D01*
X98545110Y-43516688D01*
X98545113Y-43516692D01*
X98656607Y-43628186D01*
X98656611Y-43628189D01*
X98787714Y-43715790D01*
X98787727Y-43715797D01*
X98933398Y-43776135D01*
X98933403Y-43776137D01*
X99088053Y-43806899D01*
X99088056Y-43806900D01*
X99088058Y-43806900D01*
X99245744Y-43806900D01*
X99245745Y-43806899D01*
X99400397Y-43776137D01*
X99546079Y-43715794D01*
X99677189Y-43628189D01*
X99788689Y-43516689D01*
X99876294Y-43385579D01*
X99936637Y-43239897D01*
X99966144Y-43091557D01*
X99967538Y-43084550D01*
X99999923Y-43022639D01*
X100001418Y-43021116D01*
X113480520Y-29542016D01*
X113559577Y-29405084D01*
X113559580Y-29405072D01*
X113562437Y-29398177D01*
X113606277Y-29343772D01*
X113672570Y-29321705D01*
X113740270Y-29338982D01*
X113787882Y-29390118D01*
X113801000Y-29445626D01*
X113801000Y-33331702D01*
X113781315Y-33398741D01*
X113764681Y-33419383D01*
X110985039Y-36199025D01*
X110923716Y-36232510D01*
X110921550Y-36232961D01*
X110766208Y-36263861D01*
X110766198Y-36263864D01*
X110620527Y-36324202D01*
X110620514Y-36324209D01*
X110489411Y-36411810D01*
X110489407Y-36411813D01*
X110377913Y-36523307D01*
X110377910Y-36523311D01*
X110290309Y-36654414D01*
X110290302Y-36654427D01*
X110229964Y-36800098D01*
X110229961Y-36800110D01*
X110199200Y-36954753D01*
X110199200Y-37112446D01*
X110229961Y-37267089D01*
X110229964Y-37267101D01*
X110290302Y-37412772D01*
X110290309Y-37412785D01*
X110377910Y-37543888D01*
X110377913Y-37543892D01*
X110489407Y-37655386D01*
X110489411Y-37655389D01*
X110620514Y-37742990D01*
X110620527Y-37742997D01*
X110766198Y-37803335D01*
X110766203Y-37803337D01*
X110920853Y-37834099D01*
X110920856Y-37834100D01*
X110920858Y-37834100D01*
X111078544Y-37834100D01*
X111078545Y-37834099D01*
X111233197Y-37803337D01*
X111378879Y-37742994D01*
X111509989Y-37655389D01*
X111621489Y-37543889D01*
X111709094Y-37412779D01*
X111769437Y-37267097D01*
X111798991Y-37118521D01*
X111800338Y-37111750D01*
X111832723Y-37049839D01*
X111834217Y-37048317D01*
X114882020Y-34000516D01*
X114961077Y-33863584D01*
X115002001Y-33710857D01*
X115002001Y-33552742D01*
X115002001Y-33545147D01*
X115002000Y-33545129D01*
X115002000Y-25282443D01*
X115000608Y-25277246D01*
X114961077Y-25129715D01*
X114921115Y-25060500D01*
X114882020Y-24992784D01*
X114770216Y-24880980D01*
X114770215Y-24880979D01*
X114765885Y-24876649D01*
X114765874Y-24876639D01*
X114333757Y-24444522D01*
X114300272Y-24383199D01*
X114303507Y-24318523D01*
X114317246Y-24276243D01*
X114350500Y-24066287D01*
X114350500Y-23853713D01*
X114317246Y-23643757D01*
X114251557Y-23441588D01*
X114155051Y-23252184D01*
X114155049Y-23252181D01*
X114155048Y-23252179D01*
X114030109Y-23080213D01*
X113879786Y-22929890D01*
X113707820Y-22804951D01*
X113707115Y-22804591D01*
X113699054Y-22800485D01*
X113648259Y-22752512D01*
X113631463Y-22684692D01*
X113653999Y-22618556D01*
X113699054Y-22579515D01*
X113707816Y-22575051D01*
X113748063Y-22545810D01*
X113879786Y-22450109D01*
X113879788Y-22450106D01*
X113879792Y-22450104D01*
X114030104Y-22299792D01*
X114030106Y-22299788D01*
X114030109Y-22299786D01*
X114155048Y-22127820D01*
X114155047Y-22127820D01*
X114155051Y-22127816D01*
X114251557Y-21938412D01*
X114317246Y-21736243D01*
X114350500Y-21526287D01*
X114350500Y-21313713D01*
X114317246Y-21103757D01*
X114251557Y-20901588D01*
X114155051Y-20712184D01*
X114155049Y-20712181D01*
X114155048Y-20712179D01*
X114030109Y-20540213D01*
X113879786Y-20389890D01*
X113707820Y-20264951D01*
X113707115Y-20264591D01*
X113699054Y-20260485D01*
X113648259Y-20212512D01*
X113631463Y-20144692D01*
X113653999Y-20078556D01*
X113699054Y-20039515D01*
X113707816Y-20035051D01*
X113756060Y-20000000D01*
X113879786Y-19910109D01*
X113879788Y-19910106D01*
X113879792Y-19910104D01*
X114030104Y-19759792D01*
X114030106Y-19759788D01*
X114030109Y-19759786D01*
X114155048Y-19587820D01*
X114155047Y-19587820D01*
X114155051Y-19587816D01*
X114251557Y-19398412D01*
X114317246Y-19196243D01*
X114350500Y-18986287D01*
X114350500Y-18773713D01*
X114333085Y-18663757D01*
X114320552Y-18584629D01*
X114318250Y-18570097D01*
X139049500Y-18570097D01*
X139049500Y-18829902D01*
X139090140Y-19086493D01*
X139170422Y-19333576D01*
X139288368Y-19565054D01*
X139377369Y-19687554D01*
X139441069Y-19775229D01*
X139624771Y-19958931D01*
X139834949Y-20111634D01*
X139948517Y-20169500D01*
X140066423Y-20229577D01*
X140066425Y-20229577D01*
X140066428Y-20229579D01*
X140313507Y-20309860D01*
X140445706Y-20330797D01*
X140570098Y-20350500D01*
X140570103Y-20350500D01*
X140829902Y-20350500D01*
X140943298Y-20332539D01*
X141086493Y-20309860D01*
X141333572Y-20229579D01*
X141565051Y-20111634D01*
X141775229Y-19958931D01*
X141958931Y-19775229D01*
X142111634Y-19565051D01*
X142229579Y-19333572D01*
X142309860Y-19086493D01*
X142339476Y-18899500D01*
X142350500Y-18829902D01*
X142350500Y-18570097D01*
X143849500Y-18570097D01*
X143849500Y-18829902D01*
X143890140Y-19086493D01*
X143970422Y-19333576D01*
X144088368Y-19565054D01*
X144177369Y-19687554D01*
X144241069Y-19775229D01*
X144424771Y-19958931D01*
X144634949Y-20111634D01*
X144748517Y-20169500D01*
X144866423Y-20229577D01*
X144866425Y-20229577D01*
X144866428Y-20229579D01*
X145113507Y-20309860D01*
X145245706Y-20330797D01*
X145370098Y-20350500D01*
X145370103Y-20350500D01*
X145629902Y-20350500D01*
X145783548Y-20326165D01*
X145815121Y-20321164D01*
X145886493Y-20309860D01*
X146133572Y-20229579D01*
X146365051Y-20111634D01*
X146575229Y-19958931D01*
X146758931Y-19775229D01*
X146911634Y-19565051D01*
X147020110Y-19352155D01*
X155570000Y-19352155D01*
X155570000Y-20000000D01*
X156486988Y-20000000D01*
X156454075Y-20057007D01*
X156420000Y-20184174D01*
X156420000Y-20315826D01*
X156454075Y-20442993D01*
X156486988Y-20500000D01*
X155570000Y-20500000D01*
X155570000Y-21147844D01*
X155576401Y-21207372D01*
X155576403Y-21207379D01*
X155626645Y-21342086D01*
X155626649Y-21342093D01*
X155712809Y-21457187D01*
X155712812Y-21457190D01*
X155827906Y-21543350D01*
X155827913Y-21543354D01*
X155962620Y-21593596D01*
X155962627Y-21593598D01*
X156022155Y-21599999D01*
X156022172Y-21600000D01*
X156670000Y-21600000D01*
X156670000Y-20683012D01*
X156727007Y-20715925D01*
X156854174Y-20750000D01*
X156985826Y-20750000D01*
X157112993Y-20715925D01*
X157170000Y-20683012D01*
X157170000Y-21600000D01*
X157817828Y-21600000D01*
X157817844Y-21599999D01*
X157877372Y-21593598D01*
X157877379Y-21593596D01*
X158012086Y-21543354D01*
X158012093Y-21543350D01*
X158127187Y-21457190D01*
X158127190Y-21457187D01*
X158213350Y-21342093D01*
X158213354Y-21342086D01*
X158262422Y-21210529D01*
X158304293Y-21154595D01*
X158369757Y-21130178D01*
X158438030Y-21145030D01*
X158466285Y-21166181D01*
X158580213Y-21280109D01*
X158752179Y-21405048D01*
X158752181Y-21405049D01*
X158752184Y-21405051D01*
X158941588Y-21501557D01*
X159143757Y-21567246D01*
X159353713Y-21600500D01*
X159353714Y-21600500D01*
X159566286Y-21600500D01*
X159566287Y-21600500D01*
X159776243Y-21567246D01*
X159978412Y-21501557D01*
X160167816Y-21405051D01*
X160254471Y-21342093D01*
X160339786Y-21280109D01*
X160339788Y-21280106D01*
X160339792Y-21280104D01*
X160490104Y-21129792D01*
X160490106Y-21129788D01*
X160490109Y-21129786D01*
X160615048Y-20957820D01*
X160615047Y-20957820D01*
X160615051Y-20957816D01*
X160619514Y-20949054D01*
X160667488Y-20898259D01*
X160735308Y-20881463D01*
X160801444Y-20903999D01*
X160840486Y-20949056D01*
X160844951Y-20957820D01*
X160969890Y-21129786D01*
X161120213Y-21280109D01*
X161292179Y-21405048D01*
X161292181Y-21405049D01*
X161292184Y-21405051D01*
X161481588Y-21501557D01*
X161683757Y-21567246D01*
X161893713Y-21600500D01*
X161893714Y-21600500D01*
X162106286Y-21600500D01*
X162106287Y-21600500D01*
X162316243Y-21567246D01*
X162518412Y-21501557D01*
X162707816Y-21405051D01*
X162794471Y-21342093D01*
X162879786Y-21280109D01*
X162879788Y-21280106D01*
X162879792Y-21280104D01*
X163030104Y-21129792D01*
X163030106Y-21129788D01*
X163030109Y-21129786D01*
X163155048Y-20957820D01*
X163155047Y-20957820D01*
X163155051Y-20957816D01*
X163159514Y-20949054D01*
X163207488Y-20898259D01*
X163275308Y-20881463D01*
X163341444Y-20903999D01*
X163380486Y-20949056D01*
X163384951Y-20957820D01*
X163509890Y-21129786D01*
X163660213Y-21280109D01*
X163832179Y-21405048D01*
X163832181Y-21405049D01*
X163832184Y-21405051D01*
X164021588Y-21501557D01*
X164223757Y-21567246D01*
X164433713Y-21600500D01*
X164433714Y-21600500D01*
X164646286Y-21600500D01*
X164646287Y-21600500D01*
X164856243Y-21567246D01*
X165058412Y-21501557D01*
X165247816Y-21405051D01*
X165334471Y-21342093D01*
X165419786Y-21280109D01*
X165419788Y-21280106D01*
X165419792Y-21280104D01*
X165570104Y-21129792D01*
X165570106Y-21129788D01*
X165570109Y-21129786D01*
X165695048Y-20957820D01*
X165695047Y-20957820D01*
X165695051Y-20957816D01*
X165699514Y-20949054D01*
X165747488Y-20898259D01*
X165815308Y-20881463D01*
X165881444Y-20903999D01*
X165920486Y-20949056D01*
X165924951Y-20957820D01*
X166049890Y-21129786D01*
X166200213Y-21280109D01*
X166372179Y-21405048D01*
X166372181Y-21405049D01*
X166372184Y-21405051D01*
X166561588Y-21501557D01*
X166763757Y-21567246D01*
X166973713Y-21600500D01*
X166973714Y-21600500D01*
X167186286Y-21600500D01*
X167186287Y-21600500D01*
X167396243Y-21567246D01*
X167598412Y-21501557D01*
X167787816Y-21405051D01*
X167874471Y-21342093D01*
X167959786Y-21280109D01*
X167959788Y-21280106D01*
X167959792Y-21280104D01*
X168110104Y-21129792D01*
X168110106Y-21129788D01*
X168110109Y-21129786D01*
X168235048Y-20957820D01*
X168235047Y-20957820D01*
X168235051Y-20957816D01*
X168239514Y-20949054D01*
X168287488Y-20898259D01*
X168355308Y-20881463D01*
X168421444Y-20903999D01*
X168460486Y-20949056D01*
X168464951Y-20957820D01*
X168589890Y-21129786D01*
X168740213Y-21280109D01*
X168912179Y-21405048D01*
X168912181Y-21405049D01*
X168912184Y-21405051D01*
X169101588Y-21501557D01*
X169303757Y-21567246D01*
X169513713Y-21600500D01*
X169513714Y-21600500D01*
X169726286Y-21600500D01*
X169726287Y-21600500D01*
X169936243Y-21567246D01*
X170138412Y-21501557D01*
X170327816Y-21405051D01*
X170414471Y-21342093D01*
X170499786Y-21280109D01*
X170499788Y-21280106D01*
X170499792Y-21280104D01*
X170650104Y-21129792D01*
X170650106Y-21129788D01*
X170650109Y-21129786D01*
X170775048Y-20957820D01*
X170775047Y-20957820D01*
X170775051Y-20957816D01*
X170779514Y-20949054D01*
X170827488Y-20898259D01*
X170895308Y-20881463D01*
X170961444Y-20903999D01*
X171000486Y-20949056D01*
X171004951Y-20957820D01*
X171129890Y-21129786D01*
X171280213Y-21280109D01*
X171452179Y-21405048D01*
X171452181Y-21405049D01*
X171452184Y-21405051D01*
X171641588Y-21501557D01*
X171843757Y-21567246D01*
X172053713Y-21600500D01*
X172053714Y-21600500D01*
X172266286Y-21600500D01*
X172266287Y-21600500D01*
X172476243Y-21567246D01*
X172678412Y-21501557D01*
X172867816Y-21405051D01*
X172954471Y-21342093D01*
X173039786Y-21280109D01*
X173039788Y-21280106D01*
X173039792Y-21280104D01*
X173190104Y-21129792D01*
X173190106Y-21129788D01*
X173190109Y-21129786D01*
X173315048Y-20957820D01*
X173315047Y-20957820D01*
X173315051Y-20957816D01*
X173319514Y-20949054D01*
X173367488Y-20898259D01*
X173435308Y-20881463D01*
X173501444Y-20903999D01*
X173540486Y-20949056D01*
X173544951Y-20957820D01*
X173669890Y-21129786D01*
X173820213Y-21280109D01*
X173992179Y-21405048D01*
X173992181Y-21405049D01*
X173992184Y-21405051D01*
X174181588Y-21501557D01*
X174383757Y-21567246D01*
X174593713Y-21600500D01*
X174593714Y-21600500D01*
X174806286Y-21600500D01*
X174806287Y-21600500D01*
X175016243Y-21567246D01*
X175218412Y-21501557D01*
X175407816Y-21405051D01*
X175494471Y-21342093D01*
X175579786Y-21280109D01*
X175579788Y-21280106D01*
X175579792Y-21280104D01*
X175730104Y-21129792D01*
X175730106Y-21129788D01*
X175730109Y-21129786D01*
X175855048Y-20957820D01*
X175855047Y-20957820D01*
X175855051Y-20957816D01*
X175951557Y-20768412D01*
X176017246Y-20566243D01*
X176050500Y-20356287D01*
X176050500Y-20143713D01*
X176017246Y-19933757D01*
X175951557Y-19731588D01*
X175855051Y-19542184D01*
X175855049Y-19542181D01*
X175855048Y-19542179D01*
X175730109Y-19370213D01*
X175579786Y-19219890D01*
X175407820Y-19094951D01*
X175218414Y-18998444D01*
X175218413Y-18998443D01*
X175218412Y-18998443D01*
X175016243Y-18932754D01*
X175016241Y-18932753D01*
X175016240Y-18932753D01*
X174854957Y-18907208D01*
X174806287Y-18899500D01*
X174593713Y-18899500D01*
X174545042Y-18907208D01*
X174383760Y-18932753D01*
X174181585Y-18998444D01*
X173992179Y-19094951D01*
X173820213Y-19219890D01*
X173669890Y-19370213D01*
X173544949Y-19542182D01*
X173540484Y-19550946D01*
X173492509Y-19601742D01*
X173424688Y-19618536D01*
X173358553Y-19595998D01*
X173319516Y-19550946D01*
X173315050Y-19542182D01*
X173190109Y-19370213D01*
X173039786Y-19219890D01*
X172867820Y-19094951D01*
X172678414Y-18998444D01*
X172678413Y-18998443D01*
X172678412Y-18998443D01*
X172476243Y-18932754D01*
X172476241Y-18932753D01*
X172476240Y-18932753D01*
X172314957Y-18907208D01*
X172266287Y-18899500D01*
X172053713Y-18899500D01*
X172005042Y-18907208D01*
X171843760Y-18932753D01*
X171641585Y-18998444D01*
X171452179Y-19094951D01*
X171280213Y-19219890D01*
X171129890Y-19370213D01*
X171004949Y-19542182D01*
X171000484Y-19550946D01*
X170952509Y-19601742D01*
X170884688Y-19618536D01*
X170818553Y-19595998D01*
X170779516Y-19550946D01*
X170775050Y-19542182D01*
X170650109Y-19370213D01*
X170499786Y-19219890D01*
X170327820Y-19094951D01*
X170138414Y-18998444D01*
X170138413Y-18998443D01*
X170138412Y-18998443D01*
X169936243Y-18932754D01*
X169936241Y-18932753D01*
X169936240Y-18932753D01*
X169774957Y-18907208D01*
X169726287Y-18899500D01*
X169513713Y-18899500D01*
X169465042Y-18907208D01*
X169303760Y-18932753D01*
X169101585Y-18998444D01*
X168912179Y-19094951D01*
X168740213Y-19219890D01*
X168589890Y-19370213D01*
X168464949Y-19542182D01*
X168460484Y-19550946D01*
X168412509Y-19601742D01*
X168344688Y-19618536D01*
X168278553Y-19595998D01*
X168239516Y-19550946D01*
X168235050Y-19542182D01*
X168110109Y-19370213D01*
X167959786Y-19219890D01*
X167787820Y-19094951D01*
X167598414Y-18998444D01*
X167598413Y-18998443D01*
X167598412Y-18998443D01*
X167396243Y-18932754D01*
X167396241Y-18932753D01*
X167396240Y-18932753D01*
X167234957Y-18907208D01*
X167186287Y-18899500D01*
X166973713Y-18899500D01*
X166925042Y-18907208D01*
X166763760Y-18932753D01*
X166561585Y-18998444D01*
X166372179Y-19094951D01*
X166200213Y-19219890D01*
X166049890Y-19370213D01*
X165924949Y-19542182D01*
X165920484Y-19550946D01*
X165872509Y-19601742D01*
X165804688Y-19618536D01*
X165738553Y-19595998D01*
X165699516Y-19550946D01*
X165695050Y-19542182D01*
X165570109Y-19370213D01*
X165419786Y-19219890D01*
X165247820Y-19094951D01*
X165058414Y-18998444D01*
X165058413Y-18998443D01*
X165058412Y-18998443D01*
X164856243Y-18932754D01*
X164856241Y-18932753D01*
X164856240Y-18932753D01*
X164694957Y-18907208D01*
X164646287Y-18899500D01*
X164433713Y-18899500D01*
X164385042Y-18907208D01*
X164223760Y-18932753D01*
X164021585Y-18998444D01*
X163832179Y-19094951D01*
X163660213Y-19219890D01*
X163509890Y-19370213D01*
X163384949Y-19542182D01*
X163380484Y-19550946D01*
X163332509Y-19601742D01*
X163264688Y-19618536D01*
X163198553Y-19595998D01*
X163159516Y-19550946D01*
X163155050Y-19542182D01*
X163030109Y-19370213D01*
X162879786Y-19219890D01*
X162707820Y-19094951D01*
X162518414Y-18998444D01*
X162518413Y-18998443D01*
X162518412Y-18998443D01*
X162316243Y-18932754D01*
X162316241Y-18932753D01*
X162316240Y-18932753D01*
X162154957Y-18907208D01*
X162106287Y-18899500D01*
X161893713Y-18899500D01*
X161845042Y-18907208D01*
X161683760Y-18932753D01*
X161481585Y-18998444D01*
X161292179Y-19094951D01*
X161120213Y-19219890D01*
X160969890Y-19370213D01*
X160844949Y-19542182D01*
X160840484Y-19550946D01*
X160792509Y-19601742D01*
X160724688Y-19618536D01*
X160658553Y-19595998D01*
X160619516Y-19550946D01*
X160615050Y-19542182D01*
X160490109Y-19370213D01*
X160339786Y-19219890D01*
X160167820Y-19094951D01*
X159978414Y-18998444D01*
X159978413Y-18998443D01*
X159978412Y-18998443D01*
X159776243Y-18932754D01*
X159776241Y-18932753D01*
X159776240Y-18932753D01*
X159614957Y-18907208D01*
X159566287Y-18899500D01*
X159353713Y-18899500D01*
X159305042Y-18907208D01*
X159143760Y-18932753D01*
X158941585Y-18998444D01*
X158752179Y-19094951D01*
X158580215Y-19219889D01*
X158466285Y-19333819D01*
X158404962Y-19367303D01*
X158335270Y-19362319D01*
X158279337Y-19320447D01*
X158262422Y-19289470D01*
X158213354Y-19157913D01*
X158213350Y-19157906D01*
X158127190Y-19042812D01*
X158127187Y-19042809D01*
X158012093Y-18956649D01*
X158012086Y-18956645D01*
X157877379Y-18906403D01*
X157877372Y-18906401D01*
X157817844Y-18900000D01*
X157170000Y-18900000D01*
X157170000Y-19816988D01*
X157112993Y-19784075D01*
X156985826Y-19750000D01*
X156854174Y-19750000D01*
X156727007Y-19784075D01*
X156670000Y-19816988D01*
X156670000Y-18900000D01*
X156022155Y-18900000D01*
X155962627Y-18906401D01*
X155962620Y-18906403D01*
X155827913Y-18956645D01*
X155827906Y-18956649D01*
X155712812Y-19042809D01*
X155712809Y-19042812D01*
X155626649Y-19157906D01*
X155626645Y-19157913D01*
X155576403Y-19292620D01*
X155576401Y-19292627D01*
X155570000Y-19352155D01*
X147020110Y-19352155D01*
X147029579Y-19333572D01*
X147033844Y-19320447D01*
X147037066Y-19310531D01*
X147109859Y-19086497D01*
X147109859Y-19086496D01*
X147109860Y-19086493D01*
X147130797Y-18954293D01*
X147150500Y-18829902D01*
X147150500Y-18570097D01*
X147128947Y-18434021D01*
X147109860Y-18313507D01*
X147029579Y-18066428D01*
X147029577Y-18066425D01*
X147029577Y-18066423D01*
X146986787Y-17982445D01*
X146911634Y-17834949D01*
X146758931Y-17624771D01*
X146575229Y-17441069D01*
X146365051Y-17288366D01*
X146230468Y-17219792D01*
X146133576Y-17170422D01*
X145886493Y-17090140D01*
X145629902Y-17049500D01*
X145629897Y-17049500D01*
X145370103Y-17049500D01*
X145370098Y-17049500D01*
X145113506Y-17090140D01*
X144866423Y-17170422D01*
X144634945Y-17288368D01*
X144424774Y-17441066D01*
X144424768Y-17441071D01*
X144241071Y-17624768D01*
X144241066Y-17624774D01*
X144088368Y-17834945D01*
X143970422Y-18066423D01*
X143890140Y-18313506D01*
X143849500Y-18570097D01*
X142350500Y-18570097D01*
X142328947Y-18434021D01*
X142309860Y-18313507D01*
X142229579Y-18066428D01*
X142229577Y-18066425D01*
X142229577Y-18066423D01*
X142186787Y-17982445D01*
X142111634Y-17834949D01*
X141958931Y-17624771D01*
X141775229Y-17441069D01*
X141565051Y-17288366D01*
X141430468Y-17219792D01*
X141333576Y-17170422D01*
X141086493Y-17090140D01*
X140829902Y-17049500D01*
X140829897Y-17049500D01*
X140570103Y-17049500D01*
X140570098Y-17049500D01*
X140313506Y-17090140D01*
X140066423Y-17170422D01*
X139834945Y-17288368D01*
X139624774Y-17441066D01*
X139624768Y-17441071D01*
X139441071Y-17624768D01*
X139441066Y-17624774D01*
X139288368Y-17834945D01*
X139170422Y-18066423D01*
X139090140Y-18313506D01*
X139049500Y-18570097D01*
X114318250Y-18570097D01*
X114317246Y-18563760D01*
X114317246Y-18563757D01*
X114251557Y-18361588D01*
X114155051Y-18172184D01*
X114155049Y-18172181D01*
X114155048Y-18172179D01*
X114030109Y-18000213D01*
X113879786Y-17849890D01*
X113707820Y-17724951D01*
X113707115Y-17724591D01*
X113699054Y-17720485D01*
X113648259Y-17672512D01*
X113631463Y-17604692D01*
X113653999Y-17538556D01*
X113699054Y-17499515D01*
X113707816Y-17495051D01*
X113782114Y-17441071D01*
X113879786Y-17370109D01*
X113879788Y-17370106D01*
X113879792Y-17370104D01*
X114030104Y-17219792D01*
X114030106Y-17219788D01*
X114030109Y-17219786D01*
X114139086Y-17069789D01*
X114155051Y-17047816D01*
X114241214Y-16878711D01*
X182149500Y-16878711D01*
X182149500Y-17121288D01*
X182181161Y-17361785D01*
X182243947Y-17596104D01*
X182317018Y-17772512D01*
X182336776Y-17820212D01*
X182458064Y-18030289D01*
X182458066Y-18030292D01*
X182458067Y-18030293D01*
X182605733Y-18222736D01*
X182605739Y-18222743D01*
X182777256Y-18394260D01*
X182777262Y-18394265D01*
X182969711Y-18541936D01*
X183179788Y-18663224D01*
X183403900Y-18756054D01*
X183638211Y-18818838D01*
X183818586Y-18842584D01*
X183878711Y-18850500D01*
X183878712Y-18850500D01*
X184121289Y-18850500D01*
X184169388Y-18844167D01*
X184361789Y-18818838D01*
X184596100Y-18756054D01*
X184820212Y-18663224D01*
X185030289Y-18541936D01*
X185222738Y-18394265D01*
X185394265Y-18222738D01*
X185541936Y-18030289D01*
X185663224Y-17820212D01*
X185756054Y-17596100D01*
X185818838Y-17361789D01*
X185850500Y-17121288D01*
X185850500Y-16878712D01*
X185847383Y-16855039D01*
X185840885Y-16805676D01*
X185818838Y-16638211D01*
X185756054Y-16403900D01*
X185663224Y-16179788D01*
X185541936Y-15969711D01*
X185468552Y-15874075D01*
X185394266Y-15777263D01*
X185394260Y-15777256D01*
X185222743Y-15605739D01*
X185222736Y-15605733D01*
X185030293Y-15458067D01*
X185030292Y-15458066D01*
X185030289Y-15458064D01*
X184843368Y-15350145D01*
X184820214Y-15336777D01*
X184820205Y-15336773D01*
X184596104Y-15243947D01*
X184361785Y-15181161D01*
X184121289Y-15149500D01*
X184121288Y-15149500D01*
X183878712Y-15149500D01*
X183878711Y-15149500D01*
X183638214Y-15181161D01*
X183403895Y-15243947D01*
X183179794Y-15336773D01*
X183179785Y-15336777D01*
X182969706Y-15458067D01*
X182777263Y-15605733D01*
X182777256Y-15605739D01*
X182605739Y-15777256D01*
X182605733Y-15777263D01*
X182458067Y-15969706D01*
X182336777Y-16179785D01*
X182336773Y-16179794D01*
X182243947Y-16403895D01*
X182181161Y-16638214D01*
X182149500Y-16878711D01*
X114241214Y-16878711D01*
X114251557Y-16858412D01*
X114317246Y-16656243D01*
X114350500Y-16446287D01*
X114350500Y-16233713D01*
X114317246Y-16023757D01*
X114251557Y-15821588D01*
X114155051Y-15632184D01*
X114155049Y-15632181D01*
X114155048Y-15632179D01*
X114030109Y-15460213D01*
X113916181Y-15346285D01*
X113882696Y-15284962D01*
X113887680Y-15215270D01*
X113929552Y-15159337D01*
X113960529Y-15142422D01*
X114092086Y-15093354D01*
X114092093Y-15093350D01*
X114207187Y-15007190D01*
X114207190Y-15007187D01*
X114293350Y-14892093D01*
X114293354Y-14892086D01*
X114343596Y-14757379D01*
X114343598Y-14757372D01*
X114349999Y-14697844D01*
X114350000Y-14697827D01*
X114350000Y-14050000D01*
X113433012Y-14050000D01*
X113465925Y-13992993D01*
X113500000Y-13865826D01*
X113500000Y-13734174D01*
X113465925Y-13607007D01*
X113433012Y-13550000D01*
X114350000Y-13550000D01*
X114350000Y-12902172D01*
X114349999Y-12902155D01*
X114343598Y-12842627D01*
X114343596Y-12842620D01*
X114293354Y-12707913D01*
X114293350Y-12707906D01*
X114207190Y-12592812D01*
X114207187Y-12592809D01*
X114092093Y-12506649D01*
X114092086Y-12506645D01*
X114049286Y-12490682D01*
X113993352Y-12448811D01*
X113968935Y-12383346D01*
X113983787Y-12315073D01*
X114033192Y-12265668D01*
X114092619Y-12250500D01*
X187625500Y-12250500D01*
X187692539Y-12270185D01*
X187738294Y-12322989D01*
X187749500Y-12374500D01*
X187749500Y-76125500D01*
X187729815Y-76192539D01*
X187677011Y-76238294D01*
X187625500Y-76249500D01*
X13874500Y-76249500D01*
X13807461Y-76229815D01*
X13761706Y-76177011D01*
X13750500Y-76125500D01*
X13750500Y-72378711D01*
X15649500Y-72378711D01*
X15649500Y-72621288D01*
X15681161Y-72861785D01*
X15743947Y-73096104D01*
X15796400Y-73222736D01*
X15836776Y-73320212D01*
X15958064Y-73530289D01*
X15958066Y-73530292D01*
X15958067Y-73530293D01*
X16105733Y-73722736D01*
X16105739Y-73722743D01*
X16277256Y-73894260D01*
X16277262Y-73894265D01*
X16469711Y-74041936D01*
X16679788Y-74163224D01*
X16903900Y-74256054D01*
X17138211Y-74318838D01*
X17318586Y-74342584D01*
X17378711Y-74350500D01*
X17378712Y-74350500D01*
X17621289Y-74350500D01*
X17669388Y-74344167D01*
X17861789Y-74318838D01*
X18096100Y-74256054D01*
X18320212Y-74163224D01*
X18530289Y-74041936D01*
X18722738Y-73894265D01*
X18894265Y-73722738D01*
X19041936Y-73530289D01*
X19163224Y-73320212D01*
X19256054Y-73096100D01*
X19318838Y-72861789D01*
X19350500Y-72621288D01*
X19350500Y-72378712D01*
X19318838Y-72138211D01*
X19256054Y-71903900D01*
X19249376Y-71887779D01*
X19163226Y-71679794D01*
X19163224Y-71679788D01*
X19041936Y-71469711D01*
X18894265Y-71277262D01*
X18894260Y-71277256D01*
X18722743Y-71105739D01*
X18722736Y-71105733D01*
X18530293Y-70958067D01*
X18530292Y-70958066D01*
X18530289Y-70958064D01*
X18320212Y-70836776D01*
X18320205Y-70836773D01*
X18096104Y-70743947D01*
X17861785Y-70681161D01*
X17621289Y-70649500D01*
X17621288Y-70649500D01*
X17378712Y-70649500D01*
X17378711Y-70649500D01*
X17138214Y-70681161D01*
X16903895Y-70743947D01*
X16679794Y-70836773D01*
X16679785Y-70836777D01*
X16469706Y-70958067D01*
X16277263Y-71105733D01*
X16277256Y-71105739D01*
X16105739Y-71277256D01*
X16105733Y-71277263D01*
X15958067Y-71469706D01*
X15836777Y-71679785D01*
X15836773Y-71679794D01*
X15743947Y-71903895D01*
X15681161Y-72138214D01*
X15649500Y-72378711D01*
X13750500Y-72378711D01*
X13750500Y-16878711D01*
X15649500Y-16878711D01*
X15649500Y-17121288D01*
X15681161Y-17361785D01*
X15743947Y-17596104D01*
X15817018Y-17772512D01*
X15836776Y-17820212D01*
X15958064Y-18030289D01*
X15958066Y-18030292D01*
X15958067Y-18030293D01*
X16105733Y-18222736D01*
X16105739Y-18222743D01*
X16277256Y-18394260D01*
X16277262Y-18394265D01*
X16469711Y-18541936D01*
X16679788Y-18663224D01*
X16903900Y-18756054D01*
X17138211Y-18818838D01*
X17318586Y-18842584D01*
X17378711Y-18850500D01*
X17378712Y-18850500D01*
X17621289Y-18850500D01*
X17669388Y-18844167D01*
X17861789Y-18818838D01*
X18096100Y-18756054D01*
X18100286Y-18754320D01*
X18100287Y-18754320D01*
X18156367Y-18731090D01*
X18320212Y-18663224D01*
X18530289Y-18541936D01*
X18722738Y-18394265D01*
X18894265Y-18222738D01*
X19041936Y-18030289D01*
X19163224Y-17820212D01*
X19256054Y-17596100D01*
X19318838Y-17361789D01*
X19350500Y-17121288D01*
X19350500Y-16878712D01*
X19347383Y-16855039D01*
X19340885Y-16805676D01*
X19318838Y-16638211D01*
X19256054Y-16403900D01*
X19163224Y-16179788D01*
X19041936Y-15969711D01*
X18968552Y-15874075D01*
X18894266Y-15777263D01*
X18894260Y-15777256D01*
X18722743Y-15605739D01*
X18722736Y-15605733D01*
X18530293Y-15458067D01*
X18530292Y-15458066D01*
X18530289Y-15458064D01*
X18343368Y-15350145D01*
X18320214Y-15336777D01*
X18320205Y-15336773D01*
X18096104Y-15243947D01*
X17861785Y-15181161D01*
X17621289Y-15149500D01*
X17621288Y-15149500D01*
X17378712Y-15149500D01*
X17378711Y-15149500D01*
X17138214Y-15181161D01*
X16903895Y-15243947D01*
X16679794Y-15336773D01*
X16679785Y-15336777D01*
X16469706Y-15458067D01*
X16277263Y-15605733D01*
X16277256Y-15605739D01*
X16105739Y-15777256D01*
X16105733Y-15777263D01*
X15958067Y-15969706D01*
X15836777Y-16179785D01*
X15836773Y-16179794D01*
X15743947Y-16403895D01*
X15681161Y-16638214D01*
X15649500Y-16878711D01*
X13750500Y-16878711D01*
X13750500Y-13002135D01*
X24149500Y-13002135D01*
X24149500Y-14797870D01*
X24149501Y-14797876D01*
X24155908Y-14857483D01*
X24206202Y-14992328D01*
X24206206Y-14992335D01*
X24292452Y-15107544D01*
X24292455Y-15107547D01*
X24407664Y-15193793D01*
X24407671Y-15193797D01*
X24539082Y-15242810D01*
X24595016Y-15284681D01*
X24619433Y-15350145D01*
X24604582Y-15418418D01*
X24583431Y-15446673D01*
X24469889Y-15560215D01*
X24344951Y-15732179D01*
X24248444Y-15921585D01*
X24182753Y-16123760D01*
X24149500Y-16333713D01*
X24149500Y-16546286D01*
X24166897Y-16656130D01*
X24182754Y-16756243D01*
X24222546Y-16878711D01*
X24248444Y-16958414D01*
X24344951Y-17147820D01*
X24469890Y-17319786D01*
X24620213Y-17470109D01*
X24792179Y-17595048D01*
X24792181Y-17595049D01*
X24792184Y-17595051D01*
X24801493Y-17599794D01*
X24852290Y-17647766D01*
X24869087Y-17715587D01*
X24846552Y-17781722D01*
X24801505Y-17820760D01*
X24792446Y-17825376D01*
X24792440Y-17825380D01*
X24738282Y-17864727D01*
X24738282Y-17864728D01*
X25370591Y-18497037D01*
X25307007Y-18514075D01*
X25192993Y-18579901D01*
X25099901Y-18672993D01*
X25034075Y-18787007D01*
X25017037Y-18850591D01*
X24384728Y-18218282D01*
X24384727Y-18218282D01*
X24345380Y-18272439D01*
X24248904Y-18461782D01*
X24183242Y-18663869D01*
X24183242Y-18663872D01*
X24150000Y-18873753D01*
X24150000Y-19086246D01*
X24183242Y-19296127D01*
X24183242Y-19296130D01*
X24248904Y-19498217D01*
X24345375Y-19687550D01*
X24384728Y-19741716D01*
X25017037Y-19109408D01*
X25034075Y-19172993D01*
X25099901Y-19287007D01*
X25192993Y-19380099D01*
X25307007Y-19445925D01*
X25370590Y-19462962D01*
X24738282Y-20095269D01*
X24738282Y-20095270D01*
X24792452Y-20134626D01*
X24792451Y-20134626D01*
X24801495Y-20139234D01*
X24852292Y-20187208D01*
X24869087Y-20255029D01*
X24846550Y-20321164D01*
X24801499Y-20360202D01*
X24792182Y-20364949D01*
X24620213Y-20489890D01*
X24469890Y-20640213D01*
X24344951Y-20812179D01*
X24248444Y-21001585D01*
X24182753Y-21203760D01*
X24149500Y-21413713D01*
X24149500Y-21626286D01*
X24182753Y-21836239D01*
X24182753Y-21836241D01*
X24182754Y-21836243D01*
X24204939Y-21904522D01*
X24248444Y-22038414D01*
X24344951Y-22227820D01*
X24469890Y-22399786D01*
X24620213Y-22550109D01*
X24792182Y-22675050D01*
X24800946Y-22679516D01*
X24851742Y-22727491D01*
X24868536Y-22795312D01*
X24845998Y-22861447D01*
X24800946Y-22900484D01*
X24792182Y-22904949D01*
X24620213Y-23029890D01*
X24469890Y-23180213D01*
X24344951Y-23352179D01*
X24248444Y-23541585D01*
X24182753Y-23743760D01*
X24149500Y-23953713D01*
X24149500Y-24166286D01*
X24182753Y-24376239D01*
X24182753Y-24376241D01*
X24182754Y-24376243D01*
X24248215Y-24577711D01*
X24248444Y-24578414D01*
X24344951Y-24767820D01*
X24469890Y-24939786D01*
X24620213Y-25090109D01*
X24792182Y-25215050D01*
X24800946Y-25219516D01*
X24851742Y-25267491D01*
X24868536Y-25335312D01*
X24845998Y-25401447D01*
X24800946Y-25440484D01*
X24792182Y-25444949D01*
X24620213Y-25569890D01*
X24469890Y-25720213D01*
X24344951Y-25892179D01*
X24248444Y-26081585D01*
X24182753Y-26283760D01*
X24163233Y-26407007D01*
X24149500Y-26493713D01*
X24149500Y-26706287D01*
X24159534Y-26769644D01*
X24182735Y-26916127D01*
X24182754Y-26916243D01*
X24237431Y-27084522D01*
X24248444Y-27118414D01*
X24344951Y-27307820D01*
X24469890Y-27479786D01*
X24620213Y-27630109D01*
X24792182Y-27755050D01*
X24800946Y-27759516D01*
X24851742Y-27807491D01*
X24868536Y-27875312D01*
X24845998Y-27941447D01*
X24800946Y-27980484D01*
X24792182Y-27984949D01*
X24620213Y-28109890D01*
X24469890Y-28260213D01*
X24344951Y-28432179D01*
X24248444Y-28621585D01*
X24182753Y-28823760D01*
X24149762Y-29032058D01*
X24149500Y-29033713D01*
X24149500Y-29246287D01*
X24153801Y-29273442D01*
X24182753Y-29456239D01*
X24182753Y-29456241D01*
X24182754Y-29456243D01*
X24237431Y-29624522D01*
X24248444Y-29658414D01*
X24344951Y-29847820D01*
X24469890Y-30019786D01*
X24620213Y-30170109D01*
X24792179Y-30295048D01*
X24792181Y-30295049D01*
X24792184Y-30295051D01*
X24801493Y-30299794D01*
X24852290Y-30347766D01*
X24869087Y-30415587D01*
X24846552Y-30481722D01*
X24801505Y-30520760D01*
X24792446Y-30525376D01*
X24792440Y-30525380D01*
X24738282Y-30564727D01*
X24738282Y-30564728D01*
X25370591Y-31197037D01*
X25307007Y-31214075D01*
X25192993Y-31279901D01*
X25099901Y-31372993D01*
X25034075Y-31487007D01*
X25017037Y-31550591D01*
X24384728Y-30918282D01*
X24384727Y-30918282D01*
X24345380Y-30972439D01*
X24248904Y-31161782D01*
X24183242Y-31363869D01*
X24183242Y-31363872D01*
X24150000Y-31573753D01*
X24150000Y-31786246D01*
X24183242Y-31996127D01*
X24183242Y-31996130D01*
X24248904Y-32198217D01*
X24345375Y-32387550D01*
X24384728Y-32441716D01*
X25017037Y-31809408D01*
X25034075Y-31872993D01*
X25099901Y-31987007D01*
X25192993Y-32080099D01*
X25307007Y-32145925D01*
X25370590Y-32162962D01*
X24738282Y-32795269D01*
X24738282Y-32795270D01*
X24792452Y-32834626D01*
X24792451Y-32834626D01*
X24801495Y-32839234D01*
X24852292Y-32887208D01*
X24869087Y-32955029D01*
X24846550Y-33021164D01*
X24801499Y-33060202D01*
X24792182Y-33064949D01*
X24620213Y-33189890D01*
X24469890Y-33340213D01*
X24344951Y-33512179D01*
X24248444Y-33701585D01*
X24248443Y-33701587D01*
X24248443Y-33701588D01*
X24248050Y-33702797D01*
X24182753Y-33903760D01*
X24164555Y-34018657D01*
X24149500Y-34113713D01*
X24149500Y-34326287D01*
X24153031Y-34348582D01*
X24182753Y-34536239D01*
X24182753Y-34536241D01*
X24182754Y-34536243D01*
X24237431Y-34704522D01*
X24248444Y-34738414D01*
X24344951Y-34927820D01*
X24469890Y-35099786D01*
X24620213Y-35250109D01*
X24792182Y-35375050D01*
X24800946Y-35379516D01*
X24851742Y-35427491D01*
X24868536Y-35495312D01*
X24845998Y-35561447D01*
X24800946Y-35600484D01*
X24792182Y-35604949D01*
X24620213Y-35729890D01*
X24469890Y-35880213D01*
X24344951Y-36052179D01*
X24248444Y-36241585D01*
X24182753Y-36443760D01*
X24149500Y-36653713D01*
X24149500Y-36866286D01*
X24182753Y-37076239D01*
X24182753Y-37076241D01*
X24182754Y-37076243D01*
X24237431Y-37244522D01*
X24248444Y-37278414D01*
X24344951Y-37467820D01*
X24469890Y-37639786D01*
X24620213Y-37790109D01*
X24792182Y-37915050D01*
X24800946Y-37919516D01*
X24851742Y-37967491D01*
X24868536Y-38035312D01*
X24845998Y-38101447D01*
X24800946Y-38140484D01*
X24792182Y-38144949D01*
X24620213Y-38269890D01*
X24469890Y-38420213D01*
X24344951Y-38592179D01*
X24248444Y-38781585D01*
X24182753Y-38983760D01*
X24149500Y-39193713D01*
X24149500Y-39406286D01*
X24182735Y-39616127D01*
X24182754Y-39616243D01*
X24238077Y-39786510D01*
X24248444Y-39818414D01*
X24344951Y-40007820D01*
X24469890Y-40179786D01*
X24620213Y-40330109D01*
X24792182Y-40455050D01*
X24800946Y-40459516D01*
X24851742Y-40507491D01*
X24868536Y-40575312D01*
X24845998Y-40641447D01*
X24800946Y-40680484D01*
X24792182Y-40684949D01*
X24620213Y-40809890D01*
X24469890Y-40960213D01*
X24344951Y-41132179D01*
X24248444Y-41321585D01*
X24182753Y-41523760D01*
X24157061Y-41685976D01*
X24149500Y-41733713D01*
X24149500Y-41946287D01*
X24182754Y-42156243D01*
X24225773Y-42288642D01*
X24248444Y-42358414D01*
X24344951Y-42547820D01*
X24469890Y-42719786D01*
X24620213Y-42870109D01*
X24792179Y-42995048D01*
X24792181Y-42995049D01*
X24792184Y-42995051D01*
X24801493Y-42999794D01*
X24852290Y-43047766D01*
X24869087Y-43115587D01*
X24846552Y-43181722D01*
X24801505Y-43220760D01*
X24792446Y-43225376D01*
X24792440Y-43225380D01*
X24738282Y-43264727D01*
X24738282Y-43264728D01*
X25370591Y-43897037D01*
X25307007Y-43914075D01*
X25192993Y-43979901D01*
X25099901Y-44072993D01*
X25034075Y-44187007D01*
X25017037Y-44250591D01*
X24384728Y-43618282D01*
X24384727Y-43618282D01*
X24345380Y-43672439D01*
X24248904Y-43861782D01*
X24183242Y-44063869D01*
X24183242Y-44063872D01*
X24150000Y-44273753D01*
X24150000Y-44486246D01*
X24183242Y-44696127D01*
X24183242Y-44696130D01*
X24248904Y-44898217D01*
X24345375Y-45087550D01*
X24384728Y-45141716D01*
X25017037Y-44509408D01*
X25034075Y-44572993D01*
X25099901Y-44687007D01*
X25192993Y-44780099D01*
X25307007Y-44845925D01*
X25370590Y-44862962D01*
X24738282Y-45495269D01*
X24738282Y-45495270D01*
X24792452Y-45534626D01*
X24792451Y-45534626D01*
X24801495Y-45539234D01*
X24852292Y-45587208D01*
X24869087Y-45655029D01*
X24846550Y-45721164D01*
X24801499Y-45760202D01*
X24792182Y-45764949D01*
X24620213Y-45889890D01*
X24469890Y-46040213D01*
X24344951Y-46212179D01*
X24248444Y-46401585D01*
X24182753Y-46603760D01*
X24149500Y-46813713D01*
X24149500Y-47026286D01*
X24182753Y-47236239D01*
X24182753Y-47236241D01*
X24182754Y-47236243D01*
X24237431Y-47404522D01*
X24248444Y-47438414D01*
X24344951Y-47627820D01*
X24469890Y-47799786D01*
X24620213Y-47950109D01*
X24792182Y-48075050D01*
X24800946Y-48079516D01*
X24851742Y-48127491D01*
X24868536Y-48195312D01*
X24845998Y-48261447D01*
X24800946Y-48300484D01*
X24792182Y-48304949D01*
X24620213Y-48429890D01*
X24469890Y-48580213D01*
X24344951Y-48752179D01*
X24248444Y-48941585D01*
X24182753Y-49143760D01*
X24149500Y-49353713D01*
X24149500Y-49566286D01*
X24182753Y-49776239D01*
X24248444Y-49978414D01*
X24344951Y-50167820D01*
X24469890Y-50339786D01*
X24620213Y-50490109D01*
X24792182Y-50615050D01*
X24800946Y-50619516D01*
X24851742Y-50667491D01*
X24868536Y-50735312D01*
X24845998Y-50801447D01*
X24800946Y-50840484D01*
X24792182Y-50844949D01*
X24620213Y-50969890D01*
X24469890Y-51120213D01*
X24344951Y-51292179D01*
X24248444Y-51481585D01*
X24182753Y-51683760D01*
X24181291Y-51692993D01*
X24149500Y-51893713D01*
X24149500Y-52106287D01*
X24159534Y-52169644D01*
X24182753Y-52316239D01*
X24248444Y-52518414D01*
X24344951Y-52707820D01*
X24469890Y-52879786D01*
X24620213Y-53030109D01*
X24792182Y-53155050D01*
X24800946Y-53159516D01*
X24851742Y-53207491D01*
X24868536Y-53275312D01*
X24845998Y-53341447D01*
X24800946Y-53380484D01*
X24792182Y-53384949D01*
X24620213Y-53509890D01*
X24469890Y-53660213D01*
X24344951Y-53832179D01*
X24248444Y-54021585D01*
X24182753Y-54223760D01*
X24149500Y-54433713D01*
X24149500Y-54646286D01*
X24182753Y-54856239D01*
X24248444Y-55058414D01*
X24344951Y-55247820D01*
X24469890Y-55419786D01*
X24620213Y-55570109D01*
X24792179Y-55695048D01*
X24792181Y-55695049D01*
X24792184Y-55695051D01*
X24801493Y-55699794D01*
X24852290Y-55747766D01*
X24869087Y-55815587D01*
X24846552Y-55881722D01*
X24801505Y-55920760D01*
X24792446Y-55925376D01*
X24792440Y-55925380D01*
X24738282Y-55964727D01*
X24738282Y-55964728D01*
X25370591Y-56597037D01*
X25307007Y-56614075D01*
X25192993Y-56679901D01*
X25099901Y-56772993D01*
X25034075Y-56887007D01*
X25017037Y-56950591D01*
X24384728Y-56318282D01*
X24384727Y-56318282D01*
X24345380Y-56372439D01*
X24248904Y-56561782D01*
X24183242Y-56763869D01*
X24183242Y-56763872D01*
X24150000Y-56973753D01*
X24150000Y-57186246D01*
X24183242Y-57396127D01*
X24183242Y-57396130D01*
X24248904Y-57598217D01*
X24345375Y-57787550D01*
X24384728Y-57841716D01*
X25017037Y-57209408D01*
X25034075Y-57272993D01*
X25099901Y-57387007D01*
X25192993Y-57480099D01*
X25307007Y-57545925D01*
X25370589Y-57562962D01*
X24738282Y-58195269D01*
X24738282Y-58195270D01*
X24792449Y-58234624D01*
X24981782Y-58331095D01*
X25183870Y-58396757D01*
X25393754Y-58430000D01*
X25606246Y-58430000D01*
X25816126Y-58396758D01*
X25913681Y-58365060D01*
X25983522Y-58363065D01*
X26043355Y-58399145D01*
X26074184Y-58461845D01*
X26076000Y-58482991D01*
X26076000Y-59160103D01*
X26056315Y-59227142D01*
X26039681Y-59247784D01*
X25197239Y-60090225D01*
X25135916Y-60123710D01*
X25133750Y-60124161D01*
X24978408Y-60155061D01*
X24978398Y-60155064D01*
X24832727Y-60215402D01*
X24832714Y-60215409D01*
X24701611Y-60303010D01*
X24701607Y-60303013D01*
X24590113Y-60414507D01*
X24590110Y-60414511D01*
X24502509Y-60545614D01*
X24502502Y-60545627D01*
X24442164Y-60691298D01*
X24442161Y-60691310D01*
X24411400Y-60845953D01*
X24411400Y-61003646D01*
X24442161Y-61158289D01*
X24442164Y-61158301D01*
X24502502Y-61303972D01*
X24502509Y-61303985D01*
X24590110Y-61435088D01*
X24590113Y-61435092D01*
X24701607Y-61546586D01*
X24701611Y-61546589D01*
X24832714Y-61634190D01*
X24832727Y-61634197D01*
X24978398Y-61694535D01*
X24978403Y-61694537D01*
X25133053Y-61725299D01*
X25133056Y-61725300D01*
X25133058Y-61725300D01*
X25290744Y-61725300D01*
X25290745Y-61725299D01*
X25445397Y-61694537D01*
X25591079Y-61634194D01*
X25722189Y-61546589D01*
X25833689Y-61435089D01*
X25921294Y-61303979D01*
X25981637Y-61158297D01*
X26008316Y-61024174D01*
X26012538Y-61002950D01*
X26044923Y-60941039D01*
X26046420Y-60939514D01*
X27035006Y-59950927D01*
X27035011Y-59950924D01*
X27045214Y-59940720D01*
X27045216Y-59940720D01*
X27157020Y-59828916D01*
X27209146Y-59738631D01*
X27236077Y-59691985D01*
X27277000Y-59539257D01*
X27277000Y-59381143D01*
X27277000Y-48017443D01*
X27264913Y-47972331D01*
X27236077Y-47864715D01*
X27189567Y-47784158D01*
X27157020Y-47727784D01*
X27045216Y-47615980D01*
X27045215Y-47615979D01*
X27040885Y-47611649D01*
X27040874Y-47611639D01*
X26833757Y-47404522D01*
X26800272Y-47343199D01*
X26803507Y-47278523D01*
X26817246Y-47236243D01*
X26850500Y-47026287D01*
X26850500Y-46813713D01*
X26817246Y-46603757D01*
X26751557Y-46401588D01*
X26655051Y-46212184D01*
X26655049Y-46212181D01*
X26655048Y-46212179D01*
X26530109Y-46040213D01*
X26379786Y-45889890D01*
X26207817Y-45764949D01*
X26198504Y-45760204D01*
X26147707Y-45712230D01*
X26130912Y-45644409D01*
X26153449Y-45578274D01*
X26198507Y-45539232D01*
X26207555Y-45534622D01*
X26261716Y-45495270D01*
X26261717Y-45495270D01*
X25629408Y-44862962D01*
X25692993Y-44845925D01*
X25807007Y-44780099D01*
X25900099Y-44687007D01*
X25965925Y-44572993D01*
X25982962Y-44509408D01*
X26615270Y-45141717D01*
X26615270Y-45141716D01*
X26654622Y-45087554D01*
X26751095Y-44898217D01*
X26816757Y-44696130D01*
X26816757Y-44696127D01*
X26850000Y-44486246D01*
X26850000Y-44273753D01*
X26816757Y-44063872D01*
X26816757Y-44063869D01*
X26751095Y-43861782D01*
X26654624Y-43672449D01*
X26615270Y-43618282D01*
X26615269Y-43618282D01*
X25982962Y-44250590D01*
X25965925Y-44187007D01*
X25900099Y-44072993D01*
X25807007Y-43979901D01*
X25692993Y-43914075D01*
X25629409Y-43897037D01*
X26261716Y-43264728D01*
X26207547Y-43225373D01*
X26207547Y-43225372D01*
X26198500Y-43220763D01*
X26147706Y-43172788D01*
X26130912Y-43104966D01*
X26153451Y-43038832D01*
X26198508Y-42999793D01*
X26207816Y-42995051D01*
X26300720Y-42927553D01*
X26379786Y-42870109D01*
X26379788Y-42870106D01*
X26379792Y-42870104D01*
X26530104Y-42719792D01*
X26530106Y-42719788D01*
X26530109Y-42719786D01*
X26655048Y-42547820D01*
X26655047Y-42547820D01*
X26655051Y-42547816D01*
X26751557Y-42358412D01*
X26817246Y-42156243D01*
X26850500Y-41946287D01*
X26850500Y-41733713D01*
X26817246Y-41523757D01*
X26751557Y-41321588D01*
X26655051Y-41132184D01*
X26655049Y-41132181D01*
X26655048Y-41132179D01*
X26530109Y-40960213D01*
X26379786Y-40809890D01*
X26207820Y-40684951D01*
X26207115Y-40684591D01*
X26199054Y-40680485D01*
X26148259Y-40632512D01*
X26131463Y-40564692D01*
X26153999Y-40498556D01*
X26199054Y-40459515D01*
X26207816Y-40455051D01*
X26262572Y-40415269D01*
X26379786Y-40330109D01*
X26379788Y-40330106D01*
X26379792Y-40330104D01*
X26530104Y-40179792D01*
X26530106Y-40179788D01*
X26530109Y-40179786D01*
X26655048Y-40007820D01*
X26655047Y-40007820D01*
X26655051Y-40007816D01*
X26751557Y-39818412D01*
X26817246Y-39616243D01*
X26850500Y-39406287D01*
X26850500Y-39259097D01*
X26870185Y-39192058D01*
X26922989Y-39146303D01*
X26992147Y-39136359D01*
X27055703Y-39165384D01*
X27062181Y-39171416D01*
X29381539Y-41490774D01*
X29381549Y-41490785D01*
X29385879Y-41495115D01*
X29385880Y-41495116D01*
X29497684Y-41606920D01*
X29572688Y-41650223D01*
X29634615Y-41685977D01*
X29784084Y-41726027D01*
X29822728Y-41745878D01*
X29823446Y-41744805D01*
X29959614Y-41835790D01*
X29959627Y-41835797D01*
X30105298Y-41896135D01*
X30105303Y-41896137D01*
X30259953Y-41926899D01*
X30259956Y-41926900D01*
X30403800Y-41926900D01*
X30470839Y-41946585D01*
X30516594Y-41999389D01*
X30527800Y-42050900D01*
X30527800Y-57358634D01*
X30508115Y-57425673D01*
X30506902Y-57427525D01*
X30418909Y-57559214D01*
X30418902Y-57559227D01*
X30358564Y-57704898D01*
X30358561Y-57704910D01*
X30327800Y-57859553D01*
X30327800Y-58017246D01*
X30358561Y-58171889D01*
X30358564Y-58171901D01*
X30418902Y-58317572D01*
X30418909Y-58317585D01*
X30506510Y-58448688D01*
X30506513Y-58448692D01*
X30618007Y-58560186D01*
X30618011Y-58560189D01*
X30749114Y-58647790D01*
X30749127Y-58647797D01*
X30894798Y-58708135D01*
X30894803Y-58708137D01*
X31049453Y-58738899D01*
X31049456Y-58738900D01*
X31049458Y-58738900D01*
X31207144Y-58738900D01*
X31207145Y-58738899D01*
X31361797Y-58708137D01*
X31507479Y-58647794D01*
X31638589Y-58560189D01*
X31750089Y-58448689D01*
X31826598Y-58334186D01*
X31880210Y-58289381D01*
X31949535Y-58280674D01*
X32012563Y-58310828D01*
X32049282Y-58370272D01*
X32053700Y-58403077D01*
X32053700Y-59780230D01*
X32053699Y-59780248D01*
X32053699Y-59945954D01*
X32053698Y-59945954D01*
X32094623Y-60098685D01*
X32109412Y-60124300D01*
X32173677Y-60235612D01*
X32173681Y-60235617D01*
X32292549Y-60354485D01*
X32292555Y-60354490D01*
X33610839Y-61672774D01*
X33610849Y-61672785D01*
X33615179Y-61677115D01*
X33615180Y-61677116D01*
X33726984Y-61788920D01*
X33794959Y-61828165D01*
X33863915Y-61867977D01*
X34016643Y-61908901D01*
X34016646Y-61908901D01*
X34182353Y-61908901D01*
X34182369Y-61908900D01*
X45175631Y-61908900D01*
X45175647Y-61908901D01*
X45183243Y-61908901D01*
X45341354Y-61908901D01*
X45341357Y-61908901D01*
X45494085Y-61867977D01*
X45563041Y-61828165D01*
X45631016Y-61788920D01*
X45742820Y-61677116D01*
X45742820Y-61677114D01*
X45753024Y-61666911D01*
X45753028Y-61666906D01*
X59224106Y-48195828D01*
X59224111Y-48195824D01*
X59234314Y-48185620D01*
X59234316Y-48185620D01*
X59346120Y-48073816D01*
X59425177Y-47936884D01*
X59466100Y-47784157D01*
X59466100Y-40599765D01*
X59485785Y-40532726D01*
X59486998Y-40530874D01*
X59574990Y-40399185D01*
X59574990Y-40399184D01*
X59574994Y-40399179D01*
X59635337Y-40253497D01*
X59666100Y-40098842D01*
X59666100Y-39941158D01*
X59666100Y-39941155D01*
X59666099Y-39941153D01*
X59635337Y-39786503D01*
X59574994Y-39640821D01*
X59574993Y-39640819D01*
X59574990Y-39640814D01*
X59487389Y-39509711D01*
X59487386Y-39509707D01*
X59375892Y-39398213D01*
X59375888Y-39398210D01*
X59244785Y-39310609D01*
X59244772Y-39310602D01*
X59099101Y-39250264D01*
X59099089Y-39250261D01*
X58944445Y-39219500D01*
X58944442Y-39219500D01*
X58788400Y-39219500D01*
X58721361Y-39199815D01*
X58675606Y-39147011D01*
X58664400Y-39095500D01*
X58664400Y-36598682D01*
X58684085Y-36531643D01*
X58736889Y-36485888D01*
X58806047Y-36475944D01*
X58869603Y-36504969D01*
X58876081Y-36511001D01*
X79475736Y-57110656D01*
X79509221Y-57171979D01*
X79504237Y-57241671D01*
X79462367Y-57297603D01*
X79402452Y-57342455D01*
X79316206Y-57457664D01*
X79316202Y-57457671D01*
X79265908Y-57592517D01*
X79259501Y-57652116D01*
X79259501Y-57652123D01*
X79259500Y-57652135D01*
X79259500Y-59447870D01*
X79259501Y-59447876D01*
X79265908Y-59507483D01*
X79316202Y-59642328D01*
X79316206Y-59642335D01*
X79402452Y-59757544D01*
X79402455Y-59757547D01*
X79517664Y-59843793D01*
X79517671Y-59843797D01*
X79562618Y-59860561D01*
X79652517Y-59894091D01*
X79712127Y-59900500D01*
X79722685Y-59900499D01*
X79789723Y-59920179D01*
X79810372Y-59936818D01*
X80480591Y-60607037D01*
X80417007Y-60624075D01*
X80302993Y-60689901D01*
X80209901Y-60782993D01*
X80144075Y-60897007D01*
X80127037Y-60960591D01*
X79494728Y-60328282D01*
X79494727Y-60328282D01*
X79455380Y-60382439D01*
X79358904Y-60571782D01*
X79293242Y-60773869D01*
X79293242Y-60773872D01*
X79260000Y-60983753D01*
X79260000Y-61196246D01*
X79293242Y-61406127D01*
X79293242Y-61406130D01*
X79358904Y-61608217D01*
X79455375Y-61797550D01*
X79494728Y-61851716D01*
X80127037Y-61219408D01*
X80144075Y-61282993D01*
X80209901Y-61397007D01*
X80302993Y-61490099D01*
X80417007Y-61555925D01*
X80480590Y-61572962D01*
X79848282Y-62205269D01*
X79848282Y-62205270D01*
X79902452Y-62244626D01*
X79902451Y-62244626D01*
X79911495Y-62249234D01*
X79962292Y-62297208D01*
X79979087Y-62365029D01*
X79956550Y-62431164D01*
X79911499Y-62470202D01*
X79902182Y-62474949D01*
X79730213Y-62599890D01*
X79579890Y-62750213D01*
X79454951Y-62922179D01*
X79358444Y-63111585D01*
X79292753Y-63313760D01*
X79283599Y-63371557D01*
X79259500Y-63523713D01*
X79259500Y-63736287D01*
X79292754Y-63946243D01*
X79294684Y-63952184D01*
X79358444Y-64148414D01*
X79454951Y-64337820D01*
X79579890Y-64509786D01*
X79730213Y-64660109D01*
X79902179Y-64785048D01*
X79902181Y-64785049D01*
X79902184Y-64785051D01*
X79911493Y-64789794D01*
X79962290Y-64837766D01*
X79979087Y-64905587D01*
X79956552Y-64971722D01*
X79911505Y-65010760D01*
X79902446Y-65015376D01*
X79902440Y-65015380D01*
X79848282Y-65054727D01*
X79848282Y-65054728D01*
X80480591Y-65687037D01*
X80417007Y-65704075D01*
X80302993Y-65769901D01*
X80209901Y-65862993D01*
X80144075Y-65977007D01*
X80127037Y-66040591D01*
X79494728Y-65408282D01*
X79494727Y-65408282D01*
X79455380Y-65462439D01*
X79358904Y-65651782D01*
X79293242Y-65853869D01*
X79293242Y-65853872D01*
X79260000Y-66063753D01*
X79260000Y-66276246D01*
X79293242Y-66486127D01*
X79293242Y-66486130D01*
X79358904Y-66688217D01*
X79455375Y-66877550D01*
X79494728Y-66931716D01*
X80127037Y-66299408D01*
X80144075Y-66362993D01*
X80209901Y-66477007D01*
X80302993Y-66570099D01*
X80417007Y-66635925D01*
X80480591Y-66652962D01*
X79879971Y-67253581D01*
X79958711Y-67370895D01*
X79959920Y-67374729D01*
X79962844Y-67377491D01*
X79970343Y-67407778D01*
X79979727Y-67437529D01*
X79978671Y-67441408D01*
X79979638Y-67445312D01*
X79969573Y-67474844D01*
X79961383Y-67504947D01*
X79958397Y-67507640D01*
X79957100Y-67511447D01*
X79912051Y-67550483D01*
X79902440Y-67555380D01*
X79848282Y-67594727D01*
X79848282Y-67594728D01*
X80480591Y-68227037D01*
X80417007Y-68244075D01*
X80302993Y-68309901D01*
X80209901Y-68402993D01*
X80144075Y-68517007D01*
X80127037Y-68580591D01*
X79494728Y-67948282D01*
X79494727Y-67948282D01*
X79455380Y-68002439D01*
X79358904Y-68191782D01*
X79293242Y-68393869D01*
X79293242Y-68393872D01*
X79260000Y-68603753D01*
X79260000Y-68816246D01*
X79293242Y-69026127D01*
X79293242Y-69026130D01*
X79358904Y-69228217D01*
X79455375Y-69417550D01*
X79494728Y-69471716D01*
X80127037Y-68839408D01*
X80144075Y-68902993D01*
X80209901Y-69017007D01*
X80302993Y-69110099D01*
X80417007Y-69175925D01*
X80480590Y-69192962D01*
X79848282Y-69825269D01*
X79848282Y-69825270D01*
X79902452Y-69864626D01*
X79902451Y-69864626D01*
X79911495Y-69869234D01*
X79962292Y-69917208D01*
X79979087Y-69985029D01*
X79956550Y-70051164D01*
X79911499Y-70090202D01*
X79902182Y-70094949D01*
X79730213Y-70219890D01*
X79579890Y-70370213D01*
X79454951Y-70542179D01*
X79358444Y-70731585D01*
X79358443Y-70731587D01*
X79358443Y-70731588D01*
X79343603Y-70777262D01*
X79292753Y-70933760D01*
X79259500Y-71143713D01*
X79259500Y-71356287D01*
X79292754Y-71566243D01*
X79329647Y-71679788D01*
X79358444Y-71768414D01*
X79454951Y-71957820D01*
X79579890Y-72129786D01*
X79730213Y-72280109D01*
X79902179Y-72405048D01*
X79902181Y-72405049D01*
X79902184Y-72405051D01*
X80091588Y-72501557D01*
X80293757Y-72567246D01*
X80503713Y-72600500D01*
X80503714Y-72600500D01*
X80716286Y-72600500D01*
X80716287Y-72600500D01*
X80926243Y-72567246D01*
X81128412Y-72501557D01*
X81317816Y-72405051D01*
X81354070Y-72378711D01*
X81493734Y-72277241D01*
X81494364Y-72278108D01*
X81553419Y-72251641D01*
X81570200Y-72250500D01*
X121348542Y-72250500D01*
X121379566Y-72244328D01*
X121445188Y-72231275D01*
X121541836Y-72212051D01*
X121595165Y-72189961D01*
X121723914Y-72136632D01*
X121887782Y-72027139D01*
X122027139Y-71887782D01*
X122027139Y-71887780D01*
X122036209Y-71878711D01*
X182149500Y-71878711D01*
X182149500Y-72121288D01*
X182181161Y-72361785D01*
X182243947Y-72596104D01*
X182254379Y-72621288D01*
X182336776Y-72820212D01*
X182458064Y-73030289D01*
X182458066Y-73030292D01*
X182458067Y-73030293D01*
X182605733Y-73222736D01*
X182605739Y-73222743D01*
X182777256Y-73394260D01*
X182777262Y-73394265D01*
X182969711Y-73541936D01*
X183179788Y-73663224D01*
X183403900Y-73756054D01*
X183638211Y-73818838D01*
X183818586Y-73842584D01*
X183878711Y-73850500D01*
X183878712Y-73850500D01*
X184121289Y-73850500D01*
X184169388Y-73844167D01*
X184361789Y-73818838D01*
X184596100Y-73756054D01*
X184820212Y-73663224D01*
X185030289Y-73541936D01*
X185222738Y-73394265D01*
X185394265Y-73222738D01*
X185541936Y-73030289D01*
X185663224Y-72820212D01*
X185756054Y-72596100D01*
X185818838Y-72361789D01*
X185850500Y-72121288D01*
X185850500Y-71878712D01*
X185818838Y-71638211D01*
X185756054Y-71403900D01*
X185663224Y-71179788D01*
X185541936Y-70969711D01*
X185394265Y-70777262D01*
X185394260Y-70777256D01*
X185222743Y-70605739D01*
X185222736Y-70605733D01*
X185030293Y-70458067D01*
X185030292Y-70458066D01*
X185030289Y-70458064D01*
X184820212Y-70336776D01*
X184820205Y-70336773D01*
X184596104Y-70243947D01*
X184361785Y-70181161D01*
X184121289Y-70149500D01*
X184121288Y-70149500D01*
X183878712Y-70149500D01*
X183878711Y-70149500D01*
X183638214Y-70181161D01*
X183403895Y-70243947D01*
X183179794Y-70336773D01*
X183179785Y-70336777D01*
X182969706Y-70458067D01*
X182777263Y-70605733D01*
X182777256Y-70605739D01*
X182605739Y-70777256D01*
X182605733Y-70777263D01*
X182458067Y-70969706D01*
X182336777Y-71179785D01*
X182336773Y-71179794D01*
X182243947Y-71403895D01*
X182181161Y-71638214D01*
X182149500Y-71878711D01*
X122036209Y-71878711D01*
X122037347Y-71877573D01*
X122037348Y-71877570D01*
X131857139Y-62057782D01*
X131956618Y-61908901D01*
X131966632Y-61893914D01*
X132042051Y-61711835D01*
X132055130Y-61646086D01*
X132080500Y-61518541D01*
X132080500Y-61321460D01*
X132080500Y-33914141D01*
X132084557Y-33900323D01*
X132083748Y-33885946D01*
X132094204Y-33867468D01*
X132100185Y-33847102D01*
X132111711Y-33836532D01*
X132118160Y-33825138D01*
X132137391Y-33812984D01*
X132146733Y-33804419D01*
X132153739Y-33800729D01*
X132172331Y-33793796D01*
X132287546Y-33707546D01*
X132373796Y-33592331D01*
X132424091Y-33457483D01*
X132430500Y-33397873D01*
X132430499Y-32382014D01*
X138900000Y-32382014D01*
X138900000Y-32617985D01*
X138930799Y-32851914D01*
X138991870Y-33079837D01*
X139082160Y-33297819D01*
X139082165Y-33297828D01*
X139200144Y-33502171D01*
X139200145Y-33502172D01*
X139262721Y-33583723D01*
X139984152Y-32862292D01*
X139991049Y-32878942D01*
X140078599Y-33009970D01*
X140190030Y-33121401D01*
X140321058Y-33208951D01*
X140337706Y-33215846D01*
X139616275Y-33937277D01*
X139697827Y-33999854D01*
X139697828Y-33999855D01*
X139902171Y-34117834D01*
X139902180Y-34117839D01*
X140120163Y-34208129D01*
X140120161Y-34208129D01*
X140348085Y-34269200D01*
X140582014Y-34299999D01*
X140582029Y-34300000D01*
X140817971Y-34300000D01*
X140817985Y-34299999D01*
X141051914Y-34269200D01*
X141279837Y-34208129D01*
X141497819Y-34117839D01*
X141497828Y-34117834D01*
X141702181Y-33999850D01*
X141783723Y-33937279D01*
X141783723Y-33937276D01*
X141062293Y-33215847D01*
X141078942Y-33208951D01*
X141209970Y-33121401D01*
X141321401Y-33009970D01*
X141408951Y-32878942D01*
X141415847Y-32862293D01*
X142137276Y-33583723D01*
X142137279Y-33583723D01*
X142199850Y-33502181D01*
X142317834Y-33297828D01*
X142317839Y-33297819D01*
X142408129Y-33079837D01*
X142469200Y-32851914D01*
X142499999Y-32617985D01*
X142500000Y-32617971D01*
X142500000Y-32382028D01*
X142499999Y-32382014D01*
X142469200Y-32148085D01*
X142408129Y-31920162D01*
X142317839Y-31702180D01*
X142317834Y-31702171D01*
X142199855Y-31497828D01*
X142199848Y-31497817D01*
X142180286Y-31472324D01*
X142180283Y-31472321D01*
X142137277Y-31416275D01*
X141415846Y-32137705D01*
X141408951Y-32121058D01*
X141321401Y-31990030D01*
X141209970Y-31878599D01*
X141078942Y-31791049D01*
X141062293Y-31784152D01*
X141446461Y-31399983D01*
X143699500Y-31399983D01*
X143699500Y-33600001D01*
X143699501Y-33600018D01*
X143710000Y-33702796D01*
X143710001Y-33702798D01*
X143727420Y-33755365D01*
X143765186Y-33869334D01*
X143857288Y-34018656D01*
X143981344Y-34142712D01*
X144130666Y-34234814D01*
X144297203Y-34289999D01*
X144399991Y-34300500D01*
X146600008Y-34300499D01*
X146702797Y-34289999D01*
X146869334Y-34234814D01*
X147018656Y-34142712D01*
X147142712Y-34018656D01*
X147234814Y-33869334D01*
X147289999Y-33702797D01*
X147300500Y-33600009D01*
X147300499Y-31399992D01*
X147289999Y-31297203D01*
X147234814Y-31130666D01*
X147142712Y-30981344D01*
X147018656Y-30857288D01*
X146869334Y-30765186D01*
X146702797Y-30710001D01*
X146702795Y-30710000D01*
X146600010Y-30699500D01*
X144399998Y-30699500D01*
X144399981Y-30699501D01*
X144297203Y-30710000D01*
X144297200Y-30710001D01*
X144130668Y-30765185D01*
X144130663Y-30765187D01*
X143981342Y-30857289D01*
X143857289Y-30981342D01*
X143765187Y-31130663D01*
X143765185Y-31130668D01*
X143748838Y-31180000D01*
X143710001Y-31297203D01*
X143710001Y-31297204D01*
X143710000Y-31297204D01*
X143699500Y-31399983D01*
X141446461Y-31399983D01*
X141783723Y-31062721D01*
X141702172Y-31000145D01*
X141702171Y-31000144D01*
X141497828Y-30882165D01*
X141497819Y-30882160D01*
X141279836Y-30791870D01*
X141279838Y-30791870D01*
X141051914Y-30730799D01*
X140817985Y-30700000D01*
X140582014Y-30700000D01*
X140348085Y-30730799D01*
X140120162Y-30791870D01*
X139902180Y-30882160D01*
X139902171Y-30882165D01*
X139697828Y-31000144D01*
X139697818Y-31000150D01*
X139616275Y-31062720D01*
X139616275Y-31062721D01*
X140337706Y-31784152D01*
X140321058Y-31791049D01*
X140190030Y-31878599D01*
X140078599Y-31990030D01*
X139991049Y-32121058D01*
X139984152Y-32137706D01*
X139262721Y-31416275D01*
X139262720Y-31416275D01*
X139200150Y-31497818D01*
X139200144Y-31497828D01*
X139082165Y-31702171D01*
X139082160Y-31702180D01*
X138991870Y-31920162D01*
X138930799Y-32148085D01*
X138900000Y-32382014D01*
X132430499Y-32382014D01*
X132430499Y-31602128D01*
X132424485Y-31546186D01*
X132424091Y-31542516D01*
X132373797Y-31407671D01*
X132373793Y-31407664D01*
X132287547Y-31292455D01*
X132287544Y-31292452D01*
X132177341Y-31209953D01*
X132177323Y-31209941D01*
X132172331Y-31206204D01*
X132172328Y-31206202D01*
X132037482Y-31155908D01*
X132037483Y-31155908D01*
X131977883Y-31149501D01*
X131977881Y-31149500D01*
X131977873Y-31149500D01*
X131977864Y-31149500D01*
X130182129Y-31149500D01*
X130182123Y-31149501D01*
X130122516Y-31155908D01*
X129987671Y-31206202D01*
X129987664Y-31206206D01*
X129872455Y-31292452D01*
X129872452Y-31292455D01*
X129786206Y-31407664D01*
X129786203Y-31407669D01*
X129737189Y-31539083D01*
X129695317Y-31595016D01*
X129629853Y-31619433D01*
X129561580Y-31604581D01*
X129533326Y-31583430D01*
X129419786Y-31469890D01*
X129247820Y-31344951D01*
X129058414Y-31248444D01*
X129058413Y-31248443D01*
X129058412Y-31248443D01*
X128856243Y-31182754D01*
X128856241Y-31182753D01*
X128856240Y-31182753D01*
X128694957Y-31157208D01*
X128646287Y-31149500D01*
X128433713Y-31149500D01*
X128385042Y-31157208D01*
X128223760Y-31182753D01*
X128021585Y-31248444D01*
X127832179Y-31344951D01*
X127660213Y-31469890D01*
X127509890Y-31620213D01*
X127384949Y-31792182D01*
X127380484Y-31800946D01*
X127332509Y-31851742D01*
X127264688Y-31868536D01*
X127198553Y-31845998D01*
X127159516Y-31800946D01*
X127155050Y-31792182D01*
X127030109Y-31620213D01*
X126879786Y-31469890D01*
X126707820Y-31344951D01*
X126518414Y-31248444D01*
X126518413Y-31248443D01*
X126518412Y-31248443D01*
X126316243Y-31182754D01*
X126316241Y-31182753D01*
X126316240Y-31182753D01*
X126154957Y-31157208D01*
X126106287Y-31149500D01*
X125893713Y-31149500D01*
X125845042Y-31157208D01*
X125683760Y-31182753D01*
X125481585Y-31248444D01*
X125292179Y-31344951D01*
X125120215Y-31469889D01*
X125006285Y-31583819D01*
X124944962Y-31617303D01*
X124875270Y-31612319D01*
X124819337Y-31570447D01*
X124802422Y-31539470D01*
X124753354Y-31407913D01*
X124753350Y-31407906D01*
X124667190Y-31292812D01*
X124667187Y-31292809D01*
X124552093Y-31206649D01*
X124552086Y-31206645D01*
X124417379Y-31156403D01*
X124417372Y-31156401D01*
X124357844Y-31150000D01*
X123710000Y-31150000D01*
X123710000Y-32066988D01*
X123652993Y-32034075D01*
X123525826Y-32000000D01*
X123394174Y-32000000D01*
X123267007Y-32034075D01*
X123210000Y-32066988D01*
X123210000Y-31150000D01*
X122562155Y-31150000D01*
X122502627Y-31156401D01*
X122502620Y-31156403D01*
X122367913Y-31206645D01*
X122367906Y-31206649D01*
X122252812Y-31292809D01*
X122252809Y-31292812D01*
X122166649Y-31407906D01*
X122166645Y-31407913D01*
X122116403Y-31542620D01*
X122116401Y-31542627D01*
X122110000Y-31602155D01*
X122110000Y-32250000D01*
X123026988Y-32250000D01*
X122994075Y-32307007D01*
X122960000Y-32434174D01*
X122960000Y-32565826D01*
X122994075Y-32692993D01*
X123026988Y-32750000D01*
X122110000Y-32750000D01*
X122110000Y-33397844D01*
X122116401Y-33457372D01*
X122116403Y-33457379D01*
X122166645Y-33592086D01*
X122166649Y-33592093D01*
X122252809Y-33707187D01*
X122252812Y-33707190D01*
X122367906Y-33793350D01*
X122367913Y-33793354D01*
X122502620Y-33843596D01*
X122502627Y-33843598D01*
X122562155Y-33849999D01*
X122562172Y-33850000D01*
X123210000Y-33850000D01*
X123210000Y-32933012D01*
X123267007Y-32965925D01*
X123394174Y-33000000D01*
X123525826Y-33000000D01*
X123652993Y-32965925D01*
X123710000Y-32933012D01*
X123710000Y-33850000D01*
X124357828Y-33850000D01*
X124357844Y-33849999D01*
X124417372Y-33843598D01*
X124417379Y-33843596D01*
X124552086Y-33793354D01*
X124552093Y-33793350D01*
X124667187Y-33707190D01*
X124667190Y-33707187D01*
X124753350Y-33592093D01*
X124753354Y-33592086D01*
X124802422Y-33460529D01*
X124844293Y-33404595D01*
X124909757Y-33380178D01*
X124978030Y-33395030D01*
X125006285Y-33416181D01*
X125120213Y-33530109D01*
X125292179Y-33655048D01*
X125292181Y-33655049D01*
X125292184Y-33655051D01*
X125481588Y-33751557D01*
X125683757Y-33817246D01*
X125893713Y-33850500D01*
X125893714Y-33850500D01*
X126106286Y-33850500D01*
X126106287Y-33850500D01*
X126316243Y-33817246D01*
X126518412Y-33751557D01*
X126707816Y-33655051D01*
X126783566Y-33600016D01*
X126879786Y-33530109D01*
X126879788Y-33530106D01*
X126879792Y-33530104D01*
X127030104Y-33379792D01*
X127030106Y-33379788D01*
X127030109Y-33379786D01*
X127155048Y-33207820D01*
X127155047Y-33207820D01*
X127155051Y-33207816D01*
X127159514Y-33199054D01*
X127207488Y-33148259D01*
X127275308Y-33131463D01*
X127341444Y-33153999D01*
X127380486Y-33199056D01*
X127384951Y-33207820D01*
X127509890Y-33379786D01*
X127660213Y-33530109D01*
X127832179Y-33655048D01*
X127832181Y-33655049D01*
X127832184Y-33655051D01*
X128021588Y-33751557D01*
X128223757Y-33817246D01*
X128433713Y-33850500D01*
X128433714Y-33850500D01*
X128646286Y-33850500D01*
X128646287Y-33850500D01*
X128856243Y-33817246D01*
X129058412Y-33751557D01*
X129247816Y-33655051D01*
X129334471Y-33592093D01*
X129419784Y-33530110D01*
X129419784Y-33530109D01*
X129419792Y-33530104D01*
X129533329Y-33416566D01*
X129594648Y-33383084D01*
X129664340Y-33388068D01*
X129720274Y-33429939D01*
X129737189Y-33460917D01*
X129786202Y-33592328D01*
X129786206Y-33592335D01*
X129872452Y-33707544D01*
X129872455Y-33707547D01*
X129987665Y-33793794D01*
X129987667Y-33793794D01*
X129987669Y-33793796D01*
X129998830Y-33797958D01*
X130054764Y-33839826D01*
X130079184Y-33905289D01*
X130079500Y-33914141D01*
X130079500Y-60954217D01*
X130059815Y-61021256D01*
X130043181Y-61041898D01*
X120871899Y-70213181D01*
X120810576Y-70246666D01*
X120784218Y-70249500D01*
X81570200Y-70249500D01*
X81503161Y-70229815D01*
X81490634Y-70220506D01*
X81317817Y-70094949D01*
X81308504Y-70090204D01*
X81257707Y-70042230D01*
X81240912Y-69974409D01*
X81263449Y-69908274D01*
X81308507Y-69869232D01*
X81317555Y-69864622D01*
X81371716Y-69825270D01*
X81371717Y-69825270D01*
X80739408Y-69192962D01*
X80802993Y-69175925D01*
X80917007Y-69110099D01*
X81010099Y-69017007D01*
X81075925Y-68902993D01*
X81092962Y-68839408D01*
X81725270Y-69471717D01*
X81725270Y-69471716D01*
X81764622Y-69417554D01*
X81861095Y-69228217D01*
X81926757Y-69026130D01*
X81926757Y-69026127D01*
X81960000Y-68816246D01*
X81960000Y-68603753D01*
X81926757Y-68393872D01*
X81926757Y-68393869D01*
X81861095Y-68191782D01*
X81764624Y-68002449D01*
X81725270Y-67948282D01*
X81725269Y-67948282D01*
X81092962Y-68580590D01*
X81075925Y-68517007D01*
X81010099Y-68402993D01*
X80917007Y-68309901D01*
X80802993Y-68244075D01*
X80739409Y-68227037D01*
X81371716Y-67594728D01*
X81317550Y-67555375D01*
X81307954Y-67550486D01*
X81257157Y-67502512D01*
X81240361Y-67434692D01*
X81262897Y-67368556D01*
X81307954Y-67329514D01*
X81317554Y-67324622D01*
X81371716Y-67285270D01*
X81371717Y-67285270D01*
X80739408Y-66652962D01*
X80802993Y-66635925D01*
X80917007Y-66570099D01*
X81010099Y-66477007D01*
X81075925Y-66362993D01*
X81092962Y-66299409D01*
X81725270Y-66931717D01*
X81725270Y-66931716D01*
X81764622Y-66877554D01*
X81861095Y-66688217D01*
X81926757Y-66486130D01*
X81926757Y-66486127D01*
X81960000Y-66276246D01*
X81960000Y-66063753D01*
X81926757Y-65853872D01*
X81926757Y-65853869D01*
X81861095Y-65651782D01*
X81764624Y-65462449D01*
X81725270Y-65408282D01*
X81725269Y-65408282D01*
X81092962Y-66040590D01*
X81075925Y-65977007D01*
X81010099Y-65862993D01*
X80917007Y-65769901D01*
X80802993Y-65704075D01*
X80739409Y-65687037D01*
X81371716Y-65054728D01*
X81317547Y-65015373D01*
X81317547Y-65015372D01*
X81308500Y-65010763D01*
X81257706Y-64962788D01*
X81240912Y-64894966D01*
X81263451Y-64828832D01*
X81308508Y-64789793D01*
X81317816Y-64785051D01*
X81397007Y-64727515D01*
X81489786Y-64660109D01*
X81489788Y-64660106D01*
X81489792Y-64660104D01*
X81640104Y-64509792D01*
X81640106Y-64509788D01*
X81640109Y-64509786D01*
X81765048Y-64337820D01*
X81765047Y-64337820D01*
X81765051Y-64337816D01*
X81861557Y-64148412D01*
X81927246Y-63946243D01*
X81960500Y-63736287D01*
X81960500Y-63736285D01*
X81961262Y-63731475D01*
X81962321Y-63731642D01*
X81985361Y-63671172D01*
X81996416Y-63658503D01*
X88111239Y-57543682D01*
X88131129Y-57513914D01*
X88202686Y-57406822D01*
X88220729Y-57379819D01*
X88220729Y-57379817D01*
X88220732Y-57379814D01*
X88283198Y-57229006D01*
X88296151Y-57197736D01*
X88334600Y-57004441D01*
X88334600Y-56807360D01*
X88334600Y-33948659D01*
X88334600Y-33948656D01*
X88296152Y-33755370D01*
X88296151Y-33755369D01*
X88296151Y-33755365D01*
X88283996Y-33726020D01*
X88220735Y-33573292D01*
X88220728Y-33573279D01*
X88111239Y-33409418D01*
X88111236Y-33409414D01*
X87971885Y-33270063D01*
X87971881Y-33270060D01*
X87808020Y-33160571D01*
X87808007Y-33160564D01*
X87625939Y-33085150D01*
X87625929Y-33085147D01*
X87432643Y-33046700D01*
X87432641Y-33046700D01*
X87235559Y-33046700D01*
X87235557Y-33046700D01*
X87042270Y-33085147D01*
X87042260Y-33085150D01*
X86860192Y-33160564D01*
X86860179Y-33160571D01*
X86696318Y-33270060D01*
X86696314Y-33270063D01*
X86556963Y-33409414D01*
X86556960Y-33409418D01*
X86447471Y-33573279D01*
X86447464Y-33573292D01*
X86372050Y-33755360D01*
X86372047Y-33755370D01*
X86333600Y-33948656D01*
X86333600Y-56440116D01*
X86313915Y-56507155D01*
X86297281Y-56527797D01*
X82100359Y-60724718D01*
X82039036Y-60758203D01*
X81969344Y-60753219D01*
X81913411Y-60711347D01*
X81894747Y-60675354D01*
X81861096Y-60571784D01*
X81764624Y-60382449D01*
X81725270Y-60328282D01*
X81725269Y-60328282D01*
X81092962Y-60960590D01*
X81075925Y-60897007D01*
X81010099Y-60782993D01*
X80917007Y-60689901D01*
X80802993Y-60624075D01*
X80739409Y-60607037D01*
X81409627Y-59936818D01*
X81470950Y-59903333D01*
X81497307Y-59900499D01*
X81507872Y-59900499D01*
X81567483Y-59894091D01*
X81702331Y-59843796D01*
X81817546Y-59757546D01*
X81903796Y-59642331D01*
X81954091Y-59507483D01*
X81960500Y-59447873D01*
X81960499Y-57652128D01*
X81954091Y-57592517D01*
X81951503Y-57585579D01*
X81903797Y-57457671D01*
X81903793Y-57457664D01*
X81817547Y-57342455D01*
X81817544Y-57342452D01*
X81702335Y-57256206D01*
X81702332Y-57256205D01*
X81702331Y-57256204D01*
X81691161Y-57252038D01*
X81635231Y-57210166D01*
X81610816Y-57144701D01*
X81610500Y-57135858D01*
X81610500Y-56699756D01*
X81572052Y-56506470D01*
X81572051Y-56506469D01*
X81572051Y-56506465D01*
X81516536Y-56372439D01*
X81496635Y-56324392D01*
X81496628Y-56324379D01*
X81387139Y-56160518D01*
X81387136Y-56160514D01*
X81247782Y-56021160D01*
X81162398Y-55964109D01*
X81143608Y-55948688D01*
X61976773Y-36781853D01*
X80617200Y-36781853D01*
X80617200Y-36939546D01*
X80647961Y-37094189D01*
X80647964Y-37094201D01*
X80708302Y-37239872D01*
X80708309Y-37239885D01*
X80795910Y-37370988D01*
X80795913Y-37370992D01*
X80907407Y-37482486D01*
X80907411Y-37482489D01*
X81038514Y-37570090D01*
X81038527Y-37570097D01*
X81184198Y-37630435D01*
X81184203Y-37630437D01*
X81338853Y-37661199D01*
X81338856Y-37661200D01*
X81338858Y-37661200D01*
X81496544Y-37661200D01*
X81496545Y-37661199D01*
X81651197Y-37630437D01*
X81796879Y-37570094D01*
X81927989Y-37482489D01*
X82039489Y-37370989D01*
X82127094Y-37239879D01*
X82187437Y-37094197D01*
X82206813Y-36996785D01*
X82218338Y-36938850D01*
X82250723Y-36876939D01*
X82252218Y-36875416D01*
X87702813Y-31424821D01*
X87702816Y-31424820D01*
X87814620Y-31313016D01*
X87864739Y-31226204D01*
X87893677Y-31176085D01*
X87934600Y-31023357D01*
X87934600Y-30865243D01*
X87934600Y-25667765D01*
X87954285Y-25600726D01*
X87955498Y-25598874D01*
X88043490Y-25467185D01*
X88043490Y-25467184D01*
X88043494Y-25467179D01*
X88103837Y-25321497D01*
X88134600Y-25166842D01*
X88134600Y-25009158D01*
X88134600Y-25009155D01*
X88134599Y-25009153D01*
X88120801Y-24939786D01*
X88103837Y-24854503D01*
X88067932Y-24767820D01*
X88043497Y-24708827D01*
X88043490Y-24708814D01*
X87955889Y-24577711D01*
X87955886Y-24577707D01*
X87844392Y-24466213D01*
X87844388Y-24466210D01*
X87713285Y-24378609D01*
X87713272Y-24378602D01*
X87567601Y-24318264D01*
X87567589Y-24318261D01*
X87412945Y-24287500D01*
X87412942Y-24287500D01*
X87255258Y-24287500D01*
X87255255Y-24287500D01*
X87100610Y-24318261D01*
X87100598Y-24318264D01*
X86954927Y-24378602D01*
X86954914Y-24378609D01*
X86823811Y-24466210D01*
X86823807Y-24466213D01*
X86712313Y-24577707D01*
X86712310Y-24577711D01*
X86624709Y-24708814D01*
X86624702Y-24708827D01*
X86564364Y-24854498D01*
X86564361Y-24854510D01*
X86533600Y-25009153D01*
X86533600Y-25166846D01*
X86564361Y-25321489D01*
X86564364Y-25321501D01*
X86624702Y-25467172D01*
X86624709Y-25467185D01*
X86712702Y-25598874D01*
X86733580Y-25665551D01*
X86733600Y-25667765D01*
X86733600Y-30644203D01*
X86713915Y-30711242D01*
X86697281Y-30731884D01*
X81403039Y-36026125D01*
X81341716Y-36059610D01*
X81339550Y-36060061D01*
X81184208Y-36090961D01*
X81184198Y-36090964D01*
X81038527Y-36151302D01*
X81038514Y-36151309D01*
X80907411Y-36238910D01*
X80907407Y-36238913D01*
X80795913Y-36350407D01*
X80795910Y-36350411D01*
X80708309Y-36481514D01*
X80708302Y-36481527D01*
X80647964Y-36627198D01*
X80647961Y-36627210D01*
X80617200Y-36781853D01*
X61976773Y-36781853D01*
X59386423Y-34191503D01*
X59352938Y-34130180D01*
X59350657Y-34114708D01*
X59350500Y-34113716D01*
X59350500Y-34113713D01*
X59317246Y-33903757D01*
X59251557Y-33701588D01*
X59155051Y-33512184D01*
X59155049Y-33512181D01*
X59155048Y-33512179D01*
X59030109Y-33340213D01*
X58879786Y-33189890D01*
X58707820Y-33064951D01*
X58707115Y-33064591D01*
X58699054Y-33060485D01*
X58648259Y-33012512D01*
X58631463Y-32944692D01*
X58653999Y-32878556D01*
X58699054Y-32839515D01*
X58707816Y-32835051D01*
X58789301Y-32775849D01*
X58879786Y-32710109D01*
X58879788Y-32710106D01*
X58879792Y-32710104D01*
X59030104Y-32559792D01*
X59030106Y-32559788D01*
X59030109Y-32559786D01*
X59155048Y-32387820D01*
X59155047Y-32387820D01*
X59155051Y-32387816D01*
X59251557Y-32198412D01*
X59317246Y-31996243D01*
X59350500Y-31786287D01*
X59350500Y-31573713D01*
X59317246Y-31363757D01*
X59251557Y-31161588D01*
X59155051Y-30972184D01*
X59155049Y-30972181D01*
X59155048Y-30972179D01*
X59030109Y-30800213D01*
X58879786Y-30649890D01*
X58707817Y-30524949D01*
X58698504Y-30520204D01*
X58647707Y-30472230D01*
X58630912Y-30404409D01*
X58653449Y-30338274D01*
X58698507Y-30299232D01*
X58707555Y-30294622D01*
X58761716Y-30255270D01*
X58761717Y-30255270D01*
X58129409Y-29622962D01*
X58192993Y-29605925D01*
X58307007Y-29540099D01*
X58400099Y-29447007D01*
X58465925Y-29332993D01*
X58482962Y-29269409D01*
X59115270Y-29901717D01*
X59115270Y-29901716D01*
X59154622Y-29847554D01*
X59251095Y-29658217D01*
X59316757Y-29456130D01*
X59316757Y-29456127D01*
X59350000Y-29246246D01*
X59350000Y-29033753D01*
X59316757Y-28823872D01*
X59316757Y-28823869D01*
X59251095Y-28621782D01*
X59154624Y-28432449D01*
X59115270Y-28378282D01*
X59115269Y-28378282D01*
X58482962Y-29010590D01*
X58465925Y-28947007D01*
X58400099Y-28832993D01*
X58307007Y-28739901D01*
X58192993Y-28674075D01*
X58129407Y-28657036D01*
X58761716Y-28024728D01*
X58707547Y-27985373D01*
X58707547Y-27985372D01*
X58698500Y-27980763D01*
X58647706Y-27932788D01*
X58630912Y-27864966D01*
X58653451Y-27798832D01*
X58698508Y-27759793D01*
X58707816Y-27755051D01*
X58845454Y-27655052D01*
X58879786Y-27630109D01*
X58879788Y-27630106D01*
X58879792Y-27630104D01*
X59030104Y-27479792D01*
X59030106Y-27479788D01*
X59030109Y-27479786D01*
X59155048Y-27307820D01*
X59155047Y-27307820D01*
X59155051Y-27307816D01*
X59251557Y-27118412D01*
X59317246Y-26916243D01*
X59350500Y-26706287D01*
X59350500Y-26493713D01*
X59317246Y-26283757D01*
X59251557Y-26081588D01*
X59155051Y-25892184D01*
X59155049Y-25892181D01*
X59155048Y-25892179D01*
X59030109Y-25720213D01*
X58879786Y-25569890D01*
X58707820Y-25444951D01*
X58699600Y-25440763D01*
X58699054Y-25440485D01*
X58648259Y-25392512D01*
X58631463Y-25324692D01*
X58653999Y-25258556D01*
X58699054Y-25219515D01*
X58707816Y-25215051D01*
X58774168Y-25166844D01*
X58879786Y-25090109D01*
X58879788Y-25090106D01*
X58879792Y-25090104D01*
X59030104Y-24939792D01*
X59030106Y-24939788D01*
X59030109Y-24939786D01*
X59155048Y-24767820D01*
X59155047Y-24767820D01*
X59155051Y-24767816D01*
X59251557Y-24578412D01*
X59317246Y-24376243D01*
X59350500Y-24166287D01*
X59350500Y-23953713D01*
X59317246Y-23743757D01*
X59251557Y-23541588D01*
X59155051Y-23352184D01*
X59155049Y-23352181D01*
X59155048Y-23352179D01*
X59030109Y-23180213D01*
X58879786Y-23029890D01*
X58707820Y-22904951D01*
X58707115Y-22904591D01*
X58699054Y-22900485D01*
X58648259Y-22852512D01*
X58631463Y-22784692D01*
X58653999Y-22718556D01*
X58699054Y-22679515D01*
X58707816Y-22675051D01*
X58773277Y-22627491D01*
X58879786Y-22550109D01*
X58879788Y-22550106D01*
X58879792Y-22550104D01*
X59030104Y-22399792D01*
X59030106Y-22399788D01*
X59030109Y-22399786D01*
X59155048Y-22227820D01*
X59155047Y-22227820D01*
X59155051Y-22227816D01*
X59251557Y-22038412D01*
X59317246Y-21836243D01*
X59350500Y-21626287D01*
X59350500Y-21413713D01*
X59317246Y-21203757D01*
X59251557Y-21001588D01*
X59155051Y-20812184D01*
X59155049Y-20812181D01*
X59155048Y-20812179D01*
X59030109Y-20640213D01*
X58879786Y-20489890D01*
X58707820Y-20364951D01*
X58707115Y-20364591D01*
X58699054Y-20360485D01*
X58648259Y-20312512D01*
X58631463Y-20244692D01*
X58653999Y-20178556D01*
X58699054Y-20139515D01*
X58707816Y-20135051D01*
X58773277Y-20087491D01*
X58879786Y-20010109D01*
X58879788Y-20010106D01*
X58879792Y-20010104D01*
X59030104Y-19859792D01*
X59030106Y-19859788D01*
X59030109Y-19859786D01*
X59155048Y-19687820D01*
X59155047Y-19687820D01*
X59155051Y-19687816D01*
X59251557Y-19498412D01*
X59317246Y-19296243D01*
X59350500Y-19086287D01*
X59350500Y-18873713D01*
X59317246Y-18663757D01*
X59251557Y-18461588D01*
X59155051Y-18272184D01*
X59155049Y-18272181D01*
X59155048Y-18272179D01*
X59030109Y-18100213D01*
X58879786Y-17949890D01*
X58707820Y-17824951D01*
X58699600Y-17820763D01*
X58699054Y-17820485D01*
X58648259Y-17772512D01*
X58631463Y-17704692D01*
X58653999Y-17638556D01*
X58699054Y-17599515D01*
X58707816Y-17595051D01*
X58773667Y-17547208D01*
X58879786Y-17470109D01*
X58879788Y-17470106D01*
X58879792Y-17470104D01*
X59030104Y-17319792D01*
X59030106Y-17319788D01*
X59030109Y-17319786D01*
X59155048Y-17147820D01*
X59155047Y-17147820D01*
X59155051Y-17147816D01*
X59251557Y-16958412D01*
X59317246Y-16756243D01*
X59350500Y-16546287D01*
X59350500Y-16333713D01*
X59317246Y-16123757D01*
X59251557Y-15921588D01*
X59155051Y-15732184D01*
X59155049Y-15732181D01*
X59155048Y-15732179D01*
X59030109Y-15560213D01*
X58916569Y-15446673D01*
X58883084Y-15385350D01*
X58888068Y-15315658D01*
X58929940Y-15259725D01*
X58960915Y-15242810D01*
X59092331Y-15193796D01*
X59207546Y-15107546D01*
X59293796Y-14992331D01*
X59344091Y-14857483D01*
X59350500Y-14797873D01*
X59350499Y-13002135D01*
X79509500Y-13002135D01*
X79509500Y-14797870D01*
X79509501Y-14797876D01*
X79515908Y-14857483D01*
X79566202Y-14992328D01*
X79566206Y-14992335D01*
X79652452Y-15107544D01*
X79652455Y-15107547D01*
X79767664Y-15193793D01*
X79767671Y-15193797D01*
X79899082Y-15242810D01*
X79955016Y-15284681D01*
X79979433Y-15350145D01*
X79964582Y-15418418D01*
X79943431Y-15446673D01*
X79829889Y-15560215D01*
X79704951Y-15732179D01*
X79608444Y-15921585D01*
X79542753Y-16123760D01*
X79509500Y-16333713D01*
X79509500Y-16546286D01*
X79526897Y-16656130D01*
X79542754Y-16756243D01*
X79582546Y-16878711D01*
X79608444Y-16958414D01*
X79704951Y-17147820D01*
X79829890Y-17319786D01*
X79980213Y-17470109D01*
X80152182Y-17595050D01*
X80160946Y-17599516D01*
X80211742Y-17647491D01*
X80228536Y-17715312D01*
X80205998Y-17781447D01*
X80160946Y-17820484D01*
X80152182Y-17824949D01*
X79980213Y-17949890D01*
X79829890Y-18100213D01*
X79704951Y-18272179D01*
X79608444Y-18461585D01*
X79542753Y-18663760D01*
X79509500Y-18873713D01*
X79509500Y-19086286D01*
X79542735Y-19296127D01*
X79542754Y-19296243D01*
X79566788Y-19370213D01*
X79608444Y-19498414D01*
X79704951Y-19687820D01*
X79829890Y-19859786D01*
X79980213Y-20010109D01*
X80152182Y-20135050D01*
X80160946Y-20139516D01*
X80211742Y-20187491D01*
X80228536Y-20255312D01*
X80205998Y-20321447D01*
X80160946Y-20360484D01*
X80152182Y-20364949D01*
X79980213Y-20489890D01*
X79829890Y-20640213D01*
X79704951Y-20812179D01*
X79608444Y-21001585D01*
X79542753Y-21203760D01*
X79509500Y-21413713D01*
X79509500Y-21626286D01*
X79542753Y-21836239D01*
X79542753Y-21836241D01*
X79542754Y-21836243D01*
X79564939Y-21904522D01*
X79608444Y-22038414D01*
X79704951Y-22227820D01*
X79829890Y-22399786D01*
X79980213Y-22550109D01*
X80152182Y-22675050D01*
X80160946Y-22679516D01*
X80211742Y-22727491D01*
X80228536Y-22795312D01*
X80205998Y-22861447D01*
X80160946Y-22900484D01*
X80152182Y-22904949D01*
X79980213Y-23029890D01*
X79829890Y-23180213D01*
X79704951Y-23352179D01*
X79608444Y-23541585D01*
X79542753Y-23743760D01*
X79509500Y-23953713D01*
X79509500Y-24166286D01*
X79542753Y-24376239D01*
X79542753Y-24376241D01*
X79542754Y-24376243D01*
X79608215Y-24577711D01*
X79608444Y-24578414D01*
X79704951Y-24767820D01*
X79829890Y-24939786D01*
X79980213Y-25090109D01*
X80152182Y-25215050D01*
X80160946Y-25219516D01*
X80211742Y-25267491D01*
X80228536Y-25335312D01*
X80205998Y-25401447D01*
X80160946Y-25440484D01*
X80152182Y-25444949D01*
X79980213Y-25569890D01*
X79829890Y-25720213D01*
X79704951Y-25892179D01*
X79608444Y-26081585D01*
X79542753Y-26283760D01*
X79523233Y-26407007D01*
X79509500Y-26493713D01*
X79509500Y-26706287D01*
X79519534Y-26769644D01*
X79542735Y-26916127D01*
X79542754Y-26916243D01*
X79597431Y-27084522D01*
X79608444Y-27118414D01*
X79704951Y-27307820D01*
X79829890Y-27479786D01*
X79980213Y-27630109D01*
X80152179Y-27755048D01*
X80152181Y-27755049D01*
X80152184Y-27755051D01*
X80161493Y-27759794D01*
X80212290Y-27807766D01*
X80229087Y-27875587D01*
X80206552Y-27941722D01*
X80161505Y-27980760D01*
X80152446Y-27985376D01*
X80152440Y-27985380D01*
X80098282Y-28024727D01*
X80098282Y-28024728D01*
X80730591Y-28657037D01*
X80667007Y-28674075D01*
X80552993Y-28739901D01*
X80459901Y-28832993D01*
X80394075Y-28947007D01*
X80377037Y-29010591D01*
X79744728Y-28378282D01*
X79744727Y-28378282D01*
X79705380Y-28432439D01*
X79608904Y-28621782D01*
X79543242Y-28823869D01*
X79543242Y-28823872D01*
X79510000Y-29033753D01*
X79510000Y-29246246D01*
X79543242Y-29456127D01*
X79543242Y-29456130D01*
X79608904Y-29658217D01*
X79705375Y-29847550D01*
X79744728Y-29901716D01*
X80377037Y-29269408D01*
X80394075Y-29332993D01*
X80459901Y-29447007D01*
X80552993Y-29540099D01*
X80667007Y-29605925D01*
X80730590Y-29622962D01*
X80098282Y-30255269D01*
X80098282Y-30255270D01*
X80152452Y-30294626D01*
X80152451Y-30294626D01*
X80161495Y-30299234D01*
X80212292Y-30347208D01*
X80229087Y-30415029D01*
X80206550Y-30481164D01*
X80161499Y-30520202D01*
X80152182Y-30524949D01*
X79980213Y-30649890D01*
X79829890Y-30800213D01*
X79704951Y-30972179D01*
X79608444Y-31161585D01*
X79542753Y-31363760D01*
X79509500Y-31573713D01*
X79509500Y-31786286D01*
X79542735Y-31996127D01*
X79542754Y-31996243D01*
X79606682Y-32192993D01*
X79608444Y-32198414D01*
X79704951Y-32387820D01*
X79829890Y-32559786D01*
X79980213Y-32710109D01*
X80152182Y-32835050D01*
X80160946Y-32839516D01*
X80211742Y-32887491D01*
X80228536Y-32955312D01*
X80205998Y-33021447D01*
X80160946Y-33060484D01*
X80152182Y-33064949D01*
X79980213Y-33189890D01*
X79829890Y-33340213D01*
X79704951Y-33512179D01*
X79608444Y-33701585D01*
X79608443Y-33701587D01*
X79608443Y-33701588D01*
X79608050Y-33702797D01*
X79542753Y-33903760D01*
X79524555Y-34018657D01*
X79509500Y-34113713D01*
X79509500Y-34326287D01*
X79513031Y-34348582D01*
X79542753Y-34536239D01*
X79542753Y-34536241D01*
X79542754Y-34536243D01*
X79597431Y-34704522D01*
X79608444Y-34738414D01*
X79704951Y-34927820D01*
X79829890Y-35099786D01*
X79980213Y-35250109D01*
X80152179Y-35375048D01*
X80152181Y-35375049D01*
X80152184Y-35375051D01*
X80341588Y-35471557D01*
X80543757Y-35537246D01*
X80753713Y-35570500D01*
X80753714Y-35570500D01*
X80966286Y-35570500D01*
X80966287Y-35570500D01*
X81176243Y-35537246D01*
X81378412Y-35471557D01*
X81567816Y-35375051D01*
X81589789Y-35359086D01*
X81739786Y-35250109D01*
X81739788Y-35250106D01*
X81739792Y-35250104D01*
X81890104Y-35099792D01*
X81890106Y-35099788D01*
X81890109Y-35099786D01*
X82015048Y-34927820D01*
X82015047Y-34927820D01*
X82015051Y-34927816D01*
X82111557Y-34738412D01*
X82177246Y-34536243D01*
X82210500Y-34326287D01*
X82210500Y-34113713D01*
X82177246Y-33903757D01*
X82111557Y-33701588D01*
X82015051Y-33512184D01*
X82015049Y-33512181D01*
X82015048Y-33512179D01*
X81890109Y-33340213D01*
X81739786Y-33189890D01*
X81567820Y-33064951D01*
X81567115Y-33064591D01*
X81559054Y-33060485D01*
X81508259Y-33012512D01*
X81491463Y-32944692D01*
X81513999Y-32878556D01*
X81559054Y-32839515D01*
X81567816Y-32835051D01*
X81649301Y-32775849D01*
X81739786Y-32710109D01*
X81739788Y-32710106D01*
X81739792Y-32710104D01*
X81890104Y-32559792D01*
X81890106Y-32559788D01*
X81890109Y-32559786D01*
X82015048Y-32387820D01*
X82015047Y-32387820D01*
X82015051Y-32387816D01*
X82111557Y-32198412D01*
X82177246Y-31996243D01*
X82210500Y-31786287D01*
X82210500Y-31573713D01*
X82177246Y-31363757D01*
X82111557Y-31161588D01*
X82015051Y-30972184D01*
X82015049Y-30972181D01*
X82015048Y-30972179D01*
X81890109Y-30800213D01*
X81739786Y-30649890D01*
X81567817Y-30524949D01*
X81558504Y-30520204D01*
X81507707Y-30472230D01*
X81490912Y-30404409D01*
X81513449Y-30338274D01*
X81558507Y-30299232D01*
X81567555Y-30294622D01*
X81621716Y-30255270D01*
X81621717Y-30255270D01*
X80989408Y-29622962D01*
X81052993Y-29605925D01*
X81167007Y-29540099D01*
X81260099Y-29447007D01*
X81325925Y-29332993D01*
X81342962Y-29269408D01*
X81975270Y-29901717D01*
X81975270Y-29901716D01*
X82014622Y-29847554D01*
X82111095Y-29658217D01*
X82176757Y-29456130D01*
X82176757Y-29456127D01*
X82210000Y-29246246D01*
X82210000Y-29033753D01*
X82176757Y-28823872D01*
X82176757Y-28823869D01*
X82111095Y-28621782D01*
X82014624Y-28432449D01*
X81975270Y-28378282D01*
X81975269Y-28378282D01*
X81342962Y-29010590D01*
X81325925Y-28947007D01*
X81260099Y-28832993D01*
X81167007Y-28739901D01*
X81052993Y-28674075D01*
X80989409Y-28657037D01*
X81621716Y-28024728D01*
X81567547Y-27985373D01*
X81567547Y-27985372D01*
X81558500Y-27980763D01*
X81507706Y-27932788D01*
X81490912Y-27864966D01*
X81513451Y-27798832D01*
X81558508Y-27759793D01*
X81567816Y-27755051D01*
X81705454Y-27655052D01*
X81739786Y-27630109D01*
X81739788Y-27630106D01*
X81739792Y-27630104D01*
X81890104Y-27479792D01*
X81890106Y-27479788D01*
X81890109Y-27479786D01*
X82015048Y-27307820D01*
X82015047Y-27307820D01*
X82015051Y-27307816D01*
X82111557Y-27118412D01*
X82177246Y-26916243D01*
X82210500Y-26706287D01*
X82210500Y-26493713D01*
X82177246Y-26283757D01*
X82111557Y-26081588D01*
X82015051Y-25892184D01*
X82015049Y-25892181D01*
X82015048Y-25892179D01*
X81890109Y-25720213D01*
X81739786Y-25569890D01*
X81567820Y-25444951D01*
X81559600Y-25440763D01*
X81559054Y-25440485D01*
X81508259Y-25392512D01*
X81491463Y-25324692D01*
X81513999Y-25258556D01*
X81559054Y-25219515D01*
X81567816Y-25215051D01*
X81634168Y-25166844D01*
X81739786Y-25090109D01*
X81739788Y-25090106D01*
X81739792Y-25090104D01*
X81890104Y-24939792D01*
X81890106Y-24939788D01*
X81890109Y-24939786D01*
X82015048Y-24767820D01*
X82015047Y-24767820D01*
X82015051Y-24767816D01*
X82111557Y-24578412D01*
X82177246Y-24376243D01*
X82210500Y-24166287D01*
X82210500Y-23953713D01*
X82177246Y-23743757D01*
X82111557Y-23541588D01*
X82015051Y-23352184D01*
X82015049Y-23352181D01*
X82015048Y-23352179D01*
X81890109Y-23180213D01*
X81739786Y-23029890D01*
X81567820Y-22904951D01*
X81567115Y-22904591D01*
X81559054Y-22900485D01*
X81508259Y-22852512D01*
X81491463Y-22784692D01*
X81513999Y-22718556D01*
X81559054Y-22679515D01*
X81567816Y-22675051D01*
X81633277Y-22627491D01*
X81739786Y-22550109D01*
X81739788Y-22550106D01*
X81739792Y-22550104D01*
X81890104Y-22399792D01*
X81890106Y-22399788D01*
X81890109Y-22399786D01*
X82015048Y-22227820D01*
X82015047Y-22227820D01*
X82015051Y-22227816D01*
X82111557Y-22038412D01*
X82177246Y-21836243D01*
X82210500Y-21626287D01*
X82210500Y-21413713D01*
X82177246Y-21203757D01*
X82111557Y-21001588D01*
X82015051Y-20812184D01*
X82015049Y-20812181D01*
X82015048Y-20812179D01*
X81890109Y-20640213D01*
X81739786Y-20489890D01*
X81567820Y-20364951D01*
X81567115Y-20364591D01*
X81559054Y-20360485D01*
X81508259Y-20312512D01*
X81491463Y-20244692D01*
X81513999Y-20178556D01*
X81559054Y-20139515D01*
X81567816Y-20135051D01*
X81633277Y-20087491D01*
X81739786Y-20010109D01*
X81739788Y-20010106D01*
X81739792Y-20010104D01*
X81890104Y-19859792D01*
X81890106Y-19859788D01*
X81890109Y-19859786D01*
X82015048Y-19687820D01*
X82015047Y-19687820D01*
X82015051Y-19687816D01*
X82111557Y-19498412D01*
X82177246Y-19296243D01*
X82210500Y-19086287D01*
X82210500Y-18873713D01*
X82177246Y-18663757D01*
X82111557Y-18461588D01*
X82015051Y-18272184D01*
X82015049Y-18272181D01*
X82015048Y-18272179D01*
X81890109Y-18100213D01*
X81739786Y-17949890D01*
X81567820Y-17824951D01*
X81559600Y-17820763D01*
X81559054Y-17820485D01*
X81508259Y-17772512D01*
X81491463Y-17704692D01*
X81513999Y-17638556D01*
X81559054Y-17599515D01*
X81567816Y-17595051D01*
X81633667Y-17547208D01*
X81739786Y-17470109D01*
X81739788Y-17470106D01*
X81739792Y-17470104D01*
X81890104Y-17319792D01*
X81890106Y-17319788D01*
X81890109Y-17319786D01*
X82015048Y-17147820D01*
X82015047Y-17147820D01*
X82015051Y-17147816D01*
X82111557Y-16958412D01*
X82177246Y-16756243D01*
X82210500Y-16546287D01*
X82210500Y-16333713D01*
X82187636Y-16189360D01*
X82177247Y-16123761D01*
X82177246Y-16123760D01*
X82177246Y-16123757D01*
X82111557Y-15921588D01*
X82015051Y-15732184D01*
X82015049Y-15732181D01*
X82015048Y-15732179D01*
X81890109Y-15560213D01*
X81776569Y-15446673D01*
X81743084Y-15385350D01*
X81748068Y-15315658D01*
X81789940Y-15259725D01*
X81820915Y-15242810D01*
X81952331Y-15193796D01*
X82067546Y-15107546D01*
X82153796Y-14992331D01*
X82204091Y-14857483D01*
X82210500Y-14797873D01*
X82210499Y-13871898D01*
X82210499Y-13002129D01*
X82210498Y-13002123D01*
X82210497Y-13002116D01*
X82204091Y-12942517D01*
X82189043Y-12902172D01*
X82153797Y-12807671D01*
X82153793Y-12807664D01*
X82067547Y-12692455D01*
X82067544Y-12692452D01*
X81952335Y-12606206D01*
X81952328Y-12606202D01*
X81817482Y-12555908D01*
X81817483Y-12555908D01*
X81757883Y-12549501D01*
X81757881Y-12549500D01*
X81757873Y-12549500D01*
X81757864Y-12549500D01*
X79962129Y-12549500D01*
X79962123Y-12549501D01*
X79902516Y-12555908D01*
X79767671Y-12606202D01*
X79767664Y-12606206D01*
X79652455Y-12692452D01*
X79652452Y-12692455D01*
X79566206Y-12807664D01*
X79566202Y-12807671D01*
X79515908Y-12942517D01*
X79509501Y-13002116D01*
X79509501Y-13002123D01*
X79509500Y-13002135D01*
X59350499Y-13002135D01*
X59350499Y-13002128D01*
X59344091Y-12942517D01*
X59329043Y-12902172D01*
X59293797Y-12807671D01*
X59293793Y-12807664D01*
X59207547Y-12692455D01*
X59207544Y-12692452D01*
X59092335Y-12606206D01*
X59092328Y-12606202D01*
X58957482Y-12555908D01*
X58957483Y-12555908D01*
X58897883Y-12549501D01*
X58897881Y-12549500D01*
X58897873Y-12549500D01*
X58897864Y-12549500D01*
X57102129Y-12549500D01*
X57102123Y-12549501D01*
X57042516Y-12555908D01*
X56907671Y-12606202D01*
X56907664Y-12606206D01*
X56792455Y-12692452D01*
X56792452Y-12692455D01*
X56706206Y-12807664D01*
X56706202Y-12807671D01*
X56655908Y-12942517D01*
X56649501Y-13002116D01*
X56649501Y-13002123D01*
X56649500Y-13002135D01*
X56649500Y-14797870D01*
X56649501Y-14797876D01*
X56655908Y-14857483D01*
X56706202Y-14992328D01*
X56706206Y-14992335D01*
X56792452Y-15107544D01*
X56792455Y-15107547D01*
X56907664Y-15193793D01*
X56907671Y-15193797D01*
X57039082Y-15242810D01*
X57095016Y-15284681D01*
X57119433Y-15350145D01*
X57104582Y-15418418D01*
X57083431Y-15446673D01*
X56969889Y-15560215D01*
X56844951Y-15732179D01*
X56748444Y-15921585D01*
X56682753Y-16123760D01*
X56649500Y-16333713D01*
X56649500Y-16546286D01*
X56666897Y-16656130D01*
X56682754Y-16756243D01*
X56722546Y-16878711D01*
X56748444Y-16958414D01*
X56844951Y-17147820D01*
X56969890Y-17319786D01*
X57120213Y-17470109D01*
X57292182Y-17595050D01*
X57300946Y-17599516D01*
X57351742Y-17647491D01*
X57368536Y-17715312D01*
X57345998Y-17781447D01*
X57300946Y-17820484D01*
X57292182Y-17824949D01*
X57120213Y-17949890D01*
X56969890Y-18100213D01*
X56844951Y-18272179D01*
X56748444Y-18461585D01*
X56682753Y-18663760D01*
X56649500Y-18873713D01*
X56649500Y-19086286D01*
X56682735Y-19296127D01*
X56682754Y-19296243D01*
X56706788Y-19370213D01*
X56748444Y-19498414D01*
X56844951Y-19687820D01*
X56969890Y-19859786D01*
X57120213Y-20010109D01*
X57292182Y-20135050D01*
X57300946Y-20139516D01*
X57351742Y-20187491D01*
X57368536Y-20255312D01*
X57345998Y-20321447D01*
X57300946Y-20360484D01*
X57292182Y-20364949D01*
X57120213Y-20489890D01*
X56969890Y-20640213D01*
X56844951Y-20812179D01*
X56748444Y-21001585D01*
X56682753Y-21203760D01*
X56649500Y-21413713D01*
X56649500Y-21626286D01*
X56682753Y-21836240D01*
X56682754Y-21836244D01*
X56696491Y-21878523D01*
X56698486Y-21948365D01*
X56666241Y-22004521D01*
X47056294Y-31614469D01*
X46994971Y-31647954D01*
X46925279Y-31642970D01*
X46869346Y-31601098D01*
X46846140Y-31546186D01*
X46828534Y-31435026D01*
X46817246Y-31363757D01*
X46751557Y-31161588D01*
X46655051Y-30972184D01*
X46655049Y-30972181D01*
X46655048Y-30972179D01*
X46530109Y-30800213D01*
X46379786Y-30649890D01*
X46207820Y-30524951D01*
X46207115Y-30524591D01*
X46199054Y-30520485D01*
X46148259Y-30472512D01*
X46131463Y-30404692D01*
X46153999Y-30338556D01*
X46199054Y-30299515D01*
X46207816Y-30295051D01*
X46262572Y-30255269D01*
X46379786Y-30170109D01*
X46379788Y-30170106D01*
X46379792Y-30170104D01*
X46530104Y-30019792D01*
X46530106Y-30019788D01*
X46530109Y-30019786D01*
X46655048Y-29847820D01*
X46655047Y-29847820D01*
X46655051Y-29847816D01*
X46751557Y-29658412D01*
X46817246Y-29456243D01*
X46850500Y-29246287D01*
X46850500Y-29033713D01*
X46817246Y-28823757D01*
X46751557Y-28621588D01*
X46655051Y-28432184D01*
X46655049Y-28432181D01*
X46655048Y-28432179D01*
X46530109Y-28260213D01*
X46379786Y-28109890D01*
X46207817Y-27984949D01*
X46198504Y-27980204D01*
X46147707Y-27932230D01*
X46130912Y-27864409D01*
X46153449Y-27798274D01*
X46198507Y-27759232D01*
X46207555Y-27754622D01*
X46261716Y-27715270D01*
X46261717Y-27715270D01*
X45629408Y-27082962D01*
X45692993Y-27065925D01*
X45807007Y-27000099D01*
X45900099Y-26907007D01*
X45965925Y-26792993D01*
X45982962Y-26729409D01*
X46615270Y-27361717D01*
X46615270Y-27361716D01*
X46654622Y-27307554D01*
X46751095Y-27118217D01*
X46816757Y-26916130D01*
X46816757Y-26916127D01*
X46850000Y-26706246D01*
X46850000Y-26493753D01*
X46816757Y-26283872D01*
X46816757Y-26283869D01*
X46751095Y-26081782D01*
X46654624Y-25892449D01*
X46615270Y-25838282D01*
X46615269Y-25838282D01*
X45982962Y-26470590D01*
X45965925Y-26407007D01*
X45900099Y-26292993D01*
X45807007Y-26199901D01*
X45692993Y-26134075D01*
X45629409Y-26117037D01*
X46261716Y-25484728D01*
X46207547Y-25445373D01*
X46207547Y-25445372D01*
X46198500Y-25440763D01*
X46147706Y-25392788D01*
X46130912Y-25324966D01*
X46153451Y-25258832D01*
X46198508Y-25219793D01*
X46207816Y-25215051D01*
X46339310Y-25119516D01*
X46379786Y-25090109D01*
X46379788Y-25090106D01*
X46379792Y-25090104D01*
X46530104Y-24939792D01*
X46530106Y-24939788D01*
X46530109Y-24939786D01*
X46655048Y-24767820D01*
X46655047Y-24767820D01*
X46655051Y-24767816D01*
X46751557Y-24578412D01*
X46817246Y-24376243D01*
X46850500Y-24166287D01*
X46850500Y-23953713D01*
X46817246Y-23743757D01*
X46751557Y-23541588D01*
X46655051Y-23352184D01*
X46655049Y-23352181D01*
X46655048Y-23352179D01*
X46530109Y-23180213D01*
X46379786Y-23029890D01*
X46207820Y-22904951D01*
X46207115Y-22904591D01*
X46199054Y-22900485D01*
X46148259Y-22852512D01*
X46131463Y-22784692D01*
X46153999Y-22718556D01*
X46199054Y-22679515D01*
X46207816Y-22675051D01*
X46273277Y-22627491D01*
X46379786Y-22550109D01*
X46379788Y-22550106D01*
X46379792Y-22550104D01*
X46530104Y-22399792D01*
X46530106Y-22399788D01*
X46530109Y-22399786D01*
X46655048Y-22227820D01*
X46655047Y-22227820D01*
X46655051Y-22227816D01*
X46751557Y-22038412D01*
X46817246Y-21836243D01*
X46850500Y-21626287D01*
X46850500Y-21413713D01*
X46817246Y-21203757D01*
X46751557Y-21001588D01*
X46655051Y-20812184D01*
X46655049Y-20812181D01*
X46655048Y-20812179D01*
X46530109Y-20640213D01*
X46379786Y-20489890D01*
X46207820Y-20364951D01*
X46207115Y-20364591D01*
X46199054Y-20360485D01*
X46148259Y-20312512D01*
X46131463Y-20244692D01*
X46153999Y-20178556D01*
X46199054Y-20139515D01*
X46207816Y-20135051D01*
X46273277Y-20087491D01*
X46379786Y-20010109D01*
X46379788Y-20010106D01*
X46379792Y-20010104D01*
X46530104Y-19859792D01*
X46530106Y-19859788D01*
X46530109Y-19859786D01*
X46655048Y-19687820D01*
X46655047Y-19687820D01*
X46655051Y-19687816D01*
X46751557Y-19498412D01*
X46817246Y-19296243D01*
X46850500Y-19086287D01*
X46850500Y-18873713D01*
X46817246Y-18663757D01*
X46751557Y-18461588D01*
X46655051Y-18272184D01*
X46655049Y-18272181D01*
X46655048Y-18272179D01*
X46530109Y-18100213D01*
X46379786Y-17949890D01*
X46207820Y-17824951D01*
X46199600Y-17820763D01*
X46199054Y-17820485D01*
X46148259Y-17772512D01*
X46131463Y-17704692D01*
X46153999Y-17638556D01*
X46199054Y-17599515D01*
X46207816Y-17595051D01*
X46273667Y-17547208D01*
X46379786Y-17470109D01*
X46379788Y-17470106D01*
X46379792Y-17470104D01*
X46530104Y-17319792D01*
X46530106Y-17319788D01*
X46530109Y-17319786D01*
X46655048Y-17147820D01*
X46655047Y-17147820D01*
X46655051Y-17147816D01*
X46751557Y-16958412D01*
X46817246Y-16756243D01*
X46850500Y-16546287D01*
X46850500Y-16333713D01*
X46817246Y-16123757D01*
X46751557Y-15921588D01*
X46655051Y-15732184D01*
X46655049Y-15732181D01*
X46655048Y-15732179D01*
X46530109Y-15560213D01*
X46416181Y-15446285D01*
X46382696Y-15384962D01*
X46387680Y-15315270D01*
X46429552Y-15259337D01*
X46460529Y-15242422D01*
X46592086Y-15193354D01*
X46592093Y-15193350D01*
X46707187Y-15107190D01*
X46707190Y-15107187D01*
X46793350Y-14992093D01*
X46793354Y-14992086D01*
X46843596Y-14857379D01*
X46843598Y-14857372D01*
X46849999Y-14797844D01*
X46850000Y-14797827D01*
X46850000Y-14150000D01*
X45933012Y-14150000D01*
X45965925Y-14092993D01*
X46000000Y-13965826D01*
X46000000Y-13834174D01*
X45965925Y-13707007D01*
X45933012Y-13650000D01*
X46850000Y-13650000D01*
X46850000Y-13002172D01*
X46849999Y-13002155D01*
X46843598Y-12942627D01*
X46843596Y-12942620D01*
X46793354Y-12807913D01*
X46793350Y-12807906D01*
X46707190Y-12692812D01*
X46707187Y-12692809D01*
X46592093Y-12606649D01*
X46592086Y-12606645D01*
X46457379Y-12556403D01*
X46457372Y-12556401D01*
X46397844Y-12550000D01*
X45750000Y-12550000D01*
X45750000Y-13466988D01*
X45692993Y-13434075D01*
X45565826Y-13400000D01*
X45434174Y-13400000D01*
X45307007Y-13434075D01*
X45250000Y-13466988D01*
X45250000Y-12550000D01*
X44602155Y-12550000D01*
X44542627Y-12556401D01*
X44542620Y-12556403D01*
X44407913Y-12606645D01*
X44407906Y-12606649D01*
X44292812Y-12692809D01*
X44292809Y-12692812D01*
X44206649Y-12807906D01*
X44206645Y-12807913D01*
X44156403Y-12942620D01*
X44156401Y-12942627D01*
X44150000Y-13002155D01*
X44150000Y-13650000D01*
X45066988Y-13650000D01*
X45034075Y-13707007D01*
X45000000Y-13834174D01*
X45000000Y-13965826D01*
X45034075Y-14092993D01*
X45066988Y-14150000D01*
X44150000Y-14150000D01*
X44150000Y-14797844D01*
X44156401Y-14857372D01*
X44156403Y-14857379D01*
X44206645Y-14992086D01*
X44206649Y-14992093D01*
X44292809Y-15107187D01*
X44292812Y-15107190D01*
X44407906Y-15193350D01*
X44407913Y-15193354D01*
X44539470Y-15242422D01*
X44595404Y-15284293D01*
X44619821Y-15349758D01*
X44604969Y-15418031D01*
X44583819Y-15446285D01*
X44469889Y-15560215D01*
X44344951Y-15732179D01*
X44248444Y-15921585D01*
X44182753Y-16123760D01*
X44149500Y-16333713D01*
X44149500Y-16546286D01*
X44166897Y-16656130D01*
X44182754Y-16756243D01*
X44222546Y-16878711D01*
X44248444Y-16958414D01*
X44344951Y-17147820D01*
X44469890Y-17319786D01*
X44620213Y-17470109D01*
X44792182Y-17595050D01*
X44800946Y-17599516D01*
X44851742Y-17647491D01*
X44868536Y-17715312D01*
X44845998Y-17781447D01*
X44800946Y-17820484D01*
X44792182Y-17824949D01*
X44620213Y-17949890D01*
X44469890Y-18100213D01*
X44344951Y-18272179D01*
X44248444Y-18461585D01*
X44182753Y-18663760D01*
X44149500Y-18873713D01*
X44149500Y-19086286D01*
X44182735Y-19296127D01*
X44182754Y-19296243D01*
X44206788Y-19370213D01*
X44248444Y-19498414D01*
X44344951Y-19687820D01*
X44469890Y-19859786D01*
X44620213Y-20010109D01*
X44792182Y-20135050D01*
X44800946Y-20139516D01*
X44851742Y-20187491D01*
X44868536Y-20255312D01*
X44845998Y-20321447D01*
X44800946Y-20360484D01*
X44792182Y-20364949D01*
X44620213Y-20489890D01*
X44469890Y-20640213D01*
X44344951Y-20812179D01*
X44248444Y-21001585D01*
X44182753Y-21203760D01*
X44149500Y-21413713D01*
X44149500Y-21626286D01*
X44182753Y-21836239D01*
X44182753Y-21836241D01*
X44182754Y-21836243D01*
X44204939Y-21904522D01*
X44248444Y-22038414D01*
X44344951Y-22227820D01*
X44469890Y-22399786D01*
X44620213Y-22550109D01*
X44792182Y-22675050D01*
X44800946Y-22679516D01*
X44851742Y-22727491D01*
X44868536Y-22795312D01*
X44845998Y-22861447D01*
X44800946Y-22900484D01*
X44792182Y-22904949D01*
X44620213Y-23029890D01*
X44469890Y-23180213D01*
X44344951Y-23352179D01*
X44248444Y-23541585D01*
X44182753Y-23743760D01*
X44149500Y-23953713D01*
X44149500Y-24166286D01*
X44182753Y-24376239D01*
X44182753Y-24376241D01*
X44182754Y-24376243D01*
X44248215Y-24577711D01*
X44248444Y-24578414D01*
X44344951Y-24767820D01*
X44469890Y-24939786D01*
X44620213Y-25090109D01*
X44792179Y-25215048D01*
X44792181Y-25215049D01*
X44792184Y-25215051D01*
X44801493Y-25219794D01*
X44852290Y-25267766D01*
X44869087Y-25335587D01*
X44846552Y-25401722D01*
X44801505Y-25440760D01*
X44792446Y-25445376D01*
X44792440Y-25445380D01*
X44738282Y-25484727D01*
X44738282Y-25484728D01*
X45370591Y-26117037D01*
X45307007Y-26134075D01*
X45192993Y-26199901D01*
X45099901Y-26292993D01*
X45034075Y-26407007D01*
X45017037Y-26470591D01*
X44384728Y-25838282D01*
X44384727Y-25838282D01*
X44345380Y-25892439D01*
X44248904Y-26081782D01*
X44183242Y-26283869D01*
X44183242Y-26283872D01*
X44150000Y-26493753D01*
X44150000Y-26706246D01*
X44183242Y-26916127D01*
X44183242Y-26916130D01*
X44248904Y-27118217D01*
X44345375Y-27307550D01*
X44384728Y-27361716D01*
X45017037Y-26729408D01*
X45034075Y-26792993D01*
X45099901Y-26907007D01*
X45192993Y-27000099D01*
X45307007Y-27065925D01*
X45370590Y-27082962D01*
X44738282Y-27715269D01*
X44738282Y-27715270D01*
X44792452Y-27754626D01*
X44792451Y-27754626D01*
X44801495Y-27759234D01*
X44852292Y-27807208D01*
X44869087Y-27875029D01*
X44846550Y-27941164D01*
X44801499Y-27980202D01*
X44792182Y-27984949D01*
X44620213Y-28109890D01*
X44469890Y-28260213D01*
X44344951Y-28432179D01*
X44248444Y-28621585D01*
X44182753Y-28823760D01*
X44149762Y-29032058D01*
X44149500Y-29033713D01*
X44149500Y-29246287D01*
X44153801Y-29273442D01*
X44182753Y-29456239D01*
X44182753Y-29456241D01*
X44182754Y-29456243D01*
X44237431Y-29624522D01*
X44248444Y-29658414D01*
X44344951Y-29847820D01*
X44469890Y-30019786D01*
X44620213Y-30170109D01*
X44792182Y-30295050D01*
X44800946Y-30299516D01*
X44851742Y-30347491D01*
X44868536Y-30415312D01*
X44845998Y-30481447D01*
X44800946Y-30520484D01*
X44792182Y-30524949D01*
X44620213Y-30649890D01*
X44469890Y-30800213D01*
X44344951Y-30972179D01*
X44248444Y-31161585D01*
X44182753Y-31363760D01*
X44149500Y-31573713D01*
X44149500Y-31786286D01*
X44182735Y-31996127D01*
X44182754Y-31996243D01*
X44246682Y-32192993D01*
X44248444Y-32198414D01*
X44344951Y-32387820D01*
X44469890Y-32559786D01*
X44620213Y-32710109D01*
X44792182Y-32835050D01*
X44800946Y-32839516D01*
X44851742Y-32887491D01*
X44868536Y-32955312D01*
X44845998Y-33021447D01*
X44800946Y-33060484D01*
X44792182Y-33064949D01*
X44620213Y-33189890D01*
X44469890Y-33340213D01*
X44344951Y-33512179D01*
X44248444Y-33701585D01*
X44248443Y-33701587D01*
X44248443Y-33701588D01*
X44248050Y-33702797D01*
X44182753Y-33903760D01*
X44164555Y-34018657D01*
X44149500Y-34113713D01*
X44149500Y-34326287D01*
X44153031Y-34348582D01*
X44182753Y-34536239D01*
X44182753Y-34536241D01*
X44182754Y-34536243D01*
X44237431Y-34704522D01*
X44248444Y-34738414D01*
X44344951Y-34927820D01*
X44469890Y-35099786D01*
X44620213Y-35250109D01*
X44792182Y-35375050D01*
X44800946Y-35379516D01*
X44851742Y-35427491D01*
X44868536Y-35495312D01*
X44845998Y-35561447D01*
X44800946Y-35600484D01*
X44792182Y-35604949D01*
X44620213Y-35729890D01*
X44469890Y-35880213D01*
X44344951Y-36052179D01*
X44248444Y-36241585D01*
X44182753Y-36443760D01*
X44149500Y-36653713D01*
X44149500Y-36866286D01*
X44182753Y-37076239D01*
X44182753Y-37076241D01*
X44182754Y-37076243D01*
X44237431Y-37244522D01*
X44248444Y-37278414D01*
X44344951Y-37467820D01*
X44469890Y-37639786D01*
X44620213Y-37790109D01*
X44792179Y-37915048D01*
X44792181Y-37915049D01*
X44792184Y-37915051D01*
X44801493Y-37919794D01*
X44852290Y-37967766D01*
X44869087Y-38035587D01*
X44846552Y-38101722D01*
X44801505Y-38140760D01*
X44792446Y-38145376D01*
X44792440Y-38145380D01*
X44738282Y-38184727D01*
X44738282Y-38184728D01*
X45370591Y-38817037D01*
X45307007Y-38834075D01*
X45192993Y-38899901D01*
X45099901Y-38992993D01*
X45034075Y-39107007D01*
X45017037Y-39170591D01*
X44384728Y-38538282D01*
X44384727Y-38538282D01*
X44345380Y-38592439D01*
X44248904Y-38781782D01*
X44183242Y-38983869D01*
X44183242Y-38983872D01*
X44150000Y-39193753D01*
X44150000Y-39406246D01*
X44183242Y-39616127D01*
X44183242Y-39616130D01*
X44248904Y-39818217D01*
X44345375Y-40007550D01*
X44384728Y-40061716D01*
X45017037Y-39429408D01*
X45034075Y-39492993D01*
X45099901Y-39607007D01*
X45192993Y-39700099D01*
X45307007Y-39765925D01*
X45370590Y-39782962D01*
X44738282Y-40415269D01*
X44738282Y-40415270D01*
X44792452Y-40454626D01*
X44792451Y-40454626D01*
X44801495Y-40459234D01*
X44852292Y-40507208D01*
X44869087Y-40575029D01*
X44846550Y-40641164D01*
X44801499Y-40680202D01*
X44792182Y-40684949D01*
X44620213Y-40809890D01*
X44469890Y-40960213D01*
X44344951Y-41132179D01*
X44248444Y-41321585D01*
X44182753Y-41523760D01*
X44157061Y-41685976D01*
X44149500Y-41733713D01*
X44149500Y-41946287D01*
X44182754Y-42156243D01*
X44225773Y-42288642D01*
X44248444Y-42358414D01*
X44344951Y-42547820D01*
X44469890Y-42719786D01*
X44620213Y-42870109D01*
X44792182Y-42995050D01*
X44800946Y-42999516D01*
X44851742Y-43047491D01*
X44868536Y-43115312D01*
X44845998Y-43181447D01*
X44800946Y-43220484D01*
X44792182Y-43224949D01*
X44620213Y-43349890D01*
X44469890Y-43500213D01*
X44344951Y-43672179D01*
X44248444Y-43861585D01*
X44182753Y-44063760D01*
X44149500Y-44273713D01*
X44149500Y-44486286D01*
X44182735Y-44696127D01*
X44182754Y-44696243D01*
X44242331Y-44879602D01*
X44248444Y-44898414D01*
X44344951Y-45087820D01*
X44469890Y-45259786D01*
X44620213Y-45410109D01*
X44792182Y-45535050D01*
X44800946Y-45539516D01*
X44851742Y-45587491D01*
X44868536Y-45655312D01*
X44845998Y-45721447D01*
X44800946Y-45760484D01*
X44792182Y-45764949D01*
X44620213Y-45889890D01*
X44469890Y-46040213D01*
X44344951Y-46212179D01*
X44248444Y-46401585D01*
X44182753Y-46603760D01*
X44149500Y-46813713D01*
X44149500Y-47026286D01*
X44182753Y-47236239D01*
X44182753Y-47236241D01*
X44182754Y-47236243D01*
X44237431Y-47404522D01*
X44248444Y-47438414D01*
X44344951Y-47627820D01*
X44469890Y-47799786D01*
X44620213Y-47950109D01*
X44792182Y-48075050D01*
X44800946Y-48079516D01*
X44851742Y-48127491D01*
X44868536Y-48195312D01*
X44845998Y-48261447D01*
X44800946Y-48300484D01*
X44792182Y-48304949D01*
X44620213Y-48429890D01*
X44469890Y-48580213D01*
X44344951Y-48752179D01*
X44248444Y-48941585D01*
X44182753Y-49143760D01*
X44149500Y-49353713D01*
X44149500Y-49566286D01*
X44182753Y-49776239D01*
X44248444Y-49978414D01*
X44344951Y-50167820D01*
X44469890Y-50339786D01*
X44620213Y-50490109D01*
X44792179Y-50615048D01*
X44792181Y-50615049D01*
X44792184Y-50615051D01*
X44801493Y-50619794D01*
X44852290Y-50667766D01*
X44869087Y-50735587D01*
X44846552Y-50801722D01*
X44801505Y-50840760D01*
X44792446Y-50845376D01*
X44792440Y-50845380D01*
X44738282Y-50884727D01*
X44738282Y-50884728D01*
X45370591Y-51517037D01*
X45307007Y-51534075D01*
X45192993Y-51599901D01*
X45099901Y-51692993D01*
X45034075Y-51807007D01*
X45017037Y-51870591D01*
X44384728Y-51238282D01*
X44384727Y-51238282D01*
X44345380Y-51292439D01*
X44248904Y-51481782D01*
X44183242Y-51683869D01*
X44183242Y-51683872D01*
X44150000Y-51893753D01*
X44150000Y-52106246D01*
X44183242Y-52316127D01*
X44183242Y-52316130D01*
X44248904Y-52518217D01*
X44345375Y-52707550D01*
X44384728Y-52761716D01*
X45017037Y-52129408D01*
X45034075Y-52192993D01*
X45099901Y-52307007D01*
X45192993Y-52400099D01*
X45307007Y-52465925D01*
X45370590Y-52482962D01*
X44738282Y-53115269D01*
X44738282Y-53115270D01*
X44792452Y-53154626D01*
X44792451Y-53154626D01*
X44801495Y-53159234D01*
X44852292Y-53207208D01*
X44869087Y-53275029D01*
X44846550Y-53341164D01*
X44801499Y-53380202D01*
X44792182Y-53384949D01*
X44620213Y-53509890D01*
X44469890Y-53660213D01*
X44344951Y-53832179D01*
X44248444Y-54021585D01*
X44182753Y-54223760D01*
X44149500Y-54433713D01*
X44149500Y-54646286D01*
X44182753Y-54856239D01*
X44248444Y-55058414D01*
X44344951Y-55247820D01*
X44469890Y-55419786D01*
X44620213Y-55570109D01*
X44792182Y-55695050D01*
X44800946Y-55699516D01*
X44851742Y-55747491D01*
X44868536Y-55815312D01*
X44845998Y-55881447D01*
X44800946Y-55920484D01*
X44792182Y-55924949D01*
X44620213Y-56049890D01*
X44469890Y-56200213D01*
X44344951Y-56372179D01*
X44248444Y-56561584D01*
X44216130Y-56661035D01*
X44176691Y-56718710D01*
X44112332Y-56745908D01*
X44043486Y-56733993D01*
X44010518Y-56710397D01*
X41058219Y-53758098D01*
X41024734Y-53696775D01*
X41021900Y-53670417D01*
X41021900Y-28322856D01*
X40983452Y-28129570D01*
X40983451Y-28129569D01*
X40983451Y-28129565D01*
X40975304Y-28109896D01*
X40908035Y-27947492D01*
X40908028Y-27947479D01*
X40798539Y-27783618D01*
X40798536Y-27783614D01*
X40656086Y-27641164D01*
X40656055Y-27641135D01*
X26886818Y-13871898D01*
X26853333Y-13810575D01*
X26850499Y-13784217D01*
X26850499Y-13002129D01*
X26850498Y-13002123D01*
X26850497Y-13002116D01*
X26844091Y-12942517D01*
X26829043Y-12902172D01*
X26793797Y-12807671D01*
X26793793Y-12807664D01*
X26707547Y-12692455D01*
X26707544Y-12692452D01*
X26592335Y-12606206D01*
X26592328Y-12606202D01*
X26457482Y-12555908D01*
X26457483Y-12555908D01*
X26397883Y-12549501D01*
X26397881Y-12549500D01*
X26397873Y-12549500D01*
X26397864Y-12549500D01*
X24602129Y-12549500D01*
X24602123Y-12549501D01*
X24542516Y-12555908D01*
X24407671Y-12606202D01*
X24407664Y-12606206D01*
X24292455Y-12692452D01*
X24292452Y-12692455D01*
X24206206Y-12807664D01*
X24206202Y-12807671D01*
X24155908Y-12942517D01*
X24149501Y-13002116D01*
X24149501Y-13002123D01*
X24149500Y-13002135D01*
X13750500Y-13002135D01*
X13750500Y-12374500D01*
X13770185Y-12307461D01*
X13822989Y-12261706D01*
X13874500Y-12250500D01*
X91587381Y-12250500D01*
X91654420Y-12270185D01*
G37*
%TD.AperFunction*%
%TA.AperFunction,Conductor*%
G36*
X111974420Y-12270185D02*
G01*
X112020175Y-12322989D01*
X112030119Y-12392147D01*
X112001094Y-12455703D01*
X111950714Y-12490682D01*
X111907913Y-12506645D01*
X111907906Y-12506649D01*
X111792812Y-12592809D01*
X111792809Y-12592812D01*
X111706649Y-12707906D01*
X111706645Y-12707913D01*
X111656403Y-12842620D01*
X111656401Y-12842627D01*
X111650000Y-12902155D01*
X111650000Y-13550000D01*
X112566988Y-13550000D01*
X112534075Y-13607007D01*
X112500000Y-13734174D01*
X112500000Y-13865826D01*
X112534075Y-13992993D01*
X112566988Y-14050000D01*
X111650000Y-14050000D01*
X111650000Y-14697844D01*
X111656401Y-14757372D01*
X111656403Y-14757379D01*
X111706645Y-14892086D01*
X111706649Y-14892093D01*
X111792809Y-15007187D01*
X111792812Y-15007190D01*
X111907906Y-15093350D01*
X111907913Y-15093354D01*
X112039470Y-15142422D01*
X112095404Y-15184293D01*
X112119821Y-15249758D01*
X112104969Y-15318031D01*
X112083819Y-15346285D01*
X111969889Y-15460215D01*
X111844951Y-15632179D01*
X111748444Y-15821585D01*
X111682753Y-16023760D01*
X111648738Y-16238525D01*
X111647684Y-16238358D01*
X111624621Y-16298850D01*
X111613576Y-16311503D01*
X103480557Y-24444522D01*
X95390621Y-32534458D01*
X95390618Y-32534461D01*
X95346286Y-32578793D01*
X95251259Y-32673819D01*
X95141771Y-32837680D01*
X95141764Y-32837693D01*
X95103735Y-32929505D01*
X95103726Y-32929528D01*
X95102886Y-32931557D01*
X95066349Y-33019764D01*
X95064055Y-33031299D01*
X95062107Y-33041088D01*
X95062106Y-33041093D01*
X95027900Y-33213056D01*
X95027900Y-45385816D01*
X95019255Y-45415256D01*
X95012732Y-45445243D01*
X95008977Y-45450258D01*
X95008215Y-45452855D01*
X94991581Y-45473497D01*
X94971897Y-45493181D01*
X94910574Y-45526666D01*
X94884216Y-45529500D01*
X94769655Y-45529500D01*
X94702616Y-45509815D01*
X94656861Y-45457011D01*
X94646917Y-45387853D01*
X94649880Y-45373407D01*
X94660038Y-45335495D01*
X94680600Y-45258758D01*
X94680600Y-45100643D01*
X94680600Y-20201043D01*
X94639677Y-20048316D01*
X94632017Y-20035048D01*
X94560624Y-19911390D01*
X94560621Y-19911386D01*
X94560620Y-19911384D01*
X94448816Y-19799580D01*
X94448815Y-19799579D01*
X94444485Y-19795249D01*
X94444474Y-19795239D01*
X94013757Y-19364522D01*
X93980272Y-19303199D01*
X93983507Y-19238523D01*
X93997246Y-19196243D01*
X94030500Y-18986287D01*
X94030500Y-18773713D01*
X93997246Y-18563757D01*
X93931557Y-18361588D01*
X93835051Y-18172184D01*
X93835049Y-18172181D01*
X93835048Y-18172179D01*
X93710109Y-18000213D01*
X93559786Y-17849890D01*
X93387817Y-17724949D01*
X93378504Y-17720204D01*
X93327707Y-17672230D01*
X93310912Y-17604409D01*
X93333449Y-17538274D01*
X93378507Y-17499232D01*
X93387555Y-17494622D01*
X93441716Y-17455270D01*
X93441717Y-17455270D01*
X92809408Y-16822962D01*
X92872993Y-16805925D01*
X92987007Y-16740099D01*
X93080099Y-16647007D01*
X93145925Y-16532993D01*
X93162962Y-16469408D01*
X93795270Y-17101717D01*
X93795270Y-17101716D01*
X93834622Y-17047554D01*
X93931095Y-16858217D01*
X93996757Y-16656130D01*
X93996757Y-16656127D01*
X94030000Y-16446246D01*
X94030000Y-16233753D01*
X93996757Y-16023872D01*
X93996757Y-16023869D01*
X93931095Y-15821782D01*
X93834624Y-15632449D01*
X93795270Y-15578282D01*
X93795269Y-15578282D01*
X93162962Y-16210590D01*
X93145925Y-16147007D01*
X93080099Y-16032993D01*
X92987007Y-15939901D01*
X92872993Y-15874075D01*
X92809409Y-15857037D01*
X93478802Y-15187642D01*
X93540125Y-15154157D01*
X93554833Y-15155078D01*
X93554556Y-15152501D01*
X93637375Y-15143598D01*
X93772086Y-15093354D01*
X93772093Y-15093350D01*
X93887187Y-15007190D01*
X93887190Y-15007187D01*
X93973350Y-14892093D01*
X93973354Y-14892086D01*
X94023596Y-14757379D01*
X94023598Y-14757372D01*
X94029999Y-14697844D01*
X94030000Y-14697827D01*
X94030000Y-14050000D01*
X93113012Y-14050000D01*
X93145925Y-13992993D01*
X93180000Y-13865826D01*
X93180000Y-13734174D01*
X93145925Y-13607007D01*
X93113012Y-13550000D01*
X94030000Y-13550000D01*
X94030000Y-12902172D01*
X94029999Y-12902155D01*
X94023598Y-12842627D01*
X94023596Y-12842620D01*
X93973354Y-12707913D01*
X93973350Y-12707906D01*
X93887190Y-12592812D01*
X93887187Y-12592809D01*
X93772093Y-12506649D01*
X93772086Y-12506645D01*
X93729286Y-12490682D01*
X93673352Y-12448811D01*
X93648935Y-12383346D01*
X93663787Y-12315073D01*
X93713192Y-12265668D01*
X93772619Y-12250500D01*
X111907381Y-12250500D01*
X111974420Y-12270185D01*
G37*
%TD.AperFunction*%
%TD*%
M02*
