%TF.GenerationSoftware,KiCad,Pcbnew,9.0.7*%
%TF.CreationDate,2026-03-25T19:51:49+02:00*%
%TF.ProjectId,NetPuck5G,4e657450-7563-46b3-9547-2e6b69636164,rev?*%
%TF.SameCoordinates,Original*%
%TF.FileFunction,Legend,Top*%
%TF.FilePolarity,Positive*%
%FSLAX46Y46*%
G04 Gerber Fmt 4.6, Leading zero omitted, Abs format (unit mm)*
G04 Created by KiCad (PCBNEW 9.0.7) date 2026-03-25 19:51:49*
%MOMM*%
%LPD*%
G01*
G04 APERTURE LIST*
%ADD10C,0.200000*%
%ADD11C,0.300000*%
%ADD12C,0.600000*%
%ADD13C,0.150000*%
%ADD14C,0.120000*%
G04 APERTURE END LIST*
D10*
X93125000Y-38500000D02*
X149875000Y-38500000D01*
X149875000Y-73500000D01*
X93125000Y-73500000D01*
X93125000Y-38500000D01*
X57250000Y-56750000D02*
X82250000Y-56750000D01*
X82250000Y-72750000D01*
X57250000Y-72750000D01*
X57250000Y-56750000D01*
X153250000Y-30500000D02*
X178250000Y-30500000D01*
X178250000Y-72500000D01*
X153250000Y-72500000D01*
X153250000Y-30500000D01*
D11*
X34800828Y-51488346D02*
X36300828Y-51131203D01*
X36300828Y-51131203D02*
X35229400Y-50845489D01*
X35229400Y-50845489D02*
X36300828Y-50559774D01*
X36300828Y-50559774D02*
X34800828Y-50202632D01*
X36300828Y-48988346D02*
X35515114Y-48988346D01*
X35515114Y-48988346D02*
X35372257Y-49059774D01*
X35372257Y-49059774D02*
X35300828Y-49202631D01*
X35300828Y-49202631D02*
X35300828Y-49488346D01*
X35300828Y-49488346D02*
X35372257Y-49631203D01*
X36229400Y-48988346D02*
X36300828Y-49131203D01*
X36300828Y-49131203D02*
X36300828Y-49488346D01*
X36300828Y-49488346D02*
X36229400Y-49631203D01*
X36229400Y-49631203D02*
X36086542Y-49702631D01*
X36086542Y-49702631D02*
X35943685Y-49702631D01*
X35943685Y-49702631D02*
X35800828Y-49631203D01*
X35800828Y-49631203D02*
X35729400Y-49488346D01*
X35729400Y-49488346D02*
X35729400Y-49131203D01*
X35729400Y-49131203D02*
X35657971Y-48988346D01*
X35300828Y-48416917D02*
X36300828Y-48059774D01*
X36300828Y-48059774D02*
X35300828Y-47702631D01*
X36229400Y-46559774D02*
X36300828Y-46702631D01*
X36300828Y-46702631D02*
X36300828Y-46988346D01*
X36300828Y-46988346D02*
X36229400Y-47131203D01*
X36229400Y-47131203D02*
X36086542Y-47202631D01*
X36086542Y-47202631D02*
X35515114Y-47202631D01*
X35515114Y-47202631D02*
X35372257Y-47131203D01*
X35372257Y-47131203D02*
X35300828Y-46988346D01*
X35300828Y-46988346D02*
X35300828Y-46702631D01*
X35300828Y-46702631D02*
X35372257Y-46559774D01*
X35372257Y-46559774D02*
X35515114Y-46488346D01*
X35515114Y-46488346D02*
X35657971Y-46488346D01*
X35657971Y-46488346D02*
X35800828Y-47202631D01*
X36229400Y-45916917D02*
X36300828Y-45774060D01*
X36300828Y-45774060D02*
X36300828Y-45488346D01*
X36300828Y-45488346D02*
X36229400Y-45345489D01*
X36229400Y-45345489D02*
X36086542Y-45274060D01*
X36086542Y-45274060D02*
X36015114Y-45274060D01*
X36015114Y-45274060D02*
X35872257Y-45345489D01*
X35872257Y-45345489D02*
X35800828Y-45488346D01*
X35800828Y-45488346D02*
X35800828Y-45702632D01*
X35800828Y-45702632D02*
X35729400Y-45845489D01*
X35729400Y-45845489D02*
X35586542Y-45916917D01*
X35586542Y-45916917D02*
X35515114Y-45916917D01*
X35515114Y-45916917D02*
X35372257Y-45845489D01*
X35372257Y-45845489D02*
X35300828Y-45702632D01*
X35300828Y-45702632D02*
X35300828Y-45488346D01*
X35300828Y-45488346D02*
X35372257Y-45345489D01*
X36300828Y-44631203D02*
X34800828Y-44631203D01*
X36300828Y-43988346D02*
X35515114Y-43988346D01*
X35515114Y-43988346D02*
X35372257Y-44059774D01*
X35372257Y-44059774D02*
X35300828Y-44202631D01*
X35300828Y-44202631D02*
X35300828Y-44416917D01*
X35300828Y-44416917D02*
X35372257Y-44559774D01*
X35372257Y-44559774D02*
X35443685Y-44631203D01*
X36300828Y-42631203D02*
X35515114Y-42631203D01*
X35515114Y-42631203D02*
X35372257Y-42702631D01*
X35372257Y-42702631D02*
X35300828Y-42845488D01*
X35300828Y-42845488D02*
X35300828Y-43131203D01*
X35300828Y-43131203D02*
X35372257Y-43274060D01*
X36229400Y-42631203D02*
X36300828Y-42774060D01*
X36300828Y-42774060D02*
X36300828Y-43131203D01*
X36300828Y-43131203D02*
X36229400Y-43274060D01*
X36229400Y-43274060D02*
X36086542Y-43345488D01*
X36086542Y-43345488D02*
X35943685Y-43345488D01*
X35943685Y-43345488D02*
X35800828Y-43274060D01*
X35800828Y-43274060D02*
X35729400Y-43131203D01*
X35729400Y-43131203D02*
X35729400Y-42774060D01*
X35729400Y-42774060D02*
X35657971Y-42631203D01*
X36300828Y-41916917D02*
X35300828Y-41916917D01*
X35586542Y-41916917D02*
X35443685Y-41845488D01*
X35443685Y-41845488D02*
X35372257Y-41774060D01*
X35372257Y-41774060D02*
X35300828Y-41631202D01*
X35300828Y-41631202D02*
X35300828Y-41488345D01*
X36229400Y-40416917D02*
X36300828Y-40559774D01*
X36300828Y-40559774D02*
X36300828Y-40845489D01*
X36300828Y-40845489D02*
X36229400Y-40988346D01*
X36229400Y-40988346D02*
X36086542Y-41059774D01*
X36086542Y-41059774D02*
X35515114Y-41059774D01*
X35515114Y-41059774D02*
X35372257Y-40988346D01*
X35372257Y-40988346D02*
X35300828Y-40845489D01*
X35300828Y-40845489D02*
X35300828Y-40559774D01*
X35300828Y-40559774D02*
X35372257Y-40416917D01*
X35372257Y-40416917D02*
X35515114Y-40345489D01*
X35515114Y-40345489D02*
X35657971Y-40345489D01*
X35657971Y-40345489D02*
X35800828Y-41059774D01*
X35515114Y-38559775D02*
X35515114Y-38059775D01*
X36300828Y-37845489D02*
X36300828Y-38559775D01*
X36300828Y-38559775D02*
X34800828Y-38559775D01*
X34800828Y-38559775D02*
X34800828Y-37845489D01*
X36229400Y-37274060D02*
X36300828Y-37059775D01*
X36300828Y-37059775D02*
X36300828Y-36702632D01*
X36300828Y-36702632D02*
X36229400Y-36559775D01*
X36229400Y-36559775D02*
X36157971Y-36488346D01*
X36157971Y-36488346D02*
X36015114Y-36416917D01*
X36015114Y-36416917D02*
X35872257Y-36416917D01*
X35872257Y-36416917D02*
X35729400Y-36488346D01*
X35729400Y-36488346D02*
X35657971Y-36559775D01*
X35657971Y-36559775D02*
X35586542Y-36702632D01*
X35586542Y-36702632D02*
X35515114Y-36988346D01*
X35515114Y-36988346D02*
X35443685Y-37131203D01*
X35443685Y-37131203D02*
X35372257Y-37202632D01*
X35372257Y-37202632D02*
X35229400Y-37274060D01*
X35229400Y-37274060D02*
X35086542Y-37274060D01*
X35086542Y-37274060D02*
X34943685Y-37202632D01*
X34943685Y-37202632D02*
X34872257Y-37131203D01*
X34872257Y-37131203D02*
X34800828Y-36988346D01*
X34800828Y-36988346D02*
X34800828Y-36631203D01*
X34800828Y-36631203D02*
X34872257Y-36416917D01*
X36300828Y-35774061D02*
X34800828Y-35774061D01*
X34800828Y-35774061D02*
X34800828Y-35202632D01*
X34800828Y-35202632D02*
X34872257Y-35059775D01*
X34872257Y-35059775D02*
X34943685Y-34988346D01*
X34943685Y-34988346D02*
X35086542Y-34916918D01*
X35086542Y-34916918D02*
X35300828Y-34916918D01*
X35300828Y-34916918D02*
X35443685Y-34988346D01*
X35443685Y-34988346D02*
X35515114Y-35059775D01*
X35515114Y-35059775D02*
X35586542Y-35202632D01*
X35586542Y-35202632D02*
X35586542Y-35774061D01*
X34800828Y-34416918D02*
X34800828Y-33488346D01*
X34800828Y-33488346D02*
X35372257Y-33988346D01*
X35372257Y-33988346D02*
X35372257Y-33774061D01*
X35372257Y-33774061D02*
X35443685Y-33631204D01*
X35443685Y-33631204D02*
X35515114Y-33559775D01*
X35515114Y-33559775D02*
X35657971Y-33488346D01*
X35657971Y-33488346D02*
X36015114Y-33488346D01*
X36015114Y-33488346D02*
X36157971Y-33559775D01*
X36157971Y-33559775D02*
X36229400Y-33631204D01*
X36229400Y-33631204D02*
X36300828Y-33774061D01*
X36300828Y-33774061D02*
X36300828Y-34202632D01*
X36300828Y-34202632D02*
X36229400Y-34345489D01*
X36229400Y-34345489D02*
X36157971Y-34416918D01*
X34943685Y-32916918D02*
X34872257Y-32845490D01*
X34872257Y-32845490D02*
X34800828Y-32702633D01*
X34800828Y-32702633D02*
X34800828Y-32345490D01*
X34800828Y-32345490D02*
X34872257Y-32202633D01*
X34872257Y-32202633D02*
X34943685Y-32131204D01*
X34943685Y-32131204D02*
X35086542Y-32059775D01*
X35086542Y-32059775D02*
X35229400Y-32059775D01*
X35229400Y-32059775D02*
X35443685Y-32131204D01*
X35443685Y-32131204D02*
X36300828Y-32988347D01*
X36300828Y-32988347D02*
X36300828Y-32059775D01*
X35729400Y-31416919D02*
X35729400Y-30274062D01*
X36229400Y-29631204D02*
X36300828Y-29416919D01*
X36300828Y-29416919D02*
X36300828Y-29059776D01*
X36300828Y-29059776D02*
X36229400Y-28916919D01*
X36229400Y-28916919D02*
X36157971Y-28845490D01*
X36157971Y-28845490D02*
X36015114Y-28774061D01*
X36015114Y-28774061D02*
X35872257Y-28774061D01*
X35872257Y-28774061D02*
X35729400Y-28845490D01*
X35729400Y-28845490D02*
X35657971Y-28916919D01*
X35657971Y-28916919D02*
X35586542Y-29059776D01*
X35586542Y-29059776D02*
X35515114Y-29345490D01*
X35515114Y-29345490D02*
X35443685Y-29488347D01*
X35443685Y-29488347D02*
X35372257Y-29559776D01*
X35372257Y-29559776D02*
X35229400Y-29631204D01*
X35229400Y-29631204D02*
X35086542Y-29631204D01*
X35086542Y-29631204D02*
X34943685Y-29559776D01*
X34943685Y-29559776D02*
X34872257Y-29488347D01*
X34872257Y-29488347D02*
X34800828Y-29345490D01*
X34800828Y-29345490D02*
X34800828Y-28988347D01*
X34800828Y-28988347D02*
X34872257Y-28774061D01*
X34800828Y-28274062D02*
X34800828Y-27345490D01*
X34800828Y-27345490D02*
X35372257Y-27845490D01*
X35372257Y-27845490D02*
X35372257Y-27631205D01*
X35372257Y-27631205D02*
X35443685Y-27488348D01*
X35443685Y-27488348D02*
X35515114Y-27416919D01*
X35515114Y-27416919D02*
X35657971Y-27345490D01*
X35657971Y-27345490D02*
X36015114Y-27345490D01*
X36015114Y-27345490D02*
X36157971Y-27416919D01*
X36157971Y-27416919D02*
X36229400Y-27488348D01*
X36229400Y-27488348D02*
X36300828Y-27631205D01*
X36300828Y-27631205D02*
X36300828Y-28059776D01*
X36300828Y-28059776D02*
X36229400Y-28202633D01*
X36229400Y-28202633D02*
X36157971Y-28274062D01*
X36300828Y-26702634D02*
X34800828Y-26702634D01*
X34800828Y-26702634D02*
X34800828Y-26131205D01*
X34800828Y-26131205D02*
X34872257Y-25988348D01*
X34872257Y-25988348D02*
X34943685Y-25916919D01*
X34943685Y-25916919D02*
X35086542Y-25845491D01*
X35086542Y-25845491D02*
X35300828Y-25845491D01*
X35300828Y-25845491D02*
X35443685Y-25916919D01*
X35443685Y-25916919D02*
X35515114Y-25988348D01*
X35515114Y-25988348D02*
X35586542Y-26131205D01*
X35586542Y-26131205D02*
X35586542Y-26702634D01*
X36300828Y-25202634D02*
X35300828Y-25202634D01*
X34800828Y-25202634D02*
X34872257Y-25274062D01*
X34872257Y-25274062D02*
X34943685Y-25202634D01*
X34943685Y-25202634D02*
X34872257Y-25131205D01*
X34872257Y-25131205D02*
X34800828Y-25202634D01*
X34800828Y-25202634D02*
X34943685Y-25202634D01*
X36229400Y-23845491D02*
X36300828Y-23988348D01*
X36300828Y-23988348D02*
X36300828Y-24274062D01*
X36300828Y-24274062D02*
X36229400Y-24416919D01*
X36229400Y-24416919D02*
X36157971Y-24488348D01*
X36157971Y-24488348D02*
X36015114Y-24559776D01*
X36015114Y-24559776D02*
X35586542Y-24559776D01*
X35586542Y-24559776D02*
X35443685Y-24488348D01*
X35443685Y-24488348D02*
X35372257Y-24416919D01*
X35372257Y-24416919D02*
X35300828Y-24274062D01*
X35300828Y-24274062D02*
X35300828Y-23988348D01*
X35300828Y-23988348D02*
X35372257Y-23845491D01*
X36300828Y-22988348D02*
X36229400Y-23131205D01*
X36229400Y-23131205D02*
X36157971Y-23202634D01*
X36157971Y-23202634D02*
X36015114Y-23274062D01*
X36015114Y-23274062D02*
X35586542Y-23274062D01*
X35586542Y-23274062D02*
X35443685Y-23202634D01*
X35443685Y-23202634D02*
X35372257Y-23131205D01*
X35372257Y-23131205D02*
X35300828Y-22988348D01*
X35300828Y-22988348D02*
X35300828Y-22774062D01*
X35300828Y-22774062D02*
X35372257Y-22631205D01*
X35372257Y-22631205D02*
X35443685Y-22559777D01*
X35443685Y-22559777D02*
X35586542Y-22488348D01*
X35586542Y-22488348D02*
X36015114Y-22488348D01*
X36015114Y-22488348D02*
X36157971Y-22559777D01*
X36157971Y-22559777D02*
X36229400Y-22631205D01*
X36229400Y-22631205D02*
X36300828Y-22774062D01*
X36300828Y-22774062D02*
X36300828Y-22988348D01*
X107928571Y-51814484D02*
X108142857Y-51885912D01*
X108142857Y-51885912D02*
X108499999Y-51885912D01*
X108499999Y-51885912D02*
X108642857Y-51814484D01*
X108642857Y-51814484D02*
X108714285Y-51743055D01*
X108714285Y-51743055D02*
X108785714Y-51600198D01*
X108785714Y-51600198D02*
X108785714Y-51457341D01*
X108785714Y-51457341D02*
X108714285Y-51314484D01*
X108714285Y-51314484D02*
X108642857Y-51243055D01*
X108642857Y-51243055D02*
X108499999Y-51171626D01*
X108499999Y-51171626D02*
X108214285Y-51100198D01*
X108214285Y-51100198D02*
X108071428Y-51028769D01*
X108071428Y-51028769D02*
X107999999Y-50957341D01*
X107999999Y-50957341D02*
X107928571Y-50814484D01*
X107928571Y-50814484D02*
X107928571Y-50671626D01*
X107928571Y-50671626D02*
X107999999Y-50528769D01*
X107999999Y-50528769D02*
X108071428Y-50457341D01*
X108071428Y-50457341D02*
X108214285Y-50385912D01*
X108214285Y-50385912D02*
X108571428Y-50385912D01*
X108571428Y-50385912D02*
X108785714Y-50457341D01*
X110285713Y-51743055D02*
X110214285Y-51814484D01*
X110214285Y-51814484D02*
X109999999Y-51885912D01*
X109999999Y-51885912D02*
X109857142Y-51885912D01*
X109857142Y-51885912D02*
X109642856Y-51814484D01*
X109642856Y-51814484D02*
X109499999Y-51671626D01*
X109499999Y-51671626D02*
X109428570Y-51528769D01*
X109428570Y-51528769D02*
X109357142Y-51243055D01*
X109357142Y-51243055D02*
X109357142Y-51028769D01*
X109357142Y-51028769D02*
X109428570Y-50743055D01*
X109428570Y-50743055D02*
X109499999Y-50600198D01*
X109499999Y-50600198D02*
X109642856Y-50457341D01*
X109642856Y-50457341D02*
X109857142Y-50385912D01*
X109857142Y-50385912D02*
X109999999Y-50385912D01*
X109999999Y-50385912D02*
X110214285Y-50457341D01*
X110214285Y-50457341D02*
X110285713Y-50528769D01*
X111785713Y-51885912D02*
X111285713Y-51171626D01*
X110928570Y-51885912D02*
X110928570Y-50385912D01*
X110928570Y-50385912D02*
X111499999Y-50385912D01*
X111499999Y-50385912D02*
X111642856Y-50457341D01*
X111642856Y-50457341D02*
X111714285Y-50528769D01*
X111714285Y-50528769D02*
X111785713Y-50671626D01*
X111785713Y-50671626D02*
X111785713Y-50885912D01*
X111785713Y-50885912D02*
X111714285Y-51028769D01*
X111714285Y-51028769D02*
X111642856Y-51100198D01*
X111642856Y-51100198D02*
X111499999Y-51171626D01*
X111499999Y-51171626D02*
X110928570Y-51171626D01*
X112428570Y-51100198D02*
X112928570Y-51100198D01*
X113142856Y-51885912D02*
X112428570Y-51885912D01*
X112428570Y-51885912D02*
X112428570Y-50385912D01*
X112428570Y-50385912D02*
X113142856Y-50385912D01*
X113785713Y-51100198D02*
X114285713Y-51100198D01*
X114499999Y-51885912D02*
X113785713Y-51885912D01*
X113785713Y-51885912D02*
X113785713Y-50385912D01*
X113785713Y-50385912D02*
X114499999Y-50385912D01*
X115142856Y-51885912D02*
X115142856Y-50385912D01*
X115142856Y-50385912D02*
X115999999Y-51885912D01*
X115999999Y-51885912D02*
X115999999Y-50385912D01*
X108321429Y-54300828D02*
X107464286Y-54300828D01*
X107892857Y-54300828D02*
X107892857Y-52800828D01*
X107892857Y-52800828D02*
X107750000Y-53015114D01*
X107750000Y-53015114D02*
X107607143Y-53157971D01*
X107607143Y-53157971D02*
X107464286Y-53229400D01*
X108964285Y-54157971D02*
X109035714Y-54229400D01*
X109035714Y-54229400D02*
X108964285Y-54300828D01*
X108964285Y-54300828D02*
X108892857Y-54229400D01*
X108892857Y-54229400D02*
X108964285Y-54157971D01*
X108964285Y-54157971D02*
X108964285Y-54300828D01*
X109892857Y-53443685D02*
X109750000Y-53372257D01*
X109750000Y-53372257D02*
X109678571Y-53300828D01*
X109678571Y-53300828D02*
X109607143Y-53157971D01*
X109607143Y-53157971D02*
X109607143Y-53086542D01*
X109607143Y-53086542D02*
X109678571Y-52943685D01*
X109678571Y-52943685D02*
X109750000Y-52872257D01*
X109750000Y-52872257D02*
X109892857Y-52800828D01*
X109892857Y-52800828D02*
X110178571Y-52800828D01*
X110178571Y-52800828D02*
X110321429Y-52872257D01*
X110321429Y-52872257D02*
X110392857Y-52943685D01*
X110392857Y-52943685D02*
X110464286Y-53086542D01*
X110464286Y-53086542D02*
X110464286Y-53157971D01*
X110464286Y-53157971D02*
X110392857Y-53300828D01*
X110392857Y-53300828D02*
X110321429Y-53372257D01*
X110321429Y-53372257D02*
X110178571Y-53443685D01*
X110178571Y-53443685D02*
X109892857Y-53443685D01*
X109892857Y-53443685D02*
X109750000Y-53515114D01*
X109750000Y-53515114D02*
X109678571Y-53586542D01*
X109678571Y-53586542D02*
X109607143Y-53729400D01*
X109607143Y-53729400D02*
X109607143Y-54015114D01*
X109607143Y-54015114D02*
X109678571Y-54157971D01*
X109678571Y-54157971D02*
X109750000Y-54229400D01*
X109750000Y-54229400D02*
X109892857Y-54300828D01*
X109892857Y-54300828D02*
X110178571Y-54300828D01*
X110178571Y-54300828D02*
X110321429Y-54229400D01*
X110321429Y-54229400D02*
X110392857Y-54157971D01*
X110392857Y-54157971D02*
X110464286Y-54015114D01*
X110464286Y-54015114D02*
X110464286Y-53729400D01*
X110464286Y-53729400D02*
X110392857Y-53586542D01*
X110392857Y-53586542D02*
X110321429Y-53515114D01*
X110321429Y-53515114D02*
X110178571Y-53443685D01*
X111178571Y-52800828D02*
X111035714Y-53086542D01*
X113678571Y-54300828D02*
X112964285Y-54300828D01*
X112964285Y-54300828D02*
X112964285Y-52800828D01*
X115035714Y-54157971D02*
X114964286Y-54229400D01*
X114964286Y-54229400D02*
X114750000Y-54300828D01*
X114750000Y-54300828D02*
X114607143Y-54300828D01*
X114607143Y-54300828D02*
X114392857Y-54229400D01*
X114392857Y-54229400D02*
X114250000Y-54086542D01*
X114250000Y-54086542D02*
X114178571Y-53943685D01*
X114178571Y-53943685D02*
X114107143Y-53657971D01*
X114107143Y-53657971D02*
X114107143Y-53443685D01*
X114107143Y-53443685D02*
X114178571Y-53157971D01*
X114178571Y-53157971D02*
X114250000Y-53015114D01*
X114250000Y-53015114D02*
X114392857Y-52872257D01*
X114392857Y-52872257D02*
X114607143Y-52800828D01*
X114607143Y-52800828D02*
X114750000Y-52800828D01*
X114750000Y-52800828D02*
X114964286Y-52872257D01*
X114964286Y-52872257D02*
X115035714Y-52943685D01*
X115678571Y-54300828D02*
X115678571Y-52800828D01*
X115678571Y-52800828D02*
X116035714Y-52800828D01*
X116035714Y-52800828D02*
X116250000Y-52872257D01*
X116250000Y-52872257D02*
X116392857Y-53015114D01*
X116392857Y-53015114D02*
X116464286Y-53157971D01*
X116464286Y-53157971D02*
X116535714Y-53443685D01*
X116535714Y-53443685D02*
X116535714Y-53657971D01*
X116535714Y-53657971D02*
X116464286Y-53943685D01*
X116464286Y-53943685D02*
X116392857Y-54086542D01*
X116392857Y-54086542D02*
X116250000Y-54229400D01*
X116250000Y-54229400D02*
X116035714Y-54300828D01*
X116035714Y-54300828D02*
X115678571Y-54300828D01*
X140804510Y-36229400D02*
X141947368Y-36229400D01*
X144947367Y-36229400D02*
X146090225Y-36229400D01*
X145518796Y-36800828D02*
X145518796Y-35657971D01*
X60149568Y-66317143D02*
X60149568Y-67460000D01*
X60435282Y-67174285D02*
X60149568Y-67460000D01*
X60149568Y-67460000D02*
X59863853Y-67174285D01*
X59935282Y-63960000D02*
X60006710Y-63745714D01*
X60006710Y-63745714D02*
X60078139Y-63674285D01*
X60078139Y-63674285D02*
X60220996Y-63602857D01*
X60220996Y-63602857D02*
X60435282Y-63602857D01*
X60435282Y-63602857D02*
X60578139Y-63674285D01*
X60578139Y-63674285D02*
X60649568Y-63745714D01*
X60649568Y-63745714D02*
X60720996Y-63888571D01*
X60720996Y-63888571D02*
X60720996Y-64460000D01*
X60720996Y-64460000D02*
X59220996Y-64460000D01*
X59220996Y-64460000D02*
X59220996Y-63960000D01*
X59220996Y-63960000D02*
X59292425Y-63817143D01*
X59292425Y-63817143D02*
X59363853Y-63745714D01*
X59363853Y-63745714D02*
X59506710Y-63674285D01*
X59506710Y-63674285D02*
X59649568Y-63674285D01*
X59649568Y-63674285D02*
X59792425Y-63745714D01*
X59792425Y-63745714D02*
X59863853Y-63817143D01*
X59863853Y-63817143D02*
X59935282Y-63960000D01*
X59935282Y-63960000D02*
X59935282Y-64460000D01*
X59220996Y-63174285D02*
X59220996Y-62317143D01*
X60720996Y-62745714D02*
X59220996Y-62745714D01*
X60720996Y-61817143D02*
X59220996Y-61817143D01*
X59220996Y-61817143D02*
X60720996Y-60960000D01*
X60720996Y-60960000D02*
X59220996Y-60960000D01*
X65550828Y-69352857D02*
X64050828Y-69352857D01*
X64050828Y-69352857D02*
X65122257Y-68852857D01*
X65122257Y-68852857D02*
X64050828Y-68352857D01*
X64050828Y-68352857D02*
X65550828Y-68352857D01*
X65550828Y-67638571D02*
X64050828Y-67638571D01*
X64765114Y-67638571D02*
X64765114Y-66781428D01*
X65550828Y-66781428D02*
X64050828Y-66781428D01*
X64979400Y-66067142D02*
X64979400Y-64924285D01*
X65407971Y-63352856D02*
X65479400Y-63424284D01*
X65479400Y-63424284D02*
X65550828Y-63638570D01*
X65550828Y-63638570D02*
X65550828Y-63781427D01*
X65550828Y-63781427D02*
X65479400Y-63995713D01*
X65479400Y-63995713D02*
X65336542Y-64138570D01*
X65336542Y-64138570D02*
X65193685Y-64209999D01*
X65193685Y-64209999D02*
X64907971Y-64281427D01*
X64907971Y-64281427D02*
X64693685Y-64281427D01*
X64693685Y-64281427D02*
X64407971Y-64209999D01*
X64407971Y-64209999D02*
X64265114Y-64138570D01*
X64265114Y-64138570D02*
X64122257Y-63995713D01*
X64122257Y-63995713D02*
X64050828Y-63781427D01*
X64050828Y-63781427D02*
X64050828Y-63638570D01*
X64050828Y-63638570D02*
X64122257Y-63424284D01*
X64122257Y-63424284D02*
X64193685Y-63352856D01*
X65550828Y-62709999D02*
X64050828Y-62709999D01*
X64050828Y-62709999D02*
X64050828Y-62352856D01*
X64050828Y-62352856D02*
X64122257Y-62138570D01*
X64122257Y-62138570D02*
X64265114Y-61995713D01*
X64265114Y-61995713D02*
X64407971Y-61924284D01*
X64407971Y-61924284D02*
X64693685Y-61852856D01*
X64693685Y-61852856D02*
X64907971Y-61852856D01*
X64907971Y-61852856D02*
X65193685Y-61924284D01*
X65193685Y-61924284D02*
X65336542Y-61995713D01*
X65336542Y-61995713D02*
X65479400Y-62138570D01*
X65479400Y-62138570D02*
X65550828Y-62352856D01*
X65550828Y-62352856D02*
X65550828Y-62709999D01*
X64550828Y-60567142D02*
X65550828Y-60567142D01*
X63979400Y-60924284D02*
X65050828Y-61281427D01*
X65050828Y-61281427D02*
X65050828Y-60352856D01*
X64193685Y-59852856D02*
X64122257Y-59781428D01*
X64122257Y-59781428D02*
X64050828Y-59638571D01*
X64050828Y-59638571D02*
X64050828Y-59281428D01*
X64050828Y-59281428D02*
X64122257Y-59138571D01*
X64122257Y-59138571D02*
X64193685Y-59067142D01*
X64193685Y-59067142D02*
X64336542Y-58995713D01*
X64336542Y-58995713D02*
X64479400Y-58995713D01*
X64479400Y-58995713D02*
X64693685Y-59067142D01*
X64693685Y-59067142D02*
X65550828Y-59924285D01*
X65550828Y-59924285D02*
X65550828Y-58995713D01*
X25054510Y-70515114D02*
X25268796Y-70586542D01*
X25268796Y-70586542D02*
X25340225Y-70657971D01*
X25340225Y-70657971D02*
X25411653Y-70800828D01*
X25411653Y-70800828D02*
X25411653Y-71015114D01*
X25411653Y-71015114D02*
X25340225Y-71157971D01*
X25340225Y-71157971D02*
X25268796Y-71229400D01*
X25268796Y-71229400D02*
X25125939Y-71300828D01*
X25125939Y-71300828D02*
X24554510Y-71300828D01*
X24554510Y-71300828D02*
X24554510Y-69800828D01*
X24554510Y-69800828D02*
X25054510Y-69800828D01*
X25054510Y-69800828D02*
X25197368Y-69872257D01*
X25197368Y-69872257D02*
X25268796Y-69943685D01*
X25268796Y-69943685D02*
X25340225Y-70086542D01*
X25340225Y-70086542D02*
X25340225Y-70229400D01*
X25340225Y-70229400D02*
X25268796Y-70372257D01*
X25268796Y-70372257D02*
X25197368Y-70443685D01*
X25197368Y-70443685D02*
X25054510Y-70515114D01*
X25054510Y-70515114D02*
X24554510Y-70515114D01*
X25911653Y-70300828D02*
X26268796Y-71300828D01*
X26625939Y-70300828D02*
X26268796Y-71300828D01*
X26268796Y-71300828D02*
X26125939Y-71657971D01*
X26125939Y-71657971D02*
X26054510Y-71729400D01*
X26054510Y-71729400D02*
X25911653Y-71800828D01*
X29054510Y-71300828D02*
X28340224Y-71300828D01*
X28340224Y-71300828D02*
X28340224Y-69800828D01*
X30125939Y-71229400D02*
X29983082Y-71300828D01*
X29983082Y-71300828D02*
X29697368Y-71300828D01*
X29697368Y-71300828D02*
X29554510Y-71229400D01*
X29554510Y-71229400D02*
X29483082Y-71086542D01*
X29483082Y-71086542D02*
X29483082Y-70515114D01*
X29483082Y-70515114D02*
X29554510Y-70372257D01*
X29554510Y-70372257D02*
X29697368Y-70300828D01*
X29697368Y-70300828D02*
X29983082Y-70300828D01*
X29983082Y-70300828D02*
X30125939Y-70372257D01*
X30125939Y-70372257D02*
X30197368Y-70515114D01*
X30197368Y-70515114D02*
X30197368Y-70657971D01*
X30197368Y-70657971D02*
X29483082Y-70800828D01*
X31054510Y-71300828D02*
X30911653Y-71229400D01*
X30911653Y-71229400D02*
X30840224Y-71157971D01*
X30840224Y-71157971D02*
X30768796Y-71015114D01*
X30768796Y-71015114D02*
X30768796Y-70586542D01*
X30768796Y-70586542D02*
X30840224Y-70443685D01*
X30840224Y-70443685D02*
X30911653Y-70372257D01*
X30911653Y-70372257D02*
X31054510Y-70300828D01*
X31054510Y-70300828D02*
X31268796Y-70300828D01*
X31268796Y-70300828D02*
X31411653Y-70372257D01*
X31411653Y-70372257D02*
X31483082Y-70443685D01*
X31483082Y-70443685D02*
X31554510Y-70586542D01*
X31554510Y-70586542D02*
X31554510Y-71015114D01*
X31554510Y-71015114D02*
X31483082Y-71157971D01*
X31483082Y-71157971D02*
X31411653Y-71229400D01*
X31411653Y-71229400D02*
X31268796Y-71300828D01*
X31268796Y-71300828D02*
X31054510Y-71300828D01*
X32197367Y-70300828D02*
X32197367Y-71300828D01*
X32197367Y-70443685D02*
X32268796Y-70372257D01*
X32268796Y-70372257D02*
X32411653Y-70300828D01*
X32411653Y-70300828D02*
X32625939Y-70300828D01*
X32625939Y-70300828D02*
X32768796Y-70372257D01*
X32768796Y-70372257D02*
X32840225Y-70515114D01*
X32840225Y-70515114D02*
X32840225Y-71300828D01*
X34625939Y-70872257D02*
X35340225Y-70872257D01*
X34483082Y-71300828D02*
X34983082Y-69800828D01*
X34983082Y-69800828D02*
X35483082Y-71300828D01*
D12*
X24609021Y-68351657D02*
X24609021Y-65351657D01*
X24609021Y-65351657D02*
X26323307Y-68351657D01*
X26323307Y-68351657D02*
X26323307Y-65351657D01*
X28894735Y-68208800D02*
X28609021Y-68351657D01*
X28609021Y-68351657D02*
X28037593Y-68351657D01*
X28037593Y-68351657D02*
X27751878Y-68208800D01*
X27751878Y-68208800D02*
X27609021Y-67923085D01*
X27609021Y-67923085D02*
X27609021Y-66780228D01*
X27609021Y-66780228D02*
X27751878Y-66494514D01*
X27751878Y-66494514D02*
X28037593Y-66351657D01*
X28037593Y-66351657D02*
X28609021Y-66351657D01*
X28609021Y-66351657D02*
X28894735Y-66494514D01*
X28894735Y-66494514D02*
X29037593Y-66780228D01*
X29037593Y-66780228D02*
X29037593Y-67065942D01*
X29037593Y-67065942D02*
X27609021Y-67351657D01*
X29894736Y-66351657D02*
X31037593Y-66351657D01*
X30323307Y-65351657D02*
X30323307Y-67923085D01*
X30323307Y-67923085D02*
X30466164Y-68208800D01*
X30466164Y-68208800D02*
X30751879Y-68351657D01*
X30751879Y-68351657D02*
X31037593Y-68351657D01*
X32037593Y-68351657D02*
X32037593Y-65351657D01*
X32037593Y-65351657D02*
X33180450Y-65351657D01*
X33180450Y-65351657D02*
X33466165Y-65494514D01*
X33466165Y-65494514D02*
X33609022Y-65637371D01*
X33609022Y-65637371D02*
X33751879Y-65923085D01*
X33751879Y-65923085D02*
X33751879Y-66351657D01*
X33751879Y-66351657D02*
X33609022Y-66637371D01*
X33609022Y-66637371D02*
X33466165Y-66780228D01*
X33466165Y-66780228D02*
X33180450Y-66923085D01*
X33180450Y-66923085D02*
X32037593Y-66923085D01*
X36323308Y-66351657D02*
X36323308Y-68351657D01*
X35037593Y-66351657D02*
X35037593Y-67923085D01*
X35037593Y-67923085D02*
X35180450Y-68208800D01*
X35180450Y-68208800D02*
X35466165Y-68351657D01*
X35466165Y-68351657D02*
X35894736Y-68351657D01*
X35894736Y-68351657D02*
X36180450Y-68208800D01*
X36180450Y-68208800D02*
X36323308Y-68065942D01*
X39037594Y-68208800D02*
X38751879Y-68351657D01*
X38751879Y-68351657D02*
X38180451Y-68351657D01*
X38180451Y-68351657D02*
X37894736Y-68208800D01*
X37894736Y-68208800D02*
X37751879Y-68065942D01*
X37751879Y-68065942D02*
X37609022Y-67780228D01*
X37609022Y-67780228D02*
X37609022Y-66923085D01*
X37609022Y-66923085D02*
X37751879Y-66637371D01*
X37751879Y-66637371D02*
X37894736Y-66494514D01*
X37894736Y-66494514D02*
X38180451Y-66351657D01*
X38180451Y-66351657D02*
X38751879Y-66351657D01*
X38751879Y-66351657D02*
X39037594Y-66494514D01*
X40323308Y-68351657D02*
X40323308Y-65351657D01*
X40609023Y-67208800D02*
X41466165Y-68351657D01*
X41466165Y-66351657D02*
X40323308Y-67494514D01*
X46466165Y-65351657D02*
X45037593Y-65351657D01*
X45037593Y-65351657D02*
X44894736Y-66780228D01*
X44894736Y-66780228D02*
X45037593Y-66637371D01*
X45037593Y-66637371D02*
X45323308Y-66494514D01*
X45323308Y-66494514D02*
X46037593Y-66494514D01*
X46037593Y-66494514D02*
X46323308Y-66637371D01*
X46323308Y-66637371D02*
X46466165Y-66780228D01*
X46466165Y-66780228D02*
X46609022Y-67065942D01*
X46609022Y-67065942D02*
X46609022Y-67780228D01*
X46609022Y-67780228D02*
X46466165Y-68065942D01*
X46466165Y-68065942D02*
X46323308Y-68208800D01*
X46323308Y-68208800D02*
X46037593Y-68351657D01*
X46037593Y-68351657D02*
X45323308Y-68351657D01*
X45323308Y-68351657D02*
X45037593Y-68208800D01*
X45037593Y-68208800D02*
X44894736Y-68065942D01*
X49466165Y-65494514D02*
X49180451Y-65351657D01*
X49180451Y-65351657D02*
X48751879Y-65351657D01*
X48751879Y-65351657D02*
X48323308Y-65494514D01*
X48323308Y-65494514D02*
X48037593Y-65780228D01*
X48037593Y-65780228D02*
X47894736Y-66065942D01*
X47894736Y-66065942D02*
X47751879Y-66637371D01*
X47751879Y-66637371D02*
X47751879Y-67065942D01*
X47751879Y-67065942D02*
X47894736Y-67637371D01*
X47894736Y-67637371D02*
X48037593Y-67923085D01*
X48037593Y-67923085D02*
X48323308Y-68208800D01*
X48323308Y-68208800D02*
X48751879Y-68351657D01*
X48751879Y-68351657D02*
X49037593Y-68351657D01*
X49037593Y-68351657D02*
X49466165Y-68208800D01*
X49466165Y-68208800D02*
X49609022Y-68065942D01*
X49609022Y-68065942D02*
X49609022Y-67065942D01*
X49609022Y-67065942D02*
X49037593Y-67065942D01*
D11*
X70981203Y-57936248D02*
X70266917Y-57936248D01*
X70266917Y-57936248D02*
X70195489Y-58650534D01*
X70195489Y-58650534D02*
X70266917Y-58579105D01*
X70266917Y-58579105D02*
X70409775Y-58507677D01*
X70409775Y-58507677D02*
X70766917Y-58507677D01*
X70766917Y-58507677D02*
X70909775Y-58579105D01*
X70909775Y-58579105D02*
X70981203Y-58650534D01*
X70981203Y-58650534D02*
X71052632Y-58793391D01*
X71052632Y-58793391D02*
X71052632Y-59150534D01*
X71052632Y-59150534D02*
X70981203Y-59293391D01*
X70981203Y-59293391D02*
X70909775Y-59364820D01*
X70909775Y-59364820D02*
X70766917Y-59436248D01*
X70766917Y-59436248D02*
X70409775Y-59436248D01*
X70409775Y-59436248D02*
X70266917Y-59364820D01*
X70266917Y-59364820D02*
X70195489Y-59293391D01*
X71481203Y-57936248D02*
X71981203Y-59436248D01*
X71981203Y-59436248D02*
X72481203Y-57936248D01*
X74409774Y-57936248D02*
X74695488Y-57936248D01*
X74695488Y-57936248D02*
X74838345Y-58007677D01*
X74838345Y-58007677D02*
X74981202Y-58150534D01*
X74981202Y-58150534D02*
X75052631Y-58436248D01*
X75052631Y-58436248D02*
X75052631Y-58936248D01*
X75052631Y-58936248D02*
X74981202Y-59221962D01*
X74981202Y-59221962D02*
X74838345Y-59364820D01*
X74838345Y-59364820D02*
X74695488Y-59436248D01*
X74695488Y-59436248D02*
X74409774Y-59436248D01*
X74409774Y-59436248D02*
X74266917Y-59364820D01*
X74266917Y-59364820D02*
X74124059Y-59221962D01*
X74124059Y-59221962D02*
X74052631Y-58936248D01*
X74052631Y-58936248D02*
X74052631Y-58436248D01*
X74052631Y-58436248D02*
X74124059Y-58150534D01*
X74124059Y-58150534D02*
X74266917Y-58007677D01*
X74266917Y-58007677D02*
X74409774Y-57936248D01*
X75695488Y-57936248D02*
X75695488Y-59150534D01*
X75695488Y-59150534D02*
X75766917Y-59293391D01*
X75766917Y-59293391D02*
X75838346Y-59364820D01*
X75838346Y-59364820D02*
X75981203Y-59436248D01*
X75981203Y-59436248D02*
X76266917Y-59436248D01*
X76266917Y-59436248D02*
X76409774Y-59364820D01*
X76409774Y-59364820D02*
X76481203Y-59293391D01*
X76481203Y-59293391D02*
X76552631Y-59150534D01*
X76552631Y-59150534D02*
X76552631Y-57936248D01*
X77052632Y-57936248D02*
X77909775Y-57936248D01*
X77481203Y-59436248D02*
X77481203Y-57936248D01*
X74624060Y-60422593D02*
X74481203Y-60351164D01*
X74481203Y-60351164D02*
X74266917Y-60351164D01*
X74266917Y-60351164D02*
X74052631Y-60422593D01*
X74052631Y-60422593D02*
X73909774Y-60565450D01*
X73909774Y-60565450D02*
X73838345Y-60708307D01*
X73838345Y-60708307D02*
X73766917Y-60994021D01*
X73766917Y-60994021D02*
X73766917Y-61208307D01*
X73766917Y-61208307D02*
X73838345Y-61494021D01*
X73838345Y-61494021D02*
X73909774Y-61636878D01*
X73909774Y-61636878D02*
X74052631Y-61779736D01*
X74052631Y-61779736D02*
X74266917Y-61851164D01*
X74266917Y-61851164D02*
X74409774Y-61851164D01*
X74409774Y-61851164D02*
X74624060Y-61779736D01*
X74624060Y-61779736D02*
X74695488Y-61708307D01*
X74695488Y-61708307D02*
X74695488Y-61208307D01*
X74695488Y-61208307D02*
X74409774Y-61208307D01*
X75338345Y-61851164D02*
X75338345Y-60351164D01*
X75338345Y-60351164D02*
X76195488Y-61851164D01*
X76195488Y-61851164D02*
X76195488Y-60351164D01*
X76909774Y-61851164D02*
X76909774Y-60351164D01*
X76909774Y-60351164D02*
X77266917Y-60351164D01*
X77266917Y-60351164D02*
X77481203Y-60422593D01*
X77481203Y-60422593D02*
X77624060Y-60565450D01*
X77624060Y-60565450D02*
X77695489Y-60708307D01*
X77695489Y-60708307D02*
X77766917Y-60994021D01*
X77766917Y-60994021D02*
X77766917Y-61208307D01*
X77766917Y-61208307D02*
X77695489Y-61494021D01*
X77695489Y-61494021D02*
X77624060Y-61636878D01*
X77624060Y-61636878D02*
X77481203Y-61779736D01*
X77481203Y-61779736D02*
X77266917Y-61851164D01*
X77266917Y-61851164D02*
X76909774Y-61851164D01*
X74981203Y-63480366D02*
X75195489Y-63551794D01*
X75195489Y-63551794D02*
X75266918Y-63623223D01*
X75266918Y-63623223D02*
X75338346Y-63766080D01*
X75338346Y-63766080D02*
X75338346Y-63980366D01*
X75338346Y-63980366D02*
X75266918Y-64123223D01*
X75266918Y-64123223D02*
X75195489Y-64194652D01*
X75195489Y-64194652D02*
X75052632Y-64266080D01*
X75052632Y-64266080D02*
X74481203Y-64266080D01*
X74481203Y-64266080D02*
X74481203Y-62766080D01*
X74481203Y-62766080D02*
X74981203Y-62766080D01*
X74981203Y-62766080D02*
X75124061Y-62837509D01*
X75124061Y-62837509D02*
X75195489Y-62908937D01*
X75195489Y-62908937D02*
X75266918Y-63051794D01*
X75266918Y-63051794D02*
X75266918Y-63194652D01*
X75266918Y-63194652D02*
X75195489Y-63337509D01*
X75195489Y-63337509D02*
X75124061Y-63408937D01*
X75124061Y-63408937D02*
X74981203Y-63480366D01*
X74981203Y-63480366D02*
X74481203Y-63480366D01*
X75909775Y-63837509D02*
X76624061Y-63837509D01*
X75766918Y-64266080D02*
X76266918Y-62766080D01*
X76266918Y-62766080D02*
X76766918Y-64266080D01*
X77052632Y-62766080D02*
X77909775Y-62766080D01*
X77481203Y-64266080D02*
X77481203Y-62766080D01*
X74624060Y-65252425D02*
X74481203Y-65180996D01*
X74481203Y-65180996D02*
X74266917Y-65180996D01*
X74266917Y-65180996D02*
X74052631Y-65252425D01*
X74052631Y-65252425D02*
X73909774Y-65395282D01*
X73909774Y-65395282D02*
X73838345Y-65538139D01*
X73838345Y-65538139D02*
X73766917Y-65823853D01*
X73766917Y-65823853D02*
X73766917Y-66038139D01*
X73766917Y-66038139D02*
X73838345Y-66323853D01*
X73838345Y-66323853D02*
X73909774Y-66466710D01*
X73909774Y-66466710D02*
X74052631Y-66609568D01*
X74052631Y-66609568D02*
X74266917Y-66680996D01*
X74266917Y-66680996D02*
X74409774Y-66680996D01*
X74409774Y-66680996D02*
X74624060Y-66609568D01*
X74624060Y-66609568D02*
X74695488Y-66538139D01*
X74695488Y-66538139D02*
X74695488Y-66038139D01*
X74695488Y-66038139D02*
X74409774Y-66038139D01*
X75338345Y-66680996D02*
X75338345Y-65180996D01*
X75338345Y-65180996D02*
X76195488Y-66680996D01*
X76195488Y-66680996D02*
X76195488Y-65180996D01*
X76909774Y-66680996D02*
X76909774Y-65180996D01*
X76909774Y-65180996D02*
X77266917Y-65180996D01*
X77266917Y-65180996D02*
X77481203Y-65252425D01*
X77481203Y-65252425D02*
X77624060Y-65395282D01*
X77624060Y-65395282D02*
X77695489Y-65538139D01*
X77695489Y-65538139D02*
X77766917Y-65823853D01*
X77766917Y-65823853D02*
X77766917Y-66038139D01*
X77766917Y-66038139D02*
X77695489Y-66323853D01*
X77695489Y-66323853D02*
X77624060Y-66466710D01*
X77624060Y-66466710D02*
X77481203Y-66609568D01*
X77481203Y-66609568D02*
X77266917Y-66680996D01*
X77266917Y-66680996D02*
X76909774Y-66680996D01*
X74624060Y-67667341D02*
X74481203Y-67595912D01*
X74481203Y-67595912D02*
X74266917Y-67595912D01*
X74266917Y-67595912D02*
X74052631Y-67667341D01*
X74052631Y-67667341D02*
X73909774Y-67810198D01*
X73909774Y-67810198D02*
X73838345Y-67953055D01*
X73838345Y-67953055D02*
X73766917Y-68238769D01*
X73766917Y-68238769D02*
X73766917Y-68453055D01*
X73766917Y-68453055D02*
X73838345Y-68738769D01*
X73838345Y-68738769D02*
X73909774Y-68881626D01*
X73909774Y-68881626D02*
X74052631Y-69024484D01*
X74052631Y-69024484D02*
X74266917Y-69095912D01*
X74266917Y-69095912D02*
X74409774Y-69095912D01*
X74409774Y-69095912D02*
X74624060Y-69024484D01*
X74624060Y-69024484D02*
X74695488Y-68953055D01*
X74695488Y-68953055D02*
X74695488Y-68453055D01*
X74695488Y-68453055D02*
X74409774Y-68453055D01*
X75338345Y-69095912D02*
X75338345Y-67595912D01*
X75338345Y-67595912D02*
X76195488Y-69095912D01*
X76195488Y-69095912D02*
X76195488Y-67595912D01*
X76909774Y-69095912D02*
X76909774Y-67595912D01*
X76909774Y-67595912D02*
X77266917Y-67595912D01*
X77266917Y-67595912D02*
X77481203Y-67667341D01*
X77481203Y-67667341D02*
X77624060Y-67810198D01*
X77624060Y-67810198D02*
X77695489Y-67953055D01*
X77695489Y-67953055D02*
X77766917Y-68238769D01*
X77766917Y-68238769D02*
X77766917Y-68453055D01*
X77766917Y-68453055D02*
X77695489Y-68738769D01*
X77695489Y-68738769D02*
X77624060Y-68881626D01*
X77624060Y-68881626D02*
X77481203Y-69024484D01*
X77481203Y-69024484D02*
X77266917Y-69095912D01*
X77266917Y-69095912D02*
X76909774Y-69095912D01*
X74624060Y-70010828D02*
X75124060Y-71510828D01*
X75124060Y-71510828D02*
X75624060Y-70010828D01*
X76124059Y-71510828D02*
X76124059Y-70010828D01*
X76838345Y-71510828D02*
X76838345Y-70010828D01*
X76838345Y-70010828D02*
X77695488Y-71510828D01*
X77695488Y-71510828D02*
X77695488Y-70010828D01*
X174247089Y-32411653D02*
X174168404Y-32340225D01*
X174168404Y-32340225D02*
X174089718Y-32125939D01*
X174089718Y-32125939D02*
X174089718Y-31983082D01*
X174089718Y-31983082D02*
X174168404Y-31768796D01*
X174168404Y-31768796D02*
X174325775Y-31625939D01*
X174325775Y-31625939D02*
X174483146Y-31554510D01*
X174483146Y-31554510D02*
X174797889Y-31483082D01*
X174797889Y-31483082D02*
X175033946Y-31483082D01*
X175033946Y-31483082D02*
X175348689Y-31554510D01*
X175348689Y-31554510D02*
X175506061Y-31625939D01*
X175506061Y-31625939D02*
X175663432Y-31768796D01*
X175663432Y-31768796D02*
X175742118Y-31983082D01*
X175742118Y-31983082D02*
X175742118Y-32125939D01*
X175742118Y-32125939D02*
X175663432Y-32340225D01*
X175663432Y-32340225D02*
X175584746Y-32411653D01*
X175742118Y-33340225D02*
X175742118Y-33625939D01*
X175742118Y-33625939D02*
X175663432Y-33768796D01*
X175663432Y-33768796D02*
X175506061Y-33911653D01*
X175506061Y-33911653D02*
X175191318Y-33983082D01*
X175191318Y-33983082D02*
X174640518Y-33983082D01*
X174640518Y-33983082D02*
X174325775Y-33911653D01*
X174325775Y-33911653D02*
X174168404Y-33768796D01*
X174168404Y-33768796D02*
X174089718Y-33625939D01*
X174089718Y-33625939D02*
X174089718Y-33340225D01*
X174089718Y-33340225D02*
X174168404Y-33197368D01*
X174168404Y-33197368D02*
X174325775Y-33054510D01*
X174325775Y-33054510D02*
X174640518Y-32983082D01*
X174640518Y-32983082D02*
X175191318Y-32983082D01*
X175191318Y-32983082D02*
X175506061Y-33054510D01*
X175506061Y-33054510D02*
X175663432Y-33197368D01*
X175663432Y-33197368D02*
X175742118Y-33340225D01*
X174089718Y-34625939D02*
X175742118Y-34625939D01*
X175742118Y-34625939D02*
X174561832Y-35125939D01*
X174561832Y-35125939D02*
X175742118Y-35625939D01*
X175742118Y-35625939D02*
X174089718Y-35625939D01*
X173081847Y-31554510D02*
X171744190Y-31554510D01*
X171744190Y-31554510D02*
X171586818Y-31625939D01*
X171586818Y-31625939D02*
X171508133Y-31697368D01*
X171508133Y-31697368D02*
X171429447Y-31840225D01*
X171429447Y-31840225D02*
X171429447Y-32125939D01*
X171429447Y-32125939D02*
X171508133Y-32268796D01*
X171508133Y-32268796D02*
X171586818Y-32340225D01*
X171586818Y-32340225D02*
X171744190Y-32411653D01*
X171744190Y-32411653D02*
X173081847Y-32411653D01*
X171429447Y-33125939D02*
X173081847Y-33125939D01*
X173081847Y-33125939D02*
X173081847Y-33697368D01*
X173081847Y-33697368D02*
X173003161Y-33840225D01*
X173003161Y-33840225D02*
X172924475Y-33911654D01*
X172924475Y-33911654D02*
X172767104Y-33983082D01*
X172767104Y-33983082D02*
X172531047Y-33983082D01*
X172531047Y-33983082D02*
X172373675Y-33911654D01*
X172373675Y-33911654D02*
X172294990Y-33840225D01*
X172294990Y-33840225D02*
X172216304Y-33697368D01*
X172216304Y-33697368D02*
X172216304Y-33125939D01*
X168769176Y-31554510D02*
X170421576Y-31554510D01*
X170421576Y-31554510D02*
X170421576Y-31911653D01*
X170421576Y-31911653D02*
X170342890Y-32125939D01*
X170342890Y-32125939D02*
X170185519Y-32268796D01*
X170185519Y-32268796D02*
X170028147Y-32340225D01*
X170028147Y-32340225D02*
X169713404Y-32411653D01*
X169713404Y-32411653D02*
X169477347Y-32411653D01*
X169477347Y-32411653D02*
X169162604Y-32340225D01*
X169162604Y-32340225D02*
X169005233Y-32268796D01*
X169005233Y-32268796D02*
X168847862Y-32125939D01*
X168847862Y-32125939D02*
X168769176Y-31911653D01*
X168769176Y-31911653D02*
X168769176Y-31554510D01*
X170421576Y-33340225D02*
X170421576Y-33625939D01*
X170421576Y-33625939D02*
X170342890Y-33768796D01*
X170342890Y-33768796D02*
X170185519Y-33911653D01*
X170185519Y-33911653D02*
X169870776Y-33983082D01*
X169870776Y-33983082D02*
X169319976Y-33983082D01*
X169319976Y-33983082D02*
X169005233Y-33911653D01*
X169005233Y-33911653D02*
X168847862Y-33768796D01*
X168847862Y-33768796D02*
X168769176Y-33625939D01*
X168769176Y-33625939D02*
X168769176Y-33340225D01*
X168769176Y-33340225D02*
X168847862Y-33197368D01*
X168847862Y-33197368D02*
X169005233Y-33054510D01*
X169005233Y-33054510D02*
X169319976Y-32983082D01*
X169319976Y-32983082D02*
X169870776Y-32983082D01*
X169870776Y-32983082D02*
X170185519Y-33054510D01*
X170185519Y-33054510D02*
X170342890Y-33197368D01*
X170342890Y-33197368D02*
X170421576Y-33340225D01*
X170421576Y-34483082D02*
X168769176Y-34840225D01*
X168769176Y-34840225D02*
X169949462Y-35125939D01*
X169949462Y-35125939D02*
X168769176Y-35411654D01*
X168769176Y-35411654D02*
X170421576Y-35768797D01*
X168769176Y-36340225D02*
X170421576Y-36340225D01*
X170421576Y-36340225D02*
X168769176Y-37197368D01*
X168769176Y-37197368D02*
X170421576Y-37197368D01*
X166108905Y-32268796D02*
X166108905Y-31554510D01*
X166108905Y-31554510D02*
X167761305Y-31554510D01*
X166974448Y-32768796D02*
X166974448Y-33268796D01*
X166108905Y-33483082D02*
X166108905Y-32768796D01*
X166108905Y-32768796D02*
X167761305Y-32768796D01*
X167761305Y-32768796D02*
X167761305Y-33483082D01*
X166974448Y-34625939D02*
X166974448Y-34125939D01*
X166108905Y-34125939D02*
X167761305Y-34125939D01*
X167761305Y-34125939D02*
X167761305Y-34840225D01*
X167761305Y-35197368D02*
X167761305Y-36054511D01*
X166108905Y-35625939D02*
X167761305Y-35625939D01*
X163448634Y-32411653D02*
X164235491Y-31911653D01*
X163448634Y-31554510D02*
X165101034Y-31554510D01*
X165101034Y-31554510D02*
X165101034Y-32125939D01*
X165101034Y-32125939D02*
X165022348Y-32268796D01*
X165022348Y-32268796D02*
X164943662Y-32340225D01*
X164943662Y-32340225D02*
X164786291Y-32411653D01*
X164786291Y-32411653D02*
X164550234Y-32411653D01*
X164550234Y-32411653D02*
X164392862Y-32340225D01*
X164392862Y-32340225D02*
X164314177Y-32268796D01*
X164314177Y-32268796D02*
X164235491Y-32125939D01*
X164235491Y-32125939D02*
X164235491Y-31554510D01*
X163448634Y-33054510D02*
X165101034Y-33054510D01*
X165022348Y-34554511D02*
X165101034Y-34411654D01*
X165101034Y-34411654D02*
X165101034Y-34197368D01*
X165101034Y-34197368D02*
X165022348Y-33983082D01*
X165022348Y-33983082D02*
X164864977Y-33840225D01*
X164864977Y-33840225D02*
X164707605Y-33768796D01*
X164707605Y-33768796D02*
X164392862Y-33697368D01*
X164392862Y-33697368D02*
X164156805Y-33697368D01*
X164156805Y-33697368D02*
X163842062Y-33768796D01*
X163842062Y-33768796D02*
X163684691Y-33840225D01*
X163684691Y-33840225D02*
X163527320Y-33983082D01*
X163527320Y-33983082D02*
X163448634Y-34197368D01*
X163448634Y-34197368D02*
X163448634Y-34340225D01*
X163448634Y-34340225D02*
X163527320Y-34554511D01*
X163527320Y-34554511D02*
X163606005Y-34625939D01*
X163606005Y-34625939D02*
X164156805Y-34625939D01*
X164156805Y-34625939D02*
X164156805Y-34340225D01*
X163448634Y-35268796D02*
X165101034Y-35268796D01*
X164314177Y-35268796D02*
X164314177Y-36125939D01*
X163448634Y-36125939D02*
X165101034Y-36125939D01*
X165101034Y-36625940D02*
X165101034Y-37483083D01*
X163448634Y-37054511D02*
X165101034Y-37054511D01*
X160788363Y-31554510D02*
X162440763Y-31554510D01*
X162440763Y-31554510D02*
X161260477Y-32054510D01*
X161260477Y-32054510D02*
X162440763Y-32554510D01*
X162440763Y-32554510D02*
X160788363Y-32554510D01*
X160788363Y-33268796D02*
X162440763Y-33268796D01*
X160788363Y-33983082D02*
X162440763Y-33983082D01*
X162440763Y-33983082D02*
X162440763Y-34340225D01*
X162440763Y-34340225D02*
X162362077Y-34554511D01*
X162362077Y-34554511D02*
X162204706Y-34697368D01*
X162204706Y-34697368D02*
X162047334Y-34768797D01*
X162047334Y-34768797D02*
X161732591Y-34840225D01*
X161732591Y-34840225D02*
X161496534Y-34840225D01*
X161496534Y-34840225D02*
X161181791Y-34768797D01*
X161181791Y-34768797D02*
X161024420Y-34697368D01*
X161024420Y-34697368D02*
X160867049Y-34554511D01*
X160867049Y-34554511D02*
X160788363Y-34340225D01*
X160788363Y-34340225D02*
X160788363Y-33983082D01*
X158206778Y-31483082D02*
X158128092Y-31697368D01*
X158128092Y-31697368D02*
X158128092Y-32054510D01*
X158128092Y-32054510D02*
X158206778Y-32197368D01*
X158206778Y-32197368D02*
X158285463Y-32268796D01*
X158285463Y-32268796D02*
X158442835Y-32340225D01*
X158442835Y-32340225D02*
X158600206Y-32340225D01*
X158600206Y-32340225D02*
X158757578Y-32268796D01*
X158757578Y-32268796D02*
X158836263Y-32197368D01*
X158836263Y-32197368D02*
X158914949Y-32054510D01*
X158914949Y-32054510D02*
X158993635Y-31768796D01*
X158993635Y-31768796D02*
X159072320Y-31625939D01*
X159072320Y-31625939D02*
X159151006Y-31554510D01*
X159151006Y-31554510D02*
X159308378Y-31483082D01*
X159308378Y-31483082D02*
X159465749Y-31483082D01*
X159465749Y-31483082D02*
X159623120Y-31554510D01*
X159623120Y-31554510D02*
X159701806Y-31625939D01*
X159701806Y-31625939D02*
X159780492Y-31768796D01*
X159780492Y-31768796D02*
X159780492Y-32125939D01*
X159780492Y-32125939D02*
X159701806Y-32340225D01*
X158993635Y-32983081D02*
X158993635Y-33483081D01*
X158128092Y-33697367D02*
X158128092Y-32983081D01*
X158128092Y-32983081D02*
X159780492Y-32983081D01*
X159780492Y-32983081D02*
X159780492Y-33697367D01*
X159780492Y-34125939D02*
X159780492Y-34983082D01*
X158128092Y-34554510D02*
X159780492Y-34554510D01*
X155467821Y-32411653D02*
X156254678Y-31911653D01*
X155467821Y-31554510D02*
X157120221Y-31554510D01*
X157120221Y-31554510D02*
X157120221Y-32125939D01*
X157120221Y-32125939D02*
X157041535Y-32268796D01*
X157041535Y-32268796D02*
X156962849Y-32340225D01*
X156962849Y-32340225D02*
X156805478Y-32411653D01*
X156805478Y-32411653D02*
X156569421Y-32411653D01*
X156569421Y-32411653D02*
X156412049Y-32340225D01*
X156412049Y-32340225D02*
X156333364Y-32268796D01*
X156333364Y-32268796D02*
X156254678Y-32125939D01*
X156254678Y-32125939D02*
X156254678Y-31554510D01*
X155546507Y-32983082D02*
X155467821Y-33197368D01*
X155467821Y-33197368D02*
X155467821Y-33554510D01*
X155467821Y-33554510D02*
X155546507Y-33697368D01*
X155546507Y-33697368D02*
X155625192Y-33768796D01*
X155625192Y-33768796D02*
X155782564Y-33840225D01*
X155782564Y-33840225D02*
X155939935Y-33840225D01*
X155939935Y-33840225D02*
X156097307Y-33768796D01*
X156097307Y-33768796D02*
X156175992Y-33697368D01*
X156175992Y-33697368D02*
X156254678Y-33554510D01*
X156254678Y-33554510D02*
X156333364Y-33268796D01*
X156333364Y-33268796D02*
X156412049Y-33125939D01*
X156412049Y-33125939D02*
X156490735Y-33054510D01*
X156490735Y-33054510D02*
X156648107Y-32983082D01*
X156648107Y-32983082D02*
X156805478Y-32983082D01*
X156805478Y-32983082D02*
X156962849Y-33054510D01*
X156962849Y-33054510D02*
X157041535Y-33125939D01*
X157041535Y-33125939D02*
X157120221Y-33268796D01*
X157120221Y-33268796D02*
X157120221Y-33625939D01*
X157120221Y-33625939D02*
X157041535Y-33840225D01*
X157120221Y-34268796D02*
X157120221Y-35125939D01*
X155467821Y-34697367D02*
X157120221Y-34697367D01*
X107554060Y-12907109D02*
X107411203Y-12828423D01*
X107411203Y-12828423D02*
X107196917Y-12828423D01*
X107196917Y-12828423D02*
X106982631Y-12907109D01*
X106982631Y-12907109D02*
X106839774Y-13064480D01*
X106839774Y-13064480D02*
X106768345Y-13221852D01*
X106768345Y-13221852D02*
X106696917Y-13536595D01*
X106696917Y-13536595D02*
X106696917Y-13772652D01*
X106696917Y-13772652D02*
X106768345Y-14087395D01*
X106768345Y-14087395D02*
X106839774Y-14244766D01*
X106839774Y-14244766D02*
X106982631Y-14402138D01*
X106982631Y-14402138D02*
X107196917Y-14480823D01*
X107196917Y-14480823D02*
X107339774Y-14480823D01*
X107339774Y-14480823D02*
X107554060Y-14402138D01*
X107554060Y-14402138D02*
X107625488Y-14323452D01*
X107625488Y-14323452D02*
X107625488Y-13772652D01*
X107625488Y-13772652D02*
X107339774Y-13772652D01*
X108268345Y-14480823D02*
X108268345Y-12828423D01*
X108268345Y-12828423D02*
X109125488Y-14480823D01*
X109125488Y-14480823D02*
X109125488Y-12828423D01*
X109839774Y-14480823D02*
X109839774Y-12828423D01*
X109839774Y-12828423D02*
X110196917Y-12828423D01*
X110196917Y-12828423D02*
X110411203Y-12907109D01*
X110411203Y-12907109D02*
X110554060Y-13064480D01*
X110554060Y-13064480D02*
X110625489Y-13221852D01*
X110625489Y-13221852D02*
X110696917Y-13536595D01*
X110696917Y-13536595D02*
X110696917Y-13772652D01*
X110696917Y-13772652D02*
X110625489Y-14087395D01*
X110625489Y-14087395D02*
X110554060Y-14244766D01*
X110554060Y-14244766D02*
X110411203Y-14402138D01*
X110411203Y-14402138D02*
X110196917Y-14480823D01*
X110196917Y-14480823D02*
X109839774Y-14480823D01*
X109839775Y-15488694D02*
X110339775Y-17141094D01*
X110339775Y-17141094D02*
X110839775Y-15488694D01*
X109839775Y-18148965D02*
X110339775Y-19801365D01*
X110339775Y-19801365D02*
X110839775Y-18148965D01*
X108268345Y-22461636D02*
X108268345Y-20809236D01*
X108268345Y-20809236D02*
X109125488Y-22461636D01*
X109125488Y-22461636D02*
X109125488Y-20809236D01*
X110696917Y-22304265D02*
X110625489Y-22382951D01*
X110625489Y-22382951D02*
X110411203Y-22461636D01*
X110411203Y-22461636D02*
X110268346Y-22461636D01*
X110268346Y-22461636D02*
X110054060Y-22382951D01*
X110054060Y-22382951D02*
X109911203Y-22225579D01*
X109911203Y-22225579D02*
X109839774Y-22068208D01*
X109839774Y-22068208D02*
X109768346Y-21753465D01*
X109768346Y-21753465D02*
X109768346Y-21517408D01*
X109768346Y-21517408D02*
X109839774Y-21202665D01*
X109839774Y-21202665D02*
X109911203Y-21045293D01*
X109911203Y-21045293D02*
X110054060Y-20887922D01*
X110054060Y-20887922D02*
X110268346Y-20809236D01*
X110268346Y-20809236D02*
X110411203Y-20809236D01*
X110411203Y-20809236D02*
X110625489Y-20887922D01*
X110625489Y-20887922D02*
X110696917Y-20966608D01*
X108125489Y-25121907D02*
X107625489Y-24335050D01*
X107268346Y-25121907D02*
X107268346Y-23469507D01*
X107268346Y-23469507D02*
X107839775Y-23469507D01*
X107839775Y-23469507D02*
X107982632Y-23548193D01*
X107982632Y-23548193D02*
X108054061Y-23626879D01*
X108054061Y-23626879D02*
X108125489Y-23784250D01*
X108125489Y-23784250D02*
X108125489Y-24020307D01*
X108125489Y-24020307D02*
X108054061Y-24177679D01*
X108054061Y-24177679D02*
X107982632Y-24256364D01*
X107982632Y-24256364D02*
X107839775Y-24335050D01*
X107839775Y-24335050D02*
X107268346Y-24335050D01*
X108696918Y-25043222D02*
X108911204Y-25121907D01*
X108911204Y-25121907D02*
X109268346Y-25121907D01*
X109268346Y-25121907D02*
X109411204Y-25043222D01*
X109411204Y-25043222D02*
X109482632Y-24964536D01*
X109482632Y-24964536D02*
X109554061Y-24807164D01*
X109554061Y-24807164D02*
X109554061Y-24649793D01*
X109554061Y-24649793D02*
X109482632Y-24492422D01*
X109482632Y-24492422D02*
X109411204Y-24413736D01*
X109411204Y-24413736D02*
X109268346Y-24335050D01*
X109268346Y-24335050D02*
X108982632Y-24256364D01*
X108982632Y-24256364D02*
X108839775Y-24177679D01*
X108839775Y-24177679D02*
X108768346Y-24098993D01*
X108768346Y-24098993D02*
X108696918Y-23941622D01*
X108696918Y-23941622D02*
X108696918Y-23784250D01*
X108696918Y-23784250D02*
X108768346Y-23626879D01*
X108768346Y-23626879D02*
X108839775Y-23548193D01*
X108839775Y-23548193D02*
X108982632Y-23469507D01*
X108982632Y-23469507D02*
X109339775Y-23469507D01*
X109339775Y-23469507D02*
X109554061Y-23548193D01*
X109982632Y-23469507D02*
X110839775Y-23469507D01*
X110411203Y-25121907D02*
X110411203Y-23469507D01*
X108911202Y-27782178D02*
X108911202Y-26129778D01*
X108911202Y-26129778D02*
X109411202Y-27310064D01*
X109411202Y-27310064D02*
X109911202Y-26129778D01*
X109911202Y-26129778D02*
X109911202Y-27782178D01*
X110625488Y-27782178D02*
X110625488Y-26129778D01*
X161392857Y-49050828D02*
X161392857Y-50122257D01*
X161392857Y-50122257D02*
X161321428Y-50336542D01*
X161321428Y-50336542D02*
X161178571Y-50479400D01*
X161178571Y-50479400D02*
X160964285Y-50550828D01*
X160964285Y-50550828D02*
X160821428Y-50550828D01*
X162392857Y-49050828D02*
X162678571Y-49050828D01*
X162678571Y-49050828D02*
X162821428Y-49122257D01*
X162821428Y-49122257D02*
X162964285Y-49265114D01*
X162964285Y-49265114D02*
X163035714Y-49550828D01*
X163035714Y-49550828D02*
X163035714Y-50050828D01*
X163035714Y-50050828D02*
X162964285Y-50336542D01*
X162964285Y-50336542D02*
X162821428Y-50479400D01*
X162821428Y-50479400D02*
X162678571Y-50550828D01*
X162678571Y-50550828D02*
X162392857Y-50550828D01*
X162392857Y-50550828D02*
X162250000Y-50479400D01*
X162250000Y-50479400D02*
X162107142Y-50336542D01*
X162107142Y-50336542D02*
X162035714Y-50050828D01*
X162035714Y-50050828D02*
X162035714Y-49550828D01*
X162035714Y-49550828D02*
X162107142Y-49265114D01*
X162107142Y-49265114D02*
X162250000Y-49122257D01*
X162250000Y-49122257D02*
X162392857Y-49050828D01*
X163964286Y-49836542D02*
X163964286Y-50550828D01*
X163464286Y-49050828D02*
X163964286Y-49836542D01*
X163964286Y-49836542D02*
X164464286Y-49050828D01*
X164892857Y-50479400D02*
X165107143Y-50550828D01*
X165107143Y-50550828D02*
X165464285Y-50550828D01*
X165464285Y-50550828D02*
X165607143Y-50479400D01*
X165607143Y-50479400D02*
X165678571Y-50407971D01*
X165678571Y-50407971D02*
X165750000Y-50265114D01*
X165750000Y-50265114D02*
X165750000Y-50122257D01*
X165750000Y-50122257D02*
X165678571Y-49979400D01*
X165678571Y-49979400D02*
X165607143Y-49907971D01*
X165607143Y-49907971D02*
X165464285Y-49836542D01*
X165464285Y-49836542D02*
X165178571Y-49765114D01*
X165178571Y-49765114D02*
X165035714Y-49693685D01*
X165035714Y-49693685D02*
X164964285Y-49622257D01*
X164964285Y-49622257D02*
X164892857Y-49479400D01*
X164892857Y-49479400D02*
X164892857Y-49336542D01*
X164892857Y-49336542D02*
X164964285Y-49193685D01*
X164964285Y-49193685D02*
X165035714Y-49122257D01*
X165035714Y-49122257D02*
X165178571Y-49050828D01*
X165178571Y-49050828D02*
X165535714Y-49050828D01*
X165535714Y-49050828D02*
X165750000Y-49122257D01*
X166178571Y-49050828D02*
X167035714Y-49050828D01*
X166607142Y-50550828D02*
X166607142Y-49050828D01*
X167535713Y-50550828D02*
X167535713Y-49050828D01*
X169107142Y-50407971D02*
X169035714Y-50479400D01*
X169035714Y-50479400D02*
X168821428Y-50550828D01*
X168821428Y-50550828D02*
X168678571Y-50550828D01*
X168678571Y-50550828D02*
X168464285Y-50479400D01*
X168464285Y-50479400D02*
X168321428Y-50336542D01*
X168321428Y-50336542D02*
X168249999Y-50193685D01*
X168249999Y-50193685D02*
X168178571Y-49907971D01*
X168178571Y-49907971D02*
X168178571Y-49693685D01*
X168178571Y-49693685D02*
X168249999Y-49407971D01*
X168249999Y-49407971D02*
X168321428Y-49265114D01*
X168321428Y-49265114D02*
X168464285Y-49122257D01*
X168464285Y-49122257D02*
X168678571Y-49050828D01*
X168678571Y-49050828D02*
X168821428Y-49050828D01*
X168821428Y-49050828D02*
X169035714Y-49122257D01*
X169035714Y-49122257D02*
X169107142Y-49193685D01*
X169749999Y-50550828D02*
X169749999Y-49050828D01*
X170607142Y-50550828D02*
X169964285Y-49693685D01*
X170607142Y-49050828D02*
X169749999Y-49907971D01*
X66892857Y-26770366D02*
X67107143Y-26841794D01*
X67107143Y-26841794D02*
X67178572Y-26913223D01*
X67178572Y-26913223D02*
X67250000Y-27056080D01*
X67250000Y-27056080D02*
X67250000Y-27270366D01*
X67250000Y-27270366D02*
X67178572Y-27413223D01*
X67178572Y-27413223D02*
X67107143Y-27484652D01*
X67107143Y-27484652D02*
X66964286Y-27556080D01*
X66964286Y-27556080D02*
X66392857Y-27556080D01*
X66392857Y-27556080D02*
X66392857Y-26056080D01*
X66392857Y-26056080D02*
X66892857Y-26056080D01*
X66892857Y-26056080D02*
X67035715Y-26127509D01*
X67035715Y-26127509D02*
X67107143Y-26198937D01*
X67107143Y-26198937D02*
X67178572Y-26341794D01*
X67178572Y-26341794D02*
X67178572Y-26484652D01*
X67178572Y-26484652D02*
X67107143Y-26627509D01*
X67107143Y-26627509D02*
X67035715Y-26698937D01*
X67035715Y-26698937D02*
X66892857Y-26770366D01*
X66892857Y-26770366D02*
X66392857Y-26770366D01*
X67750000Y-26056080D02*
X68107143Y-27556080D01*
X68107143Y-27556080D02*
X68392857Y-26484652D01*
X68392857Y-26484652D02*
X68678572Y-27556080D01*
X68678572Y-27556080D02*
X69035715Y-26056080D01*
X69607143Y-26984652D02*
X70750001Y-26984652D01*
X72250001Y-27556080D02*
X71392858Y-27556080D01*
X71821429Y-27556080D02*
X71821429Y-26056080D01*
X71821429Y-26056080D02*
X71678572Y-26270366D01*
X71678572Y-26270366D02*
X71535715Y-26413223D01*
X71535715Y-26413223D02*
X71392858Y-26484652D01*
X73535715Y-26056080D02*
X73250000Y-26056080D01*
X73250000Y-26056080D02*
X73107143Y-26127509D01*
X73107143Y-26127509D02*
X73035715Y-26198937D01*
X73035715Y-26198937D02*
X72892857Y-26413223D01*
X72892857Y-26413223D02*
X72821429Y-26698937D01*
X72821429Y-26698937D02*
X72821429Y-27270366D01*
X72821429Y-27270366D02*
X72892857Y-27413223D01*
X72892857Y-27413223D02*
X72964286Y-27484652D01*
X72964286Y-27484652D02*
X73107143Y-27556080D01*
X73107143Y-27556080D02*
X73392857Y-27556080D01*
X73392857Y-27556080D02*
X73535715Y-27484652D01*
X73535715Y-27484652D02*
X73607143Y-27413223D01*
X73607143Y-27413223D02*
X73678572Y-27270366D01*
X73678572Y-27270366D02*
X73678572Y-26913223D01*
X73678572Y-26913223D02*
X73607143Y-26770366D01*
X73607143Y-26770366D02*
X73535715Y-26698937D01*
X73535715Y-26698937D02*
X73392857Y-26627509D01*
X73392857Y-26627509D02*
X73107143Y-26627509D01*
X73107143Y-26627509D02*
X72964286Y-26698937D01*
X72964286Y-26698937D02*
X72892857Y-26770366D01*
X72892857Y-26770366D02*
X72821429Y-26913223D01*
X66428571Y-30885912D02*
X66428571Y-32100198D01*
X66428571Y-32100198D02*
X66500000Y-32243055D01*
X66500000Y-32243055D02*
X66571429Y-32314484D01*
X66571429Y-32314484D02*
X66714286Y-32385912D01*
X66714286Y-32385912D02*
X67000000Y-32385912D01*
X67000000Y-32385912D02*
X67142857Y-32314484D01*
X67142857Y-32314484D02*
X67214286Y-32243055D01*
X67214286Y-32243055D02*
X67285714Y-32100198D01*
X67285714Y-32100198D02*
X67285714Y-30885912D01*
X67928572Y-32314484D02*
X68142858Y-32385912D01*
X68142858Y-32385912D02*
X68500000Y-32385912D01*
X68500000Y-32385912D02*
X68642858Y-32314484D01*
X68642858Y-32314484D02*
X68714286Y-32243055D01*
X68714286Y-32243055D02*
X68785715Y-32100198D01*
X68785715Y-32100198D02*
X68785715Y-31957341D01*
X68785715Y-31957341D02*
X68714286Y-31814484D01*
X68714286Y-31814484D02*
X68642858Y-31743055D01*
X68642858Y-31743055D02*
X68500000Y-31671626D01*
X68500000Y-31671626D02*
X68214286Y-31600198D01*
X68214286Y-31600198D02*
X68071429Y-31528769D01*
X68071429Y-31528769D02*
X68000000Y-31457341D01*
X68000000Y-31457341D02*
X67928572Y-31314484D01*
X67928572Y-31314484D02*
X67928572Y-31171626D01*
X67928572Y-31171626D02*
X68000000Y-31028769D01*
X68000000Y-31028769D02*
X68071429Y-30957341D01*
X68071429Y-30957341D02*
X68214286Y-30885912D01*
X68214286Y-30885912D02*
X68571429Y-30885912D01*
X68571429Y-30885912D02*
X68785715Y-30957341D01*
X69928571Y-31600198D02*
X70142857Y-31671626D01*
X70142857Y-31671626D02*
X70214286Y-31743055D01*
X70214286Y-31743055D02*
X70285714Y-31885912D01*
X70285714Y-31885912D02*
X70285714Y-32100198D01*
X70285714Y-32100198D02*
X70214286Y-32243055D01*
X70214286Y-32243055D02*
X70142857Y-32314484D01*
X70142857Y-32314484D02*
X70000000Y-32385912D01*
X70000000Y-32385912D02*
X69428571Y-32385912D01*
X69428571Y-32385912D02*
X69428571Y-30885912D01*
X69428571Y-30885912D02*
X69928571Y-30885912D01*
X69928571Y-30885912D02*
X70071429Y-30957341D01*
X70071429Y-30957341D02*
X70142857Y-31028769D01*
X70142857Y-31028769D02*
X70214286Y-31171626D01*
X70214286Y-31171626D02*
X70214286Y-31314484D01*
X70214286Y-31314484D02*
X70142857Y-31457341D01*
X70142857Y-31457341D02*
X70071429Y-31528769D01*
X70071429Y-31528769D02*
X69928571Y-31600198D01*
X69928571Y-31600198D02*
X69428571Y-31600198D01*
X70928571Y-31814484D02*
X72071429Y-31814484D01*
X73642857Y-32243055D02*
X73571429Y-32314484D01*
X73571429Y-32314484D02*
X73357143Y-32385912D01*
X73357143Y-32385912D02*
X73214286Y-32385912D01*
X73214286Y-32385912D02*
X73000000Y-32314484D01*
X73000000Y-32314484D02*
X72857143Y-32171626D01*
X72857143Y-32171626D02*
X72785714Y-32028769D01*
X72785714Y-32028769D02*
X72714286Y-31743055D01*
X72714286Y-31743055D02*
X72714286Y-31528769D01*
X72714286Y-31528769D02*
X72785714Y-31243055D01*
X72785714Y-31243055D02*
X72857143Y-31100198D01*
X72857143Y-31100198D02*
X73000000Y-30957341D01*
X73000000Y-30957341D02*
X73214286Y-30885912D01*
X73214286Y-30885912D02*
X73357143Y-30885912D01*
X73357143Y-30885912D02*
X73571429Y-30957341D01*
X73571429Y-30957341D02*
X73642857Y-31028769D01*
X70000000Y-33657971D02*
X70000000Y-34800828D01*
X70285714Y-34515114D02*
X70000000Y-34800828D01*
X70000000Y-34800828D02*
X69714286Y-34515114D01*
X40374060Y-12974310D02*
X40231203Y-12898120D01*
X40231203Y-12898120D02*
X40016917Y-12898120D01*
X40016917Y-12898120D02*
X39802631Y-12974310D01*
X39802631Y-12974310D02*
X39659774Y-13126691D01*
X39659774Y-13126691D02*
X39588345Y-13279072D01*
X39588345Y-13279072D02*
X39516917Y-13583834D01*
X39516917Y-13583834D02*
X39516917Y-13812406D01*
X39516917Y-13812406D02*
X39588345Y-14117168D01*
X39588345Y-14117168D02*
X39659774Y-14269549D01*
X39659774Y-14269549D02*
X39802631Y-14421930D01*
X39802631Y-14421930D02*
X40016917Y-14498120D01*
X40016917Y-14498120D02*
X40159774Y-14498120D01*
X40159774Y-14498120D02*
X40374060Y-14421930D01*
X40374060Y-14421930D02*
X40445488Y-14345739D01*
X40445488Y-14345739D02*
X40445488Y-13812406D01*
X40445488Y-13812406D02*
X40159774Y-13812406D01*
X41088345Y-14498120D02*
X41088345Y-12898120D01*
X41088345Y-12898120D02*
X41945488Y-14498120D01*
X41945488Y-14498120D02*
X41945488Y-12898120D01*
X42659774Y-14498120D02*
X42659774Y-12898120D01*
X42659774Y-12898120D02*
X43016917Y-12898120D01*
X43016917Y-12898120D02*
X43231203Y-12974310D01*
X43231203Y-12974310D02*
X43374060Y-13126691D01*
X43374060Y-13126691D02*
X43445489Y-13279072D01*
X43445489Y-13279072D02*
X43516917Y-13583834D01*
X43516917Y-13583834D02*
X43516917Y-13812406D01*
X43516917Y-13812406D02*
X43445489Y-14117168D01*
X43445489Y-14117168D02*
X43374060Y-14269549D01*
X43374060Y-14269549D02*
X43231203Y-14421930D01*
X43231203Y-14421930D02*
X43016917Y-14498120D01*
X43016917Y-14498120D02*
X42659774Y-14498120D01*
X41159775Y-15474030D02*
X42088347Y-15474030D01*
X42088347Y-15474030D02*
X41588347Y-16083554D01*
X41588347Y-16083554D02*
X41802632Y-16083554D01*
X41802632Y-16083554D02*
X41945490Y-16159744D01*
X41945490Y-16159744D02*
X42016918Y-16235935D01*
X42016918Y-16235935D02*
X42088347Y-16388316D01*
X42088347Y-16388316D02*
X42088347Y-16769268D01*
X42088347Y-16769268D02*
X42016918Y-16921649D01*
X42016918Y-16921649D02*
X41945490Y-16997840D01*
X41945490Y-16997840D02*
X41802632Y-17074030D01*
X41802632Y-17074030D02*
X41374061Y-17074030D01*
X41374061Y-17074030D02*
X41231204Y-16997840D01*
X41231204Y-16997840D02*
X41159775Y-16921649D01*
X42945489Y-16159744D02*
X42802632Y-16083554D01*
X42802632Y-16083554D02*
X42731203Y-16007363D01*
X42731203Y-16007363D02*
X42659775Y-15854982D01*
X42659775Y-15854982D02*
X42659775Y-15778792D01*
X42659775Y-15778792D02*
X42731203Y-15626411D01*
X42731203Y-15626411D02*
X42802632Y-15550220D01*
X42802632Y-15550220D02*
X42945489Y-15474030D01*
X42945489Y-15474030D02*
X43231203Y-15474030D01*
X43231203Y-15474030D02*
X43374061Y-15550220D01*
X43374061Y-15550220D02*
X43445489Y-15626411D01*
X43445489Y-15626411D02*
X43516918Y-15778792D01*
X43516918Y-15778792D02*
X43516918Y-15854982D01*
X43516918Y-15854982D02*
X43445489Y-16007363D01*
X43445489Y-16007363D02*
X43374061Y-16083554D01*
X43374061Y-16083554D02*
X43231203Y-16159744D01*
X43231203Y-16159744D02*
X42945489Y-16159744D01*
X42945489Y-16159744D02*
X42802632Y-16235935D01*
X42802632Y-16235935D02*
X42731203Y-16312125D01*
X42731203Y-16312125D02*
X42659775Y-16464506D01*
X42659775Y-16464506D02*
X42659775Y-16769268D01*
X42659775Y-16769268D02*
X42731203Y-16921649D01*
X42731203Y-16921649D02*
X42802632Y-16997840D01*
X42802632Y-16997840D02*
X42945489Y-17074030D01*
X42945489Y-17074030D02*
X43231203Y-17074030D01*
X43231203Y-17074030D02*
X43374061Y-16997840D01*
X43374061Y-16997840D02*
X43445489Y-16921649D01*
X43445489Y-16921649D02*
X43516918Y-16769268D01*
X43516918Y-16769268D02*
X43516918Y-16464506D01*
X43516918Y-16464506D02*
X43445489Y-16312125D01*
X43445489Y-16312125D02*
X43374061Y-16235935D01*
X43374061Y-16235935D02*
X43231203Y-16159744D01*
X41159775Y-18049940D02*
X42088347Y-18049940D01*
X42088347Y-18049940D02*
X41588347Y-18659464D01*
X41588347Y-18659464D02*
X41802632Y-18659464D01*
X41802632Y-18659464D02*
X41945490Y-18735654D01*
X41945490Y-18735654D02*
X42016918Y-18811845D01*
X42016918Y-18811845D02*
X42088347Y-18964226D01*
X42088347Y-18964226D02*
X42088347Y-19345178D01*
X42088347Y-19345178D02*
X42016918Y-19497559D01*
X42016918Y-19497559D02*
X41945490Y-19573750D01*
X41945490Y-19573750D02*
X41802632Y-19649940D01*
X41802632Y-19649940D02*
X41374061Y-19649940D01*
X41374061Y-19649940D02*
X41231204Y-19573750D01*
X41231204Y-19573750D02*
X41159775Y-19497559D01*
X42588346Y-18049940D02*
X43588346Y-18049940D01*
X43588346Y-18049940D02*
X42945489Y-19649940D01*
X41159775Y-20625850D02*
X42088347Y-20625850D01*
X42088347Y-20625850D02*
X41588347Y-21235374D01*
X41588347Y-21235374D02*
X41802632Y-21235374D01*
X41802632Y-21235374D02*
X41945490Y-21311564D01*
X41945490Y-21311564D02*
X42016918Y-21387755D01*
X42016918Y-21387755D02*
X42088347Y-21540136D01*
X42088347Y-21540136D02*
X42088347Y-21921088D01*
X42088347Y-21921088D02*
X42016918Y-22073469D01*
X42016918Y-22073469D02*
X41945490Y-22149660D01*
X41945490Y-22149660D02*
X41802632Y-22225850D01*
X41802632Y-22225850D02*
X41374061Y-22225850D01*
X41374061Y-22225850D02*
X41231204Y-22149660D01*
X41231204Y-22149660D02*
X41159775Y-22073469D01*
X43374061Y-20625850D02*
X43088346Y-20625850D01*
X43088346Y-20625850D02*
X42945489Y-20702040D01*
X42945489Y-20702040D02*
X42874061Y-20778231D01*
X42874061Y-20778231D02*
X42731203Y-21006802D01*
X42731203Y-21006802D02*
X42659775Y-21311564D01*
X42659775Y-21311564D02*
X42659775Y-21921088D01*
X42659775Y-21921088D02*
X42731203Y-22073469D01*
X42731203Y-22073469D02*
X42802632Y-22149660D01*
X42802632Y-22149660D02*
X42945489Y-22225850D01*
X42945489Y-22225850D02*
X43231203Y-22225850D01*
X43231203Y-22225850D02*
X43374061Y-22149660D01*
X43374061Y-22149660D02*
X43445489Y-22073469D01*
X43445489Y-22073469D02*
X43516918Y-21921088D01*
X43516918Y-21921088D02*
X43516918Y-21540136D01*
X43516918Y-21540136D02*
X43445489Y-21387755D01*
X43445489Y-21387755D02*
X43374061Y-21311564D01*
X43374061Y-21311564D02*
X43231203Y-21235374D01*
X43231203Y-21235374D02*
X42945489Y-21235374D01*
X42945489Y-21235374D02*
X42802632Y-21311564D01*
X42802632Y-21311564D02*
X42731203Y-21387755D01*
X42731203Y-21387755D02*
X42659775Y-21540136D01*
X41159775Y-23201760D02*
X42088347Y-23201760D01*
X42088347Y-23201760D02*
X41588347Y-23811284D01*
X41588347Y-23811284D02*
X41802632Y-23811284D01*
X41802632Y-23811284D02*
X41945490Y-23887474D01*
X41945490Y-23887474D02*
X42016918Y-23963665D01*
X42016918Y-23963665D02*
X42088347Y-24116046D01*
X42088347Y-24116046D02*
X42088347Y-24496998D01*
X42088347Y-24496998D02*
X42016918Y-24649379D01*
X42016918Y-24649379D02*
X41945490Y-24725570D01*
X41945490Y-24725570D02*
X41802632Y-24801760D01*
X41802632Y-24801760D02*
X41374061Y-24801760D01*
X41374061Y-24801760D02*
X41231204Y-24725570D01*
X41231204Y-24725570D02*
X41159775Y-24649379D01*
X43445489Y-23201760D02*
X42731203Y-23201760D01*
X42731203Y-23201760D02*
X42659775Y-23963665D01*
X42659775Y-23963665D02*
X42731203Y-23887474D01*
X42731203Y-23887474D02*
X42874061Y-23811284D01*
X42874061Y-23811284D02*
X43231203Y-23811284D01*
X43231203Y-23811284D02*
X43374061Y-23887474D01*
X43374061Y-23887474D02*
X43445489Y-23963665D01*
X43445489Y-23963665D02*
X43516918Y-24116046D01*
X43516918Y-24116046D02*
X43516918Y-24496998D01*
X43516918Y-24496998D02*
X43445489Y-24649379D01*
X43445489Y-24649379D02*
X43374061Y-24725570D01*
X43374061Y-24725570D02*
X43231203Y-24801760D01*
X43231203Y-24801760D02*
X42874061Y-24801760D01*
X42874061Y-24801760D02*
X42731203Y-24725570D01*
X42731203Y-24725570D02*
X42659775Y-24649379D01*
X40374060Y-25853860D02*
X40231203Y-25777670D01*
X40231203Y-25777670D02*
X40016917Y-25777670D01*
X40016917Y-25777670D02*
X39802631Y-25853860D01*
X39802631Y-25853860D02*
X39659774Y-26006241D01*
X39659774Y-26006241D02*
X39588345Y-26158622D01*
X39588345Y-26158622D02*
X39516917Y-26463384D01*
X39516917Y-26463384D02*
X39516917Y-26691956D01*
X39516917Y-26691956D02*
X39588345Y-26996718D01*
X39588345Y-26996718D02*
X39659774Y-27149099D01*
X39659774Y-27149099D02*
X39802631Y-27301480D01*
X39802631Y-27301480D02*
X40016917Y-27377670D01*
X40016917Y-27377670D02*
X40159774Y-27377670D01*
X40159774Y-27377670D02*
X40374060Y-27301480D01*
X40374060Y-27301480D02*
X40445488Y-27225289D01*
X40445488Y-27225289D02*
X40445488Y-26691956D01*
X40445488Y-26691956D02*
X40159774Y-26691956D01*
X41088345Y-27377670D02*
X41088345Y-25777670D01*
X41088345Y-25777670D02*
X41945488Y-27377670D01*
X41945488Y-27377670D02*
X41945488Y-25777670D01*
X42659774Y-27377670D02*
X42659774Y-25777670D01*
X42659774Y-25777670D02*
X43016917Y-25777670D01*
X43016917Y-25777670D02*
X43231203Y-25853860D01*
X43231203Y-25853860D02*
X43374060Y-26006241D01*
X43374060Y-26006241D02*
X43445489Y-26158622D01*
X43445489Y-26158622D02*
X43516917Y-26463384D01*
X43516917Y-26463384D02*
X43516917Y-26691956D01*
X43516917Y-26691956D02*
X43445489Y-26996718D01*
X43445489Y-26996718D02*
X43374060Y-27149099D01*
X43374060Y-27149099D02*
X43231203Y-27301480D01*
X43231203Y-27301480D02*
X43016917Y-27377670D01*
X43016917Y-27377670D02*
X42659774Y-27377670D01*
X41159775Y-28353580D02*
X42088347Y-28353580D01*
X42088347Y-28353580D02*
X41588347Y-28963104D01*
X41588347Y-28963104D02*
X41802632Y-28963104D01*
X41802632Y-28963104D02*
X41945490Y-29039294D01*
X41945490Y-29039294D02*
X42016918Y-29115485D01*
X42016918Y-29115485D02*
X42088347Y-29267866D01*
X42088347Y-29267866D02*
X42088347Y-29648818D01*
X42088347Y-29648818D02*
X42016918Y-29801199D01*
X42016918Y-29801199D02*
X41945490Y-29877390D01*
X41945490Y-29877390D02*
X41802632Y-29953580D01*
X41802632Y-29953580D02*
X41374061Y-29953580D01*
X41374061Y-29953580D02*
X41231204Y-29877390D01*
X41231204Y-29877390D02*
X41159775Y-29801199D01*
X43374061Y-28886913D02*
X43374061Y-29953580D01*
X43016918Y-28277390D02*
X42659775Y-29420247D01*
X42659775Y-29420247D02*
X43588346Y-29420247D01*
X41159775Y-30929490D02*
X42088347Y-30929490D01*
X42088347Y-30929490D02*
X41588347Y-31539014D01*
X41588347Y-31539014D02*
X41802632Y-31539014D01*
X41802632Y-31539014D02*
X41945490Y-31615204D01*
X41945490Y-31615204D02*
X42016918Y-31691395D01*
X42016918Y-31691395D02*
X42088347Y-31843776D01*
X42088347Y-31843776D02*
X42088347Y-32224728D01*
X42088347Y-32224728D02*
X42016918Y-32377109D01*
X42016918Y-32377109D02*
X41945490Y-32453300D01*
X41945490Y-32453300D02*
X41802632Y-32529490D01*
X41802632Y-32529490D02*
X41374061Y-32529490D01*
X41374061Y-32529490D02*
X41231204Y-32453300D01*
X41231204Y-32453300D02*
X41159775Y-32377109D01*
X42588346Y-30929490D02*
X43516918Y-30929490D01*
X43516918Y-30929490D02*
X43016918Y-31539014D01*
X43016918Y-31539014D02*
X43231203Y-31539014D01*
X43231203Y-31539014D02*
X43374061Y-31615204D01*
X43374061Y-31615204D02*
X43445489Y-31691395D01*
X43445489Y-31691395D02*
X43516918Y-31843776D01*
X43516918Y-31843776D02*
X43516918Y-32224728D01*
X43516918Y-32224728D02*
X43445489Y-32377109D01*
X43445489Y-32377109D02*
X43374061Y-32453300D01*
X43374061Y-32453300D02*
X43231203Y-32529490D01*
X43231203Y-32529490D02*
X42802632Y-32529490D01*
X42802632Y-32529490D02*
X42659775Y-32453300D01*
X42659775Y-32453300D02*
X42588346Y-32377109D01*
X42088347Y-35105400D02*
X41231204Y-35105400D01*
X41659775Y-35105400D02*
X41659775Y-33505400D01*
X41659775Y-33505400D02*
X41516918Y-33733971D01*
X41516918Y-33733971D02*
X41374061Y-33886352D01*
X41374061Y-33886352D02*
X41231204Y-33962543D01*
X42945489Y-34191114D02*
X42802632Y-34114924D01*
X42802632Y-34114924D02*
X42731203Y-34038733D01*
X42731203Y-34038733D02*
X42659775Y-33886352D01*
X42659775Y-33886352D02*
X42659775Y-33810162D01*
X42659775Y-33810162D02*
X42731203Y-33657781D01*
X42731203Y-33657781D02*
X42802632Y-33581590D01*
X42802632Y-33581590D02*
X42945489Y-33505400D01*
X42945489Y-33505400D02*
X43231203Y-33505400D01*
X43231203Y-33505400D02*
X43374061Y-33581590D01*
X43374061Y-33581590D02*
X43445489Y-33657781D01*
X43445489Y-33657781D02*
X43516918Y-33810162D01*
X43516918Y-33810162D02*
X43516918Y-33886352D01*
X43516918Y-33886352D02*
X43445489Y-34038733D01*
X43445489Y-34038733D02*
X43374061Y-34114924D01*
X43374061Y-34114924D02*
X43231203Y-34191114D01*
X43231203Y-34191114D02*
X42945489Y-34191114D01*
X42945489Y-34191114D02*
X42802632Y-34267305D01*
X42802632Y-34267305D02*
X42731203Y-34343495D01*
X42731203Y-34343495D02*
X42659775Y-34495876D01*
X42659775Y-34495876D02*
X42659775Y-34800638D01*
X42659775Y-34800638D02*
X42731203Y-34953019D01*
X42731203Y-34953019D02*
X42802632Y-35029210D01*
X42802632Y-35029210D02*
X42945489Y-35105400D01*
X42945489Y-35105400D02*
X43231203Y-35105400D01*
X43231203Y-35105400D02*
X43374061Y-35029210D01*
X43374061Y-35029210D02*
X43445489Y-34953019D01*
X43445489Y-34953019D02*
X43516918Y-34800638D01*
X43516918Y-34800638D02*
X43516918Y-34495876D01*
X43516918Y-34495876D02*
X43445489Y-34343495D01*
X43445489Y-34343495D02*
X43374061Y-34267305D01*
X43374061Y-34267305D02*
X43231203Y-34191114D01*
X42088347Y-37681310D02*
X41231204Y-37681310D01*
X41659775Y-37681310D02*
X41659775Y-36081310D01*
X41659775Y-36081310D02*
X41516918Y-36309881D01*
X41516918Y-36309881D02*
X41374061Y-36462262D01*
X41374061Y-36462262D02*
X41231204Y-36538453D01*
X42588346Y-36081310D02*
X43588346Y-36081310D01*
X43588346Y-36081310D02*
X42945489Y-37681310D01*
X40374060Y-38733410D02*
X40231203Y-38657220D01*
X40231203Y-38657220D02*
X40016917Y-38657220D01*
X40016917Y-38657220D02*
X39802631Y-38733410D01*
X39802631Y-38733410D02*
X39659774Y-38885791D01*
X39659774Y-38885791D02*
X39588345Y-39038172D01*
X39588345Y-39038172D02*
X39516917Y-39342934D01*
X39516917Y-39342934D02*
X39516917Y-39571506D01*
X39516917Y-39571506D02*
X39588345Y-39876268D01*
X39588345Y-39876268D02*
X39659774Y-40028649D01*
X39659774Y-40028649D02*
X39802631Y-40181030D01*
X39802631Y-40181030D02*
X40016917Y-40257220D01*
X40016917Y-40257220D02*
X40159774Y-40257220D01*
X40159774Y-40257220D02*
X40374060Y-40181030D01*
X40374060Y-40181030D02*
X40445488Y-40104839D01*
X40445488Y-40104839D02*
X40445488Y-39571506D01*
X40445488Y-39571506D02*
X40159774Y-39571506D01*
X41088345Y-40257220D02*
X41088345Y-38657220D01*
X41088345Y-38657220D02*
X41945488Y-40257220D01*
X41945488Y-40257220D02*
X41945488Y-38657220D01*
X42659774Y-40257220D02*
X42659774Y-38657220D01*
X42659774Y-38657220D02*
X43016917Y-38657220D01*
X43016917Y-38657220D02*
X43231203Y-38733410D01*
X43231203Y-38733410D02*
X43374060Y-38885791D01*
X43374060Y-38885791D02*
X43445489Y-39038172D01*
X43445489Y-39038172D02*
X43516917Y-39342934D01*
X43516917Y-39342934D02*
X43516917Y-39571506D01*
X43516917Y-39571506D02*
X43445489Y-39876268D01*
X43445489Y-39876268D02*
X43374060Y-40028649D01*
X43374060Y-40028649D02*
X43231203Y-40181030D01*
X43231203Y-40181030D02*
X43016917Y-40257220D01*
X43016917Y-40257220D02*
X42659774Y-40257220D01*
X42088347Y-42833130D02*
X41231204Y-42833130D01*
X41659775Y-42833130D02*
X41659775Y-41233130D01*
X41659775Y-41233130D02*
X41516918Y-41461701D01*
X41516918Y-41461701D02*
X41374061Y-41614082D01*
X41374061Y-41614082D02*
X41231204Y-41690273D01*
X43374061Y-41233130D02*
X43088346Y-41233130D01*
X43088346Y-41233130D02*
X42945489Y-41309320D01*
X42945489Y-41309320D02*
X42874061Y-41385511D01*
X42874061Y-41385511D02*
X42731203Y-41614082D01*
X42731203Y-41614082D02*
X42659775Y-41918844D01*
X42659775Y-41918844D02*
X42659775Y-42528368D01*
X42659775Y-42528368D02*
X42731203Y-42680749D01*
X42731203Y-42680749D02*
X42802632Y-42756940D01*
X42802632Y-42756940D02*
X42945489Y-42833130D01*
X42945489Y-42833130D02*
X43231203Y-42833130D01*
X43231203Y-42833130D02*
X43374061Y-42756940D01*
X43374061Y-42756940D02*
X43445489Y-42680749D01*
X43445489Y-42680749D02*
X43516918Y-42528368D01*
X43516918Y-42528368D02*
X43516918Y-42147416D01*
X43516918Y-42147416D02*
X43445489Y-41995035D01*
X43445489Y-41995035D02*
X43374061Y-41918844D01*
X43374061Y-41918844D02*
X43231203Y-41842654D01*
X43231203Y-41842654D02*
X42945489Y-41842654D01*
X42945489Y-41842654D02*
X42802632Y-41918844D01*
X42802632Y-41918844D02*
X42731203Y-41995035D01*
X42731203Y-41995035D02*
X42659775Y-42147416D01*
X42088347Y-45409040D02*
X41231204Y-45409040D01*
X41659775Y-45409040D02*
X41659775Y-43809040D01*
X41659775Y-43809040D02*
X41516918Y-44037611D01*
X41516918Y-44037611D02*
X41374061Y-44189992D01*
X41374061Y-44189992D02*
X41231204Y-44266183D01*
X43445489Y-43809040D02*
X42731203Y-43809040D01*
X42731203Y-43809040D02*
X42659775Y-44570945D01*
X42659775Y-44570945D02*
X42731203Y-44494754D01*
X42731203Y-44494754D02*
X42874061Y-44418564D01*
X42874061Y-44418564D02*
X43231203Y-44418564D01*
X43231203Y-44418564D02*
X43374061Y-44494754D01*
X43374061Y-44494754D02*
X43445489Y-44570945D01*
X43445489Y-44570945D02*
X43516918Y-44723326D01*
X43516918Y-44723326D02*
X43516918Y-45104278D01*
X43516918Y-45104278D02*
X43445489Y-45256659D01*
X43445489Y-45256659D02*
X43374061Y-45332850D01*
X43374061Y-45332850D02*
X43231203Y-45409040D01*
X43231203Y-45409040D02*
X42874061Y-45409040D01*
X42874061Y-45409040D02*
X42731203Y-45332850D01*
X42731203Y-45332850D02*
X42659775Y-45256659D01*
X42088347Y-47984950D02*
X41231204Y-47984950D01*
X41659775Y-47984950D02*
X41659775Y-46384950D01*
X41659775Y-46384950D02*
X41516918Y-46613521D01*
X41516918Y-46613521D02*
X41374061Y-46765902D01*
X41374061Y-46765902D02*
X41231204Y-46842093D01*
X43374061Y-46918283D02*
X43374061Y-47984950D01*
X43016918Y-46308760D02*
X42659775Y-47451617D01*
X42659775Y-47451617D02*
X43588346Y-47451617D01*
X42088347Y-50560860D02*
X41231204Y-50560860D01*
X41659775Y-50560860D02*
X41659775Y-48960860D01*
X41659775Y-48960860D02*
X41516918Y-49189431D01*
X41516918Y-49189431D02*
X41374061Y-49341812D01*
X41374061Y-49341812D02*
X41231204Y-49418003D01*
X42588346Y-48960860D02*
X43516918Y-48960860D01*
X43516918Y-48960860D02*
X43016918Y-49570384D01*
X43016918Y-49570384D02*
X43231203Y-49570384D01*
X43231203Y-49570384D02*
X43374061Y-49646574D01*
X43374061Y-49646574D02*
X43445489Y-49722765D01*
X43445489Y-49722765D02*
X43516918Y-49875146D01*
X43516918Y-49875146D02*
X43516918Y-50256098D01*
X43516918Y-50256098D02*
X43445489Y-50408479D01*
X43445489Y-50408479D02*
X43374061Y-50484670D01*
X43374061Y-50484670D02*
X43231203Y-50560860D01*
X43231203Y-50560860D02*
X42802632Y-50560860D01*
X42802632Y-50560860D02*
X42659775Y-50484670D01*
X42659775Y-50484670D02*
X42588346Y-50408479D01*
X40374060Y-51612960D02*
X40231203Y-51536770D01*
X40231203Y-51536770D02*
X40016917Y-51536770D01*
X40016917Y-51536770D02*
X39802631Y-51612960D01*
X39802631Y-51612960D02*
X39659774Y-51765341D01*
X39659774Y-51765341D02*
X39588345Y-51917722D01*
X39588345Y-51917722D02*
X39516917Y-52222484D01*
X39516917Y-52222484D02*
X39516917Y-52451056D01*
X39516917Y-52451056D02*
X39588345Y-52755818D01*
X39588345Y-52755818D02*
X39659774Y-52908199D01*
X39659774Y-52908199D02*
X39802631Y-53060580D01*
X39802631Y-53060580D02*
X40016917Y-53136770D01*
X40016917Y-53136770D02*
X40159774Y-53136770D01*
X40159774Y-53136770D02*
X40374060Y-53060580D01*
X40374060Y-53060580D02*
X40445488Y-52984389D01*
X40445488Y-52984389D02*
X40445488Y-52451056D01*
X40445488Y-52451056D02*
X40159774Y-52451056D01*
X41088345Y-53136770D02*
X41088345Y-51536770D01*
X41088345Y-51536770D02*
X41945488Y-53136770D01*
X41945488Y-53136770D02*
X41945488Y-51536770D01*
X42659774Y-53136770D02*
X42659774Y-51536770D01*
X42659774Y-51536770D02*
X43016917Y-51536770D01*
X43016917Y-51536770D02*
X43231203Y-51612960D01*
X43231203Y-51612960D02*
X43374060Y-51765341D01*
X43374060Y-51765341D02*
X43445489Y-51917722D01*
X43445489Y-51917722D02*
X43516917Y-52222484D01*
X43516917Y-52222484D02*
X43516917Y-52451056D01*
X43516917Y-52451056D02*
X43445489Y-52755818D01*
X43445489Y-52755818D02*
X43374060Y-52908199D01*
X43374060Y-52908199D02*
X43231203Y-53060580D01*
X43231203Y-53060580D02*
X43016917Y-53136770D01*
X43016917Y-53136770D02*
X42659774Y-53136770D01*
X42088347Y-55712680D02*
X41231204Y-55712680D01*
X41659775Y-55712680D02*
X41659775Y-54112680D01*
X41659775Y-54112680D02*
X41516918Y-54341251D01*
X41516918Y-54341251D02*
X41374061Y-54493632D01*
X41374061Y-54493632D02*
X41231204Y-54569823D01*
X42659775Y-54265061D02*
X42731203Y-54188870D01*
X42731203Y-54188870D02*
X42874061Y-54112680D01*
X42874061Y-54112680D02*
X43231203Y-54112680D01*
X43231203Y-54112680D02*
X43374061Y-54188870D01*
X43374061Y-54188870D02*
X43445489Y-54265061D01*
X43445489Y-54265061D02*
X43516918Y-54417442D01*
X43516918Y-54417442D02*
X43516918Y-54569823D01*
X43516918Y-54569823D02*
X43445489Y-54798394D01*
X43445489Y-54798394D02*
X42588346Y-55712680D01*
X42588346Y-55712680D02*
X43516918Y-55712680D01*
X42088347Y-58288590D02*
X41231204Y-58288590D01*
X41659775Y-58288590D02*
X41659775Y-56688590D01*
X41659775Y-56688590D02*
X41516918Y-56917161D01*
X41516918Y-56917161D02*
X41374061Y-57069542D01*
X41374061Y-57069542D02*
X41231204Y-57145733D01*
X43516918Y-58288590D02*
X42659775Y-58288590D01*
X43088346Y-58288590D02*
X43088346Y-56688590D01*
X43088346Y-56688590D02*
X42945489Y-56917161D01*
X42945489Y-56917161D02*
X42802632Y-57069542D01*
X42802632Y-57069542D02*
X42659775Y-57145733D01*
X103180000Y-14356080D02*
X103180000Y-13213223D01*
X102894286Y-13498937D02*
X103180000Y-13213223D01*
X103180000Y-13213223D02*
X103465714Y-13498937D01*
X101644286Y-16770996D02*
X101144286Y-16056710D01*
X100787143Y-16770996D02*
X100787143Y-15270996D01*
X100787143Y-15270996D02*
X101358572Y-15270996D01*
X101358572Y-15270996D02*
X101501429Y-15342425D01*
X101501429Y-15342425D02*
X101572858Y-15413853D01*
X101572858Y-15413853D02*
X101644286Y-15556710D01*
X101644286Y-15556710D02*
X101644286Y-15770996D01*
X101644286Y-15770996D02*
X101572858Y-15913853D01*
X101572858Y-15913853D02*
X101501429Y-15985282D01*
X101501429Y-15985282D02*
X101358572Y-16056710D01*
X101358572Y-16056710D02*
X100787143Y-16056710D01*
X102715715Y-15270996D02*
X102715715Y-16342425D01*
X102715715Y-16342425D02*
X102644286Y-16556710D01*
X102644286Y-16556710D02*
X102501429Y-16699568D01*
X102501429Y-16699568D02*
X102287143Y-16770996D01*
X102287143Y-16770996D02*
X102144286Y-16770996D01*
X104072858Y-15770996D02*
X104072858Y-16770996D01*
X103715715Y-15199568D02*
X103358572Y-16270996D01*
X103358572Y-16270996D02*
X104287143Y-16270996D01*
X105572857Y-15270996D02*
X104858571Y-15270996D01*
X104858571Y-15270996D02*
X104787143Y-15985282D01*
X104787143Y-15985282D02*
X104858571Y-15913853D01*
X104858571Y-15913853D02*
X105001429Y-15842425D01*
X105001429Y-15842425D02*
X105358571Y-15842425D01*
X105358571Y-15842425D02*
X105501429Y-15913853D01*
X105501429Y-15913853D02*
X105572857Y-15985282D01*
X105572857Y-15985282D02*
X105644286Y-16128139D01*
X105644286Y-16128139D02*
X105644286Y-16485282D01*
X105644286Y-16485282D02*
X105572857Y-16628139D01*
X105572857Y-16628139D02*
X105501429Y-16699568D01*
X105501429Y-16699568D02*
X105358571Y-16770996D01*
X105358571Y-16770996D02*
X105001429Y-16770996D01*
X105001429Y-16770996D02*
X104858571Y-16699568D01*
X104858571Y-16699568D02*
X104787143Y-16628139D01*
X99680000Y-20100828D02*
X100037143Y-21600828D01*
X100037143Y-21600828D02*
X100322857Y-20529400D01*
X100322857Y-20529400D02*
X100608572Y-21600828D01*
X100608572Y-21600828D02*
X100965715Y-20100828D01*
X102251429Y-20100828D02*
X101537143Y-20100828D01*
X101537143Y-20100828D02*
X101465715Y-20815114D01*
X101465715Y-20815114D02*
X101537143Y-20743685D01*
X101537143Y-20743685D02*
X101680001Y-20672257D01*
X101680001Y-20672257D02*
X102037143Y-20672257D01*
X102037143Y-20672257D02*
X102180001Y-20743685D01*
X102180001Y-20743685D02*
X102251429Y-20815114D01*
X102251429Y-20815114D02*
X102322858Y-20957971D01*
X102322858Y-20957971D02*
X102322858Y-21315114D01*
X102322858Y-21315114D02*
X102251429Y-21457971D01*
X102251429Y-21457971D02*
X102180001Y-21529400D01*
X102180001Y-21529400D02*
X102037143Y-21600828D01*
X102037143Y-21600828D02*
X101680001Y-21600828D01*
X101680001Y-21600828D02*
X101537143Y-21529400D01*
X101537143Y-21529400D02*
X101465715Y-21457971D01*
X103680000Y-20100828D02*
X102965714Y-20100828D01*
X102965714Y-20100828D02*
X102894286Y-20815114D01*
X102894286Y-20815114D02*
X102965714Y-20743685D01*
X102965714Y-20743685D02*
X103108572Y-20672257D01*
X103108572Y-20672257D02*
X103465714Y-20672257D01*
X103465714Y-20672257D02*
X103608572Y-20743685D01*
X103608572Y-20743685D02*
X103680000Y-20815114D01*
X103680000Y-20815114D02*
X103751429Y-20957971D01*
X103751429Y-20957971D02*
X103751429Y-21315114D01*
X103751429Y-21315114D02*
X103680000Y-21457971D01*
X103680000Y-21457971D02*
X103608572Y-21529400D01*
X103608572Y-21529400D02*
X103465714Y-21600828D01*
X103465714Y-21600828D02*
X103108572Y-21600828D01*
X103108572Y-21600828D02*
X102965714Y-21529400D01*
X102965714Y-21529400D02*
X102894286Y-21457971D01*
X104680000Y-20100828D02*
X104822857Y-20100828D01*
X104822857Y-20100828D02*
X104965714Y-20172257D01*
X104965714Y-20172257D02*
X105037143Y-20243685D01*
X105037143Y-20243685D02*
X105108571Y-20386542D01*
X105108571Y-20386542D02*
X105180000Y-20672257D01*
X105180000Y-20672257D02*
X105180000Y-21029400D01*
X105180000Y-21029400D02*
X105108571Y-21315114D01*
X105108571Y-21315114D02*
X105037143Y-21457971D01*
X105037143Y-21457971D02*
X104965714Y-21529400D01*
X104965714Y-21529400D02*
X104822857Y-21600828D01*
X104822857Y-21600828D02*
X104680000Y-21600828D01*
X104680000Y-21600828D02*
X104537143Y-21529400D01*
X104537143Y-21529400D02*
X104465714Y-21457971D01*
X104465714Y-21457971D02*
X104394285Y-21315114D01*
X104394285Y-21315114D02*
X104322857Y-21029400D01*
X104322857Y-21029400D02*
X104322857Y-20672257D01*
X104322857Y-20672257D02*
X104394285Y-20386542D01*
X104394285Y-20386542D02*
X104465714Y-20243685D01*
X104465714Y-20243685D02*
X104537143Y-20172257D01*
X104537143Y-20172257D02*
X104680000Y-20100828D01*
X106108571Y-20100828D02*
X106251428Y-20100828D01*
X106251428Y-20100828D02*
X106394285Y-20172257D01*
X106394285Y-20172257D02*
X106465714Y-20243685D01*
X106465714Y-20243685D02*
X106537142Y-20386542D01*
X106537142Y-20386542D02*
X106608571Y-20672257D01*
X106608571Y-20672257D02*
X106608571Y-21029400D01*
X106608571Y-21029400D02*
X106537142Y-21315114D01*
X106537142Y-21315114D02*
X106465714Y-21457971D01*
X106465714Y-21457971D02*
X106394285Y-21529400D01*
X106394285Y-21529400D02*
X106251428Y-21600828D01*
X106251428Y-21600828D02*
X106108571Y-21600828D01*
X106108571Y-21600828D02*
X105965714Y-21529400D01*
X105965714Y-21529400D02*
X105894285Y-21457971D01*
X105894285Y-21457971D02*
X105822856Y-21315114D01*
X105822856Y-21315114D02*
X105751428Y-21029400D01*
X105751428Y-21029400D02*
X105751428Y-20672257D01*
X105751428Y-20672257D02*
X105822856Y-20386542D01*
X105822856Y-20386542D02*
X105894285Y-20243685D01*
X105894285Y-20243685D02*
X105965714Y-20172257D01*
X105965714Y-20172257D02*
X106108571Y-20100828D01*
X122627509Y-39125939D02*
X122556080Y-39268797D01*
X122556080Y-39268797D02*
X122556080Y-39483082D01*
X122556080Y-39483082D02*
X122627509Y-39697368D01*
X122627509Y-39697368D02*
X122770366Y-39840225D01*
X122770366Y-39840225D02*
X122913223Y-39911654D01*
X122913223Y-39911654D02*
X123198937Y-39983082D01*
X123198937Y-39983082D02*
X123413223Y-39983082D01*
X123413223Y-39983082D02*
X123698937Y-39911654D01*
X123698937Y-39911654D02*
X123841794Y-39840225D01*
X123841794Y-39840225D02*
X123984652Y-39697368D01*
X123984652Y-39697368D02*
X124056080Y-39483082D01*
X124056080Y-39483082D02*
X124056080Y-39340225D01*
X124056080Y-39340225D02*
X123984652Y-39125939D01*
X123984652Y-39125939D02*
X123913223Y-39054511D01*
X123913223Y-39054511D02*
X123413223Y-39054511D01*
X123413223Y-39054511D02*
X123413223Y-39340225D01*
X124056080Y-38411654D02*
X122556080Y-38411654D01*
X122556080Y-38411654D02*
X124056080Y-37554511D01*
X124056080Y-37554511D02*
X122556080Y-37554511D01*
X124056080Y-36840225D02*
X122556080Y-36840225D01*
X122556080Y-36840225D02*
X122556080Y-36483082D01*
X122556080Y-36483082D02*
X122627509Y-36268796D01*
X122627509Y-36268796D02*
X122770366Y-36125939D01*
X122770366Y-36125939D02*
X122913223Y-36054510D01*
X122913223Y-36054510D02*
X123198937Y-35983082D01*
X123198937Y-35983082D02*
X123413223Y-35983082D01*
X123413223Y-35983082D02*
X123698937Y-36054510D01*
X123698937Y-36054510D02*
X123841794Y-36125939D01*
X123841794Y-36125939D02*
X123984652Y-36268796D01*
X123984652Y-36268796D02*
X124056080Y-36483082D01*
X124056080Y-36483082D02*
X124056080Y-36840225D01*
X126470996Y-38697368D02*
X124970996Y-38697368D01*
X124970996Y-38697368D02*
X124970996Y-38340225D01*
X124970996Y-38340225D02*
X125042425Y-38125939D01*
X125042425Y-38125939D02*
X125185282Y-37983082D01*
X125185282Y-37983082D02*
X125328139Y-37911653D01*
X125328139Y-37911653D02*
X125613853Y-37840225D01*
X125613853Y-37840225D02*
X125828139Y-37840225D01*
X125828139Y-37840225D02*
X126113853Y-37911653D01*
X126113853Y-37911653D02*
X126256710Y-37983082D01*
X126256710Y-37983082D02*
X126399568Y-38125939D01*
X126399568Y-38125939D02*
X126470996Y-38340225D01*
X126470996Y-38340225D02*
X126470996Y-38697368D01*
X125899568Y-37197368D02*
X125899568Y-36054511D01*
X126470996Y-36625939D02*
X125328139Y-36625939D01*
X128885912Y-38697368D02*
X127385912Y-38697368D01*
X127385912Y-38697368D02*
X127385912Y-38340225D01*
X127385912Y-38340225D02*
X127457341Y-38125939D01*
X127457341Y-38125939D02*
X127600198Y-37983082D01*
X127600198Y-37983082D02*
X127743055Y-37911653D01*
X127743055Y-37911653D02*
X128028769Y-37840225D01*
X128028769Y-37840225D02*
X128243055Y-37840225D01*
X128243055Y-37840225D02*
X128528769Y-37911653D01*
X128528769Y-37911653D02*
X128671626Y-37983082D01*
X128671626Y-37983082D02*
X128814484Y-38125939D01*
X128814484Y-38125939D02*
X128885912Y-38340225D01*
X128885912Y-38340225D02*
X128885912Y-38697368D01*
X128314484Y-37197368D02*
X128314484Y-36054511D01*
X129800828Y-36840224D02*
X131300828Y-36340224D01*
X131300828Y-36340224D02*
X129800828Y-35840224D01*
X96020225Y-12907109D02*
X95877368Y-12828423D01*
X95877368Y-12828423D02*
X95663082Y-12828423D01*
X95663082Y-12828423D02*
X95448796Y-12907109D01*
X95448796Y-12907109D02*
X95305939Y-13064480D01*
X95305939Y-13064480D02*
X95234510Y-13221852D01*
X95234510Y-13221852D02*
X95163082Y-13536595D01*
X95163082Y-13536595D02*
X95163082Y-13772652D01*
X95163082Y-13772652D02*
X95234510Y-14087395D01*
X95234510Y-14087395D02*
X95305939Y-14244766D01*
X95305939Y-14244766D02*
X95448796Y-14402138D01*
X95448796Y-14402138D02*
X95663082Y-14480823D01*
X95663082Y-14480823D02*
X95805939Y-14480823D01*
X95805939Y-14480823D02*
X96020225Y-14402138D01*
X96020225Y-14402138D02*
X96091653Y-14323452D01*
X96091653Y-14323452D02*
X96091653Y-13772652D01*
X96091653Y-13772652D02*
X95805939Y-13772652D01*
X96734510Y-14480823D02*
X96734510Y-12828423D01*
X96734510Y-12828423D02*
X97591653Y-14480823D01*
X97591653Y-14480823D02*
X97591653Y-12828423D01*
X98305939Y-14480823D02*
X98305939Y-12828423D01*
X98305939Y-12828423D02*
X98663082Y-12828423D01*
X98663082Y-12828423D02*
X98877368Y-12907109D01*
X98877368Y-12907109D02*
X99020225Y-13064480D01*
X99020225Y-13064480D02*
X99091654Y-13221852D01*
X99091654Y-13221852D02*
X99163082Y-13536595D01*
X99163082Y-13536595D02*
X99163082Y-13772652D01*
X99163082Y-13772652D02*
X99091654Y-14087395D01*
X99091654Y-14087395D02*
X99020225Y-14244766D01*
X99020225Y-14244766D02*
X98877368Y-14402138D01*
X98877368Y-14402138D02*
X98663082Y-14480823D01*
X98663082Y-14480823D02*
X98305939Y-14480823D01*
X96020225Y-15567380D02*
X95877368Y-15488694D01*
X95877368Y-15488694D02*
X95663082Y-15488694D01*
X95663082Y-15488694D02*
X95448796Y-15567380D01*
X95448796Y-15567380D02*
X95305939Y-15724751D01*
X95305939Y-15724751D02*
X95234510Y-15882123D01*
X95234510Y-15882123D02*
X95163082Y-16196866D01*
X95163082Y-16196866D02*
X95163082Y-16432923D01*
X95163082Y-16432923D02*
X95234510Y-16747666D01*
X95234510Y-16747666D02*
X95305939Y-16905037D01*
X95305939Y-16905037D02*
X95448796Y-17062409D01*
X95448796Y-17062409D02*
X95663082Y-17141094D01*
X95663082Y-17141094D02*
X95805939Y-17141094D01*
X95805939Y-17141094D02*
X96020225Y-17062409D01*
X96020225Y-17062409D02*
X96091653Y-16983723D01*
X96091653Y-16983723D02*
X96091653Y-16432923D01*
X96091653Y-16432923D02*
X95805939Y-16432923D01*
X96734510Y-17141094D02*
X96734510Y-15488694D01*
X96734510Y-15488694D02*
X97591653Y-17141094D01*
X97591653Y-17141094D02*
X97591653Y-15488694D01*
X98305939Y-17141094D02*
X98305939Y-15488694D01*
X98305939Y-15488694D02*
X98663082Y-15488694D01*
X98663082Y-15488694D02*
X98877368Y-15567380D01*
X98877368Y-15567380D02*
X99020225Y-15724751D01*
X99020225Y-15724751D02*
X99091654Y-15882123D01*
X99091654Y-15882123D02*
X99163082Y-16196866D01*
X99163082Y-16196866D02*
X99163082Y-16432923D01*
X99163082Y-16432923D02*
X99091654Y-16747666D01*
X99091654Y-16747666D02*
X99020225Y-16905037D01*
X99020225Y-16905037D02*
X98877368Y-17062409D01*
X98877368Y-17062409D02*
X98663082Y-17141094D01*
X98663082Y-17141094D02*
X98305939Y-17141094D01*
X95234510Y-19801365D02*
X95234510Y-18148965D01*
X95234510Y-18148965D02*
X95734510Y-19329251D01*
X95734510Y-19329251D02*
X96234510Y-18148965D01*
X96234510Y-18148965D02*
X96234510Y-19801365D01*
X97234511Y-18148965D02*
X97520225Y-18148965D01*
X97520225Y-18148965D02*
X97663082Y-18227651D01*
X97663082Y-18227651D02*
X97805939Y-18385022D01*
X97805939Y-18385022D02*
X97877368Y-18699765D01*
X97877368Y-18699765D02*
X97877368Y-19250565D01*
X97877368Y-19250565D02*
X97805939Y-19565308D01*
X97805939Y-19565308D02*
X97663082Y-19722680D01*
X97663082Y-19722680D02*
X97520225Y-19801365D01*
X97520225Y-19801365D02*
X97234511Y-19801365D01*
X97234511Y-19801365D02*
X97091654Y-19722680D01*
X97091654Y-19722680D02*
X96948796Y-19565308D01*
X96948796Y-19565308D02*
X96877368Y-19250565D01*
X96877368Y-19250565D02*
X96877368Y-18699765D01*
X96877368Y-18699765D02*
X96948796Y-18385022D01*
X96948796Y-18385022D02*
X97091654Y-18227651D01*
X97091654Y-18227651D02*
X97234511Y-18148965D01*
X95163082Y-22382951D02*
X95377368Y-22461636D01*
X95377368Y-22461636D02*
X95734510Y-22461636D01*
X95734510Y-22461636D02*
X95877368Y-22382951D01*
X95877368Y-22382951D02*
X95948796Y-22304265D01*
X95948796Y-22304265D02*
X96020225Y-22146893D01*
X96020225Y-22146893D02*
X96020225Y-21989522D01*
X96020225Y-21989522D02*
X95948796Y-21832151D01*
X95948796Y-21832151D02*
X95877368Y-21753465D01*
X95877368Y-21753465D02*
X95734510Y-21674779D01*
X95734510Y-21674779D02*
X95448796Y-21596093D01*
X95448796Y-21596093D02*
X95305939Y-21517408D01*
X95305939Y-21517408D02*
X95234510Y-21438722D01*
X95234510Y-21438722D02*
X95163082Y-21281351D01*
X95163082Y-21281351D02*
X95163082Y-21123979D01*
X95163082Y-21123979D02*
X95234510Y-20966608D01*
X95234510Y-20966608D02*
X95305939Y-20887922D01*
X95305939Y-20887922D02*
X95448796Y-20809236D01*
X95448796Y-20809236D02*
X95805939Y-20809236D01*
X95805939Y-20809236D02*
X96020225Y-20887922D01*
X97520224Y-22304265D02*
X97448796Y-22382951D01*
X97448796Y-22382951D02*
X97234510Y-22461636D01*
X97234510Y-22461636D02*
X97091653Y-22461636D01*
X97091653Y-22461636D02*
X96877367Y-22382951D01*
X96877367Y-22382951D02*
X96734510Y-22225579D01*
X96734510Y-22225579D02*
X96663081Y-22068208D01*
X96663081Y-22068208D02*
X96591653Y-21753465D01*
X96591653Y-21753465D02*
X96591653Y-21517408D01*
X96591653Y-21517408D02*
X96663081Y-21202665D01*
X96663081Y-21202665D02*
X96734510Y-21045293D01*
X96734510Y-21045293D02*
X96877367Y-20887922D01*
X96877367Y-20887922D02*
X97091653Y-20809236D01*
X97091653Y-20809236D02*
X97234510Y-20809236D01*
X97234510Y-20809236D02*
X97448796Y-20887922D01*
X97448796Y-20887922D02*
X97520224Y-20966608D01*
X98163081Y-22461636D02*
X98163081Y-20809236D01*
X99020224Y-22461636D02*
X98377367Y-21517408D01*
X99020224Y-20809236D02*
X98163081Y-21753465D01*
X96091653Y-24964536D02*
X96020225Y-25043222D01*
X96020225Y-25043222D02*
X95805939Y-25121907D01*
X95805939Y-25121907D02*
X95663082Y-25121907D01*
X95663082Y-25121907D02*
X95448796Y-25043222D01*
X95448796Y-25043222D02*
X95305939Y-24885850D01*
X95305939Y-24885850D02*
X95234510Y-24728479D01*
X95234510Y-24728479D02*
X95163082Y-24413736D01*
X95163082Y-24413736D02*
X95163082Y-24177679D01*
X95163082Y-24177679D02*
X95234510Y-23862936D01*
X95234510Y-23862936D02*
X95305939Y-23705564D01*
X95305939Y-23705564D02*
X95448796Y-23548193D01*
X95448796Y-23548193D02*
X95663082Y-23469507D01*
X95663082Y-23469507D02*
X95805939Y-23469507D01*
X95805939Y-23469507D02*
X96020225Y-23548193D01*
X96020225Y-23548193D02*
X96091653Y-23626879D01*
X96663082Y-25043222D02*
X96877368Y-25121907D01*
X96877368Y-25121907D02*
X97234510Y-25121907D01*
X97234510Y-25121907D02*
X97377368Y-25043222D01*
X97377368Y-25043222D02*
X97448796Y-24964536D01*
X97448796Y-24964536D02*
X97520225Y-24807164D01*
X97520225Y-24807164D02*
X97520225Y-24649793D01*
X97520225Y-24649793D02*
X97448796Y-24492422D01*
X97448796Y-24492422D02*
X97377368Y-24413736D01*
X97377368Y-24413736D02*
X97234510Y-24335050D01*
X97234510Y-24335050D02*
X96948796Y-24256364D01*
X96948796Y-24256364D02*
X96805939Y-24177679D01*
X96805939Y-24177679D02*
X96734510Y-24098993D01*
X96734510Y-24098993D02*
X96663082Y-23941622D01*
X96663082Y-23941622D02*
X96663082Y-23784250D01*
X96663082Y-23784250D02*
X96734510Y-23626879D01*
X96734510Y-23626879D02*
X96805939Y-23548193D01*
X96805939Y-23548193D02*
X96948796Y-23469507D01*
X96948796Y-23469507D02*
X97305939Y-23469507D01*
X97305939Y-23469507D02*
X97520225Y-23548193D01*
X95234510Y-27782178D02*
X95234510Y-26129778D01*
X95948796Y-27782178D02*
X95948796Y-26129778D01*
X95948796Y-26129778D02*
X96805939Y-27782178D01*
X96805939Y-27782178D02*
X96805939Y-26129778D01*
X97305940Y-26129778D02*
X98163083Y-26129778D01*
X97734511Y-27782178D02*
X97734511Y-26129778D01*
X34999999Y-56514087D02*
X34999999Y-57656944D01*
X35285713Y-57371230D02*
X34999999Y-57656944D01*
X34999999Y-57656944D02*
X34714285Y-57371230D01*
X38571428Y-55599171D02*
X38571428Y-54384885D01*
X38571428Y-54384885D02*
X38499999Y-54242028D01*
X38499999Y-54242028D02*
X38428571Y-54170600D01*
X38428571Y-54170600D02*
X38285713Y-54099171D01*
X38285713Y-54099171D02*
X37999999Y-54099171D01*
X37999999Y-54099171D02*
X37857142Y-54170600D01*
X37857142Y-54170600D02*
X37785713Y-54242028D01*
X37785713Y-54242028D02*
X37714285Y-54384885D01*
X37714285Y-54384885D02*
X37714285Y-55599171D01*
X37071427Y-54170600D02*
X36857142Y-54099171D01*
X36857142Y-54099171D02*
X36499999Y-54099171D01*
X36499999Y-54099171D02*
X36357142Y-54170600D01*
X36357142Y-54170600D02*
X36285713Y-54242028D01*
X36285713Y-54242028D02*
X36214284Y-54384885D01*
X36214284Y-54384885D02*
X36214284Y-54527742D01*
X36214284Y-54527742D02*
X36285713Y-54670600D01*
X36285713Y-54670600D02*
X36357142Y-54742028D01*
X36357142Y-54742028D02*
X36499999Y-54813457D01*
X36499999Y-54813457D02*
X36785713Y-54884885D01*
X36785713Y-54884885D02*
X36928570Y-54956314D01*
X36928570Y-54956314D02*
X36999999Y-55027742D01*
X36999999Y-55027742D02*
X37071427Y-55170600D01*
X37071427Y-55170600D02*
X37071427Y-55313457D01*
X37071427Y-55313457D02*
X36999999Y-55456314D01*
X36999999Y-55456314D02*
X36928570Y-55527742D01*
X36928570Y-55527742D02*
X36785713Y-55599171D01*
X36785713Y-55599171D02*
X36428570Y-55599171D01*
X36428570Y-55599171D02*
X36214284Y-55527742D01*
X35071428Y-54884885D02*
X34857142Y-54813457D01*
X34857142Y-54813457D02*
X34785713Y-54742028D01*
X34785713Y-54742028D02*
X34714285Y-54599171D01*
X34714285Y-54599171D02*
X34714285Y-54384885D01*
X34714285Y-54384885D02*
X34785713Y-54242028D01*
X34785713Y-54242028D02*
X34857142Y-54170600D01*
X34857142Y-54170600D02*
X34999999Y-54099171D01*
X34999999Y-54099171D02*
X35571428Y-54099171D01*
X35571428Y-54099171D02*
X35571428Y-55599171D01*
X35571428Y-55599171D02*
X35071428Y-55599171D01*
X35071428Y-55599171D02*
X34928571Y-55527742D01*
X34928571Y-55527742D02*
X34857142Y-55456314D01*
X34857142Y-55456314D02*
X34785713Y-55313457D01*
X34785713Y-55313457D02*
X34785713Y-55170600D01*
X34785713Y-55170600D02*
X34857142Y-55027742D01*
X34857142Y-55027742D02*
X34928571Y-54956314D01*
X34928571Y-54956314D02*
X35071428Y-54884885D01*
X35071428Y-54884885D02*
X35571428Y-54884885D01*
X34071428Y-54670600D02*
X32928571Y-54670600D01*
X31357142Y-54242028D02*
X31428570Y-54170600D01*
X31428570Y-54170600D02*
X31642856Y-54099171D01*
X31642856Y-54099171D02*
X31785713Y-54099171D01*
X31785713Y-54099171D02*
X31999999Y-54170600D01*
X31999999Y-54170600D02*
X32142856Y-54313457D01*
X32142856Y-54313457D02*
X32214285Y-54456314D01*
X32214285Y-54456314D02*
X32285713Y-54742028D01*
X32285713Y-54742028D02*
X32285713Y-54956314D01*
X32285713Y-54956314D02*
X32214285Y-55242028D01*
X32214285Y-55242028D02*
X32142856Y-55384885D01*
X32142856Y-55384885D02*
X31999999Y-55527742D01*
X31999999Y-55527742D02*
X31785713Y-55599171D01*
X31785713Y-55599171D02*
X31642856Y-55599171D01*
X31642856Y-55599171D02*
X31428570Y-55527742D01*
X31428570Y-55527742D02*
X31357142Y-55456314D01*
X77088347Y-14500010D02*
X76231204Y-14500010D01*
X76659775Y-14500010D02*
X76659775Y-12847610D01*
X76659775Y-12847610D02*
X76516918Y-13083667D01*
X76516918Y-13083667D02*
X76374061Y-13241039D01*
X76374061Y-13241039D02*
X76231204Y-13319725D01*
X78374061Y-13398410D02*
X78374061Y-14500010D01*
X78016918Y-12768925D02*
X77659775Y-13949210D01*
X77659775Y-13949210D02*
X78588346Y-13949210D01*
X77088347Y-17160281D02*
X76231204Y-17160281D01*
X76659775Y-17160281D02*
X76659775Y-15507881D01*
X76659775Y-15507881D02*
X76516918Y-15743938D01*
X76516918Y-15743938D02*
X76374061Y-15901310D01*
X76374061Y-15901310D02*
X76231204Y-15979996D01*
X77588346Y-15507881D02*
X78516918Y-15507881D01*
X78516918Y-15507881D02*
X78016918Y-16137367D01*
X78016918Y-16137367D02*
X78231203Y-16137367D01*
X78231203Y-16137367D02*
X78374061Y-16216053D01*
X78374061Y-16216053D02*
X78445489Y-16294738D01*
X78445489Y-16294738D02*
X78516918Y-16452110D01*
X78516918Y-16452110D02*
X78516918Y-16845538D01*
X78516918Y-16845538D02*
X78445489Y-17002910D01*
X78445489Y-17002910D02*
X78374061Y-17081596D01*
X78374061Y-17081596D02*
X78231203Y-17160281D01*
X78231203Y-17160281D02*
X77802632Y-17160281D01*
X77802632Y-17160281D02*
X77659775Y-17081596D01*
X77659775Y-17081596D02*
X77588346Y-17002910D01*
X77088347Y-19820552D02*
X76231204Y-19820552D01*
X76659775Y-19820552D02*
X76659775Y-18168152D01*
X76659775Y-18168152D02*
X76516918Y-18404209D01*
X76516918Y-18404209D02*
X76374061Y-18561581D01*
X76374061Y-18561581D02*
X76231204Y-18640267D01*
X77659775Y-18325524D02*
X77731203Y-18246838D01*
X77731203Y-18246838D02*
X77874061Y-18168152D01*
X77874061Y-18168152D02*
X78231203Y-18168152D01*
X78231203Y-18168152D02*
X78374061Y-18246838D01*
X78374061Y-18246838D02*
X78445489Y-18325524D01*
X78445489Y-18325524D02*
X78516918Y-18482895D01*
X78516918Y-18482895D02*
X78516918Y-18640267D01*
X78516918Y-18640267D02*
X78445489Y-18876324D01*
X78445489Y-18876324D02*
X77588346Y-19820552D01*
X77588346Y-19820552D02*
X78516918Y-19820552D01*
X77588346Y-20828423D02*
X78516918Y-20828423D01*
X78516918Y-20828423D02*
X78016918Y-21457909D01*
X78016918Y-21457909D02*
X78231203Y-21457909D01*
X78231203Y-21457909D02*
X78374061Y-21536595D01*
X78374061Y-21536595D02*
X78445489Y-21615280D01*
X78445489Y-21615280D02*
X78516918Y-21772652D01*
X78516918Y-21772652D02*
X78516918Y-22166080D01*
X78516918Y-22166080D02*
X78445489Y-22323452D01*
X78445489Y-22323452D02*
X78374061Y-22402138D01*
X78374061Y-22402138D02*
X78231203Y-22480823D01*
X78231203Y-22480823D02*
X77802632Y-22480823D01*
X77802632Y-22480823D02*
X77659775Y-22402138D01*
X77659775Y-22402138D02*
X77588346Y-22323452D01*
X77659775Y-23646066D02*
X77731203Y-23567380D01*
X77731203Y-23567380D02*
X77874061Y-23488694D01*
X77874061Y-23488694D02*
X78231203Y-23488694D01*
X78231203Y-23488694D02*
X78374061Y-23567380D01*
X78374061Y-23567380D02*
X78445489Y-23646066D01*
X78445489Y-23646066D02*
X78516918Y-23803437D01*
X78516918Y-23803437D02*
X78516918Y-23960809D01*
X78516918Y-23960809D02*
X78445489Y-24196866D01*
X78445489Y-24196866D02*
X77588346Y-25141094D01*
X77588346Y-25141094D02*
X78516918Y-25141094D01*
X78516918Y-27801365D02*
X77659775Y-27801365D01*
X78088346Y-27801365D02*
X78088346Y-26148965D01*
X78088346Y-26148965D02*
X77945489Y-26385022D01*
X77945489Y-26385022D02*
X77802632Y-26542394D01*
X77802632Y-26542394D02*
X77659775Y-26621080D01*
X75374060Y-28887922D02*
X75231203Y-28809236D01*
X75231203Y-28809236D02*
X75016917Y-28809236D01*
X75016917Y-28809236D02*
X74802631Y-28887922D01*
X74802631Y-28887922D02*
X74659774Y-29045293D01*
X74659774Y-29045293D02*
X74588345Y-29202665D01*
X74588345Y-29202665D02*
X74516917Y-29517408D01*
X74516917Y-29517408D02*
X74516917Y-29753465D01*
X74516917Y-29753465D02*
X74588345Y-30068208D01*
X74588345Y-30068208D02*
X74659774Y-30225579D01*
X74659774Y-30225579D02*
X74802631Y-30382951D01*
X74802631Y-30382951D02*
X75016917Y-30461636D01*
X75016917Y-30461636D02*
X75159774Y-30461636D01*
X75159774Y-30461636D02*
X75374060Y-30382951D01*
X75374060Y-30382951D02*
X75445488Y-30304265D01*
X75445488Y-30304265D02*
X75445488Y-29753465D01*
X75445488Y-29753465D02*
X75159774Y-29753465D01*
X76088345Y-30461636D02*
X76088345Y-28809236D01*
X76088345Y-28809236D02*
X76945488Y-30461636D01*
X76945488Y-30461636D02*
X76945488Y-28809236D01*
X77659774Y-30461636D02*
X77659774Y-28809236D01*
X77659774Y-28809236D02*
X78016917Y-28809236D01*
X78016917Y-28809236D02*
X78231203Y-28887922D01*
X78231203Y-28887922D02*
X78374060Y-29045293D01*
X78374060Y-29045293D02*
X78445489Y-29202665D01*
X78445489Y-29202665D02*
X78516917Y-29517408D01*
X78516917Y-29517408D02*
X78516917Y-29753465D01*
X78516917Y-29753465D02*
X78445489Y-30068208D01*
X78445489Y-30068208D02*
X78374060Y-30225579D01*
X78374060Y-30225579D02*
X78231203Y-30382951D01*
X78231203Y-30382951D02*
X78016917Y-30461636D01*
X78016917Y-30461636D02*
X77659774Y-30461636D01*
X74874061Y-31469507D02*
X75802633Y-31469507D01*
X75802633Y-31469507D02*
X75302633Y-32098993D01*
X75302633Y-32098993D02*
X75516918Y-32098993D01*
X75516918Y-32098993D02*
X75659776Y-32177679D01*
X75659776Y-32177679D02*
X75731204Y-32256364D01*
X75731204Y-32256364D02*
X75802633Y-32413736D01*
X75802633Y-32413736D02*
X75802633Y-32807164D01*
X75802633Y-32807164D02*
X75731204Y-32964536D01*
X75731204Y-32964536D02*
X75659776Y-33043222D01*
X75659776Y-33043222D02*
X75516918Y-33121907D01*
X75516918Y-33121907D02*
X75088347Y-33121907D01*
X75088347Y-33121907D02*
X74945490Y-33043222D01*
X74945490Y-33043222D02*
X74874061Y-32964536D01*
X76231204Y-31469507D02*
X76731204Y-33121907D01*
X76731204Y-33121907D02*
X77231204Y-31469507D01*
X77588346Y-31469507D02*
X78516918Y-31469507D01*
X78516918Y-31469507D02*
X78016918Y-32098993D01*
X78016918Y-32098993D02*
X78231203Y-32098993D01*
X78231203Y-32098993D02*
X78374061Y-32177679D01*
X78374061Y-32177679D02*
X78445489Y-32256364D01*
X78445489Y-32256364D02*
X78516918Y-32413736D01*
X78516918Y-32413736D02*
X78516918Y-32807164D01*
X78516918Y-32807164D02*
X78445489Y-32964536D01*
X78445489Y-32964536D02*
X78374061Y-33043222D01*
X78374061Y-33043222D02*
X78231203Y-33121907D01*
X78231203Y-33121907D02*
X77802632Y-33121907D01*
X77802632Y-33121907D02*
X77659775Y-33043222D01*
X77659775Y-33043222D02*
X77588346Y-32964536D01*
X77159775Y-34129778D02*
X76445489Y-34129778D01*
X76445489Y-34129778D02*
X76374061Y-34916635D01*
X76374061Y-34916635D02*
X76445489Y-34837950D01*
X76445489Y-34837950D02*
X76588347Y-34759264D01*
X76588347Y-34759264D02*
X76945489Y-34759264D01*
X76945489Y-34759264D02*
X77088347Y-34837950D01*
X77088347Y-34837950D02*
X77159775Y-34916635D01*
X77159775Y-34916635D02*
X77231204Y-35074007D01*
X77231204Y-35074007D02*
X77231204Y-35467435D01*
X77231204Y-35467435D02*
X77159775Y-35624807D01*
X77159775Y-35624807D02*
X77088347Y-35703493D01*
X77088347Y-35703493D02*
X76945489Y-35782178D01*
X76945489Y-35782178D02*
X76588347Y-35782178D01*
X76588347Y-35782178D02*
X76445489Y-35703493D01*
X76445489Y-35703493D02*
X76374061Y-35624807D01*
X77659775Y-34129778D02*
X78159775Y-35782178D01*
X78159775Y-35782178D02*
X78659775Y-34129778D01*
X97340225Y-45507881D02*
X97840225Y-47160281D01*
X97840225Y-47160281D02*
X98340225Y-45507881D01*
X99697367Y-47002910D02*
X99625939Y-47081596D01*
X99625939Y-47081596D02*
X99411653Y-47160281D01*
X99411653Y-47160281D02*
X99268796Y-47160281D01*
X99268796Y-47160281D02*
X99054510Y-47081596D01*
X99054510Y-47081596D02*
X98911653Y-46924224D01*
X98911653Y-46924224D02*
X98840224Y-46766853D01*
X98840224Y-46766853D02*
X98768796Y-46452110D01*
X98768796Y-46452110D02*
X98768796Y-46216053D01*
X98768796Y-46216053D02*
X98840224Y-45901310D01*
X98840224Y-45901310D02*
X98911653Y-45743938D01*
X98911653Y-45743938D02*
X99054510Y-45586567D01*
X99054510Y-45586567D02*
X99268796Y-45507881D01*
X99268796Y-45507881D02*
X99411653Y-45507881D01*
X99411653Y-45507881D02*
X99625939Y-45586567D01*
X99625939Y-45586567D02*
X99697367Y-45665253D01*
X101197367Y-47002910D02*
X101125939Y-47081596D01*
X101125939Y-47081596D02*
X100911653Y-47160281D01*
X100911653Y-47160281D02*
X100768796Y-47160281D01*
X100768796Y-47160281D02*
X100554510Y-47081596D01*
X100554510Y-47081596D02*
X100411653Y-46924224D01*
X100411653Y-46924224D02*
X100340224Y-46766853D01*
X100340224Y-46766853D02*
X100268796Y-46452110D01*
X100268796Y-46452110D02*
X100268796Y-46216053D01*
X100268796Y-46216053D02*
X100340224Y-45901310D01*
X100340224Y-45901310D02*
X100411653Y-45743938D01*
X100411653Y-45743938D02*
X100554510Y-45586567D01*
X100554510Y-45586567D02*
X100768796Y-45507881D01*
X100768796Y-45507881D02*
X100911653Y-45507881D01*
X100911653Y-45507881D02*
X101125939Y-45586567D01*
X101125939Y-45586567D02*
X101197367Y-45665253D01*
X98340225Y-48246838D02*
X98197368Y-48168152D01*
X98197368Y-48168152D02*
X97983082Y-48168152D01*
X97983082Y-48168152D02*
X97768796Y-48246838D01*
X97768796Y-48246838D02*
X97625939Y-48404209D01*
X97625939Y-48404209D02*
X97554510Y-48561581D01*
X97554510Y-48561581D02*
X97483082Y-48876324D01*
X97483082Y-48876324D02*
X97483082Y-49112381D01*
X97483082Y-49112381D02*
X97554510Y-49427124D01*
X97554510Y-49427124D02*
X97625939Y-49584495D01*
X97625939Y-49584495D02*
X97768796Y-49741867D01*
X97768796Y-49741867D02*
X97983082Y-49820552D01*
X97983082Y-49820552D02*
X98125939Y-49820552D01*
X98125939Y-49820552D02*
X98340225Y-49741867D01*
X98340225Y-49741867D02*
X98411653Y-49663181D01*
X98411653Y-49663181D02*
X98411653Y-49112381D01*
X98411653Y-49112381D02*
X98125939Y-49112381D01*
X99054510Y-49820552D02*
X99054510Y-48168152D01*
X99054510Y-48168152D02*
X99911653Y-49820552D01*
X99911653Y-49820552D02*
X99911653Y-48168152D01*
X100625939Y-49820552D02*
X100625939Y-48168152D01*
X100625939Y-48168152D02*
X100983082Y-48168152D01*
X100983082Y-48168152D02*
X101197368Y-48246838D01*
X101197368Y-48246838D02*
X101340225Y-48404209D01*
X101340225Y-48404209D02*
X101411654Y-48561581D01*
X101411654Y-48561581D02*
X101483082Y-48876324D01*
X101483082Y-48876324D02*
X101483082Y-49112381D01*
X101483082Y-49112381D02*
X101411654Y-49427124D01*
X101411654Y-49427124D02*
X101340225Y-49584495D01*
X101340225Y-49584495D02*
X101197368Y-49741867D01*
X101197368Y-49741867D02*
X100983082Y-49820552D01*
X100983082Y-49820552D02*
X100625939Y-49820552D01*
X97554510Y-52480823D02*
X97554510Y-50828423D01*
X97554510Y-50828423D02*
X97911653Y-50828423D01*
X97911653Y-50828423D02*
X98125939Y-50907109D01*
X98125939Y-50907109D02*
X98268796Y-51064480D01*
X98268796Y-51064480D02*
X98340225Y-51221852D01*
X98340225Y-51221852D02*
X98411653Y-51536595D01*
X98411653Y-51536595D02*
X98411653Y-51772652D01*
X98411653Y-51772652D02*
X98340225Y-52087395D01*
X98340225Y-52087395D02*
X98268796Y-52244766D01*
X98268796Y-52244766D02*
X98125939Y-52402138D01*
X98125939Y-52402138D02*
X97911653Y-52480823D01*
X97911653Y-52480823D02*
X97554510Y-52480823D01*
X99054510Y-52480823D02*
X99054510Y-50828423D01*
X99768796Y-52480823D02*
X99768796Y-50828423D01*
X99768796Y-50828423D02*
X100625939Y-52480823D01*
X100625939Y-52480823D02*
X100625939Y-50828423D01*
X98411653Y-54983723D02*
X98340225Y-55062409D01*
X98340225Y-55062409D02*
X98125939Y-55141094D01*
X98125939Y-55141094D02*
X97983082Y-55141094D01*
X97983082Y-55141094D02*
X97768796Y-55062409D01*
X97768796Y-55062409D02*
X97625939Y-54905037D01*
X97625939Y-54905037D02*
X97554510Y-54747666D01*
X97554510Y-54747666D02*
X97483082Y-54432923D01*
X97483082Y-54432923D02*
X97483082Y-54196866D01*
X97483082Y-54196866D02*
X97554510Y-53882123D01*
X97554510Y-53882123D02*
X97625939Y-53724751D01*
X97625939Y-53724751D02*
X97768796Y-53567380D01*
X97768796Y-53567380D02*
X97983082Y-53488694D01*
X97983082Y-53488694D02*
X98125939Y-53488694D01*
X98125939Y-53488694D02*
X98340225Y-53567380D01*
X98340225Y-53567380D02*
X98411653Y-53646066D01*
X99768796Y-55141094D02*
X99054510Y-55141094D01*
X99054510Y-55141094D02*
X99054510Y-53488694D01*
X100268796Y-55141094D02*
X100268796Y-53488694D01*
X101125939Y-55141094D02*
X100483082Y-54196866D01*
X101125939Y-53488694D02*
X100268796Y-54432923D01*
X98411653Y-57643994D02*
X98340225Y-57722680D01*
X98340225Y-57722680D02*
X98125939Y-57801365D01*
X98125939Y-57801365D02*
X97983082Y-57801365D01*
X97983082Y-57801365D02*
X97768796Y-57722680D01*
X97768796Y-57722680D02*
X97625939Y-57565308D01*
X97625939Y-57565308D02*
X97554510Y-57407937D01*
X97554510Y-57407937D02*
X97483082Y-57093194D01*
X97483082Y-57093194D02*
X97483082Y-56857137D01*
X97483082Y-56857137D02*
X97554510Y-56542394D01*
X97554510Y-56542394D02*
X97625939Y-56385022D01*
X97625939Y-56385022D02*
X97768796Y-56227651D01*
X97768796Y-56227651D02*
X97983082Y-56148965D01*
X97983082Y-56148965D02*
X98125939Y-56148965D01*
X98125939Y-56148965D02*
X98340225Y-56227651D01*
X98340225Y-56227651D02*
X98411653Y-56306337D01*
X98983082Y-57722680D02*
X99197368Y-57801365D01*
X99197368Y-57801365D02*
X99554510Y-57801365D01*
X99554510Y-57801365D02*
X99697368Y-57722680D01*
X99697368Y-57722680D02*
X99768796Y-57643994D01*
X99768796Y-57643994D02*
X99840225Y-57486622D01*
X99840225Y-57486622D02*
X99840225Y-57329251D01*
X99840225Y-57329251D02*
X99768796Y-57171880D01*
X99768796Y-57171880D02*
X99697368Y-57093194D01*
X99697368Y-57093194D02*
X99554510Y-57014508D01*
X99554510Y-57014508D02*
X99268796Y-56935822D01*
X99268796Y-56935822D02*
X99125939Y-56857137D01*
X99125939Y-56857137D02*
X99054510Y-56778451D01*
X99054510Y-56778451D02*
X98983082Y-56621080D01*
X98983082Y-56621080D02*
X98983082Y-56463708D01*
X98983082Y-56463708D02*
X99054510Y-56306337D01*
X99054510Y-56306337D02*
X99125939Y-56227651D01*
X99125939Y-56227651D02*
X99268796Y-56148965D01*
X99268796Y-56148965D02*
X99625939Y-56148965D01*
X99625939Y-56148965D02*
X99840225Y-56227651D01*
X97554510Y-60461636D02*
X97554510Y-58809236D01*
X97554510Y-58809236D02*
X97911653Y-58809236D01*
X97911653Y-58809236D02*
X98125939Y-58887922D01*
X98125939Y-58887922D02*
X98268796Y-59045293D01*
X98268796Y-59045293D02*
X98340225Y-59202665D01*
X98340225Y-59202665D02*
X98411653Y-59517408D01*
X98411653Y-59517408D02*
X98411653Y-59753465D01*
X98411653Y-59753465D02*
X98340225Y-60068208D01*
X98340225Y-60068208D02*
X98268796Y-60225579D01*
X98268796Y-60225579D02*
X98125939Y-60382951D01*
X98125939Y-60382951D02*
X97911653Y-60461636D01*
X97911653Y-60461636D02*
X97554510Y-60461636D01*
X99911653Y-60304265D02*
X99840225Y-60382951D01*
X99840225Y-60382951D02*
X99625939Y-60461636D01*
X99625939Y-60461636D02*
X99483082Y-60461636D01*
X99483082Y-60461636D02*
X99268796Y-60382951D01*
X99268796Y-60382951D02*
X99125939Y-60225579D01*
X99125939Y-60225579D02*
X99054510Y-60068208D01*
X99054510Y-60068208D02*
X98983082Y-59753465D01*
X98983082Y-59753465D02*
X98983082Y-59517408D01*
X98983082Y-59517408D02*
X99054510Y-59202665D01*
X99054510Y-59202665D02*
X99125939Y-59045293D01*
X99125939Y-59045293D02*
X99268796Y-58887922D01*
X99268796Y-58887922D02*
X99483082Y-58809236D01*
X99483082Y-58809236D02*
X99625939Y-58809236D01*
X99625939Y-58809236D02*
X99840225Y-58887922D01*
X99840225Y-58887922D02*
X99911653Y-58966608D01*
X98411653Y-63121907D02*
X97911653Y-62335050D01*
X97554510Y-63121907D02*
X97554510Y-61469507D01*
X97554510Y-61469507D02*
X98125939Y-61469507D01*
X98125939Y-61469507D02*
X98268796Y-61548193D01*
X98268796Y-61548193D02*
X98340225Y-61626879D01*
X98340225Y-61626879D02*
X98411653Y-61784250D01*
X98411653Y-61784250D02*
X98411653Y-62020307D01*
X98411653Y-62020307D02*
X98340225Y-62177679D01*
X98340225Y-62177679D02*
X98268796Y-62256364D01*
X98268796Y-62256364D02*
X98125939Y-62335050D01*
X98125939Y-62335050D02*
X97554510Y-62335050D01*
X98983082Y-63043222D02*
X99197368Y-63121907D01*
X99197368Y-63121907D02*
X99554510Y-63121907D01*
X99554510Y-63121907D02*
X99697368Y-63043222D01*
X99697368Y-63043222D02*
X99768796Y-62964536D01*
X99768796Y-62964536D02*
X99840225Y-62807164D01*
X99840225Y-62807164D02*
X99840225Y-62649793D01*
X99840225Y-62649793D02*
X99768796Y-62492422D01*
X99768796Y-62492422D02*
X99697368Y-62413736D01*
X99697368Y-62413736D02*
X99554510Y-62335050D01*
X99554510Y-62335050D02*
X99268796Y-62256364D01*
X99268796Y-62256364D02*
X99125939Y-62177679D01*
X99125939Y-62177679D02*
X99054510Y-62098993D01*
X99054510Y-62098993D02*
X98983082Y-61941622D01*
X98983082Y-61941622D02*
X98983082Y-61784250D01*
X98983082Y-61784250D02*
X99054510Y-61626879D01*
X99054510Y-61626879D02*
X99125939Y-61548193D01*
X99125939Y-61548193D02*
X99268796Y-61469507D01*
X99268796Y-61469507D02*
X99625939Y-61469507D01*
X99625939Y-61469507D02*
X99840225Y-61548193D01*
X100268796Y-61469507D02*
X101125939Y-61469507D01*
X100697367Y-63121907D02*
X100697367Y-61469507D01*
X98054510Y-64916635D02*
X98268796Y-64995321D01*
X98268796Y-64995321D02*
X98340225Y-65074007D01*
X98340225Y-65074007D02*
X98411653Y-65231378D01*
X98411653Y-65231378D02*
X98411653Y-65467435D01*
X98411653Y-65467435D02*
X98340225Y-65624807D01*
X98340225Y-65624807D02*
X98268796Y-65703493D01*
X98268796Y-65703493D02*
X98125939Y-65782178D01*
X98125939Y-65782178D02*
X97554510Y-65782178D01*
X97554510Y-65782178D02*
X97554510Y-64129778D01*
X97554510Y-64129778D02*
X98054510Y-64129778D01*
X98054510Y-64129778D02*
X98197368Y-64208464D01*
X98197368Y-64208464D02*
X98268796Y-64287150D01*
X98268796Y-64287150D02*
X98340225Y-64444521D01*
X98340225Y-64444521D02*
X98340225Y-64601893D01*
X98340225Y-64601893D02*
X98268796Y-64759264D01*
X98268796Y-64759264D02*
X98197368Y-64837950D01*
X98197368Y-64837950D02*
X98054510Y-64916635D01*
X98054510Y-64916635D02*
X97554510Y-64916635D01*
X99768796Y-65782178D02*
X99054510Y-65782178D01*
X99054510Y-65782178D02*
X99054510Y-64129778D01*
X27340225Y-12898120D02*
X27840225Y-14498120D01*
X27840225Y-14498120D02*
X28340225Y-12898120D01*
X28840224Y-14498120D02*
X28840224Y-12898120D01*
X28840224Y-13507644D02*
X28983082Y-13431453D01*
X28983082Y-13431453D02*
X29268796Y-13431453D01*
X29268796Y-13431453D02*
X29411653Y-13507644D01*
X29411653Y-13507644D02*
X29483082Y-13583834D01*
X29483082Y-13583834D02*
X29554510Y-13736215D01*
X29554510Y-13736215D02*
X29554510Y-14193358D01*
X29554510Y-14193358D02*
X29483082Y-14345739D01*
X29483082Y-14345739D02*
X29411653Y-14421930D01*
X29411653Y-14421930D02*
X29268796Y-14498120D01*
X29268796Y-14498120D02*
X28983082Y-14498120D01*
X28983082Y-14498120D02*
X28840224Y-14421930D01*
X30840225Y-13431453D02*
X30840225Y-14498120D01*
X30197367Y-13431453D02*
X30197367Y-14269549D01*
X30197367Y-14269549D02*
X30268796Y-14421930D01*
X30268796Y-14421930D02*
X30411653Y-14498120D01*
X30411653Y-14498120D02*
X30625939Y-14498120D01*
X30625939Y-14498120D02*
X30768796Y-14421930D01*
X30768796Y-14421930D02*
X30840225Y-14345739D01*
X31483082Y-14421930D02*
X31625939Y-14498120D01*
X31625939Y-14498120D02*
X31911653Y-14498120D01*
X31911653Y-14498120D02*
X32054510Y-14421930D01*
X32054510Y-14421930D02*
X32125939Y-14269549D01*
X32125939Y-14269549D02*
X32125939Y-14193358D01*
X32125939Y-14193358D02*
X32054510Y-14040977D01*
X32054510Y-14040977D02*
X31911653Y-13964787D01*
X31911653Y-13964787D02*
X31697368Y-13964787D01*
X31697368Y-13964787D02*
X31554510Y-13888596D01*
X31554510Y-13888596D02*
X31483082Y-13736215D01*
X31483082Y-13736215D02*
X31483082Y-13660025D01*
X31483082Y-13660025D02*
X31554510Y-13507644D01*
X31554510Y-13507644D02*
X31697368Y-13431453D01*
X31697368Y-13431453D02*
X31911653Y-13431453D01*
X31911653Y-13431453D02*
X32054510Y-13507644D01*
X27340225Y-15474030D02*
X27840225Y-17074030D01*
X27840225Y-17074030D02*
X28340225Y-15474030D01*
X28768796Y-16997840D02*
X28911653Y-17074030D01*
X28911653Y-17074030D02*
X29197367Y-17074030D01*
X29197367Y-17074030D02*
X29340224Y-16997840D01*
X29340224Y-16997840D02*
X29411653Y-16845459D01*
X29411653Y-16845459D02*
X29411653Y-16769268D01*
X29411653Y-16769268D02*
X29340224Y-16616887D01*
X29340224Y-16616887D02*
X29197367Y-16540697D01*
X29197367Y-16540697D02*
X28983082Y-16540697D01*
X28983082Y-16540697D02*
X28840224Y-16464506D01*
X28840224Y-16464506D02*
X28768796Y-16312125D01*
X28768796Y-16312125D02*
X28768796Y-16235935D01*
X28768796Y-16235935D02*
X28840224Y-16083554D01*
X28840224Y-16083554D02*
X28983082Y-16007363D01*
X28983082Y-16007363D02*
X29197367Y-16007363D01*
X29197367Y-16007363D02*
X29340224Y-16083554D01*
X29911653Y-16007363D02*
X30268796Y-17074030D01*
X30625939Y-16007363D02*
X30268796Y-17074030D01*
X30268796Y-17074030D02*
X30125939Y-17454982D01*
X30125939Y-17454982D02*
X30054510Y-17531173D01*
X30054510Y-17531173D02*
X29911653Y-17607363D01*
X31125939Y-16997840D02*
X31268796Y-17074030D01*
X31268796Y-17074030D02*
X31554510Y-17074030D01*
X31554510Y-17074030D02*
X31697367Y-16997840D01*
X31697367Y-16997840D02*
X31768796Y-16845459D01*
X31768796Y-16845459D02*
X31768796Y-16769268D01*
X31768796Y-16769268D02*
X31697367Y-16616887D01*
X31697367Y-16616887D02*
X31554510Y-16540697D01*
X31554510Y-16540697D02*
X31340225Y-16540697D01*
X31340225Y-16540697D02*
X31197367Y-16464506D01*
X31197367Y-16464506D02*
X31125939Y-16312125D01*
X31125939Y-16312125D02*
X31125939Y-16235935D01*
X31125939Y-16235935D02*
X31197367Y-16083554D01*
X31197367Y-16083554D02*
X31340225Y-16007363D01*
X31340225Y-16007363D02*
X31554510Y-16007363D01*
X31554510Y-16007363D02*
X31697367Y-16083554D01*
X28340225Y-18126130D02*
X28197368Y-18049940D01*
X28197368Y-18049940D02*
X27983082Y-18049940D01*
X27983082Y-18049940D02*
X27768796Y-18126130D01*
X27768796Y-18126130D02*
X27625939Y-18278511D01*
X27625939Y-18278511D02*
X27554510Y-18430892D01*
X27554510Y-18430892D02*
X27483082Y-18735654D01*
X27483082Y-18735654D02*
X27483082Y-18964226D01*
X27483082Y-18964226D02*
X27554510Y-19268988D01*
X27554510Y-19268988D02*
X27625939Y-19421369D01*
X27625939Y-19421369D02*
X27768796Y-19573750D01*
X27768796Y-19573750D02*
X27983082Y-19649940D01*
X27983082Y-19649940D02*
X28125939Y-19649940D01*
X28125939Y-19649940D02*
X28340225Y-19573750D01*
X28340225Y-19573750D02*
X28411653Y-19497559D01*
X28411653Y-19497559D02*
X28411653Y-18964226D01*
X28411653Y-18964226D02*
X28125939Y-18964226D01*
X29054510Y-19649940D02*
X29054510Y-18049940D01*
X29054510Y-18049940D02*
X29911653Y-19649940D01*
X29911653Y-19649940D02*
X29911653Y-18049940D01*
X30625939Y-19649940D02*
X30625939Y-18049940D01*
X30625939Y-18049940D02*
X30983082Y-18049940D01*
X30983082Y-18049940D02*
X31197368Y-18126130D01*
X31197368Y-18126130D02*
X31340225Y-18278511D01*
X31340225Y-18278511D02*
X31411654Y-18430892D01*
X31411654Y-18430892D02*
X31483082Y-18735654D01*
X31483082Y-18735654D02*
X31483082Y-18964226D01*
X31483082Y-18964226D02*
X31411654Y-19268988D01*
X31411654Y-19268988D02*
X31340225Y-19421369D01*
X31340225Y-19421369D02*
X31197368Y-19573750D01*
X31197368Y-19573750D02*
X30983082Y-19649940D01*
X30983082Y-19649940D02*
X30625939Y-19649940D01*
X27411653Y-20625850D02*
X28340225Y-20625850D01*
X28340225Y-20625850D02*
X27840225Y-21235374D01*
X27840225Y-21235374D02*
X28054510Y-21235374D01*
X28054510Y-21235374D02*
X28197368Y-21311564D01*
X28197368Y-21311564D02*
X28268796Y-21387755D01*
X28268796Y-21387755D02*
X28340225Y-21540136D01*
X28340225Y-21540136D02*
X28340225Y-21921088D01*
X28340225Y-21921088D02*
X28268796Y-22073469D01*
X28268796Y-22073469D02*
X28197368Y-22149660D01*
X28197368Y-22149660D02*
X28054510Y-22225850D01*
X28054510Y-22225850D02*
X27625939Y-22225850D01*
X27625939Y-22225850D02*
X27483082Y-22149660D01*
X27483082Y-22149660D02*
X27411653Y-22073469D01*
X28768796Y-20625850D02*
X29268796Y-22225850D01*
X29268796Y-22225850D02*
X29768796Y-20625850D01*
X30125938Y-20625850D02*
X31054510Y-20625850D01*
X31054510Y-20625850D02*
X30554510Y-21235374D01*
X30554510Y-21235374D02*
X30768795Y-21235374D01*
X30768795Y-21235374D02*
X30911653Y-21311564D01*
X30911653Y-21311564D02*
X30983081Y-21387755D01*
X30983081Y-21387755D02*
X31054510Y-21540136D01*
X31054510Y-21540136D02*
X31054510Y-21921088D01*
X31054510Y-21921088D02*
X30983081Y-22073469D01*
X30983081Y-22073469D02*
X30911653Y-22149660D01*
X30911653Y-22149660D02*
X30768795Y-22225850D01*
X30768795Y-22225850D02*
X30340224Y-22225850D01*
X30340224Y-22225850D02*
X30197367Y-22149660D01*
X30197367Y-22149660D02*
X30125938Y-22073469D01*
X31340224Y-22378231D02*
X32483081Y-22378231D01*
X32840223Y-21387755D02*
X33340223Y-21387755D01*
X33554509Y-22225850D02*
X32840223Y-22225850D01*
X32840223Y-22225850D02*
X32840223Y-20625850D01*
X32840223Y-20625850D02*
X33554509Y-20625850D01*
X34197366Y-22225850D02*
X34197366Y-20625850D01*
X34197366Y-20625850D02*
X35054509Y-22225850D01*
X35054509Y-22225850D02*
X35054509Y-20625850D01*
X27411653Y-23201760D02*
X28340225Y-23201760D01*
X28340225Y-23201760D02*
X27840225Y-23811284D01*
X27840225Y-23811284D02*
X28054510Y-23811284D01*
X28054510Y-23811284D02*
X28197368Y-23887474D01*
X28197368Y-23887474D02*
X28268796Y-23963665D01*
X28268796Y-23963665D02*
X28340225Y-24116046D01*
X28340225Y-24116046D02*
X28340225Y-24496998D01*
X28340225Y-24496998D02*
X28268796Y-24649379D01*
X28268796Y-24649379D02*
X28197368Y-24725570D01*
X28197368Y-24725570D02*
X28054510Y-24801760D01*
X28054510Y-24801760D02*
X27625939Y-24801760D01*
X27625939Y-24801760D02*
X27483082Y-24725570D01*
X27483082Y-24725570D02*
X27411653Y-24649379D01*
X28768796Y-23201760D02*
X29268796Y-24801760D01*
X29268796Y-24801760D02*
X29768796Y-23201760D01*
X30125938Y-23201760D02*
X31054510Y-23201760D01*
X31054510Y-23201760D02*
X30554510Y-23811284D01*
X30554510Y-23811284D02*
X30768795Y-23811284D01*
X30768795Y-23811284D02*
X30911653Y-23887474D01*
X30911653Y-23887474D02*
X30983081Y-23963665D01*
X30983081Y-23963665D02*
X31054510Y-24116046D01*
X31054510Y-24116046D02*
X31054510Y-24496998D01*
X31054510Y-24496998D02*
X30983081Y-24649379D01*
X30983081Y-24649379D02*
X30911653Y-24725570D01*
X30911653Y-24725570D02*
X30768795Y-24801760D01*
X30768795Y-24801760D02*
X30340224Y-24801760D01*
X30340224Y-24801760D02*
X30197367Y-24725570D01*
X30197367Y-24725570D02*
X30125938Y-24649379D01*
X28340225Y-27377670D02*
X27483082Y-27377670D01*
X27911653Y-27377670D02*
X27911653Y-25777670D01*
X27911653Y-25777670D02*
X27768796Y-26006241D01*
X27768796Y-26006241D02*
X27625939Y-26158622D01*
X27625939Y-26158622D02*
X27483082Y-26234813D01*
X29268796Y-25777670D02*
X29411653Y-25777670D01*
X29411653Y-25777670D02*
X29554510Y-25853860D01*
X29554510Y-25853860D02*
X29625939Y-25930051D01*
X29625939Y-25930051D02*
X29697367Y-26082432D01*
X29697367Y-26082432D02*
X29768796Y-26387194D01*
X29768796Y-26387194D02*
X29768796Y-26768146D01*
X29768796Y-26768146D02*
X29697367Y-27072908D01*
X29697367Y-27072908D02*
X29625939Y-27225289D01*
X29625939Y-27225289D02*
X29554510Y-27301480D01*
X29554510Y-27301480D02*
X29411653Y-27377670D01*
X29411653Y-27377670D02*
X29268796Y-27377670D01*
X29268796Y-27377670D02*
X29125939Y-27301480D01*
X29125939Y-27301480D02*
X29054510Y-27225289D01*
X29054510Y-27225289D02*
X28983081Y-27072908D01*
X28983081Y-27072908D02*
X28911653Y-26768146D01*
X28911653Y-26768146D02*
X28911653Y-26387194D01*
X28911653Y-26387194D02*
X28983081Y-26082432D01*
X28983081Y-26082432D02*
X29054510Y-25930051D01*
X29054510Y-25930051D02*
X29125939Y-25853860D01*
X29125939Y-25853860D02*
X29268796Y-25777670D01*
X27625939Y-29953580D02*
X27911653Y-29953580D01*
X27911653Y-29953580D02*
X28054510Y-29877390D01*
X28054510Y-29877390D02*
X28125939Y-29801199D01*
X28125939Y-29801199D02*
X28268796Y-29572628D01*
X28268796Y-29572628D02*
X28340225Y-29267866D01*
X28340225Y-29267866D02*
X28340225Y-28658342D01*
X28340225Y-28658342D02*
X28268796Y-28505961D01*
X28268796Y-28505961D02*
X28197368Y-28429770D01*
X28197368Y-28429770D02*
X28054510Y-28353580D01*
X28054510Y-28353580D02*
X27768796Y-28353580D01*
X27768796Y-28353580D02*
X27625939Y-28429770D01*
X27625939Y-28429770D02*
X27554510Y-28505961D01*
X27554510Y-28505961D02*
X27483082Y-28658342D01*
X27483082Y-28658342D02*
X27483082Y-29039294D01*
X27483082Y-29039294D02*
X27554510Y-29191675D01*
X27554510Y-29191675D02*
X27625939Y-29267866D01*
X27625939Y-29267866D02*
X27768796Y-29344056D01*
X27768796Y-29344056D02*
X28054510Y-29344056D01*
X28054510Y-29344056D02*
X28197368Y-29267866D01*
X28197368Y-29267866D02*
X28268796Y-29191675D01*
X28268796Y-29191675D02*
X28340225Y-29039294D01*
X28340225Y-31005680D02*
X28197368Y-30929490D01*
X28197368Y-30929490D02*
X27983082Y-30929490D01*
X27983082Y-30929490D02*
X27768796Y-31005680D01*
X27768796Y-31005680D02*
X27625939Y-31158061D01*
X27625939Y-31158061D02*
X27554510Y-31310442D01*
X27554510Y-31310442D02*
X27483082Y-31615204D01*
X27483082Y-31615204D02*
X27483082Y-31843776D01*
X27483082Y-31843776D02*
X27554510Y-32148538D01*
X27554510Y-32148538D02*
X27625939Y-32300919D01*
X27625939Y-32300919D02*
X27768796Y-32453300D01*
X27768796Y-32453300D02*
X27983082Y-32529490D01*
X27983082Y-32529490D02*
X28125939Y-32529490D01*
X28125939Y-32529490D02*
X28340225Y-32453300D01*
X28340225Y-32453300D02*
X28411653Y-32377109D01*
X28411653Y-32377109D02*
X28411653Y-31843776D01*
X28411653Y-31843776D02*
X28125939Y-31843776D01*
X29054510Y-32529490D02*
X29054510Y-30929490D01*
X29054510Y-30929490D02*
X29911653Y-32529490D01*
X29911653Y-32529490D02*
X29911653Y-30929490D01*
X30625939Y-32529490D02*
X30625939Y-30929490D01*
X30625939Y-30929490D02*
X30983082Y-30929490D01*
X30983082Y-30929490D02*
X31197368Y-31005680D01*
X31197368Y-31005680D02*
X31340225Y-31158061D01*
X31340225Y-31158061D02*
X31411654Y-31310442D01*
X31411654Y-31310442D02*
X31483082Y-31615204D01*
X31483082Y-31615204D02*
X31483082Y-31843776D01*
X31483082Y-31843776D02*
X31411654Y-32148538D01*
X31411654Y-32148538D02*
X31340225Y-32300919D01*
X31340225Y-32300919D02*
X31197368Y-32453300D01*
X31197368Y-32453300D02*
X30983082Y-32529490D01*
X30983082Y-32529490D02*
X30625939Y-32529490D01*
X27768796Y-34191114D02*
X27625939Y-34114924D01*
X27625939Y-34114924D02*
X27554510Y-34038733D01*
X27554510Y-34038733D02*
X27483082Y-33886352D01*
X27483082Y-33886352D02*
X27483082Y-33810162D01*
X27483082Y-33810162D02*
X27554510Y-33657781D01*
X27554510Y-33657781D02*
X27625939Y-33581590D01*
X27625939Y-33581590D02*
X27768796Y-33505400D01*
X27768796Y-33505400D02*
X28054510Y-33505400D01*
X28054510Y-33505400D02*
X28197368Y-33581590D01*
X28197368Y-33581590D02*
X28268796Y-33657781D01*
X28268796Y-33657781D02*
X28340225Y-33810162D01*
X28340225Y-33810162D02*
X28340225Y-33886352D01*
X28340225Y-33886352D02*
X28268796Y-34038733D01*
X28268796Y-34038733D02*
X28197368Y-34114924D01*
X28197368Y-34114924D02*
X28054510Y-34191114D01*
X28054510Y-34191114D02*
X27768796Y-34191114D01*
X27768796Y-34191114D02*
X27625939Y-34267305D01*
X27625939Y-34267305D02*
X27554510Y-34343495D01*
X27554510Y-34343495D02*
X27483082Y-34495876D01*
X27483082Y-34495876D02*
X27483082Y-34800638D01*
X27483082Y-34800638D02*
X27554510Y-34953019D01*
X27554510Y-34953019D02*
X27625939Y-35029210D01*
X27625939Y-35029210D02*
X27768796Y-35105400D01*
X27768796Y-35105400D02*
X28054510Y-35105400D01*
X28054510Y-35105400D02*
X28197368Y-35029210D01*
X28197368Y-35029210D02*
X28268796Y-34953019D01*
X28268796Y-34953019D02*
X28340225Y-34800638D01*
X28340225Y-34800638D02*
X28340225Y-34495876D01*
X28340225Y-34495876D02*
X28268796Y-34343495D01*
X28268796Y-34343495D02*
X28197368Y-34267305D01*
X28197368Y-34267305D02*
X28054510Y-34191114D01*
X27411653Y-36081310D02*
X28411653Y-36081310D01*
X28411653Y-36081310D02*
X27768796Y-37681310D01*
X28411653Y-40257220D02*
X27911653Y-39495315D01*
X27554510Y-40257220D02*
X27554510Y-38657220D01*
X27554510Y-38657220D02*
X28125939Y-38657220D01*
X28125939Y-38657220D02*
X28268796Y-38733410D01*
X28268796Y-38733410D02*
X28340225Y-38809601D01*
X28340225Y-38809601D02*
X28411653Y-38961982D01*
X28411653Y-38961982D02*
X28411653Y-39190553D01*
X28411653Y-39190553D02*
X28340225Y-39342934D01*
X28340225Y-39342934D02*
X28268796Y-39419125D01*
X28268796Y-39419125D02*
X28125939Y-39495315D01*
X28125939Y-39495315D02*
X27554510Y-39495315D01*
X29054510Y-38657220D02*
X29054510Y-39952458D01*
X29054510Y-39952458D02*
X29125939Y-40104839D01*
X29125939Y-40104839D02*
X29197368Y-40181030D01*
X29197368Y-40181030D02*
X29340225Y-40257220D01*
X29340225Y-40257220D02*
X29625939Y-40257220D01*
X29625939Y-40257220D02*
X29768796Y-40181030D01*
X29768796Y-40181030D02*
X29840225Y-40104839D01*
X29840225Y-40104839D02*
X29911653Y-39952458D01*
X29911653Y-39952458D02*
X29911653Y-38657220D01*
X30625939Y-40257220D02*
X30625939Y-38657220D01*
X30625939Y-38657220D02*
X31483082Y-40257220D01*
X31483082Y-40257220D02*
X31483082Y-38657220D01*
X28197368Y-41233130D02*
X27911653Y-41233130D01*
X27911653Y-41233130D02*
X27768796Y-41309320D01*
X27768796Y-41309320D02*
X27697368Y-41385511D01*
X27697368Y-41385511D02*
X27554510Y-41614082D01*
X27554510Y-41614082D02*
X27483082Y-41918844D01*
X27483082Y-41918844D02*
X27483082Y-42528368D01*
X27483082Y-42528368D02*
X27554510Y-42680749D01*
X27554510Y-42680749D02*
X27625939Y-42756940D01*
X27625939Y-42756940D02*
X27768796Y-42833130D01*
X27768796Y-42833130D02*
X28054510Y-42833130D01*
X28054510Y-42833130D02*
X28197368Y-42756940D01*
X28197368Y-42756940D02*
X28268796Y-42680749D01*
X28268796Y-42680749D02*
X28340225Y-42528368D01*
X28340225Y-42528368D02*
X28340225Y-42147416D01*
X28340225Y-42147416D02*
X28268796Y-41995035D01*
X28268796Y-41995035D02*
X28197368Y-41918844D01*
X28197368Y-41918844D02*
X28054510Y-41842654D01*
X28054510Y-41842654D02*
X27768796Y-41842654D01*
X27768796Y-41842654D02*
X27625939Y-41918844D01*
X27625939Y-41918844D02*
X27554510Y-41995035D01*
X27554510Y-41995035D02*
X27483082Y-42147416D01*
X28340225Y-43885230D02*
X28197368Y-43809040D01*
X28197368Y-43809040D02*
X27983082Y-43809040D01*
X27983082Y-43809040D02*
X27768796Y-43885230D01*
X27768796Y-43885230D02*
X27625939Y-44037611D01*
X27625939Y-44037611D02*
X27554510Y-44189992D01*
X27554510Y-44189992D02*
X27483082Y-44494754D01*
X27483082Y-44494754D02*
X27483082Y-44723326D01*
X27483082Y-44723326D02*
X27554510Y-45028088D01*
X27554510Y-45028088D02*
X27625939Y-45180469D01*
X27625939Y-45180469D02*
X27768796Y-45332850D01*
X27768796Y-45332850D02*
X27983082Y-45409040D01*
X27983082Y-45409040D02*
X28125939Y-45409040D01*
X28125939Y-45409040D02*
X28340225Y-45332850D01*
X28340225Y-45332850D02*
X28411653Y-45256659D01*
X28411653Y-45256659D02*
X28411653Y-44723326D01*
X28411653Y-44723326D02*
X28125939Y-44723326D01*
X29054510Y-45409040D02*
X29054510Y-43809040D01*
X29054510Y-43809040D02*
X29911653Y-45409040D01*
X29911653Y-45409040D02*
X29911653Y-43809040D01*
X30625939Y-45409040D02*
X30625939Y-43809040D01*
X30625939Y-43809040D02*
X30983082Y-43809040D01*
X30983082Y-43809040D02*
X31197368Y-43885230D01*
X31197368Y-43885230D02*
X31340225Y-44037611D01*
X31340225Y-44037611D02*
X31411654Y-44189992D01*
X31411654Y-44189992D02*
X31483082Y-44494754D01*
X31483082Y-44494754D02*
X31483082Y-44723326D01*
X31483082Y-44723326D02*
X31411654Y-45028088D01*
X31411654Y-45028088D02*
X31340225Y-45180469D01*
X31340225Y-45180469D02*
X31197368Y-45332850D01*
X31197368Y-45332850D02*
X30983082Y-45409040D01*
X30983082Y-45409040D02*
X30625939Y-45409040D01*
X28268796Y-46384950D02*
X27554510Y-46384950D01*
X27554510Y-46384950D02*
X27483082Y-47146855D01*
X27483082Y-47146855D02*
X27554510Y-47070664D01*
X27554510Y-47070664D02*
X27697368Y-46994474D01*
X27697368Y-46994474D02*
X28054510Y-46994474D01*
X28054510Y-46994474D02*
X28197368Y-47070664D01*
X28197368Y-47070664D02*
X28268796Y-47146855D01*
X28268796Y-47146855D02*
X28340225Y-47299236D01*
X28340225Y-47299236D02*
X28340225Y-47680188D01*
X28340225Y-47680188D02*
X28268796Y-47832569D01*
X28268796Y-47832569D02*
X28197368Y-47908760D01*
X28197368Y-47908760D02*
X28054510Y-47984950D01*
X28054510Y-47984950D02*
X27697368Y-47984950D01*
X27697368Y-47984950D02*
X27554510Y-47908760D01*
X27554510Y-47908760D02*
X27483082Y-47832569D01*
X28197368Y-49494193D02*
X28197368Y-50560860D01*
X27840225Y-48884670D02*
X27483082Y-50027527D01*
X27483082Y-50027527D02*
X28411653Y-50027527D01*
X27483082Y-51689151D02*
X27554510Y-51612960D01*
X27554510Y-51612960D02*
X27697368Y-51536770D01*
X27697368Y-51536770D02*
X28054510Y-51536770D01*
X28054510Y-51536770D02*
X28197368Y-51612960D01*
X28197368Y-51612960D02*
X28268796Y-51689151D01*
X28268796Y-51689151D02*
X28340225Y-51841532D01*
X28340225Y-51841532D02*
X28340225Y-51993913D01*
X28340225Y-51993913D02*
X28268796Y-52222484D01*
X28268796Y-52222484D02*
X27411653Y-53136770D01*
X27411653Y-53136770D02*
X28340225Y-53136770D01*
X28340225Y-55712680D02*
X27483082Y-55712680D01*
X27911653Y-55712680D02*
X27911653Y-54112680D01*
X27911653Y-54112680D02*
X27768796Y-54341251D01*
X27768796Y-54341251D02*
X27625939Y-54493632D01*
X27625939Y-54493632D02*
X27483082Y-54569823D01*
X28340225Y-56764780D02*
X28197368Y-56688590D01*
X28197368Y-56688590D02*
X27983082Y-56688590D01*
X27983082Y-56688590D02*
X27768796Y-56764780D01*
X27768796Y-56764780D02*
X27625939Y-56917161D01*
X27625939Y-56917161D02*
X27554510Y-57069542D01*
X27554510Y-57069542D02*
X27483082Y-57374304D01*
X27483082Y-57374304D02*
X27483082Y-57602876D01*
X27483082Y-57602876D02*
X27554510Y-57907638D01*
X27554510Y-57907638D02*
X27625939Y-58060019D01*
X27625939Y-58060019D02*
X27768796Y-58212400D01*
X27768796Y-58212400D02*
X27983082Y-58288590D01*
X27983082Y-58288590D02*
X28125939Y-58288590D01*
X28125939Y-58288590D02*
X28340225Y-58212400D01*
X28340225Y-58212400D02*
X28411653Y-58136209D01*
X28411653Y-58136209D02*
X28411653Y-57602876D01*
X28411653Y-57602876D02*
X28125939Y-57602876D01*
X29054510Y-58288590D02*
X29054510Y-56688590D01*
X29054510Y-56688590D02*
X29911653Y-58288590D01*
X29911653Y-58288590D02*
X29911653Y-56688590D01*
X30625939Y-58288590D02*
X30625939Y-56688590D01*
X30625939Y-56688590D02*
X30983082Y-56688590D01*
X30983082Y-56688590D02*
X31197368Y-56764780D01*
X31197368Y-56764780D02*
X31340225Y-56917161D01*
X31340225Y-56917161D02*
X31411654Y-57069542D01*
X31411654Y-57069542D02*
X31483082Y-57374304D01*
X31483082Y-57374304D02*
X31483082Y-57602876D01*
X31483082Y-57602876D02*
X31411654Y-57907638D01*
X31411654Y-57907638D02*
X31340225Y-58060019D01*
X31340225Y-58060019D02*
X31197368Y-58212400D01*
X31197368Y-58212400D02*
X30983082Y-58288590D01*
X30983082Y-58288590D02*
X30625939Y-58288590D01*
X60483082Y-13004982D02*
X60554510Y-12926296D01*
X60554510Y-12926296D02*
X60697368Y-12847610D01*
X60697368Y-12847610D02*
X61054510Y-12847610D01*
X61054510Y-12847610D02*
X61197368Y-12926296D01*
X61197368Y-12926296D02*
X61268796Y-13004982D01*
X61268796Y-13004982D02*
X61340225Y-13162353D01*
X61340225Y-13162353D02*
X61340225Y-13319725D01*
X61340225Y-13319725D02*
X61268796Y-13555782D01*
X61268796Y-13555782D02*
X60411653Y-14500010D01*
X60411653Y-14500010D02*
X61340225Y-14500010D01*
X61840224Y-12847610D02*
X62840224Y-12847610D01*
X62840224Y-12847610D02*
X62197367Y-14500010D01*
X60483082Y-15665253D02*
X60554510Y-15586567D01*
X60554510Y-15586567D02*
X60697368Y-15507881D01*
X60697368Y-15507881D02*
X61054510Y-15507881D01*
X61054510Y-15507881D02*
X61197368Y-15586567D01*
X61197368Y-15586567D02*
X61268796Y-15665253D01*
X61268796Y-15665253D02*
X61340225Y-15822624D01*
X61340225Y-15822624D02*
X61340225Y-15979996D01*
X61340225Y-15979996D02*
X61268796Y-16216053D01*
X61268796Y-16216053D02*
X60411653Y-17160281D01*
X60411653Y-17160281D02*
X61340225Y-17160281D01*
X62697367Y-15507881D02*
X61983081Y-15507881D01*
X61983081Y-15507881D02*
X61911653Y-16294738D01*
X61911653Y-16294738D02*
X61983081Y-16216053D01*
X61983081Y-16216053D02*
X62125939Y-16137367D01*
X62125939Y-16137367D02*
X62483081Y-16137367D01*
X62483081Y-16137367D02*
X62625939Y-16216053D01*
X62625939Y-16216053D02*
X62697367Y-16294738D01*
X62697367Y-16294738D02*
X62768796Y-16452110D01*
X62768796Y-16452110D02*
X62768796Y-16845538D01*
X62768796Y-16845538D02*
X62697367Y-17002910D01*
X62697367Y-17002910D02*
X62625939Y-17081596D01*
X62625939Y-17081596D02*
X62483081Y-17160281D01*
X62483081Y-17160281D02*
X62125939Y-17160281D01*
X62125939Y-17160281D02*
X61983081Y-17081596D01*
X61983081Y-17081596D02*
X61911653Y-17002910D01*
X60483082Y-18325524D02*
X60554510Y-18246838D01*
X60554510Y-18246838D02*
X60697368Y-18168152D01*
X60697368Y-18168152D02*
X61054510Y-18168152D01*
X61054510Y-18168152D02*
X61197368Y-18246838D01*
X61197368Y-18246838D02*
X61268796Y-18325524D01*
X61268796Y-18325524D02*
X61340225Y-18482895D01*
X61340225Y-18482895D02*
X61340225Y-18640267D01*
X61340225Y-18640267D02*
X61268796Y-18876324D01*
X61268796Y-18876324D02*
X60411653Y-19820552D01*
X60411653Y-19820552D02*
X61340225Y-19820552D01*
X62625939Y-18168152D02*
X62340224Y-18168152D01*
X62340224Y-18168152D02*
X62197367Y-18246838D01*
X62197367Y-18246838D02*
X62125939Y-18325524D01*
X62125939Y-18325524D02*
X61983081Y-18561581D01*
X61983081Y-18561581D02*
X61911653Y-18876324D01*
X61911653Y-18876324D02*
X61911653Y-19505809D01*
X61911653Y-19505809D02*
X61983081Y-19663181D01*
X61983081Y-19663181D02*
X62054510Y-19741867D01*
X62054510Y-19741867D02*
X62197367Y-19820552D01*
X62197367Y-19820552D02*
X62483081Y-19820552D01*
X62483081Y-19820552D02*
X62625939Y-19741867D01*
X62625939Y-19741867D02*
X62697367Y-19663181D01*
X62697367Y-19663181D02*
X62768796Y-19505809D01*
X62768796Y-19505809D02*
X62768796Y-19112381D01*
X62768796Y-19112381D02*
X62697367Y-18955009D01*
X62697367Y-18955009D02*
X62625939Y-18876324D01*
X62625939Y-18876324D02*
X62483081Y-18797638D01*
X62483081Y-18797638D02*
X62197367Y-18797638D01*
X62197367Y-18797638D02*
X62054510Y-18876324D01*
X62054510Y-18876324D02*
X61983081Y-18955009D01*
X61983081Y-18955009D02*
X61911653Y-19112381D01*
X60768796Y-21536595D02*
X60625939Y-21457909D01*
X60625939Y-21457909D02*
X60554510Y-21379223D01*
X60554510Y-21379223D02*
X60483082Y-21221852D01*
X60483082Y-21221852D02*
X60483082Y-21143166D01*
X60483082Y-21143166D02*
X60554510Y-20985795D01*
X60554510Y-20985795D02*
X60625939Y-20907109D01*
X60625939Y-20907109D02*
X60768796Y-20828423D01*
X60768796Y-20828423D02*
X61054510Y-20828423D01*
X61054510Y-20828423D02*
X61197368Y-20907109D01*
X61197368Y-20907109D02*
X61268796Y-20985795D01*
X61268796Y-20985795D02*
X61340225Y-21143166D01*
X61340225Y-21143166D02*
X61340225Y-21221852D01*
X61340225Y-21221852D02*
X61268796Y-21379223D01*
X61268796Y-21379223D02*
X61197368Y-21457909D01*
X61197368Y-21457909D02*
X61054510Y-21536595D01*
X61054510Y-21536595D02*
X60768796Y-21536595D01*
X60768796Y-21536595D02*
X60625939Y-21615280D01*
X60625939Y-21615280D02*
X60554510Y-21693966D01*
X60554510Y-21693966D02*
X60483082Y-21851338D01*
X60483082Y-21851338D02*
X60483082Y-22166080D01*
X60483082Y-22166080D02*
X60554510Y-22323452D01*
X60554510Y-22323452D02*
X60625939Y-22402138D01*
X60625939Y-22402138D02*
X60768796Y-22480823D01*
X60768796Y-22480823D02*
X61054510Y-22480823D01*
X61054510Y-22480823D02*
X61197368Y-22402138D01*
X61197368Y-22402138D02*
X61268796Y-22323452D01*
X61268796Y-22323452D02*
X61340225Y-22166080D01*
X61340225Y-22166080D02*
X61340225Y-21851338D01*
X61340225Y-21851338D02*
X61268796Y-21693966D01*
X61268796Y-21693966D02*
X61197368Y-21615280D01*
X61197368Y-21615280D02*
X61054510Y-21536595D01*
X60411653Y-23488694D02*
X61411653Y-23488694D01*
X61411653Y-23488694D02*
X60768796Y-25141094D01*
X60554510Y-26935822D02*
X61054510Y-26935822D01*
X61268796Y-27801365D02*
X60554510Y-27801365D01*
X60554510Y-27801365D02*
X60554510Y-26148965D01*
X60554510Y-26148965D02*
X61268796Y-26148965D01*
X61911653Y-27801365D02*
X61911653Y-26148965D01*
X61911653Y-26148965D02*
X62768796Y-27801365D01*
X62768796Y-27801365D02*
X62768796Y-26148965D01*
X61340225Y-28887922D02*
X61197368Y-28809236D01*
X61197368Y-28809236D02*
X60983082Y-28809236D01*
X60983082Y-28809236D02*
X60768796Y-28887922D01*
X60768796Y-28887922D02*
X60625939Y-29045293D01*
X60625939Y-29045293D02*
X60554510Y-29202665D01*
X60554510Y-29202665D02*
X60483082Y-29517408D01*
X60483082Y-29517408D02*
X60483082Y-29753465D01*
X60483082Y-29753465D02*
X60554510Y-30068208D01*
X60554510Y-30068208D02*
X60625939Y-30225579D01*
X60625939Y-30225579D02*
X60768796Y-30382951D01*
X60768796Y-30382951D02*
X60983082Y-30461636D01*
X60983082Y-30461636D02*
X61125939Y-30461636D01*
X61125939Y-30461636D02*
X61340225Y-30382951D01*
X61340225Y-30382951D02*
X61411653Y-30304265D01*
X61411653Y-30304265D02*
X61411653Y-29753465D01*
X61411653Y-29753465D02*
X61125939Y-29753465D01*
X62054510Y-30461636D02*
X62054510Y-28809236D01*
X62054510Y-28809236D02*
X62911653Y-30461636D01*
X62911653Y-30461636D02*
X62911653Y-28809236D01*
X63625939Y-30461636D02*
X63625939Y-28809236D01*
X63625939Y-28809236D02*
X63983082Y-28809236D01*
X63983082Y-28809236D02*
X64197368Y-28887922D01*
X64197368Y-28887922D02*
X64340225Y-29045293D01*
X64340225Y-29045293D02*
X64411654Y-29202665D01*
X64411654Y-29202665D02*
X64483082Y-29517408D01*
X64483082Y-29517408D02*
X64483082Y-29753465D01*
X64483082Y-29753465D02*
X64411654Y-30068208D01*
X64411654Y-30068208D02*
X64340225Y-30225579D01*
X64340225Y-30225579D02*
X64197368Y-30382951D01*
X64197368Y-30382951D02*
X63983082Y-30461636D01*
X63983082Y-30461636D02*
X63625939Y-30461636D01*
X60411653Y-31469507D02*
X61340225Y-31469507D01*
X61340225Y-31469507D02*
X60840225Y-32098993D01*
X60840225Y-32098993D02*
X61054510Y-32098993D01*
X61054510Y-32098993D02*
X61197368Y-32177679D01*
X61197368Y-32177679D02*
X61268796Y-32256364D01*
X61268796Y-32256364D02*
X61340225Y-32413736D01*
X61340225Y-32413736D02*
X61340225Y-32807164D01*
X61340225Y-32807164D02*
X61268796Y-32964536D01*
X61268796Y-32964536D02*
X61197368Y-33043222D01*
X61197368Y-33043222D02*
X61054510Y-33121907D01*
X61054510Y-33121907D02*
X60625939Y-33121907D01*
X60625939Y-33121907D02*
X60483082Y-33043222D01*
X60483082Y-33043222D02*
X60411653Y-32964536D01*
X61768796Y-31469507D02*
X62268796Y-33121907D01*
X62268796Y-33121907D02*
X62768796Y-31469507D01*
X63125938Y-31469507D02*
X64054510Y-31469507D01*
X64054510Y-31469507D02*
X63554510Y-32098993D01*
X63554510Y-32098993D02*
X63768795Y-32098993D01*
X63768795Y-32098993D02*
X63911653Y-32177679D01*
X63911653Y-32177679D02*
X63983081Y-32256364D01*
X63983081Y-32256364D02*
X64054510Y-32413736D01*
X64054510Y-32413736D02*
X64054510Y-32807164D01*
X64054510Y-32807164D02*
X63983081Y-32964536D01*
X63983081Y-32964536D02*
X63911653Y-33043222D01*
X63911653Y-33043222D02*
X63768795Y-33121907D01*
X63768795Y-33121907D02*
X63340224Y-33121907D01*
X63340224Y-33121907D02*
X63197367Y-33043222D01*
X63197367Y-33043222D02*
X63125938Y-32964536D01*
X61268796Y-34129778D02*
X60554510Y-34129778D01*
X60554510Y-34129778D02*
X60483082Y-34916635D01*
X60483082Y-34916635D02*
X60554510Y-34837950D01*
X60554510Y-34837950D02*
X60697368Y-34759264D01*
X60697368Y-34759264D02*
X61054510Y-34759264D01*
X61054510Y-34759264D02*
X61197368Y-34837950D01*
X61197368Y-34837950D02*
X61268796Y-34916635D01*
X61268796Y-34916635D02*
X61340225Y-35074007D01*
X61340225Y-35074007D02*
X61340225Y-35467435D01*
X61340225Y-35467435D02*
X61268796Y-35624807D01*
X61268796Y-35624807D02*
X61197368Y-35703493D01*
X61197368Y-35703493D02*
X61054510Y-35782178D01*
X61054510Y-35782178D02*
X60697368Y-35782178D01*
X60697368Y-35782178D02*
X60554510Y-35703493D01*
X60554510Y-35703493D02*
X60483082Y-35624807D01*
X61768796Y-34129778D02*
X62268796Y-35782178D01*
X62268796Y-35782178D02*
X62768796Y-34129778D01*
D13*
X154557200Y-27010951D02*
X154604819Y-26868094D01*
X154604819Y-26868094D02*
X154604819Y-26629999D01*
X154604819Y-26629999D02*
X154557200Y-26534761D01*
X154557200Y-26534761D02*
X154509580Y-26487142D01*
X154509580Y-26487142D02*
X154414342Y-26439523D01*
X154414342Y-26439523D02*
X154319104Y-26439523D01*
X154319104Y-26439523D02*
X154223866Y-26487142D01*
X154223866Y-26487142D02*
X154176247Y-26534761D01*
X154176247Y-26534761D02*
X154128628Y-26629999D01*
X154128628Y-26629999D02*
X154081009Y-26820475D01*
X154081009Y-26820475D02*
X154033390Y-26915713D01*
X154033390Y-26915713D02*
X153985771Y-26963332D01*
X153985771Y-26963332D02*
X153890533Y-27010951D01*
X153890533Y-27010951D02*
X153795295Y-27010951D01*
X153795295Y-27010951D02*
X153700057Y-26963332D01*
X153700057Y-26963332D02*
X153652438Y-26915713D01*
X153652438Y-26915713D02*
X153604819Y-26820475D01*
X153604819Y-26820475D02*
X153604819Y-26582380D01*
X153604819Y-26582380D02*
X153652438Y-26439523D01*
X153604819Y-26153808D02*
X153604819Y-25582380D01*
X154604819Y-25868094D02*
X153604819Y-25868094D01*
X154604819Y-25249046D02*
X153604819Y-25249046D01*
X154509580Y-24201428D02*
X154557200Y-24249047D01*
X154557200Y-24249047D02*
X154604819Y-24391904D01*
X154604819Y-24391904D02*
X154604819Y-24487142D01*
X154604819Y-24487142D02*
X154557200Y-24629999D01*
X154557200Y-24629999D02*
X154461961Y-24725237D01*
X154461961Y-24725237D02*
X154366723Y-24772856D01*
X154366723Y-24772856D02*
X154176247Y-24820475D01*
X154176247Y-24820475D02*
X154033390Y-24820475D01*
X154033390Y-24820475D02*
X153842914Y-24772856D01*
X153842914Y-24772856D02*
X153747676Y-24725237D01*
X153747676Y-24725237D02*
X153652438Y-24629999D01*
X153652438Y-24629999D02*
X153604819Y-24487142D01*
X153604819Y-24487142D02*
X153604819Y-24391904D01*
X153604819Y-24391904D02*
X153652438Y-24249047D01*
X153652438Y-24249047D02*
X153700057Y-24201428D01*
X154604819Y-23772856D02*
X153604819Y-23772856D01*
X154604819Y-23201428D02*
X154033390Y-23629999D01*
X153604819Y-23201428D02*
X154176247Y-23772856D01*
X154604819Y-22249047D02*
X154604819Y-22820475D01*
X154604819Y-22534761D02*
X153604819Y-22534761D01*
X153604819Y-22534761D02*
X153747676Y-22629999D01*
X153747676Y-22629999D02*
X153842914Y-22725237D01*
X153842914Y-22725237D02*
X153890533Y-22820475D01*
X141814285Y-34931009D02*
X141957142Y-34978628D01*
X141957142Y-34978628D02*
X142004761Y-35026247D01*
X142004761Y-35026247D02*
X142052380Y-35121485D01*
X142052380Y-35121485D02*
X142052380Y-35264342D01*
X142052380Y-35264342D02*
X142004761Y-35359580D01*
X142004761Y-35359580D02*
X141957142Y-35407200D01*
X141957142Y-35407200D02*
X141861904Y-35454819D01*
X141861904Y-35454819D02*
X141480952Y-35454819D01*
X141480952Y-35454819D02*
X141480952Y-34454819D01*
X141480952Y-34454819D02*
X141814285Y-34454819D01*
X141814285Y-34454819D02*
X141909523Y-34502438D01*
X141909523Y-34502438D02*
X141957142Y-34550057D01*
X141957142Y-34550057D02*
X142004761Y-34645295D01*
X142004761Y-34645295D02*
X142004761Y-34740533D01*
X142004761Y-34740533D02*
X141957142Y-34835771D01*
X141957142Y-34835771D02*
X141909523Y-34883390D01*
X141909523Y-34883390D02*
X141814285Y-34931009D01*
X141814285Y-34931009D02*
X141480952Y-34931009D01*
X142338095Y-34454819D02*
X142909523Y-34454819D01*
X142623809Y-35454819D02*
X142623809Y-34454819D01*
X143814285Y-35454819D02*
X143480952Y-34978628D01*
X143242857Y-35454819D02*
X143242857Y-34454819D01*
X143242857Y-34454819D02*
X143623809Y-34454819D01*
X143623809Y-34454819D02*
X143719047Y-34502438D01*
X143719047Y-34502438D02*
X143766666Y-34550057D01*
X143766666Y-34550057D02*
X143814285Y-34645295D01*
X143814285Y-34645295D02*
X143814285Y-34788152D01*
X143814285Y-34788152D02*
X143766666Y-34883390D01*
X143766666Y-34883390D02*
X143719047Y-34931009D01*
X143719047Y-34931009D02*
X143623809Y-34978628D01*
X143623809Y-34978628D02*
X143242857Y-34978628D01*
X144766666Y-35454819D02*
X144195238Y-35454819D01*
X144480952Y-35454819D02*
X144480952Y-34454819D01*
X144480952Y-34454819D02*
X144385714Y-34597676D01*
X144385714Y-34597676D02*
X144290476Y-34692914D01*
X144290476Y-34692914D02*
X144195238Y-34740533D01*
X139361904Y-16459580D02*
X139314285Y-16507200D01*
X139314285Y-16507200D02*
X139171428Y-16554819D01*
X139171428Y-16554819D02*
X139076190Y-16554819D01*
X139076190Y-16554819D02*
X138933333Y-16507200D01*
X138933333Y-16507200D02*
X138838095Y-16411961D01*
X138838095Y-16411961D02*
X138790476Y-16316723D01*
X138790476Y-16316723D02*
X138742857Y-16126247D01*
X138742857Y-16126247D02*
X138742857Y-15983390D01*
X138742857Y-15983390D02*
X138790476Y-15792914D01*
X138790476Y-15792914D02*
X138838095Y-15697676D01*
X138838095Y-15697676D02*
X138933333Y-15602438D01*
X138933333Y-15602438D02*
X139076190Y-15554819D01*
X139076190Y-15554819D02*
X139171428Y-15554819D01*
X139171428Y-15554819D02*
X139314285Y-15602438D01*
X139314285Y-15602438D02*
X139361904Y-15650057D01*
X139933333Y-16554819D02*
X139838095Y-16507200D01*
X139838095Y-16507200D02*
X139790476Y-16459580D01*
X139790476Y-16459580D02*
X139742857Y-16364342D01*
X139742857Y-16364342D02*
X139742857Y-16078628D01*
X139742857Y-16078628D02*
X139790476Y-15983390D01*
X139790476Y-15983390D02*
X139838095Y-15935771D01*
X139838095Y-15935771D02*
X139933333Y-15888152D01*
X139933333Y-15888152D02*
X140076190Y-15888152D01*
X140076190Y-15888152D02*
X140171428Y-15935771D01*
X140171428Y-15935771D02*
X140219047Y-15983390D01*
X140219047Y-15983390D02*
X140266666Y-16078628D01*
X140266666Y-16078628D02*
X140266666Y-16364342D01*
X140266666Y-16364342D02*
X140219047Y-16459580D01*
X140219047Y-16459580D02*
X140171428Y-16507200D01*
X140171428Y-16507200D02*
X140076190Y-16554819D01*
X140076190Y-16554819D02*
X139933333Y-16554819D01*
X140695238Y-15888152D02*
X140695238Y-16554819D01*
X140695238Y-15983390D02*
X140742857Y-15935771D01*
X140742857Y-15935771D02*
X140838095Y-15888152D01*
X140838095Y-15888152D02*
X140980952Y-15888152D01*
X140980952Y-15888152D02*
X141076190Y-15935771D01*
X141076190Y-15935771D02*
X141123809Y-16031009D01*
X141123809Y-16031009D02*
X141123809Y-16554819D01*
X141600000Y-15888152D02*
X141600000Y-16554819D01*
X141600000Y-15983390D02*
X141647619Y-15935771D01*
X141647619Y-15935771D02*
X141742857Y-15888152D01*
X141742857Y-15888152D02*
X141885714Y-15888152D01*
X141885714Y-15888152D02*
X141980952Y-15935771D01*
X141980952Y-15935771D02*
X142028571Y-16031009D01*
X142028571Y-16031009D02*
X142028571Y-16554819D01*
X142266667Y-16650057D02*
X143028571Y-16650057D01*
X143457143Y-15554819D02*
X143552381Y-15554819D01*
X143552381Y-15554819D02*
X143647619Y-15602438D01*
X143647619Y-15602438D02*
X143695238Y-15650057D01*
X143695238Y-15650057D02*
X143742857Y-15745295D01*
X143742857Y-15745295D02*
X143790476Y-15935771D01*
X143790476Y-15935771D02*
X143790476Y-16173866D01*
X143790476Y-16173866D02*
X143742857Y-16364342D01*
X143742857Y-16364342D02*
X143695238Y-16459580D01*
X143695238Y-16459580D02*
X143647619Y-16507200D01*
X143647619Y-16507200D02*
X143552381Y-16554819D01*
X143552381Y-16554819D02*
X143457143Y-16554819D01*
X143457143Y-16554819D02*
X143361905Y-16507200D01*
X143361905Y-16507200D02*
X143314286Y-16459580D01*
X143314286Y-16459580D02*
X143266667Y-16364342D01*
X143266667Y-16364342D02*
X143219048Y-16173866D01*
X143219048Y-16173866D02*
X143219048Y-15935771D01*
X143219048Y-15935771D02*
X143266667Y-15745295D01*
X143266667Y-15745295D02*
X143314286Y-15650057D01*
X143314286Y-15650057D02*
X143361905Y-15602438D01*
X143361905Y-15602438D02*
X143457143Y-15554819D01*
X144742857Y-16554819D02*
X144171429Y-16554819D01*
X144457143Y-16554819D02*
X144457143Y-15554819D01*
X144457143Y-15554819D02*
X144361905Y-15697676D01*
X144361905Y-15697676D02*
X144266667Y-15792914D01*
X144266667Y-15792914D02*
X144171429Y-15840533D01*
X145076191Y-16554819D02*
X145600000Y-15888152D01*
X145076191Y-15888152D02*
X145600000Y-16554819D01*
X146171429Y-15554819D02*
X146266667Y-15554819D01*
X146266667Y-15554819D02*
X146361905Y-15602438D01*
X146361905Y-15602438D02*
X146409524Y-15650057D01*
X146409524Y-15650057D02*
X146457143Y-15745295D01*
X146457143Y-15745295D02*
X146504762Y-15935771D01*
X146504762Y-15935771D02*
X146504762Y-16173866D01*
X146504762Y-16173866D02*
X146457143Y-16364342D01*
X146457143Y-16364342D02*
X146409524Y-16459580D01*
X146409524Y-16459580D02*
X146361905Y-16507200D01*
X146361905Y-16507200D02*
X146266667Y-16554819D01*
X146266667Y-16554819D02*
X146171429Y-16554819D01*
X146171429Y-16554819D02*
X146076191Y-16507200D01*
X146076191Y-16507200D02*
X146028572Y-16459580D01*
X146028572Y-16459580D02*
X145980953Y-16364342D01*
X145980953Y-16364342D02*
X145933334Y-16173866D01*
X145933334Y-16173866D02*
X145933334Y-15935771D01*
X145933334Y-15935771D02*
X145980953Y-15745295D01*
X145980953Y-15745295D02*
X146028572Y-15650057D01*
X146028572Y-15650057D02*
X146076191Y-15602438D01*
X146076191Y-15602438D02*
X146171429Y-15554819D01*
X146885715Y-15650057D02*
X146933334Y-15602438D01*
X146933334Y-15602438D02*
X147028572Y-15554819D01*
X147028572Y-15554819D02*
X147266667Y-15554819D01*
X147266667Y-15554819D02*
X147361905Y-15602438D01*
X147361905Y-15602438D02*
X147409524Y-15650057D01*
X147409524Y-15650057D02*
X147457143Y-15745295D01*
X147457143Y-15745295D02*
X147457143Y-15840533D01*
X147457143Y-15840533D02*
X147409524Y-15983390D01*
X147409524Y-15983390D02*
X146838096Y-16554819D01*
X146838096Y-16554819D02*
X147457143Y-16554819D01*
X121049580Y-34715239D02*
X121097200Y-34762858D01*
X121097200Y-34762858D02*
X121144819Y-34905715D01*
X121144819Y-34905715D02*
X121144819Y-35000953D01*
X121144819Y-35000953D02*
X121097200Y-35143810D01*
X121097200Y-35143810D02*
X121001961Y-35239048D01*
X121001961Y-35239048D02*
X120906723Y-35286667D01*
X120906723Y-35286667D02*
X120716247Y-35334286D01*
X120716247Y-35334286D02*
X120573390Y-35334286D01*
X120573390Y-35334286D02*
X120382914Y-35286667D01*
X120382914Y-35286667D02*
X120287676Y-35239048D01*
X120287676Y-35239048D02*
X120192438Y-35143810D01*
X120192438Y-35143810D02*
X120144819Y-35000953D01*
X120144819Y-35000953D02*
X120144819Y-34905715D01*
X120144819Y-34905715D02*
X120192438Y-34762858D01*
X120192438Y-34762858D02*
X120240057Y-34715239D01*
X121144819Y-34143810D02*
X121097200Y-34239048D01*
X121097200Y-34239048D02*
X121049580Y-34286667D01*
X121049580Y-34286667D02*
X120954342Y-34334286D01*
X120954342Y-34334286D02*
X120668628Y-34334286D01*
X120668628Y-34334286D02*
X120573390Y-34286667D01*
X120573390Y-34286667D02*
X120525771Y-34239048D01*
X120525771Y-34239048D02*
X120478152Y-34143810D01*
X120478152Y-34143810D02*
X120478152Y-34000953D01*
X120478152Y-34000953D02*
X120525771Y-33905715D01*
X120525771Y-33905715D02*
X120573390Y-33858096D01*
X120573390Y-33858096D02*
X120668628Y-33810477D01*
X120668628Y-33810477D02*
X120954342Y-33810477D01*
X120954342Y-33810477D02*
X121049580Y-33858096D01*
X121049580Y-33858096D02*
X121097200Y-33905715D01*
X121097200Y-33905715D02*
X121144819Y-34000953D01*
X121144819Y-34000953D02*
X121144819Y-34143810D01*
X120478152Y-33381905D02*
X121144819Y-33381905D01*
X120573390Y-33381905D02*
X120525771Y-33334286D01*
X120525771Y-33334286D02*
X120478152Y-33239048D01*
X120478152Y-33239048D02*
X120478152Y-33096191D01*
X120478152Y-33096191D02*
X120525771Y-33000953D01*
X120525771Y-33000953D02*
X120621009Y-32953334D01*
X120621009Y-32953334D02*
X121144819Y-32953334D01*
X120478152Y-32477143D02*
X121144819Y-32477143D01*
X120573390Y-32477143D02*
X120525771Y-32429524D01*
X120525771Y-32429524D02*
X120478152Y-32334286D01*
X120478152Y-32334286D02*
X120478152Y-32191429D01*
X120478152Y-32191429D02*
X120525771Y-32096191D01*
X120525771Y-32096191D02*
X120621009Y-32048572D01*
X120621009Y-32048572D02*
X121144819Y-32048572D01*
X121240057Y-31810477D02*
X121240057Y-31048572D01*
X120144819Y-30620000D02*
X120144819Y-30524762D01*
X120144819Y-30524762D02*
X120192438Y-30429524D01*
X120192438Y-30429524D02*
X120240057Y-30381905D01*
X120240057Y-30381905D02*
X120335295Y-30334286D01*
X120335295Y-30334286D02*
X120525771Y-30286667D01*
X120525771Y-30286667D02*
X120763866Y-30286667D01*
X120763866Y-30286667D02*
X120954342Y-30334286D01*
X120954342Y-30334286D02*
X121049580Y-30381905D01*
X121049580Y-30381905D02*
X121097200Y-30429524D01*
X121097200Y-30429524D02*
X121144819Y-30524762D01*
X121144819Y-30524762D02*
X121144819Y-30620000D01*
X121144819Y-30620000D02*
X121097200Y-30715238D01*
X121097200Y-30715238D02*
X121049580Y-30762857D01*
X121049580Y-30762857D02*
X120954342Y-30810476D01*
X120954342Y-30810476D02*
X120763866Y-30858095D01*
X120763866Y-30858095D02*
X120525771Y-30858095D01*
X120525771Y-30858095D02*
X120335295Y-30810476D01*
X120335295Y-30810476D02*
X120240057Y-30762857D01*
X120240057Y-30762857D02*
X120192438Y-30715238D01*
X120192438Y-30715238D02*
X120144819Y-30620000D01*
X121144819Y-29334286D02*
X121144819Y-29905714D01*
X121144819Y-29620000D02*
X120144819Y-29620000D01*
X120144819Y-29620000D02*
X120287676Y-29715238D01*
X120287676Y-29715238D02*
X120382914Y-29810476D01*
X120382914Y-29810476D02*
X120430533Y-29905714D01*
X121144819Y-29000952D02*
X120478152Y-28477143D01*
X120478152Y-29000952D02*
X121144819Y-28477143D01*
X120144819Y-27905714D02*
X120144819Y-27810476D01*
X120144819Y-27810476D02*
X120192438Y-27715238D01*
X120192438Y-27715238D02*
X120240057Y-27667619D01*
X120240057Y-27667619D02*
X120335295Y-27620000D01*
X120335295Y-27620000D02*
X120525771Y-27572381D01*
X120525771Y-27572381D02*
X120763866Y-27572381D01*
X120763866Y-27572381D02*
X120954342Y-27620000D01*
X120954342Y-27620000D02*
X121049580Y-27667619D01*
X121049580Y-27667619D02*
X121097200Y-27715238D01*
X121097200Y-27715238D02*
X121144819Y-27810476D01*
X121144819Y-27810476D02*
X121144819Y-27905714D01*
X121144819Y-27905714D02*
X121097200Y-28000952D01*
X121097200Y-28000952D02*
X121049580Y-28048571D01*
X121049580Y-28048571D02*
X120954342Y-28096190D01*
X120954342Y-28096190D02*
X120763866Y-28143809D01*
X120763866Y-28143809D02*
X120525771Y-28143809D01*
X120525771Y-28143809D02*
X120335295Y-28096190D01*
X120335295Y-28096190D02*
X120240057Y-28048571D01*
X120240057Y-28048571D02*
X120192438Y-28000952D01*
X120192438Y-28000952D02*
X120144819Y-27905714D01*
X120478152Y-26715238D02*
X121144819Y-26715238D01*
X120097200Y-26953333D02*
X120811485Y-27191428D01*
X120811485Y-27191428D02*
X120811485Y-26572381D01*
X121240057Y-26429524D02*
X121240057Y-25667619D01*
X121097200Y-25477142D02*
X121144819Y-25334285D01*
X121144819Y-25334285D02*
X121144819Y-25096190D01*
X121144819Y-25096190D02*
X121097200Y-25000952D01*
X121097200Y-25000952D02*
X121049580Y-24953333D01*
X121049580Y-24953333D02*
X120954342Y-24905714D01*
X120954342Y-24905714D02*
X120859104Y-24905714D01*
X120859104Y-24905714D02*
X120763866Y-24953333D01*
X120763866Y-24953333D02*
X120716247Y-25000952D01*
X120716247Y-25000952D02*
X120668628Y-25096190D01*
X120668628Y-25096190D02*
X120621009Y-25286666D01*
X120621009Y-25286666D02*
X120573390Y-25381904D01*
X120573390Y-25381904D02*
X120525771Y-25429523D01*
X120525771Y-25429523D02*
X120430533Y-25477142D01*
X120430533Y-25477142D02*
X120335295Y-25477142D01*
X120335295Y-25477142D02*
X120240057Y-25429523D01*
X120240057Y-25429523D02*
X120192438Y-25381904D01*
X120192438Y-25381904D02*
X120144819Y-25286666D01*
X120144819Y-25286666D02*
X120144819Y-25048571D01*
X120144819Y-25048571D02*
X120192438Y-24905714D01*
X121144819Y-24334285D02*
X121097200Y-24429523D01*
X121097200Y-24429523D02*
X121049580Y-24477142D01*
X121049580Y-24477142D02*
X120954342Y-24524761D01*
X120954342Y-24524761D02*
X120668628Y-24524761D01*
X120668628Y-24524761D02*
X120573390Y-24477142D01*
X120573390Y-24477142D02*
X120525771Y-24429523D01*
X120525771Y-24429523D02*
X120478152Y-24334285D01*
X120478152Y-24334285D02*
X120478152Y-24191428D01*
X120478152Y-24191428D02*
X120525771Y-24096190D01*
X120525771Y-24096190D02*
X120573390Y-24048571D01*
X120573390Y-24048571D02*
X120668628Y-24000952D01*
X120668628Y-24000952D02*
X120954342Y-24000952D01*
X120954342Y-24000952D02*
X121049580Y-24048571D01*
X121049580Y-24048571D02*
X121097200Y-24096190D01*
X121097200Y-24096190D02*
X121144819Y-24191428D01*
X121144819Y-24191428D02*
X121144819Y-24334285D01*
X121097200Y-23143809D02*
X121144819Y-23239047D01*
X121144819Y-23239047D02*
X121144819Y-23429523D01*
X121144819Y-23429523D02*
X121097200Y-23524761D01*
X121097200Y-23524761D02*
X121049580Y-23572380D01*
X121049580Y-23572380D02*
X120954342Y-23619999D01*
X120954342Y-23619999D02*
X120668628Y-23619999D01*
X120668628Y-23619999D02*
X120573390Y-23572380D01*
X120573390Y-23572380D02*
X120525771Y-23524761D01*
X120525771Y-23524761D02*
X120478152Y-23429523D01*
X120478152Y-23429523D02*
X120478152Y-23239047D01*
X120478152Y-23239047D02*
X120525771Y-23143809D01*
X121144819Y-22715237D02*
X120144819Y-22715237D01*
X120763866Y-22619999D02*
X121144819Y-22334285D01*
X120478152Y-22334285D02*
X120859104Y-22715237D01*
X121097200Y-21524761D02*
X121144819Y-21619999D01*
X121144819Y-21619999D02*
X121144819Y-21810475D01*
X121144819Y-21810475D02*
X121097200Y-21905713D01*
X121097200Y-21905713D02*
X121001961Y-21953332D01*
X121001961Y-21953332D02*
X120621009Y-21953332D01*
X120621009Y-21953332D02*
X120525771Y-21905713D01*
X120525771Y-21905713D02*
X120478152Y-21810475D01*
X120478152Y-21810475D02*
X120478152Y-21619999D01*
X120478152Y-21619999D02*
X120525771Y-21524761D01*
X120525771Y-21524761D02*
X120621009Y-21477142D01*
X120621009Y-21477142D02*
X120716247Y-21477142D01*
X120716247Y-21477142D02*
X120811485Y-21953332D01*
X120478152Y-21191427D02*
X120478152Y-20810475D01*
X120144819Y-21048570D02*
X121001961Y-21048570D01*
X121001961Y-21048570D02*
X121097200Y-21000951D01*
X121097200Y-21000951D02*
X121144819Y-20905713D01*
X121144819Y-20905713D02*
X121144819Y-20810475D01*
D14*
%TO.C,ETH_R1*%
X111670000Y-15070000D02*
X111670000Y-27830000D01*
X111670000Y-15070000D02*
X114330000Y-15070000D01*
X111670000Y-27830000D02*
X114330000Y-27830000D01*
X113000000Y-12470000D02*
X114330000Y-12470000D01*
X114330000Y-12470000D02*
X114330000Y-13800000D01*
X114330000Y-15070000D02*
X114330000Y-27830000D01*
%TO.C,BW-16_R1*%
X79530000Y-15170000D02*
X79530000Y-35550000D01*
X79530000Y-15170000D02*
X82190000Y-15170000D01*
X79530000Y-35550000D02*
X82190000Y-35550000D01*
X80860000Y-12570000D02*
X82190000Y-12570000D01*
X82190000Y-12570000D02*
X82190000Y-13900000D01*
X82190000Y-15170000D02*
X82190000Y-35550000D01*
%TO.C,ESP_R1*%
X44170000Y-15170000D02*
X44170000Y-58410000D01*
X44170000Y-15170000D02*
X46830000Y-15170000D01*
X44170000Y-58410000D02*
X46830000Y-58410000D01*
X45500000Y-12570000D02*
X46830000Y-12570000D01*
X46830000Y-12570000D02*
X46830000Y-13900000D01*
X46830000Y-15170000D02*
X46830000Y-58410000D01*
%TO.C,STICK1*%
X155590000Y-19140000D02*
X156920000Y-19140000D01*
X155590000Y-20250000D02*
X155590000Y-19140000D01*
X155590000Y-21710000D02*
X176030000Y-21710000D01*
X155590000Y-30340000D02*
X155590000Y-21710000D01*
X155590000Y-30340000D02*
X176030000Y-30340000D01*
X155710000Y-30340000D02*
X155710000Y-21710000D01*
X155828095Y-30340000D02*
X155828095Y-21710000D01*
X155946190Y-30340000D02*
X155946190Y-21710000D01*
X156064285Y-30340000D02*
X156064285Y-21710000D01*
X156182380Y-30340000D02*
X156182380Y-21710000D01*
X156300475Y-30340000D02*
X156300475Y-21710000D01*
X156418570Y-30340000D02*
X156418570Y-21710000D01*
X156536665Y-30340000D02*
X156536665Y-21710000D01*
X156560000Y-21710000D02*
X156560000Y-21360000D01*
X156654760Y-30340000D02*
X156654760Y-21710000D01*
X156772855Y-30340000D02*
X156772855Y-21710000D01*
X156890950Y-30340000D02*
X156890950Y-21710000D01*
X157009045Y-30340000D02*
X157009045Y-21710000D01*
X157127140Y-30340000D02*
X157127140Y-21710000D01*
X157245235Y-30340000D02*
X157245235Y-21710000D01*
X157280000Y-21710000D02*
X157280000Y-21360000D01*
X157363330Y-30340000D02*
X157363330Y-21710000D01*
X157481425Y-30340000D02*
X157481425Y-21710000D01*
X157599520Y-30340000D02*
X157599520Y-21710000D01*
X157717615Y-30340000D02*
X157717615Y-21710000D01*
X157835710Y-30340000D02*
X157835710Y-21710000D01*
X157953805Y-30340000D02*
X157953805Y-21710000D01*
X158071900Y-30340000D02*
X158071900Y-21710000D01*
X158190000Y-30340000D02*
X158190000Y-21710000D01*
X159100000Y-21710000D02*
X159100000Y-21300000D01*
X159820000Y-21710000D02*
X159820000Y-21300000D01*
X160730000Y-30340000D02*
X160730000Y-21710000D01*
X161640000Y-21710000D02*
X161640000Y-21300000D01*
X162360000Y-21710000D02*
X162360000Y-21300000D01*
X163270000Y-30340000D02*
X163270000Y-21710000D01*
X164180000Y-21710000D02*
X164180000Y-21300000D01*
X164900000Y-21710000D02*
X164900000Y-21300000D01*
X165810000Y-30340000D02*
X165810000Y-21710000D01*
X166720000Y-21710000D02*
X166720000Y-21300000D01*
X167440000Y-21710000D02*
X167440000Y-21300000D01*
X168350000Y-30340000D02*
X168350000Y-21710000D01*
X169260000Y-21710000D02*
X169260000Y-21300000D01*
X169980000Y-21710000D02*
X169980000Y-21300000D01*
X170890000Y-30340000D02*
X170890000Y-21710000D01*
X171800000Y-21710000D02*
X171800000Y-21300000D01*
X172520000Y-21710000D02*
X172520000Y-21300000D01*
X173430000Y-30340000D02*
X173430000Y-21710000D01*
X174340000Y-21710000D02*
X174340000Y-21300000D01*
X175060000Y-21710000D02*
X175060000Y-21300000D01*
X176030000Y-30340000D02*
X176030000Y-21710000D01*
%TO.C,ESP_L1*%
X24170000Y-15170000D02*
X24170000Y-58410000D01*
X24170000Y-15170000D02*
X26830000Y-15170000D01*
X24170000Y-58410000D02*
X26830000Y-58410000D01*
X25500000Y-12570000D02*
X26830000Y-12570000D01*
X26830000Y-12570000D02*
X26830000Y-13900000D01*
X26830000Y-15170000D02*
X26830000Y-58410000D01*
%TO.C,ETH_L1*%
X91350000Y-15070000D02*
X91350000Y-27830000D01*
X91350000Y-15070000D02*
X94010000Y-15070000D01*
X91350000Y-27830000D02*
X94010000Y-27830000D01*
X92680000Y-12470000D02*
X94010000Y-12470000D01*
X94010000Y-12470000D02*
X94010000Y-13800000D01*
X94010000Y-15070000D02*
X94010000Y-27830000D01*
%TO.C,MH-CD42*%
X79280000Y-59820000D02*
X79280000Y-72580000D01*
X79280000Y-59820000D02*
X81940000Y-59820000D01*
X79280000Y-72580000D02*
X81940000Y-72580000D01*
X80610000Y-57220000D02*
X81940000Y-57220000D01*
X81940000Y-57220000D02*
X81940000Y-58550000D01*
X81940000Y-59820000D02*
X81940000Y-72580000D01*
%TO.C,SCR1*%
X93670000Y-48150000D02*
X93670000Y-65990000D01*
X93670000Y-48150000D02*
X96330000Y-48150000D01*
X93670000Y-65990000D02*
X96330000Y-65990000D01*
X95000000Y-45550000D02*
X96330000Y-45550000D01*
X96330000Y-45550000D02*
X96330000Y-46880000D01*
X96330000Y-48150000D02*
X96330000Y-65990000D01*
%TO.C,BTR1*%
X139440000Y-30940000D02*
X139440000Y-19960000D01*
X141960000Y-30940000D02*
X141960000Y-19960000D01*
X144240000Y-30940000D02*
X144240000Y-19960000D01*
X146760000Y-30940000D02*
X146760000Y-19960000D01*
%TO.C,BW-16_L1*%
X56670000Y-15170000D02*
X56670000Y-35550000D01*
X56670000Y-15170000D02*
X59330000Y-15170000D01*
X56670000Y-35550000D02*
X59330000Y-35550000D01*
X58000000Y-12570000D02*
X59330000Y-12570000D01*
X59330000Y-12570000D02*
X59330000Y-13900000D01*
X59330000Y-15170000D02*
X59330000Y-35550000D01*
%TO.C,USB1*%
X122130000Y-22410000D02*
X122130000Y-31040000D01*
X123100000Y-31040000D02*
X123100000Y-31450000D01*
X123820000Y-31040000D02*
X123820000Y-31450000D01*
X124730000Y-22410000D02*
X124730000Y-31040000D01*
X125640000Y-31040000D02*
X125640000Y-31450000D01*
X126360000Y-31040000D02*
X126360000Y-31450000D01*
X127270000Y-22410000D02*
X127270000Y-31040000D01*
X128180000Y-31040000D02*
X128180000Y-31450000D01*
X128900000Y-31040000D02*
X128900000Y-31450000D01*
X129810000Y-22410000D02*
X129810000Y-31040000D01*
X129928100Y-22410000D02*
X129928100Y-31040000D01*
X130046195Y-22410000D02*
X130046195Y-31040000D01*
X130164290Y-22410000D02*
X130164290Y-31040000D01*
X130282385Y-22410000D02*
X130282385Y-31040000D01*
X130400480Y-22410000D02*
X130400480Y-31040000D01*
X130518575Y-22410000D02*
X130518575Y-31040000D01*
X130636670Y-22410000D02*
X130636670Y-31040000D01*
X130720000Y-31040000D02*
X130720000Y-31390000D01*
X130754765Y-22410000D02*
X130754765Y-31040000D01*
X130872860Y-22410000D02*
X130872860Y-31040000D01*
X130990955Y-22410000D02*
X130990955Y-31040000D01*
X131109050Y-22410000D02*
X131109050Y-31040000D01*
X131227145Y-22410000D02*
X131227145Y-31040000D01*
X131345240Y-22410000D02*
X131345240Y-31040000D01*
X131440000Y-31040000D02*
X131440000Y-31390000D01*
X131463335Y-22410000D02*
X131463335Y-31040000D01*
X131581430Y-22410000D02*
X131581430Y-31040000D01*
X131699525Y-22410000D02*
X131699525Y-31040000D01*
X131817620Y-22410000D02*
X131817620Y-31040000D01*
X131935715Y-22410000D02*
X131935715Y-31040000D01*
X132053810Y-22410000D02*
X132053810Y-31040000D01*
X132171905Y-22410000D02*
X132171905Y-31040000D01*
X132290000Y-22410000D02*
X132290000Y-31040000D01*
X132410000Y-22410000D02*
X122130000Y-22410000D01*
X132410000Y-22410000D02*
X132410000Y-31040000D01*
X132410000Y-31040000D02*
X122130000Y-31040000D01*
X132410000Y-32500000D02*
X132410000Y-33610000D01*
X132410000Y-33610000D02*
X131080000Y-33610000D01*
%TD*%
M02*
