M48
; DRILL file {KiCad 9.0.7} date 2026-03-25T19:51:51+0200
; FORMAT={-:-/ absolute / metric / decimal}
; #@! TF.CreationDate,2026-03-25T19:51:51+02:00
; #@! TF.GenerationSoftware,Kicad,Pcbnew,9.0.7
; #@! TF.FileFunction,Plated,1,2,PTH
FMAT,2
METRIC
; #@! TA.AperFunction,Plated,PTH,ViaDrill
T1C0.300
; #@! TA.AperFunction,Plated,PTH,ComponentDrill
T2C1.000
; #@! TA.AperFunction,Plated,PTH,ComponentDrill
T3C1.600
%
G90
G05
T1
X25.212Y-60.925
X30.339Y-41.126
X31.128Y-57.938
X34.403Y-60.47
X37.045Y-58.992
X47.75Y-37.75
X58.866Y-40.02
X81.418Y-36.861
X83.0Y-30.5
X87.334Y-25.088
X87.334Y-34.047
X90.018Y-42.21
X90.5Y-13.75
X91.322Y-45.44
X95.0Y-13.75
X99.167Y-43.006
X111.0Y-37.034
X116.5Y-13.75
T2
X25.5Y-13.9
X25.5Y-16.44
X25.5Y-18.98
X25.5Y-21.52
X25.5Y-24.06
X25.5Y-26.6
X25.5Y-29.14
X25.5Y-31.68
X25.5Y-34.22
X25.5Y-36.76
X25.5Y-39.3
X25.5Y-41.84
X25.5Y-44.38
X25.5Y-46.92
X25.5Y-49.46
X25.5Y-52.0
X25.5Y-54.54
X25.5Y-57.08
X45.5Y-13.9
X45.5Y-16.44
X45.5Y-18.98
X45.5Y-21.52
X45.5Y-24.06
X45.5Y-26.6
X45.5Y-29.14
X45.5Y-31.68
X45.5Y-34.22
X45.5Y-36.76
X45.5Y-39.3
X45.5Y-41.84
X45.5Y-44.38
X45.5Y-46.92
X45.5Y-49.46
X45.5Y-52.0
X45.5Y-54.54
X45.5Y-57.08
X58.0Y-13.9
X58.0Y-16.44
X58.0Y-18.98
X58.0Y-21.52
X58.0Y-24.06
X58.0Y-26.6
X58.0Y-29.14
X58.0Y-31.68
X58.0Y-34.22
X80.61Y-58.55
X80.61Y-61.09
X80.61Y-63.63
X80.61Y-66.17
X80.61Y-68.71
X80.61Y-71.25
X80.86Y-13.9
X80.86Y-16.44
X80.86Y-18.98
X80.86Y-21.52
X80.86Y-24.06
X80.86Y-26.6
X80.86Y-29.14
X80.86Y-31.68
X80.86Y-34.22
X92.68Y-13.8
X92.68Y-16.34
X92.68Y-18.88
X92.68Y-21.42
X92.68Y-23.96
X92.68Y-26.5
X95.0Y-46.88
X95.0Y-49.42
X95.0Y-51.96
X95.0Y-54.5
X95.0Y-57.04
X95.0Y-59.58
X95.0Y-62.12
X95.0Y-64.66
X113.0Y-13.8
X113.0Y-16.34
X113.0Y-18.88
X113.0Y-21.42
X113.0Y-23.96
X113.0Y-26.5
X123.46Y-32.5
X126.0Y-32.5
X128.54Y-32.5
X131.08Y-32.5
X156.92Y-20.25
X159.46Y-20.25
X162.0Y-20.25
X164.54Y-20.25
X167.08Y-20.25
X169.62Y-20.25
X172.16Y-20.25
X174.7Y-20.25
T3
X140.7Y-32.5
X145.5Y-32.5
M30
