%TF.GenerationSoftware,KiCad,Pcbnew,9.0.7*%
%TF.CreationDate,2026-03-25T19:51:49+02:00*%
%TF.ProjectId,NetPuck5G,4e657450-7563-46b3-9547-2e6b69636164,rev?*%
%TF.SameCoordinates,Original*%
%TF.FileFunction,Soldermask,Top*%
%TF.FilePolarity,Negative*%
%FSLAX46Y46*%
G04 Gerber Fmt 4.6, Leading zero omitted, Abs format (unit mm)*
G04 Created by KiCad (PCBNEW 9.0.7) date 2026-03-25 19:51:49*
%MOMM*%
%LPD*%
G01*
G04 APERTURE LIST*
G04 Aperture macros list*
%AMRoundRect*
0 Rectangle with rounded corners*
0 $1 Rounding radius*
0 $2 $3 $4 $5 $6 $7 $8 $9 X,Y pos of 4 corners*
0 Add a 4 corners polygon primitive as box body*
4,1,4,$2,$3,$4,$5,$6,$7,$8,$9,$2,$3,0*
0 Add four circle primitives for the rounded corners*
1,1,$1+$1,$2,$3*
1,1,$1+$1,$4,$5*
1,1,$1+$1,$6,$7*
1,1,$1+$1,$8,$9*
0 Add four rect primitives between the rounded corners*
20,1,$1+$1,$2,$3,$4,$5,0*
20,1,$1+$1,$4,$5,$6,$7,0*
20,1,$1+$1,$6,$7,$8,$9,0*
20,1,$1+$1,$8,$9,$2,$3,0*%
G04 Aperture macros list end*
%ADD10C,3.200000*%
%ADD11R,1.700000X1.700000*%
%ADD12C,1.700000*%
%ADD13C,2.800000*%
%ADD14RoundRect,0.250000X1.050000X1.050000X-1.050000X1.050000X-1.050000X-1.050000X1.050000X-1.050000X0*%
%ADD15C,2.600000*%
G04 APERTURE END LIST*
D10*
%TO.C,BotRight*%
X184000000Y-72000000D03*
%TD*%
%TO.C,REF\u002A\u002A*%
X184000000Y-17000000D03*
%TD*%
D11*
%TO.C,ETH_R1*%
X113000000Y-13800000D03*
D12*
X113000000Y-16340000D03*
X113000000Y-18880000D03*
X113000000Y-21420000D03*
X113000000Y-23960000D03*
X113000000Y-26500000D03*
%TD*%
D10*
%TO.C,TopLeft*%
X17500000Y-17000000D03*
%TD*%
D11*
%TO.C,BW-16_R1*%
X80860000Y-13900000D03*
D12*
X80860000Y-16440000D03*
X80860000Y-18980000D03*
X80860000Y-21520000D03*
X80860000Y-24060000D03*
X80860000Y-26600000D03*
X80860000Y-29140000D03*
X80860000Y-31680000D03*
X80860000Y-34220000D03*
%TD*%
D11*
%TO.C,ESP_R1*%
X45500000Y-13900000D03*
D12*
X45500000Y-16440000D03*
X45500000Y-18980000D03*
X45500000Y-21520000D03*
X45500000Y-24060000D03*
X45500000Y-26600000D03*
X45500000Y-29140000D03*
X45500000Y-31680000D03*
X45500000Y-34220000D03*
X45500000Y-36760000D03*
X45500000Y-39300000D03*
X45500000Y-41840000D03*
X45500000Y-44380000D03*
X45500000Y-46920000D03*
X45500000Y-49460000D03*
X45500000Y-52000000D03*
X45500000Y-54540000D03*
X45500000Y-57080000D03*
%TD*%
D11*
%TO.C,STICK1*%
X156920000Y-20250000D03*
D12*
X159460000Y-20250000D03*
X162000000Y-20250000D03*
X164540000Y-20250000D03*
X167080000Y-20250000D03*
X169620000Y-20250000D03*
X172160000Y-20250000D03*
X174700000Y-20250000D03*
%TD*%
D11*
%TO.C,ESP_L1*%
X25500000Y-13900000D03*
D12*
X25500000Y-16440000D03*
X25500000Y-18980000D03*
X25500000Y-21520000D03*
X25500000Y-24060000D03*
X25500000Y-26600000D03*
X25500000Y-29140000D03*
X25500000Y-31680000D03*
X25500000Y-34220000D03*
X25500000Y-36760000D03*
X25500000Y-39300000D03*
X25500000Y-41840000D03*
X25500000Y-44380000D03*
X25500000Y-46920000D03*
X25500000Y-49460000D03*
X25500000Y-52000000D03*
X25500000Y-54540000D03*
X25500000Y-57080000D03*
%TD*%
D10*
%TO.C,BotLeft*%
X17500000Y-72500000D03*
%TD*%
D11*
%TO.C,ETH_L1*%
X92680000Y-13800000D03*
D12*
X92680000Y-16340000D03*
X92680000Y-18880000D03*
X92680000Y-21420000D03*
X92680000Y-23960000D03*
X92680000Y-26500000D03*
%TD*%
D11*
%TO.C,MH-CD42*%
X80610000Y-58550000D03*
D12*
X80610000Y-61090000D03*
X80610000Y-63630000D03*
X80610000Y-66170000D03*
X80610000Y-68710000D03*
X80610000Y-71250000D03*
%TD*%
D11*
%TO.C,SCR1*%
X95000000Y-46880000D03*
D12*
X95000000Y-49420000D03*
X95000000Y-51960000D03*
X95000000Y-54500000D03*
X95000000Y-57040000D03*
X95000000Y-59580000D03*
X95000000Y-62120000D03*
X95000000Y-64660000D03*
%TD*%
D13*
%TO.C,BTR1*%
X145500000Y-18700000D03*
X140700000Y-18700000D03*
D14*
X145500000Y-32500000D03*
D15*
X140700000Y-32500000D03*
%TD*%
D11*
%TO.C,BW-16_L1*%
X58000000Y-13900000D03*
D12*
X58000000Y-16440000D03*
X58000000Y-18980000D03*
X58000000Y-21520000D03*
X58000000Y-24060000D03*
X58000000Y-26600000D03*
X58000000Y-29140000D03*
X58000000Y-31680000D03*
X58000000Y-34220000D03*
%TD*%
D11*
%TO.C,USB1*%
X123460000Y-32500000D03*
D12*
X126000000Y-32500000D03*
X128540000Y-32500000D03*
D11*
X131080000Y-32500000D03*
%TD*%
M02*
